<?xml version="1.0" standalone="no"?>
<!DOCTYPE svg PUBLIC "-//W3C//DTD SVG 20010904//EN"
 "http://www.w3.org/TR/2001/REC-SVG-20010904/DTD/svg10.dtd">
<svg version="1.0" xmlns="http://www.w3.org/2000/svg"
 width="1024.000000pt" height="1024.000000pt" viewBox="0 0 1024.000000 1024.000000"
 preserveAspectRatio="xMidYMid meet">

<g transform="translate(0.000000,1024.000000) scale(0.100000,-0.100000)"
fill="#000000" stroke="none">
<path d="M6246 10159 c25 -49 28 -125 9 -199 -38 -149 -125 -257 -337 -421
-70 -55 -154 -124 -186 -154 -66 -61 -82 -69 -54 -27 88 130 102 161 131 284
14 60 14 247 0 324 -11 59 -29 96 -29 59 0 -56 -53 -131 -198 -279 -157 -160
-208 -229 -253 -336 -33 -77 -54 -196 -44 -248 8 -45 8 -45 -53 48 -81 124
-213 235 -356 299 -112 51 -112 51 -46 -45 33 -48 60 -94 60 -101 0 -7 -28 15
-62 49 -95 93 -268 225 -268 204 0 -3 14 -21 31 -41 18 -20 29 -38 26 -41 -3
-3 -33 9 -68 26 -171 87 -638 242 -988 329 -215 54 -287 65 -426 65 -140 1
-175 -12 -242 -88 -92 -105 -213 -369 -289 -632 -68 -238 -87 -360 -88 -552
-1 -154 -2 -162 -18 -142 -9 11 -27 51 -39 88 l-23 67 -9 -60 c-17 -121 4
-283 52 -389 11 -27 19 -51 17 -53 -7 -7 -66 75 -92 128 l-26 54 5 -125 c7
-179 67 -410 119 -456 10 -10 18 -22 18 -27 0 -14 -36 20 -81 76 l-39 49 0
-37 c0 -51 46 -253 77 -340 37 -102 85 -194 142 -269 28 -36 47 -66 42 -66
-15 0 -166 132 -185 161 -50 80 -16 -43 45 -161 50 -96 110 -165 199 -225 38
-27 68 -50 67 -52 -12 -11 -171 54 -216 88 l-53 40 29 -53 c40 -75 153 -191
238 -243 39 -25 77 -45 84 -45 7 0 10 -4 7 -8 -8 -13 -122 5 -173 28 -24 10
-57 29 -74 41 -17 12 -32 19 -34 17 -8 -8 82 -113 127 -150 95 -78 229 -128
340 -128 107 0 -55 -50 -192 -60 l-95 -6 63 -8 c70 -10 67 -26 -4 -26 -54 0
-126 22 -177 55 -38 23 -35 20 22 -36 43 -41 90 -74 140 -98 l76 -36 153 0
c83 0 152 -1 152 -3 0 -13 -92 -36 -170 -41 l-95 -7 68 -33 c49 -24 65 -36 55
-42 -7 -5 -9 -9 -4 -9 5 0 36 20 70 43 84 60 156 101 163 93 9 -8 -93 -112
-172 -175 -33 -27 -89 -65 -125 -85 l-65 -36 43 5 c24 2 58 7 74 10 22 5 28 4
23 -4 -4 -7 9 -5 32 4 63 28 147 55 156 52 13 -4 -301 -213 -355 -236 -26 -11
-75 -25 -110 -32 l-63 -13 65 -13 c36 -6 107 -15 158 -19 50 -4 92 -10 92 -14
0 -4 30 1 67 11 37 10 68 17 71 15 7 -8 -164 -95 -253 -129 -168 -65 -309 -70
-412 -16 l-53 28 29 -42 c53 -76 167 -201 226 -247 31 -25 123 -78 204 -118
91 -45 133 -70 111 -66 -69 12 -182 55 -246 94 -36 22 -68 40 -71 40 -2 0 24
-36 58 -80 74 -97 136 -148 224 -186 102 -44 80 -79 -29 -45 -93 29 -163 34
-252 21 -100 -16 -118 -25 -68 -35 35 -6 129 -53 122 -60 -2 -2 -32 4 -68 12
-97 24 -278 22 -357 -4 -35 -12 -63 -19 -63 -16 0 9 86 41 127 48 41 6 43 9
59 58 20 64 30 229 17 277 l-10 35 -11 -40 c-12 -43 -62 -128 -83 -140 -9 -6
-10 -3 -5 11 15 37 18 162 7 228 -14 81 -34 143 -67 210 -24 49 -83 130 -90
124 -2 -2 3 -22 11 -43 16 -44 20 -205 6 -205 -5 0 -13 15 -17 33 -10 46 -120
313 -150 364 -28 49 -82 113 -94 113 -4 0 1 -17 11 -37 14 -27 19 -58 19 -116
0 -45 -4 -77 -9 -75 -23 8 -155 190 -191 263 -60 121 -83 224 -78 356 4 120 1
122 -54 41 -16 -24 -32 -41 -34 -39 -16 16 58 277 112 396 l35 76 -61 -60
c-33 -33 -77 -84 -97 -113 -20 -28 -38 -51 -39 -49 -4 3 38 170 59 237 27 83
84 234 152 398 37 90 65 165 62 168 -2 3 -34 -18 -71 -45 -36 -28 -66 -46 -66
-42 0 5 7 44 16 87 14 66 15 107 8 249 -4 94 -8 240 -8 325 l-1 155 36 75 c41
84 99 149 162 181 l42 22 -40 15 c-58 23 -325 22 -420 -1 -116 -29 -256 -77
-313 -109 -29 -17 -55 -28 -59 -25 -9 10 93 105 158 147 71 46 62 50 -37 16
-100 -34 -179 -76 -269 -144 -92 -68 -254 -231 -279 -279 -20 -40 -39 -44 -30
-5 12 50 55 150 85 197 17 26 27 50 24 53 -8 9 -236 -227 -270 -280 -62 -95
-86 -146 -64 -132 5 3 7 9 4 14 -3 4 2 10 10 13 8 4 23 24 35 47 11 22 25 40
30 40 6 0 10 5 10 12 0 11 53 66 120 123 l23 20 -16 -31 c-9 -17 -14 -34 -10
-37 3 -4 0 -28 -7 -54 -7 -26 -16 -65 -20 -85 -7 -34 -6 -36 11 -27 11 5 19
12 19 15 0 3 -5 2 -12 -2 -11 -7 41 63 70 94 7 8 25 30 40 50 42 57 164 172
175 165 6 -4 7 -1 3 6 -5 8 0 14 13 18 12 3 21 10 21 15 0 5 5 6 12 2 6 -4 8
-3 5 3 -4 6 4 18 18 27 14 9 25 14 25 10 0 -3 10 0 23 8 12 8 36 18 54 21 l32
6 -28 -54 c-16 -30 -25 -55 -21 -55 5 0 10 4 12 8 5 13 139 92 155 92 8 0 54
13 104 30 50 16 105 31 123 33 17 2 38 7 46 12 16 10 297 13 313 3 10 -6 -50
-83 -79 -100 -6 -4 -15 -19 -18 -33 -4 -14 -11 -25 -16 -25 -6 0 -10 -9 -10
-20 0 -11 -3 -20 -7 -20 -11 0 -33 -51 -27 -61 3 -5 0 -9 -5 -9 -6 0 -11 -5
-11 -11 0 -6 7 -9 15 -6 11 5 13 -2 8 -41 -12 -81 -7 -251 8 -312 18 -75 20
-224 5 -325 -21 -143 -48 -206 -122 -285 -167 -179 -228 -291 -252 -465 -6
-37 -11 -49 -23 -48 -9 2 -15 -5 -15 -16 0 -12 5 -17 16 -14 11 4 11 2 -2 -8
-16 -12 -17 -21 -7 -74 24 -139 38 -213 50 -255 6 -25 11 -55 10 -67 0 -12 4
-25 9 -28 6 -3 10 -18 10 -33 0 -15 9 -42 20 -60 23 -38 25 -46 8 -36 -7 4 -6
-1 3 -12 9 -10 26 -41 37 -67 18 -39 19 -52 10 -73 -9 -20 -9 -27 1 -33 16
-10 15 -18 -5 -38 -11 -11 -14 -26 -11 -47 3 -17 3 -25 0 -18 -2 6 -13 12 -22
12 -10 0 -30 11 -45 25 -15 14 -32 25 -38 25 -6 0 -20 8 -30 17 -18 16 -18 16
-12 0 3 -9 9 -17 13 -17 3 0 31 -23 61 -52 30 -28 100 -81 155 -117 55 -35
128 -91 162 -124 54 -52 61 -62 52 -79 -7 -14 -7 -18 -1 -14 6 3 14 1 18 -5 4
-8 3 -9 -4 -5 -7 4 -12 2 -12 -4 0 -7 -6 -8 -19 0 -17 9 -19 7 -16 -10 2 -11
0 -18 -6 -15 -5 4 -9 13 -9 21 0 8 -4 14 -10 14 -5 0 -10 -8 -10 -17 0 -10 -4
-14 -8 -8 -10 14 -49 35 -64 35 -7 0 -5 -5 4 -12 15 -12 22 -35 19 -66 -1 -9
-6 -10 -20 -2 -11 5 -40 10 -65 10 -25 0 -51 6 -59 14 -10 10 -18 11 -25 4 -6
-6 -12 -6 -17 3 -6 8 -4 10 5 4 9 -5 11 -4 6 4 -4 6 -13 8 -19 4 -17 -11 -88
-3 -119 13 -18 9 -29 11 -33 3 -5 -6 -12 -4 -22 8 -8 10 -12 12 -8 6 8 -16 -7
-17 -23 -1 -8 8 -12 9 -12 1 0 -6 -9 -9 -20 -6 -11 3 -20 9 -20 14 0 5 -7 6
-15 3 -8 -4 -21 -1 -29 5 -7 6 -15 9 -18 6 -2 -3 -26 1 -51 9 -26 8 -47 11
-47 8 0 -3 -5 -1 -12 6 -7 7 -23 12 -38 12 -17 0 -21 3 -12 9 11 7 11 9 -2 14
-9 4 -16 1 -16 -5 0 -7 -6 -4 -13 5 -6 10 -21 19 -32 21 -11 2 -33 9 -50 16
-16 6 -31 10 -33 8 -2 -2 -8 5 -13 15 -6 9 -19 17 -29 17 -11 0 -20 4 -20 9 0
5 -21 18 -47 29 -27 12 -69 41 -95 65 -26 24 -51 42 -55 38 -4 -3 -2 2 5 11
17 21 48 17 132 -17 71 -29 287 -105 297 -105 10 0 -81 57 -135 84 -40 20 -87
53 -138 95 -6 5 -22 15 -36 22 -35 19 -121 116 -113 129 3 5 0 7 -8 4 -8 -3
-22 7 -33 23 -18 27 -20 32 -23 53 0 6 -9 10 -18 10 -13 0 -14 3 -5 12 9 9 7
15 -6 25 -9 8 -11 12 -4 8 6 -3 12 -3 12 2 0 12 -20 39 -20 28 -1 -5 -10 7
-21 28 -11 20 -24 37 -29 37 -6 0 -10 9 -10 20 0 11 -4 20 -9 20 -5 0 -11 8
-15 18 -3 9 -10 24 -15 32 -5 8 -15 29 -22 45 -8 17 -18 33 -22 36 -4 3 -10
20 -12 38 -2 17 -11 38 -20 47 -8 8 -15 18 -15 22 0 4 12 -5 25 -20 13 -16 29
-28 35 -28 5 0 10 -7 10 -16 0 -9 5 -12 12 -8 7 4 8 3 4 -5 -5 -7 -16 -9 -29
-5 -20 6 -20 6 -3 -11 14 -14 22 -16 35 -8 13 8 26 7 50 -3 42 -18 44 -18 37
4 -5 14 -3 13 10 -3 16 -20 16 -20 9 3 -4 13 -20 43 -36 67 -16 24 -29 50 -29
58 0 9 -4 19 -10 22 -5 3 -10 19 -10 36 0 17 -5 29 -13 29 -9 0 -11 12 -9 39
2 24 -1 42 -9 46 -8 6 -10 4 -4 -5 5 -8 4 -11 -3 -7 -11 8 -11 25 1 44 4 6 1
14 -5 16 -7 3 -4 6 6 6 19 1 19 1 1 14 -10 8 -15 19 -11 25 4 7 2 12 -3 12 -6
0 -11 11 -11 24 0 14 -4 27 -9 30 -5 3 -7 15 -4 26 3 11 1 20 -4 20 -13 0 -15
104 -2 137 6 15 11 45 11 66 -1 20 3 37 8 37 5 0 9 21 9 48 1 55 6 89 17 117
14 36 -24 -3 -63 -63 -61 -96 -99 -194 -105 -269 -1 -18 -6 -33 -10 -33 -6 0
-34 79 -44 125 -1 6 -14 55 -28 110 -37 145 -52 323 -37 447 7 54 19 120 26
146 14 46 14 47 -5 25 -10 -13 -33 -58 -52 -100 l-33 -78 -3 -533 c-2 -520 -2
-535 19 -605 26 -88 90 -218 133 -272 49 -60 53 -71 20 -48 -40 28 -105 100
-140 153 l-29 44 -3 -173 -2 -174 31 -56 c36 -65 99 -152 142 -198 17 -18 27
-33 22 -33 -18 0 -135 72 -164 101 -90 90 37 -139 133 -239 33 -35 75 -72 93
-84 62 -38 24 -32 -59 10 -53 26 -104 61 -140 97 l-58 55 0 -71 c0 -67 2 -74
46 -142 63 -97 148 -183 255 -259 50 -34 84 -64 77 -66 -25 -5 -189 58 -256
99 -35 21 -67 39 -70 39 -15 0 140 -147 219 -209 160 -124 333 -210 462 -227
64 -9 70 -24 9 -24 -72 0 -211 26 -289 54 -37 14 -68 24 -69 23 -5 -5 136
-118 196 -157 101 -65 242 -129 348 -157 82 -22 120 -26 244 -27 144 -1 146
-1 115 -18 -66 -35 -173 -51 -291 -45 -61 4 -122 9 -136 12 -14 3 -5 -2 20
-11 65 -22 202 -29 287 -15 39 7 100 26 134 42 l64 30 -25 -26 c-83 -88 -296
-225 -350 -225 -38 0 -20 -17 31 -28 135 -31 290 -5 456 78 l112 56 -29 -35
c-15 -20 -63 -71 -105 -113 -91 -92 -87 -95 76 -41 106 35 113 39 127 73 44
106 156 243 258 316 119 85 300 151 388 142 27 -3 21 -7 -39 -26 -143 -45
-303 -147 -401 -255 -52 -57 -164 -206 -164 -218 0 -4 24 6 53 21 61 33 158
63 189 58 18 -2 10 -11 -43 -45 -82 -53 -245 -207 -309 -292 -55 -73 -65 -99
-22 -59 15 14 50 40 77 57 52 31 234 105 241 98 3 -2 -46 -37 -108 -78 -117
-77 -244 -192 -273 -248 -9 -18 -15 -35 -12 -37 2 -3 24 7 48 21 58 33 80 33
49 0 -13 -14 -21 -27 -18 -30 3 -3 34 8 69 24 71 32 178 66 185 58 3 -3 -10
-15 -28 -28 -89 -62 -266 -230 -338 -322 -21 -27 -21 -27 -1 -27 11 0 43 5 71
11 89 19 77 3 -40 -54 l-115 -55 85 -1 c92 -1 96 -11 9 -30 -94 -20 -188 -72
-283 -156 -48 -43 -92 -88 -98 -99 -10 -19 -10 -20 5 -8 9 8 22 12 29 9 7 -2
31 6 53 19 44 25 156 57 182 52 10 -2 -4 -17 -40 -41 -144 -99 -257 -312 -342
-642 -46 -182 -56 -297 -42 -480 5 -67 39 -138 98 -207 27 -31 49 -59 49 -62
0 -3 -10 -6 -22 -6 l-23 -1 24 -19 c13 -11 35 -20 50 -20 19 0 39 -15 74 -55
32 -37 69 -64 114 -87 61 -30 75 -33 148 -31 44 1 102 -5 129 -13 103 -29 216
-12 301 46 22 15 57 33 77 41 139 49 237 214 211 355 -7 42 -7 54 2 50 98 -37
291 -76 381 -76 41 0 42 0 53 -47 17 -65 55 -128 110 -180 31 -30 40 -43 28
-43 -27 0 -20 -16 26 -55 67 -58 156 -96 244 -107 172 -20 236 -21 283 -3 25
9 61 20 80 25 63 15 100 29 135 50 52 32 132 125 148 172 8 25 20 43 28 42 8
-1 34 -4 59 -7 36 -5 32 -3 -20 11 -104 29 -173 72 -113 72 15 0 48 -10 73
-21 84 -39 187 -37 293 6 29 12 19 -8 -30 -65 -27 -29 -65 -61 -87 -71 -44
-19 -42 -20 62 -40 49 -9 83 -9 154 1 87 12 95 15 187 76 53 36 107 72 120 82
24 16 24 16 12 -6 -22 -40 -99 -146 -138 -188 -35 -37 -108 -84 -132 -84 -24
0 -65 -22 -54 -28 12 -8 153 1 208 12 l30 6 -30 -14 c-16 -8 -57 -18 -90 -22
l-60 -7 55 -20 c42 -16 81 -21 167 -21 105 -1 111 -2 95 -18 -9 -9 -38 -22
-63 -30 l-46 -13 48 -75 c51 -80 69 -103 139 -183 109 -123 173 -186 183 -180
6 3 7 1 3 -5 -4 -6 4 -16 16 -23 20 -10 71 -52 129 -105 9 -7 21 -14 26 -14 6
0 9 -10 6 -22 -4 -22 -4 -23 11 -4 18 22 21 46 6 46 -5 0 -10 7 -10 15 0 8 -8
15 -17 16 -11 0 -13 3 -5 6 6 2 9 9 6 14 -3 6 -11 6 -18 2 -7 -4 -3 0 9 11
l20 19 -22 -7 c-12 -4 -24 -2 -28 4 -3 5 1 10 9 10 14 0 14 2 -1 19 -9 11 -21
17 -26 14 -5 -3 -3 -9 4 -14 8 -5 9 -9 3 -9 -20 0 -23 12 -7 36 14 23 14 24
-2 17 -12 -4 -16 -3 -11 5 3 6 2 13 -4 17 -6 4 -8 11 -5 16 3 5 -1 6 -10 3
-11 -5 -14 -2 -8 12 4 11 3 15 -4 11 -8 -5 -7 1 0 18 7 14 16 25 20 25 5 0 5
-4 2 -10 -3 -6 1 -7 10 -4 14 6 14 8 -2 20 -17 13 -17 14 -1 8 14 -5 10 11
-21 77 -21 46 -42 102 -45 124 l-6 40 22 -30 c72 -98 213 -205 251 -188 17 8
16 10 -7 42 -22 30 -86 187 -86 212 0 5 5 9 10 9 6 0 10 -7 10 -15 0 -18 12
-19 27 -4 8 8 15 4 27 -12 9 -13 16 -19 16 -13 0 6 -9 19 -20 29 -12 10 -19
24 -16 31 3 7 -2 15 -10 18 -12 4 -12 10 -4 26 8 16 8 18 -4 14 -10 -4 -16 5
-21 28 -4 18 -15 40 -24 48 -9 8 -17 27 -18 42 0 15 -8 35 -17 44 -10 9 -14
24 -11 35 4 13 2 19 -9 19 -10 0 -13 7 -11 22 3 12 -5 36 -16 55 -19 31 -19
33 -2 26 17 -6 17 -6 0 14 -9 11 -14 23 -11 26 4 4 2 12 -3 19 -6 7 -9 32 -8
55 0 24 -2 43 -6 43 -3 0 -5 13 -3 29 4 38 -22 49 -48 21 -19 -20 -44 -28 -33
-11 3 5 1 12 -4 16 -6 3 -8 11 -6 18 2 7 6 43 8 80 4 73 -7 92 -38 67 -12 -10
-15 -9 -15 8 0 12 -5 24 -11 27 -6 4 -8 14 -5 22 3 8 1 11 -4 8 -6 -3 -10 2
-11 12 0 10 -2 26 -4 35 -2 9 3 28 11 43 12 24 12 26 -2 21 -15 -6 -15 -4 0
18 10 15 12 27 6 31 -6 3 -10 15 -10 26 0 25 -5 24 -38 -6 -15 -14 -31 -24
-37 -22 -11 4 -17 107 -6 107 3 0 7 11 7 25 1 13 18 53 38 89 31 55 44 69 92
93 144 72 422 367 638 676 41 59 50 66 67 57 10 -6 28 -28 38 -49 11 -21 43
-64 72 -95 l52 -57 -36 -30 c-54 -45 -107 -123 -128 -190 -25 -81 -25 -98 0
-75 41 37 145 57 207 40 20 -5 22 -15 29 -102 8 -109 33 -224 47 -220 6 2 19
26 29 53 17 45 41 75 60 75 7 0 51 -108 85 -206 8 -25 13 -53 9 -62 -3 -8 0
-19 7 -24 9 -5 9 -8 1 -8 -6 0 -9 -9 -6 -22 3 -17 2 -19 -5 -9 -8 11 -10 11
-14 0 -3 -10 -12 -7 -35 9 l-31 22 3 -22 c1 -13 7 -35 13 -50 15 -36 4 -141
-14 -134 -8 3 -13 2 -12 -2 2 -6 -29 -78 -38 -91 -2 -1 -19 9 -38 24 -43 32
-48 17 -15 -39 11 -20 23 -55 25 -78 2 -24 10 -56 18 -73 17 -37 30 -96 18
-77 -7 10 -11 3 -17 -24 -4 -25 -3 -40 4 -42 6 -2 11 -11 11 -20 0 -9 23 -38
50 -64 28 -27 48 -53 45 -58 -3 -6 -3 -10 2 -10 4 0 7 -20 5 -44 -3 -38 -7
-44 -28 -44 -13 0 -24 4 -24 9 0 4 -13 14 -30 22 -28 14 -29 14 -21 -2 5 -9
30 -44 55 -79 25 -34 46 -66 46 -71 0 -12 81 -113 87 -107 7 7 -16 47 -64 109
-25 32 -43 60 -40 63 6 7 174 -122 236 -180 23 -22 70 -77 104 -121 33 -44 83
-106 110 -138 l49 -57 -38 0 c-52 0 -37 -10 59 -37 121 -35 181 -66 237 -123
78 -77 128 -211 114 -303 -7 -46 -46 -131 -66 -143 -8 -5 -9 -2 -3 12 25 62 7
203 -30 234 -14 12 -14 10 -4 -16 18 -45 16 -203 -3 -239 -36 -68 -115 -105
-225 -105 -63 0 -64 0 -51 23 8 13 12 58 12 112 0 73 -4 99 -22 135 -12 25
-19 36 -16 25 16 -51 16 -153 0 -207 -19 -67 -55 -101 -128 -123 -75 -22 -212
-20 -266 5 -42 19 -43 20 -28 42 17 24 21 128 6 163 -6 14 -9 2 -9 -41 -1 -74
-21 -117 -69 -149 -81 -53 -210 -57 -403 -11 -134 31 -202 57 -316 118 -175
93 -309 209 -451 387 -134 168 -204 223 -262 203 -19 -7 -32 -7 -36 -1 -3 6
-12 5 -22 -3 -13 -11 -14 -11 -7 2 7 12 6 13 -6 3 -15 -12 -63 -12 -75 0 -4 3
-19 3 -35 0 -16 -3 -35 0 -43 6 -12 10 -13 8 -9 -11 5 -23 5 -23 -10 -3 -14
19 -16 19 -22 3 -4 -10 -14 -18 -22 -18 -8 0 -12 4 -8 9 3 5 -8 9 -24 9 -18
-1 -28 -5 -24 -11 4 -6 1 -7 -8 -2 -19 12 -146 7 -172 -7 -19 -10 -20 -9 -10
3 10 12 8 15 -7 15 -10 0 -17 -4 -14 -8 2 -4 -4 -6 -13 -6 -10 0 -26 -3 -35
-7 -10 -4 -18 -3 -18 2 0 11 -130 11 -147 0 -6 -4 -13 -2 -15 4 -3 8 -13 6
-31 -6 -15 -10 -31 -15 -35 -11 -3 4 0 11 8 16 8 6 10 10 5 10 -6 0 -16 -5
-23 -12 -7 -7 -12 -9 -12 -6 0 3 -16 2 -35 -2 -20 -5 -33 -4 -29 1 3 5 0 9 -5
9 -6 0 -11 -6 -11 -12 0 -7 -5 -5 -11 5 -6 9 -15 15 -20 12 -5 -4 -7 -10 -5
-14 3 -4 -9 -7 -27 -6 -18 0 -47 -2 -64 -6 -20 -4 -31 -3 -27 2 3 6 -18 8 -53
6 -43 -3 -57 -7 -55 -18 3 -10 -2 -9 -16 4 -24 22 -33 22 -26 -1 4 -11 3 -13
-3 -5 -10 15 -95 13 -105 -1 -5 -7 -13 -4 -23 9 -16 20 -16 20 -12 -3 4 -18 3
-21 -8 -12 -18 15 -65 23 -65 10 0 -6 -22 -8 -56 -5 -38 3 -53 2 -48 -6 5 -8
1 -8 -14 0 -24 13 -43 15 -24 2 11 -7 11 -9 -2 -14 -9 -4 -16 -2 -16 3 0 5 -7
7 -15 4 -9 -4 -15 0 -16 7 0 8 -5 3 -10 -10 l-10 -25 -15 22 c-12 18 -19 20
-34 12 -10 -6 -34 -10 -52 -10 -86 0 -90 -1 -76 -18 12 -14 10 -14 -10 -3 -17
9 -31 10 -54 2 -37 -13 -41 -13 -34 -3 3 5 -2 9 -10 9 -9 0 -13 -6 -9 -15 4
-12 3 -12 -9 -3 -11 9 -16 9 -22 0 -5 -8 -3 -9 6 -4 9 5 11 4 6 -4 -6 -9 -11
-9 -22 0 -8 6 -14 8 -14 3 0 -5 -5 -2 -11 6 -8 12 -9 9 -4 -10 4 -16 3 -20 -3
-12 -5 7 -15 10 -24 7 -9 -4 -15 0 -15 10 0 9 6 14 14 11 8 -4 11 -1 8 5 -8
13 -30 6 -31 -9 -1 -7 -2 -18 -3 -24 -1 -9 -4 -9 -10 2 -6 8 -7 19 -4 25 4 5
2 6 -3 2 -5 -5 -9 -14 -9 -20 0 -7 -9 -12 -20 -12 -11 1 -24 -5 -28 -12 -6
-10 -16 -7 -41 12 -29 22 -34 24 -40 9 -4 -11 -14 -15 -31 -11 -14 2 -28 0
-31 -5 -3 -5 -12 -4 -19 2 -11 9 -20 8 -37 -5 -16 -12 -18 -16 -5 -11 11 3 16
2 12 -4 -8 -13 -35 -13 -35 -1 0 11 -39 9 -58 -3 -7 -4 -16 -5 -21 -1 -6 3
-14 -3 -20 -12 -8 -14 -13 -15 -19 -5 -7 10 -12 9 -23 -4 -8 -10 -9 -15 -4
-12 6 4 12 -3 12 -15 1 -12 -1 -17 -5 -11 -14 20 -42 24 -43 6 0 -11 -2 -13
-6 -4 -4 10 -9 8 -20 -7 -8 -12 -19 -18 -25 -15 -7 4 -6 9 2 14 8 5 8 9 -3 13
-10 4 -14 0 -12 -11 1 -9 -3 -21 -9 -25 -7 -5 -6 -7 4 -6 35 3 41 -1 34 -23
-6 -21 -6 -22 12 -4 17 18 18 18 28 -3 10 -24 29 -29 20 -6 -4 8 -1 15 5 15 6
0 11 -8 12 -17 0 -12 2 -13 6 -5 3 9 9 10 17 3 7 -6 29 -12 49 -13 29 -3 33
-6 24 -17 -10 -11 -8 -13 12 -6 21 6 23 5 18 -16 -6 -23 -5 -23 14 4 23 30 39
35 39 12 0 -8 4 -15 9 -15 5 0 17 -3 27 -7 13 -5 15 -3 9 8 -7 12 -6 12 7 1 9
-7 22 -11 29 -10 8 2 13 -5 13 -15 -2 -17 -1 -17 16 -2 10 9 24 14 30 10 6 -4
17 -2 25 5 10 9 15 7 19 -7 3 -10 15 -19 26 -20 11 -1 18 2 15 8 -4 5 1 9 10
9 12 0 15 -5 11 -16 -5 -13 -2 -15 14 -11 14 4 20 0 20 -11 0 -15 2 -15 10 -2
9 13 10 13 11 0 0 -10 3 -8 9 5 6 14 9 15 9 5 1 -9 10 -16 21 -17 13 -1 18 2
13 10 -4 8 -1 8 9 -1 12 -9 18 -10 23 -2 4 7 11 7 18 2 22 -17 49 -23 40 -9
-4 6 6 4 21 -7 16 -10 26 -13 22 -7 -4 6 6 9 31 6 24 -2 37 -8 35 -16 -2 -9 0
-10 11 -1 14 12 87 5 87 -8 0 -4 23 -6 51 -6 28 1 53 -2 55 -6 3 -5 15 -8 28
-8 12 0 28 -6 35 -12 11 -11 12 -10 6 0 -4 7 -17 17 -29 22 -17 8 -14 9 16 8
21 -1 34 -6 31 -12 -4 -5 0 -7 9 -3 9 3 21 0 27 -6 8 -8 9 -4 6 12 -3 17 -1
20 8 13 19 -14 56 -21 63 -11 3 5 13 6 22 1 9 -4 31 -7 47 -7 17 0 36 -7 43
-15 11 -13 12 -11 7 10 -6 24 -5 23 15 -5 12 -16 20 -23 17 -15 -3 11 5 15 34
16 21 1 37 -1 35 -5 -2 -3 2 -12 10 -18 9 -9 15 -9 19 -2 4 6 20 7 37 4 20 -5
28 -4 24 3 -3 6 -1 14 5 18 8 4 9 3 5 -4 -7 -12 55 -34 64 -23 9 11 70 9 64
-1 -5 -7 -1 -7 12 0 12 6 27 7 43 0 17 -6 27 -6 29 1 2 7 10 8 22 1 11 -6 42
-12 71 -13 36 -2 56 -9 65 -22 8 -11 14 -13 14 -6 0 9 9 11 30 6 20 -4 30 -3
30 5 0 9 4 9 13 3 15 -13 68 -23 62 -12 -8 11 59 6 67 -6 5 -7 13 -6 25 1 10
6 25 10 33 9 33 -6 45 -10 52 -19 4 -6 13 -4 23 4 15 12 19 12 29 0 6 -9 20
-14 32 -12 11 2 39 -3 62 -11 35 -12 43 -12 53 -1 8 10 16 11 30 3 13 -7 26
-6 40 2 12 6 19 7 16 2 -3 -4 6 -16 19 -26 17 -13 22 -14 18 -4 -8 22 28 31
43 11 10 -14 13 -14 13 -3 0 11 2 12 9 0 5 -8 16 -11 30 -6 13 4 21 2 21 -6 0
-9 4 -8 15 1 12 10 16 9 20 -2 4 -9 16 -14 30 -12 14 1 27 -2 31 -7 3 -5 12
-9 20 -9 9 0 12 5 8 11 -3 6 5 3 20 -6 16 -11 26 -13 26 -6 0 7 8 6 23 -4 13
-8 27 -12 30 -9 4 4 13 1 22 -6 11 -9 15 -9 15 -1 0 9 5 9 22 0 12 -7 38 -13
57 -15 79 -6 141 -17 141 -25 0 -4 8 -6 18 -4 9 1 26 -1 37 -5 11 -4 40 -11
65 -14 25 -3 99 -18 165 -32 228 -49 254 -52 576 -58 291 -6 325 -5 450 15 73
12 144 22 157 23 12 0 22 3 22 6 0 3 10 6 23 6 69 5 133 17 143 27 4 4 15 7
24 7 9 0 26 9 38 20 12 11 25 20 31 20 5 0 28 18 51 41 23 23 44 38 47 35 4
-3 13 0 22 7 28 24 49 27 54 9 3 -12 5 -11 6 6 1 21 10 26 39 23 6 -1 12 3 12
9 0 5 9 10 21 10 13 0 18 -4 13 -13 -5 -8 -2 -8 9 2 19 15 23 26 5 15 -7 -4
-8 -3 -4 5 6 9 11 9 22 0 11 -9 14 -8 14 7 0 16 2 17 10 4 9 -13 13 -12 26 5
16 20 16 20 9 -3 l-7 -24 21 21 c12 12 27 19 33 15 16 -10 67 -11 61 -1 -6 9
1 9 31 -3 28 -10 33 -2 14 20 -11 12 -10 12 3 2 26 -20 59 -23 59 -6 0 8 5 14
11 14 5 0 8 -4 5 -9 -3 -5 1 -12 10 -15 8 -3 12 -2 9 4 -12 19 5 29 34 20 16
-4 33 -4 38 1 4 4 19 3 33 -4 21 -11 27 -11 36 2 6 8 21 15 32 16 18 1 20 -1
9 -13 -10 -13 -9 -14 11 -3 12 6 22 9 22 6 0 -3 8 -2 17 4 13 7 23 5 37 -7 11
-9 16 -11 12 -4 -7 11 5 15 56 15 10 0 15 3 13 7 -8 13 32 19 44 7 8 -8 11 -7
11 1 0 7 6 12 13 10 6 -1 30 4 52 12 46 16 84 19 91 8 5 -8 44 11 56 27 4 6 8
2 8 -8 0 -10 5 -15 10 -12 6 4 8 11 5 16 -7 10 23 8 41 -4 7 -4 17 0 24 8 7 8
16 12 21 9 5 -3 12 2 15 10 3 9 10 13 15 10 5 -3 9 0 9 7 0 10 3 10 12 1 16
-16 28 -15 28 2 0 8 11 14 26 14 14 0 33 8 42 18 16 17 16 17 0 5 -20 -15 -73
-7 -63 9 4 6 10 8 15 5 5 -3 11 -1 15 5 4 6 11 8 16 5 5 -4 9 1 9 9 0 9 5 16
10 16 6 0 10 -5 10 -12 0 -6 2 -9 5 -6 3 3 3 13 -1 22 -5 13 -9 14 -21 4 -11
-9 -16 -9 -23 2 -5 8 -6 18 -3 23 3 5 9 3 14 -4 5 -8 9 -9 9 -3 0 6 -3 14 -7
17 -9 10 -34 -13 -27 -25 3 -5 -2 -16 -12 -24 -18 -14 -17 -14 5 -4 19 10 22
9 19 -2 -5 -15 -26 -18 -50 -6 -12 6 -20 3 -27 -11 -12 -21 -41 -36 -41 -21 0
6 6 10 14 10 16 0 29 27 19 42 -3 7 -1 8 5 4 7 -4 12 -1 12 9 0 9 -4 14 -9 11
-5 -3 -15 2 -22 12 -13 15 -12 16 4 3 15 -12 17 -12 11 3 -5 13 -14 16 -30 12
-16 -4 -24 -2 -24 6 0 10 -2 10 -8 1 -6 -9 -17 -9 -49 2 -23 8 -49 12 -57 9
-8 -3 -17 -1 -20 4 -3 5 29 10 77 11 91 2 120 15 58 25 -22 3 -82 27 -133 53
-72 37 -111 66 -175 129 -46 44 -83 86 -83 93 0 6 25 -3 58 -20 31 -18 86 -48
122 -68 94 -52 208 -91 305 -106 17 -2 54 -9 84 -15 118 -23 341 -3 465 41 44
16 88 22 170 24 218 5 356 63 427 179 40 64 50 44 13 -24 -64 -118 -229 -190
-436 -190 -58 0 -108 -5 -121 -12 -12 -6 -71 -24 -132 -39 -60 -15 -97 -28
-81 -28 44 -1 217 29 256 44 19 7 78 16 131 19 93 6 194 32 265 69 83 43 174
161 174 226 0 13 19 61 42 105 36 71 42 91 46 162 10 182 -85 356 -243 442
-33 18 -79 48 -102 67 -53 42 -134 72 -232 87 -62 10 -88 20 -142 55 -36 23
-108 65 -160 93 -100 53 -107 59 -40 35 38 -13 41 -13 32 3 -12 21 -82 88
-136 129 -56 43 -149 96 -218 124 -32 13 -63 31 -68 41 -6 10 -34 32 -63 48
-29 17 -61 39 -71 49 -16 19 -16 19 7 14 12 -3 51 -18 86 -34 70 -31 74 -28
42 47 -30 69 -101 165 -167 223 -47 42 -55 54 -43 61 8 5 20 10 26 10 37 0
138 109 120 128 -3 3 -6 0 -6 -6 0 -20 -62 -82 -101 -103 -40 -20 -80 -23
-114 -9 -18 7 -17 8 10 15 30 8 105 42 105 49 0 2 -19 0 -42 -5 -91 -17 -182
-9 -307 30 -50 15 -49 7 0 -25 76 -47 145 -121 172 -182 29 -65 43 -122 30
-122 -5 0 -66 29 -136 63 -70 35 -127 63 -127 63 0 -1 10 -26 21 -56 31 -78
38 -235 14 -315 -9 -33 -26 -78 -38 -100 l-21 -40 -8 66 c-8 70 -44 181 -84
262 -14 26 -26 47 -28 47 -2 0 -1 -51 2 -113 6 -138 -11 -210 -71 -315 -43
-76 -169 -230 -175 -214 -1 5 1 51 7 103 5 51 6 99 3 107 -3 8 -20 -25 -38
-74 -37 -99 -72 -153 -153 -238 -52 -54 -228 -182 -238 -172 -2 2 4 21 15 43
49 97 89 263 64 263 -5 0 -14 -19 -21 -42 -16 -56 -73 -159 -123 -227 -71 -94
-294 -341 -309 -341 -5 0 5 53 36 178 4 15 11 22 20 19 7 -3 19 1 25 9 7 8 19
14 27 14 13 0 13 3 3 15 -11 13 -10 15 1 11 21 -8 56 21 42 35 -8 8 -7 21 3
46 11 25 11 33 3 27 -9 -5 -10 -2 -6 10 4 10 3 15 -3 11 -5 -3 -13 7 -16 22
-4 15 -16 40 -27 55 -11 14 -17 31 -13 36 7 12 -20 10 -31 -3 -4 -4 -2 -5 6 0
10 6 12 2 6 -16 -4 -14 -3 -19 2 -12 6 9 12 7 21 -7 9 -15 9 -21 -2 -27 -8 -4
-16 -20 -18 -35 -2 -15 -8 -31 -13 -35 -4 -4 -5 -2 -1 5 4 6 3 12 -3 12 -5 0
-12 -6 -15 -12 -3 -7 -4 -4 -3 7 1 14 -4 20 -18 20 -14 0 -19 -6 -17 -19 6
-33 -29 -178 -55 -229 -26 -52 -116 -147 -140 -147 -18 0 -17 25 2 40 8 7 15
25 15 41 0 16 5 29 11 29 5 0 7 -5 4 -11 -4 -6 2 -5 13 2 30 19 78 105 102
184 17 57 19 74 9 97 -12 30 -29 37 -29 13 0 -8 -5 -15 -11 -15 -5 0 -7 -5 -3
-12 4 -6 0 -16 -8 -22 -15 -11 -18 -17 -18 -36 0 -5 -9 -10 -20 -10 -12 0 -31
-7 -44 -15 -13 -9 -35 -14 -49 -11 -20 3 -24 1 -20 -15 3 -11 9 -22 14 -25 5
-3 9 -13 9 -22 -1 -9 -14 7 -29 37 -24 47 -28 67 -31 160 -3 131 -3 126 5 241
l8 95 46 -42 c51 -47 99 -70 106 -50 2 7 6 47 8 89 9 133 28 138 59 15 20 -77
93 -237 108 -237 16 0 12 13 -24 97 -51 120 -70 205 -69 308 1 50 9 112 17
140 8 27 14 51 11 53 -6 6 -64 -77 -91 -131 -29 -56 -51 -140 -57 -220 -3 -32
-7 -61 -10 -63 -6 -6 -105 102 -140 152 -40 60 -94 199 -107 277 -10 65 -6
119 16 196 6 21 5 23 -17 16 -84 -26 -136 -67 -180 -140 l-23 -39 -9 39 c-10
50 7 148 35 192 10 18 37 48 59 66 l39 34 -47 -3 c-27 -2 -92 -5 -145 -7 -74
-3 -106 -9 -138 -26 -23 -12 -45 -20 -47 -17 -10 10 57 104 105 149 27 24 65
50 85 56 20 7 37 16 37 21 0 4 -16 21 -35 37 -20 15 -55 45 -78 65 l-42 37 38
1 39 0 -21 34 c-12 18 -21 41 -21 50 0 15 4 14 40 -4 178 -91 634 -221 875
-249 149 -18 444 -31 545 -26 200 12 424 65 506 121 20 14 39 23 42 20 3 -3
11 -1 19 6 11 9 13 6 8 -20 -5 -30 -3 -32 22 -32 16 0 35 -5 43 -10 13 -8 12
-11 -4 -23 -19 -14 -18 -15 10 -29 18 -8 28 -20 26 -31 -2 -9 3 -17 11 -17 8
0 24 -9 37 -20 51 -45 134 -24 218 54 35 32 72 94 72 121 0 13 -6 12 -42 -6
-49 -25 -91 -22 -164 11 -44 20 -47 23 -30 33 91 57 113 84 49 61 -21 -7 -56
-13 -78 -13 -48 0 -150 31 -150 44 1 9 36 126 41 133 1 2 19 -4 40 -13 68 -29
182 -45 307 -44 67 0 131 4 142 8 17 7 12 12 -35 36 -30 15 -85 52 -122 82
-38 29 -68 49 -68 43 0 -5 3 -10 8 -10 4 0 20 -18 36 -40 17 -22 49 -48 77
-62 27 -12 49 -27 49 -32 0 -11 -211 -1 -289 14 -79 15 -150 50 -206 103 -27
26 -50 47 -52 47 -6 0 13 -39 39 -76 50 -74 40 -82 -68 -64 -74 13 -129 35
-176 72 -46 35 -48 27 -7 -36 16 -27 29 -50 27 -51 -2 -2 -37 6 -78 17 -69 19
-125 47 -142 72 -4 6 -10 8 -13 4 -3 -3 10 -26 30 -52 19 -25 32 -46 27 -46
-4 0 -49 9 -100 19 -59 13 -112 18 -146 14 -29 -3 -107 -2 -172 2 l-119 8 29
21 c44 31 116 97 116 106 0 4 -28 -7 -63 -26 -93 -49 -163 -64 -301 -64 l-120
0 42 40 c39 37 80 100 67 100 -4 0 -25 -13 -48 -28 -23 -15 -55 -34 -72 -41
-38 -16 -162 -40 -170 -33 -3 3 23 31 57 63 35 31 61 59 58 62 -3 3 -36 -10
-75 -28 -114 -56 -185 -68 -348 -62 -140 5 -187 12 -187 27 0 4 12 11 28 15
29 7 162 86 162 95 0 4 9 16 20 28 27 29 16 28 -73 -8 -116 -46 -182 -60 -292
-60 -117 0 -175 8 -175 24 0 31 -54 120 -109 178 -113 121 -271 175 -481 165
-77 -3 -128 -12 -190 -32 -100 -32 -148 -30 -268 14 -72 26 -162 74 -162 86 0
3 40 3 88 -1 100 -7 196 5 286 38 l58 21 -63 29 c-77 35 -109 44 -109 30 0
-16 -62 6 -82 30 -10 11 -22 17 -27 14 -20 -13 -21 14 -1 34 11 11 16 20 11
20 -6 0 -13 -5 -16 -10 -4 -6 -10 -8 -14 -5 -5 2 -49 -9 -100 -26 -72 -24 -91
-35 -91 -50 0 -10 6 -19 14 -19 7 0 19 -7 26 -15 7 -9 23 -13 36 -11 13 3 24
0 24 -5 0 -5 11 -7 24 -3 14 3 27 1 31 -7 6 -9 -7 -11 -59 -5 -95 10 -119 20
-113 51 2 14 0 28 -4 31 -13 8 -11 24 4 28 64 20 106 40 100 49 -3 5 -1 7 5 4
18 -12 41 3 34 21 -5 15 -4 15 14 2 17 -12 17 -12 6 0 -7 8 -18 15 -25 15 -7
1 -11 6 -9 13 1 9 -6 11 -25 6 -22 -4 -25 -3 -13 5 8 6 28 11 44 11 43 0 22
14 -26 16 -22 1 -44 7 -48 14 -4 6 -23 10 -43 8 -44 -3 -54 6 -36 29 12 15 12
16 -3 10 -11 -4 -18 -2 -18 6 0 9 20 13 68 13 66 0 195 28 266 58 20 8 37 14
39 13 1 -1 18 9 37 23 19 14 48 32 65 41 16 9 32 24 33 34 3 15 -2 17 -32 13
-20 -2 -37 -1 -38 3 -7 18 -372 -62 -439 -97 -28 -14 -52 -2 -33 16 16 15 158
62 289 96 72 18 126 34 120 35 -5 1 -13 1 -17 0 -12 -2 -10 17 2 24 17 10 11
35 -8 35 -10 0 -24 6 -31 13 -10 9 -12 9 -7 0 4 -8 -2 -7 -21 2 -15 8 -35 15
-45 15 -9 0 -18 4 -20 10 -2 8 -27 16 -60 19 -9 1 37 51 46 51 7 0 67 40 76
51 3 3 12 9 20 13 9 3 6 5 -7 2 -12 -2 -23 0 -25 5 -2 4 -45 9 -96 11 -52 1
-96 6 -99 11 -2 4 -9 5 -14 1 -5 -3 -8 0 -7 8 2 7 -3 12 -9 11 -7 -2 -13 6
-13 16 0 15 -5 18 -22 13 -15 -4 -19 -2 -14 7 6 8 2 11 -10 9 -12 -2 -18 2
-16 10 1 8 -2 11 -8 7 -5 -3 -13 1 -16 10 -4 9 -13 14 -20 11 -32 -12 2 29 49
59 30 19 37 39 10 31 -39 -12 -73 -14 -68 -5 4 5 -1 9 -9 9 -8 0 -17 -4 -20
-8 -15 -25 -112 23 -103 51 2 7 29 30 60 51 31 22 55 41 53 43 -2 2 -25 -1
-52 -8 -74 -17 -78 -17 -86 -5 -4 6 -8 22 -8 35 0 21 -2 22 -17 10 -16 -13
-16 -11 1 15 12 19 13 26 5 21 -8 -3 -5 1 5 9 11 9 25 16 31 16 7 0 20 10 31
21 l19 21 -45 -7 c-25 -3 -53 -9 -62 -11 -26 -8 -22 11 8 41 14 14 25 28 23
30 -11 10 -79 11 -84 1 -4 -8 -7 -8 -11 1 -3 7 -13 9 -22 6 -14 -6 -15 -4 -5
9 7 8 10 18 6 21 -3 4 0 7 8 8 8 1 3 4 -11 8 -22 6 -25 13 -28 55 -2 36 0 46
9 40 8 -5 9 -3 5 5 -6 9 -13 8 -29 -6 -21 -18 -21 -18 -7 2 21 28 33 36 49 30
12 -5 12 -3 0 12 -8 10 -18 21 -24 25 -7 5 -6 8 1 8 5 0 15 -5 22 -12 21 -21
13 7 -8 30 -12 12 -16 22 -11 22 5 0 13 -5 16 -10 4 -6 11 -7 17 -4 6 4 5 9
-3 15 -11 6 -10 9 4 15 9 3 17 13 17 21 0 8 5 11 10 8 6 -3 10 -2 10 3 0 16
129 34 287 39 214 6 194 2 178 33 -12 23 -12 27 1 27 8 0 14 -7 15 -16 1 -9 5
-5 9 9 6 19 8 20 9 6 1 -12 6 -16 17 -12 9 3 20 6 25 6 5 0 9 8 9 18 0 10 5
23 11 29 21 21 55 -10 94 -86 25 -49 60 -97 99 -135 33 -33 52 -56 41 -52 -25
10 -245 21 -245 13 0 -4 19 -16 43 -28 23 -12 67 -39 97 -59 46 -31 128 -71
215 -105 16 -6 11 -11 -32 -24 -81 -25 -83 -33 -16 -71 70 -40 135 -89 129
-99 -3 -4 15 -29 40 -55 24 -26 47 -60 50 -74 4 -15 36 -57 72 -94 l66 -68
-44 -1 -45 0 60 -22 c74 -27 105 -46 87 -53 -15 -7 28 -44 50 -44 8 0 52 -13
98 -29 80 -28 100 -30 340 -40 302 -13 420 -13 375 -1 -16 5 -79 14 -140 20
-321 32 -398 41 -442 50 -132 30 -264 162 -307 309 -18 62 -21 121 -6 121 6 0
10 14 10 30 0 36 26 203 39 245 6 22 9 4 9 -70 0 -186 55 -320 182 -446 60
-58 98 -86 171 -122 132 -66 198 -81 349 -81 109 0 135 4 203 27 42 15 96 39
120 53 114 70 240 236 282 368 13 40 13 39 14 -49 1 -49 -5 -123 -13 -162 -17
-89 -4 -86 25 5 27 84 37 293 20 412 -22 149 -68 302 -131 434 -69 146 -211
270 -394 346 -120 50 -216 65 -364 56 -64 -4 -125 -7 -134 -7 -10 0 -18 -6
-18 -12 0 -7 -4 -6 -10 3 -6 10 -10 11 -10 3 0 -7 -9 -13 -21 -13 -11 0 -17
-4 -14 -10 3 -5 -4 -11 -17 -11 -13 -1 -37 -2 -54 -3 -17 -1 -45 -12 -62 -25
-18 -12 -32 -20 -32 -16 0 7 -59 -23 -77 -39 -7 -6 -33 -27 -58 -46 -25 -19
-45 -40 -45 -45 0 -6 -8 -18 -17 -27 -45 -43 -68 -69 -68 -76 -1 -14 -20 -39
-40 -50 -18 -10 -16 -11 16 -12 19 0 40 4 47 10 7 5 5 2 -3 -7 -9 -11 -35 -18
-73 -21 -49 -3 -70 1 -121 23 -34 16 -73 42 -86 59 -13 17 -26 28 -30 25 -12
-12 61 -132 106 -174 51 -48 50 -50 -33 -60 -65 -8 -150 7 -197 36 -33 20 -33
20 -15 42 l19 22 -23 -19 c-12 -11 -23 -17 -25 -15 -1 2 -9 12 -16 22 -12 15
-12 17 3 11 9 -3 16 -2 16 4 0 5 -7 12 -15 16 -17 6 -21 36 -5 36 6 0 10 -7
10 -16 0 -8 5 -12 10 -9 8 5 7 11 -1 21 -6 8 -8 14 -4 14 4 0 3 6 -3 13 -6 6
-11 17 -12 22 -3 17 -10 19 -10 4 0 -8 5 -20 11 -26 7 -7 6 -12 -5 -16 -10 -4
-13 -1 -9 9 3 7 0 14 -6 14 -6 0 -8 7 -4 17 4 11 3 14 -5 9 -7 -4 -12 -2 -12
4 0 6 6 10 13 9 26 -3 35 2 33 19 -1 11 5 16 19 15 11 -1 14 0 7 3 -6 3 -10 9
-8 13 3 4 1 13 -5 21 -7 12 -9 10 -9 -7 0 -40 -37 -11 -41 32 0 6 -5 15 -11
22 -5 7 -6 18 -2 24 5 8 2 10 -8 7 -11 -5 -14 0 -10 18 2 13 9 24 14 24 5 0 6
-5 2 -12 -5 -7 -3 -8 5 -3 9 5 10 10 2 18 -8 8 -3 19 16 39 15 15 23 28 18 28
-4 0 2 8 13 18 12 11 26 30 32 43 l11 24 -5 -25 c-5 -24 -4 -24 9 -6 18 23 19
33 5 41 -6 4 -7 11 -4 17 4 7 2 8 -5 4 -6 -4 -8 -13 -5 -19 4 -7 4 -9 0 -5 -5
4 -19 3 -31 -2 -16 -6 -25 -5 -28 3 -3 9 -8 8 -21 -2 -14 -12 -19 -12 -26 -1
-4 7 -15 10 -23 7 -18 -7 -52 33 -48 57 4 24 26 47 37 38 5 -4 3 0 -4 10 -10
12 -10 18 -1 24 8 5 10 3 4 -7 -5 -8 -4 -10 0 -6 5 4 10 13 11 20 1 7 5 21 9
32 l8 20 -17 -20 c-11 -14 -15 -15 -14 -5 2 10 -6 16 -22 17 -14 0 -29 1 -34
2 -5 1 -1 11 10 23 13 16 14 19 2 10 -11 -9 -18 -10 -23 -2 -3 5 -11 10 -18
10 -6 0 -2 -7 9 -16 16 -13 16 -15 2 -10 -10 3 -21 -2 -27 -12 -5 -9 -13 -13
-17 -9 -5 5 -2 12 6 17 16 10 25 60 11 60 -6 0 -8 7 -4 16 5 13 2 15 -15 10
-12 -4 -29 -3 -38 2 -15 8 -14 11 8 26 14 9 30 27 36 40 6 13 20 27 32 31 16
5 19 10 10 20 -7 8 -9 18 -6 24 4 5 -3 7 -16 3 -14 -3 -19 -2 -14 6 4 7 3 12
-3 12 -5 0 -13 -5 -16 -10 -4 -6 -15 -8 -26 -5 -11 4 -19 2 -19 -5 0 -6 -5 -8
-11 -4 -7 4 -7 9 -2 13 18 11 20 36 4 49 -14 12 -14 13 2 8 11 -3 17 0 17 9 0
8 5 15 10 15 6 0 10 7 10 16 0 8 5 12 10 9 6 -3 10 1 10 10 0 9 4 14 8 11 4
-2 9 4 9 15 1 15 -2 18 -10 11 -20 -15 -71 20 -75 51 -2 15 -9 27 -15 27 -7 0
-4 5 6 11 9 5 17 19 17 29 0 11 4 20 9 20 5 0 12 9 16 19 3 10 27 35 52 55 25
20 42 37 37 38 -35 6 -71 4 -80 -3 -13 -10 -44 -2 -44 12 0 5 5 9 11 9 5 0 15
13 20 29 7 21 36 46 97 87 106 70 99 63 82 74 -15 9 -33 3 -26 -8 2 -4 -6 -7
-17 -7 -12 -1 -40 -4 -62 -8 -37 -7 -38 -6 -17 6 l23 13 -28 12 c-26 11 -27
11 -9 -3 11 -8 15 -15 9 -15 -7 0 -14 4 -18 10 -3 5 -13 6 -22 3 -12 -5 -10 0
5 15 12 12 25 22 28 21 3 0 13 8 22 19 9 10 36 29 59 42 24 13 45 31 48 39 3
9 28 31 55 49 28 17 50 37 50 42 0 18 -29 23 -47 9 -9 -8 -18 -13 -20 -11 -1
1 -5 1 -8 1 -3 -1 -13 -2 -22 -3 -10 -1 -24 -5 -30 -9 -7 -5 -13 -6 -13 -2 0
3 -10 1 -21 -6 -21 -11 -31 -13 -99 -24 -31 -5 -32 -5 -15 6 11 7 23 18 27 24
4 7 21 18 38 25 39 16 38 28 -2 24 -131 -11 -211 -13 -199 -5 8 5 20 7 28 4 7
-3 13 0 13 5 0 6 -12 12 -27 14 -19 2 -29 9 -30 23 l-3 20 9 -20 c8 -17 10
-18 10 -2 1 9 5 17 11 17 5 0 7 6 4 13 -2 7 5 22 16 34 11 12 20 29 20 38 0
19 0 19 -39 -1 -21 -11 -36 -13 -42 -7 -13 13 211 127 336 173 50 17 99 36
110 41 11 4 58 23 105 41 l85 33 -97 3 c-63 2 -98 7 -98 14 0 7 -23 9 -72 5
-66 -5 -71 -5 -47 8 14 8 86 34 160 59 267 90 539 200 539 218 0 12 -102 6
-119 -7 -11 -7 -13 -7 -7 3 5 8 0 12 -16 13 -45 1 -169 30 -213 49 -223 94
-359 201 -427 335 -12 22 -31 54 -44 71 -13 17 -24 36 -24 41 0 8 -97 176
-138 239 -166 255 -397 461 -657 586 -112 53 -87 64 42 18 48 -17 99 -34 113
-37 14 -3 34 -12 45 -19 11 -8 32 -14 47 -14 15 0 30 -4 33 -10 3 -5 21 -10
38 -10 18 0 80 -18 137 -40 58 -22 109 -40 113 -40 4 0 -5 11 -20 25 -24 21
-26 24 -9 25 47 0 261 -117 330 -182 11 -10 25 -17 31 -15 5 2 30 -14 55 -36
76 -66 84 -67 59 -5 -11 29 -27 66 -35 82 -18 36 -15 39 20 21 16 -8 34 -15
41 -15 7 0 55 -21 106 -47 74 -36 110 -63 171 -123 63 -62 76 -72 71 -51 -3
14 -10 32 -16 39 -6 8 -6 12 2 12 6 0 11 7 11 15 0 9 6 12 18 8 17 -7 87 -50
109 -68 69 -56 149 -132 198 -188 33 -37 72 -81 88 -98 15 -17 27 -35 27 -41
0 -6 12 -27 27 -47 26 -34 43 -62 107 -182 14 -26 32 -54 41 -62 11 -11 12
-22 6 -39 -6 -13 -10 -17 -10 -10 -1 6 -8 12 -16 12 -17 0 -107 41 -116 53 -3
4 -10 7 -15 6 -15 -5 -54 12 -54 22 0 5 -5 9 -12 9 -26 0 41 -53 115 -90 51
-26 92 -40 117 -40 21 0 50 -4 65 -10 18 -7 31 -6 45 3 16 9 24 9 40 0 16 -11
18 -10 14 2 -4 10 0 13 15 10 12 -2 21 0 21 4 0 7 18 17 91 51 15 7 36 9 47 6
16 -5 25 0 38 19 9 14 25 25 35 25 10 0 21 5 25 12 5 7 3 8 -7 3 -12 -8 -12
-6 0 8 7 9 25 17 40 18 l26 1 -25 8 -25 7 29 4 c39 5 45 38 8 40 -15 1 7 7 48
14 41 7 78 11 83 8 4 -2 7 1 7 6 0 6 -12 11 -27 12 -26 1 -27 1 -5 7 13 4 22
12 20 17 -2 6 17 13 42 16 43 6 43 6 10 9 l-35 2 35 8 c19 5 36 13 38 19 2 6
12 11 22 11 10 0 21 6 23 13 4 9 6 9 6 0 1 -8 14 -5 39 9 20 12 39 25 42 28 6
6 80 42 98 47 6 2 19 4 28 6 8 2 19 9 24 16 4 8 13 10 20 6 8 -5 11 -4 7 2 -4
5 -21 11 -39 12 -52 3 -58 4 -58 8 0 8 25 29 43 36 11 4 15 12 11 19 -5 9 -3
9 9 -1 9 -7 17 -9 17 -4 0 18 129 69 270 109 76 21 339 61 490 74 69 6 132 13
140 15 8 2 69 6 135 9 66 4 146 9 179 12 32 4 56 2 53 -2 -6 -10 120 -9 194 0
96 13 165 20 196 19 18 0 30 4 26 10 -3 5 3 6 15 3 11 -4 23 -2 27 4 5 8 11 8
20 0 7 -6 20 -8 29 -4 9 3 16 1 16 -5 0 -15 -86 -101 -133 -131 -24 -16 -35
-30 -31 -40 4 -12 3 -13 -7 -2 -7 6 -17 12 -22 12 -5 0 -1 -7 7 -16 16 -16 13
-34 -5 -34 -6 0 -7 6 -4 13 4 6 1 5 -7 -4 -7 -8 -22 -21 -33 -27 -17 -11 -14
-12 20 -8 59 6 157 37 181 57 8 6 14 4 18 -6 3 -9 2 -13 -4 -10 -6 3 -10 2
-10 -3 0 -14 -115 -121 -132 -122 -8 0 -20 -10 -70 -54 -13 -11 -26 -22 -28
-23 -3 -1 -25 -11 -50 -22 l-45 -21 79 0 c44 0 130 9 192 21 96 18 123 20 175
10 78 -13 209 -53 209 -62 0 -4 -15 -9 -32 -11 l-33 -4 28 -13 c21 -11 27 -21
27 -45 0 -26 5 -34 31 -43 17 -7 28 -16 25 -21 -3 -6 5 -13 18 -16 18 -4 22
-11 19 -30 -4 -21 -13 -26 -66 -35 -63 -12 -225 -9 -246 3 -6 4 -11 4 -11 1 0
-3 53 -31 118 -61 208 -98 285 -138 329 -171 24 -18 46 -33 49 -33 4 0 36 -21
73 -47 36 -25 92 -64 124 -87 36 -24 66 -55 78 -78 23 -44 24 -62 5 -55 -8 3
-16 2 -18 -3 -2 -5 -32 4 -68 20 -86 39 -112 39 -68 2 18 -16 53 -41 78 -55
25 -15 41 -27 35 -27 -5 0 4 -8 22 -16 18 -9 36 -28 42 -45 5 -16 14 -29 20
-29 6 0 50 -38 98 -85 80 -77 86 -85 61 -85 -15 0 -38 4 -52 10 -21 8 -26 7
-26 -7 0 -9 3 -14 6 -10 9 9 54 -60 54 -83 0 -14 -5 -18 -17 -13 -12 4 -10 -1
7 -17 l25 -22 -25 7 c-36 10 -150 87 -184 124 -17 17 -35 31 -40 31 -6 0 -2
-7 8 -15 11 -8 16 -15 10 -15 -5 0 -5 -3 1 -8 6 -4 33 -41 60 -82 28 -41 53
-76 58 -78 4 -2 7 -9 7 -15 0 -7 14 -26 30 -44 17 -18 30 -35 30 -39 0 -3 17
-27 39 -53 34 -41 46 -69 54 -121 1 -8 9 -21 17 -28 13 -11 12 -12 -7 -7 -13
4 -33 3 -45 -1 -21 -6 -21 -7 -3 -20 10 -7 22 -11 28 -7 6 3 7 1 3 -5 -5 -9
-13 -9 -26 -2 -54 29 -39 3 55 -94 47 -48 85 -94 85 -101 0 -8 -9 -19 -20 -25
-11 -6 -20 -8 -20 -4 0 3 -7 0 -16 -7 -14 -11 -18 -10 -30 6 -8 10 -14 14 -14
7 0 -6 -8 -9 -17 -6 -14 5 -15 4 -4 -4 10 -7 10 -11 1 -14 -11 -3 13 -51 48
-93 4 -5 17 -26 28 -45 10 -19 24 -38 29 -42 6 -4 6 -8 1 -8 -5 0 -3 -7 4 -15
10 -12 9 -15 -5 -15 -11 0 -15 -5 -11 -16 3 -8 2 -12 -4 -9 -6 3 -10 0 -10 -7
0 -10 -3 -9 -10 2 -8 12 -10 12 -16 -3 -3 -9 -11 -14 -18 -10 -6 3 -8 3 -4 -2
4 -4 2 -15 -5 -23 -8 -11 -8 -14 0 -9 6 4 13 4 16 0 2 -5 2 -2 1 5 -2 6 0 12
5 12 5 0 11 -11 13 -25 3 -13 1 -22 -3 -19 -12 7 -11 -3 1 -27 6 -10 13 -40
15 -65 3 -25 7 -49 10 -54 3 -4 -9 -13 -27 -19 -39 -14 -41 -14 -32 1 5 7 3 8
-5 3 -7 -4 -11 -18 -8 -31 5 -29 3 -30 -22 -3 l-20 22 2 -24 c0 -13 5 -27 10
-30 5 -4 11 -17 12 -30 1 -13 3 -30 4 -37 0 -7 5 -11 10 -8 5 4 7 -3 4 -14 -3
-11 -9 -20 -14 -20 -5 0 -6 8 -3 18 5 14 4 15 -5 2 -15 -21 -14 -28 7 -33 9
-2 5 -4 -9 -3 -22 2 -25 -1 -21 -23 4 -19 2 -23 -11 -18 -11 4 -14 2 -10 -8 4
-11 10 -12 23 -5 25 13 40 12 17 -1 -13 -7 -15 -14 -8 -23 7 -8 6 -17 -1 -26
-8 -13 -9 -12 -5 2 3 9 0 19 -8 21 -16 7 -53 -18 -42 -29 4 -4 7 -2 7 4 0 7 5
12 10 12 10 0 4 -60 -7 -70 -3 -3 -3 5 0 18 4 17 1 22 -13 22 -17 0 -17 -2 -4
-29 16 -31 10 -63 -11 -55 -7 3 -15 -2 -18 -10 -4 -9 -12 -14 -19 -12 -7 1
-10 1 -5 -1 4 -3 7 -9 7 -14 0 -6 9 -19 20 -31 21 -23 29 -51 8 -30 -19 19
-30 14 -18 -8 8 -15 8 -20 -2 -20 -9 0 -9 -3 2 -10 10 -6 11 -10 3 -10 -7 0
-13 -7 -13 -16 0 -13 -3 -14 -13 -5 -8 6 -17 9 -20 6 -4 -3 -5 -2 -2 1 5 8
-20 34 -32 34 -5 0 -24 15 -43 34 -56 54 -140 91 -253 111 -15 3 -53 12 -85
21 -124 33 -319 9 -429 -52 -87 -48 -206 -159 -287 -267 -48 -66 -133 -231
-165 -322 -68 -199 -82 -407 -36 -554 14 -44 31 -83 37 -87 8 -5 9 -1 4 12 -5
10 -10 37 -13 59 l-6 40 30 -40 c96 -129 245 -211 425 -235 282 -37 569 154
665 443 23 70 27 99 27 197 0 63 -3 129 -7 145 l-7 30 17 -30 c10 -16 18 -32
18 -35 1 -3 6 -30 13 -60 24 -115 32 -262 18 -328 -12 -60 -5 -100 8 -46 4 15
9 24 12 21 8 -8 -45 -139 -77 -188 -40 -64 -119 -136 -177 -162 -42 -19 -66
-22 -237 -23 -104 -1 -214 -7 -244 -13 -29 -6 -69 -11 -87 -11 -19 0 -34 -4
-34 -8 0 -14 639 -23 683 -10 21 6 33 14 27 18 -10 6 2 16 102 81 21 13 38 29
38 36 0 7 13 27 30 46 16 18 29 42 28 53 0 19 66 178 85 202 24 31 101 65 174
77 43 7 65 13 49 14 -18 1 -26 5 -20 10 19 18 94 28 170 23 43 -3 98 -5 121
-6 25 -1 45 -6 48 -14 3 -10 -1 -12 -18 -7 -16 5 -18 4 -8 -3 8 -6 11 -17 8
-26 -4 -9 -2 -16 3 -16 13 0 13 -24 -2 -55 -9 -19 -19 -25 -45 -25 -18 0 -33
-4 -33 -10 0 -5 -7 -6 -17 -3 -9 4 -14 2 -10 -3 4 -6 -6 -9 -24 -6 -44 6 -34
-10 20 -36 54 -25 77 -55 38 -51 -12 2 -28 0 -34 -4 -7 -5 -13 -5 -13 0 0 4
-4 2 -9 -6 -8 -12 -12 -12 -25 -2 -11 9 -16 10 -16 2 0 -6 -10 -11 -22 -11
-21 -1 -20 -3 11 -28 33 -28 41 -71 12 -64 -9 2 -12 -5 -9 -23 5 -21 2 -25
-13 -20 -34 11 -21 -30 19 -59 l37 -27 -30 6 c-16 4 -36 8 -42 11 -8 2 -13 -6
-13 -21 0 -21 -4 -24 -34 -21 -52 5 -61 -7 -25 -33 l32 -24 -24 -13 c-13 -7
-19 -14 -14 -14 25 -3 -34 -19 -72 -19 -52 -1 -65 -18 -25 -32 55 -19 48 -65
-8 -53 -25 5 -25 5 -5 -12 11 -9 66 -39 122 -66 57 -27 107 -56 111 -65 19
-34 287 -67 362 -45 l35 10 -31 1 c-17 1 -60 16 -95 34 l-64 32 85 6 c127 9
232 51 338 136 57 46 162 160 162 176 0 4 -17 4 -37 0 -56 -12 -215 -9 -238 4
-18 11 -18 12 10 18 104 22 244 100 328 183 l57 56 0 78 0 78 -57 0 c-103 0
-197 36 -300 113 -23 18 -43 35 -43 39 0 4 26 5 58 2 64 -7 155 12 222 46 48
25 51 40 8 40 -57 0 -249 106 -297 163 -10 13 -9 15 10 10 25 -7 26 -8 -34 81
-22 33 -70 111 -106 175 -37 64 -75 128 -85 144 -29 43 -7 32 77 -38 l78 -66
-30 59 c-16 32 -44 100 -61 152 -18 52 -54 149 -81 214 -27 66 -47 121 -45
123 8 8 84 -109 134 -207 30 -58 52 -94 49 -80 -3 14 -11 63 -17 110 -23 175
-65 311 -156 499 -52 110 -65 149 -30 96 9 -14 21 -23 26 -20 12 7 -2 49 -44
136 l-36 74 32 -36 c42 -46 96 -157 138 -277 34 -101 89 -363 90 -425 l0 -39
43 7 c71 11 133 34 194 74 94 61 95 68 10 68 -74 1 -207 35 -207 53 0 6 5 10
11 10 26 0 122 55 167 95 54 49 132 157 157 218 l16 39 -35 -36 c-20 -19 -55
-46 -79 -60 -56 -33 -184 -66 -256 -66 l-55 0 60 36 c101 60 206 179 271 309
22 42 83 210 83 226 0 6 -23 -16 -50 -47 -51 -58 -88 -90 -96 -82 -2 3 5 17
16 31 74 93 135 294 179 585 38 253 37 353 -2 253 -20 -50 -42 -66 -33 -25 11
56 26 210 25 274 l0 65 -23 -44 -23 -44 -6 204 c-8 290 -39 516 -108 809 -61
256 -117 408 -184 496 -82 107 -205 85 -718 -127 -184 -76 -298 -131 -388
-185 -31 -19 -60 -34 -65 -34 -4 0 10 19 31 41 l40 41 -39 -7 c-92 -16 -280
-104 -405 -189 -45 -31 -81 -54 -81 -52 0 2 12 29 26 61 55 119 76 272 55 403
-12 75 -37 152 -51 152 -4 0 -10 -16 -13 -36 -13 -81 -120 -200 -229 -255 -79
-40 -206 -75 -318 -88 -105 -12 -512 -32 -519 -25 -5 5 -15 -2 99 79 156 111
263 149 356 126 25 -7 48 -10 51 -8 2 2 -25 30 -59 62 -185 171 -534 223 -832
124 -106 -35 -190 -78 -245 -125 -21 -19 -41 -34 -44 -34 -2 0 -7 48 -9 108
-7 146 -37 220 -128 315 -72 74 -113 91 -84 36z m83 -411 c-2 -29 -5 -57 -8
-62 -2 -5 -4 -31 -4 -57 1 -30 -4 -52 -13 -60 -8 -6 -14 -21 -14 -34 0 -37
-21 -85 -37 -85 -12 0 -13 -3 -4 -14 10 -12 8 -13 -9 -9 -11 3 -20 2 -19 -3 4
-24 -5 -34 -48 -50 -27 -10 -50 -20 -53 -23 -3 -4 -11 -7 -18 -9 -8 -1 -26
-12 -41 -23 -15 -11 -34 -22 -42 -23 -8 -2 -27 -8 -42 -14 -16 -7 -35 -12 -43
-12 -8 0 -14 -4 -14 -10 0 -5 -10 -10 -22 -10 -21 0 -21 0 -1 18 11 9 22 29
25 45 4 23 2 27 -12 22 -10 -3 -22 0 -26 6 -4 8 -3 9 4 5 20 -12 35 4 20 21
-11 14 -10 15 10 9 17 -6 22 -3 22 9 0 11 -5 15 -16 11 -9 -3 -12 -2 -9 5 4 6
13 8 21 5 9 -3 18 3 23 17 5 12 19 31 32 43 13 11 47 46 76 77 29 31 55 57 58
57 9 0 43 38 38 43 -5 6 37 22 67 26 6 0 10 8 10 17 0 9 -5 12 -12 8 -7 -4 -8
-3 -4 4 4 6 12 9 19 6 8 -3 20 8 27 23 45 89 62 94 59 21z m-593 -51 c-4 -81
-38 -166 -87 -218 -15 -16 -25 -29 -23 -29 2 0 -19 -23 -46 -51 -28 -29 -53
-50 -55 -47 -3 2 2 29 9 59 8 30 13 56 11 57 -2 2 -12 -7 -23 -20 -24 -28 -70
-78 -59 -64 4 6 7 20 7 33 0 13 11 46 24 74 14 28 22 58 19 66 -4 11 -2 14 5
9 7 -4 12 -1 12 7 0 18 103 120 125 123 9 1 30 19 47 38 17 20 32 36 34 36 2
0 2 -33 0 -73z m1114 66 c-1 -15 -26 -41 -42 -44 -11 -3 -15 -9 -10 -16 6 -10
14 -9 35 2 16 8 29 10 33 4 3 -6 11 -6 17 -1 7 5 23 9 37 10 14 0 41 4 60 8
49 9 181 11 167 2 -8 -5 -7 -8 4 -8 8 0 21 6 29 13 8 6 11 8 7 3 -3 -5 1 -15
11 -22 16 -11 15 -13 -10 -23 -14 -5 -29 -14 -32 -20 -4 -6 -22 -18 -41 -27
-19 -9 -35 -22 -35 -28 0 -13 -45 -56 -59 -56 -4 0 -20 -11 -34 -24 -21 -19
-65 -41 -107 -51 -3 -1 -12 -4 -20 -8 -8 -3 -28 -10 -45 -15 -16 -5 -29 -14
-28 -20 3 -12 -3 -14 -107 -37 -131 -29 -223 -54 -295 -81 -38 -14 -79 -29
-90 -32 -12 -3 9 26 53 74 39 43 94 115 122 159 27 44 57 90 67 103 21 30 103
84 174 116 51 23 139 35 139 19z m2830 -42 c0 -5 -16 -21 -35 -35 -66 -51
-208 -244 -276 -376 -18 -36 -34 -67 -34 -70 -1 -3 -14 -32 -29 -65 -40 -87
-61 -133 -89 -197 -25 -57 -73 -133 -101 -161 -8 -8 -12 -17 -9 -21 4 -3 1 -6
-5 -6 -7 0 -12 -6 -12 -14 0 -7 -22 -34 -50 -60 -27 -25 -43 -46 -35 -46 8 0
25 10 37 23 13 12 31 28 41 36 16 12 17 12 10 -7 -5 -11 -17 -31 -28 -44 -11
-13 -38 -46 -60 -73 -22 -28 -62 -72 -88 -98 -30 -30 -46 -54 -43 -63 7 -17
-9 -10 -94 44 -30 19 -95 55 -144 80 l-90 45 65 13 c79 16 225 88 301 148 50
40 172 185 163 194 -2 2 -23 -7 -47 -19 -32 -16 -67 -23 -133 -27 -110 -6
-214 18 -344 77 -158 73 -235 103 -334 128 -91 24 -97 27 -82 43 18 20 55 36
170 75 119 40 127 41 119 19 -4 -11 -19 -32 -34 -49 -15 -16 -36 -46 -48 -66
-20 -32 -20 -36 -4 -36 25 0 99 44 161 97 29 25 57 44 62 43 5 -2 9 1 9 6 0
16 268 161 298 161 6 0 13 6 15 13 3 6 6 -1 6 -18 0 -16 -6 -41 -14 -55 -38
-66 -2 -52 88 35 99 95 145 126 175 118 14 -3 21 -11 18 -19 -3 -7 0 -16 6
-20 7 -4 8 -3 4 4 -4 7 -1 12 9 12 9 0 55 20 102 45 101 53 123 57 123 18 0
-16 -7 -40 -14 -55 -8 -16 -12 -28 -9 -28 3 0 58 54 123 120 102 104 142 137
173 139 4 1 7 -3 7 -8z m-4590 -462 c0 -4 16 -23 35 -42 19 -19 35 -39 35 -44
0 -4 9 -14 20 -21 12 -7 18 -17 15 -22 -3 -6 -2 -10 4 -10 13 0 47 -67 67
-130 18 -57 18 -70 -1 -70 -8 0 -15 -5 -15 -10 0 -6 -11 1 -25 15 -31 30 -39
32 -32 5 3 -11 1 -22 -4 -26 -26 -16 -88 97 -163 300 -20 55 -41 107 -46 116
-18 34 3 29 56 -13 30 -23 54 -45 54 -48z m-2186 -90 c-4 -7 -9 -25 -11 -39
-2 -14 -5 -41 -8 -60 -3 -19 -5 -42 -6 -50 0 -8 -7 -67 -15 -130 -17 -124 -16
-119 -34 -288 -12 -112 -9 -526 5 -602 49 -274 99 -440 176 -591 27 -52 49
-100 49 -107 0 -6 8 -15 18 -21 13 -7 14 -13 6 -21 -9 -9 -19 -8 -42 4 -17 9
-38 16 -47 16 -8 0 -15 4 -15 10 0 5 -14 17 -30 25 -17 9 -46 31 -66 50 -20
19 -40 35 -45 35 -5 0 -9 10 -9 22 0 12 -2 19 -5 16 -3 -3 -28 18 -55 46 -27
28 -45 52 -40 54 10 4 81 -31 102 -50 8 -7 34 -31 58 -53 23 -22 39 -33 35
-25 -13 24 -98 143 -117 164 -9 10 -15 22 -13 26 2 4 -9 22 -25 40 -17 19 -30
40 -30 47 0 8 -12 25 -26 40 -14 14 -23 27 -20 30 3 3 -6 15 -20 28 -14 13
-24 34 -24 49 0 14 -5 26 -12 26 -6 0 -9 3 -6 6 3 3 -5 17 -19 32 -32 34 -57
71 -52 77 6 6 137 -60 158 -79 30 -27 42 -19 23 16 -9 18 -22 37 -28 43 -20
19 -54 86 -49 96 4 5 0 9 -7 9 -11 0 -10 2 0 9 11 7 10 9 -3 15 -9 3 -14 10
-10 15 3 6 -3 15 -12 21 -16 10 -16 11 3 7 13 -3 21 1 21 9 0 7 -5 12 -11 11
-10 -2 -16 40 -8 56 2 5 13 1 23 -9 28 -25 34 -10 14 38 -9 24 -21 66 -26 93
-5 28 -11 59 -14 70 -14 66 -17 96 -11 112 6 15 8 15 17 3 5 -8 14 -32 19 -52
11 -38 30 -52 30 -22 0 9 -5 12 -12 8 -8 -5 -8 -3 -2 7 5 8 10 28 10 44 12
302 18 346 48 328 6 -4 5 1 -3 10 -11 14 -11 17 0 17 12 0 12 2 0 9 -9 6 -10
11 -2 15 6 4 11 18 11 31 0 19 4 23 18 19 14 -5 14 -3 -2 10 -11 9 -14 16 -8
16 7 0 12 5 12 11 0 5 -4 8 -9 5 -11 -7 -8 21 4 31 4 4 5 2 0 -6 -6 -10 -4
-12 4 -7 7 5 10 14 7 22 -3 8 -1 14 5 14 6 0 7 5 3 12 -5 8 -2 9 9 5 14 -5 16
-2 12 16 -3 13 3 34 15 52 14 22 20 25 20 13 0 -10 -4 -18 -10 -18 -5 0 -9
-12 -9 -27 1 -21 2 -23 6 -8 9 34 24 47 40 34 7 -7 17 -9 21 -5 4 4 -1 13 -11
20 -16 12 -16 16 -2 42 8 16 15 23 15 16 0 -7 5 -10 11 -7 6 4 8 14 4 24 -5
12 -3 13 6 4 6 -6 8 -17 3 -24z m94 -101 c-2 -8 9 -14 25 -16 15 -2 27 -8 27
-13 0 -5 8 -9 18 -7 11 2 17 -3 16 -14 -1 -10 2 -15 7 -12 5 3 9 0 9 -5 0 -6
7 -11 15 -11 8 0 15 -4 15 -10 0 -5 13 -24 29 -42 94 -105 124 -142 278 -351
15 -21 36 -47 46 -58 10 -11 21 -29 25 -39 11 -29 121 -149 151 -164 25 -13
181 -32 181 -22 0 2 -28 24 -63 49 -84 60 -142 126 -178 200 -49 105 -40 110
67 36 75 -52 144 -119 144 -141 0 -6 2 -9 5 -6 3 2 -11 50 -30 105 -36 105
-57 263 -39 295 7 13 34 -6 139 -97 72 -62 149 -135 173 -164 24 -28 49 -51
56 -51 14 0 76 -73 76 -88 0 -6 6 -12 13 -15 8 -3 32 -27 55 -55 l41 -49 -80
-27 c-95 -31 -181 -79 -256 -143 -57 -49 -99 -100 -89 -110 3 -3 28 4 55 16
75 32 72 26 -16 -32 -44 -30 -106 -74 -138 -98 -211 -160 -269 -191 -362 -193
l-62 -1 57 -59 c31 -32 84 -76 117 -97 60 -39 69 -52 16 -25 -37 20 -111 10
-111 -14 0 -9 -10 -22 -22 -28 -19 -9 -11 -11 44 -10 38 0 74 -4 81 -10 13
-11 83 1 120 20 20 10 40 2 31 -14 -4 -6 3 -5 16 2 40 21 31 4 -12 -26 -61
-41 -88 -54 -88 -43 0 5 -5 9 -11 9 -7 0 -9 -10 -7 -25 6 -27 -15 -52 -48 -58
-27 -4 -64 -30 -64 -43 0 -7 -7 -14 -15 -18 -8 -3 -15 -12 -15 -21 0 -8 -7
-15 -15 -15 -7 0 -18 -6 -22 -14 -4 -8 -19 -16 -33 -18 -14 -1 -25 -10 -25
-18 0 -16 -36 -50 -53 -50 -5 0 -17 9 -26 19 -13 14 -17 37 -17 95 0 42 3 80
6 86 3 5 -12 18 -33 29 -41 21 -99 76 -135 128 -50 74 -35 8 19 -85 14 -24 23
-46 20 -49 -3 -4 -6 -1 -6 6 0 7 -7 10 -18 7 -40 -13 -136 183 -186 381 -50
200 -72 478 -55 697 15 201 35 309 101 564 6 23 17 42 25 42 7 0 12 -6 11 -12z
m5337 -98 c3 -5 1 -10 -4 -10 -6 0 -11 5 -11 10 0 6 2 10 4 10 3 0 8 -4 11
-10z m70 -130 c3 -5 2 -10 -4 -10 -5 0 -13 5 -16 10 -3 6 -2 10 4 10 5 0 13
-4 16 -10z m1337 -30 c2 -5 22 -11 46 -12 37 -1 43 -5 48 -27 3 -14 10 -39 15
-56 4 -16 11 -46 13 -65 3 -19 12 -75 20 -125 36 -226 45 -352 40 -570 -4
-187 -28 -358 -64 -450 -6 -16 -12 -32 -12 -35 -9 -37 -48 -114 -58 -112 -9 2
-10 -5 -6 -23 4 -14 2 -25 -4 -25 -5 0 -10 4 -10 9 0 5 -17 0 -37 -10 -38 -19
-38 -19 -55 1 -16 19 -16 17 -11 -55 5 -67 4 -75 -11 -69 -9 3 -16 1 -16 -6 0
-7 -8 -9 -20 -5 -12 4 -26 0 -36 -10 -9 -9 -21 -14 -26 -13 -6 2 -35 49 -65
103 -31 55 -76 129 -102 164 -25 35 -52 72 -60 83 -14 19 -14 19 23 4 78 -33
119 -72 146 -142 l18 -49 11 28 c25 66 3 207 -50 311 -43 85 -108 181 -196
289 -54 67 -70 93 -59 95 9 2 16 7 16 12 0 14 -95 127 -174 207 l-70 73 22 22
c19 19 25 21 42 11 15 -10 25 -10 47 2 98 49 222 88 313 98 14 1 24 8 23 15
-2 6 3 12 10 12 14 0 55 37 74 66 7 11 24 35 38 54 13 19 29 44 34 55 5 12 21
32 35 45 14 14 26 30 26 36 0 7 7 15 16 18 8 3 12 11 9 17 -4 6 2 13 14 16 12
3 21 9 21 14 0 12 18 11 22 -1z m-4222 -85 c0 -2 -9 -3 -19 -2 -11 0 -18 5
-15 9 4 6 34 0 34 -7z m4410 -19 c0 -7 3 -34 6 -60 4 -29 3 -46 -4 -46 -6 0
-12 27 -14 60 -1 33 0 60 5 60 4 0 7 -6 7 -14z m-5660 -76 c70 -47 206 -117
243 -125 38 -8 24 -26 -16 -21 -90 12 -228 93 -289 172 -25 31 -20 29 62 -26z
m5047 3 c-13 -80 -95 -203 -134 -203 -36 0 10 126 72 198 47 54 70 56 62 5z
m633 -53 c0 -5 -4 -10 -10 -10 -5 0 -10 5 -10 10 0 6 5 10 10 10 6 0 10 -4 10
-10z m4 -37 c3 -10 8 -53 11 -96 3 -42 10 -109 15 -149 6 -39 13 -115 15 -167
3 -53 9 -124 13 -158 5 -35 5 -68 0 -75 -4 -7 -8 -29 -8 -49 0 -19 -4 -39 -9
-45 -6 -5 -11 -36 -13 -68 -2 -33 -8 -61 -13 -63 -7 -2 -8 30 -2 99 10 122 1
558 -12 608 -21 77 -18 231 3 163z m-894 -754 c0 -6 -4 -7 -10 -4 -5 3 -10 11
-10 16 0 6 5 7 10 4 6 -3 10 -11 10 -16z m903 -159 c-7 -28 -13 -25 -13 6 0
14 4 23 9 20 5 -3 7 -15 4 -26z m-20 -111 c-5 -5 -8 3 -7 19 3 55 7 66 11 28
3 -21 0 -43 -4 -47z m-6329 -161 c-4 -7 -29 -43 -56 -79 -26 -37 -89 -145
-139 -240 -102 -195 -114 -213 -104 -154 23 131 113 299 225 416 60 63 92 88
74 57z m-131 -88 c-9 -16 -21 -30 -26 -30 -4 0 0 14 10 30 9 17 21 30 26 30 4
0 0 -13 -10 -30z m-578 -76 c19 -16 19 -16 -5 -9 -31 9 -50 25 -29 25 7 0 23
-8 34 -16z m55 -30 c0 -2 -7 -4 -15 -4 -8 0 -15 4 -15 10 0 5 7 7 15 4 8 -4
15 -8 15 -10z m40 -14 c0 -5 -2 -10 -4 -10 -3 0 -8 5 -11 10 -3 6 -1 10 4 10
6 0 11 -4 11 -10z m640 -39 c0 -5 -11 -16 -25 -25 -42 -28 -225 -237 -303
-348 -42 -59 -78 -105 -81 -102 -3 2 24 62 59 131 72 145 128 212 250 299 72
51 100 64 100 45z m320 -11 c0 -5 -2 -10 -4 -10 -3 0 -8 5 -11 10 -3 6 -1 10
4 10 6 0 11 -4 11 -10z m-2370 -54 c0 -2 -8 -10 -17 -17 -16 -13 -17 -12 -4 4
13 16 21 21 21 13z m-37 -53 c-4 -11 -3 -14 5 -9 17 10 15 -6 -5 -34 -16 -23
-20 -33 -27 -70 -1 -8 -8 -28 -15 -45 -13 -31 -41 -142 -38 -150 1 -2 -5 -12
-13 -22 -9 -10 -14 -32 -12 -50 3 -25 -1 -33 -13 -33 -9 0 -13 5 -10 10 4 6 9
43 11 83 2 40 8 81 14 92 5 11 26 63 46 115 38 99 52 130 59 130 2 0 1 -7 -2
-17z m2488 -136 c-6 -8 -7 -18 -3 -22 4 -5 1 -5 -6 -1 -10 6 -10 11 -1 22 6 8
14 14 16 14 3 0 0 -6 -6 -13z m59 -237 c0 -5 -7 -7 -15 -4 -8 4 -12 10 -9 15
6 11 24 2 24 -11z m35 0 c-3 -5 -12 -10 -18 -10 -7 0 -6 4 3 10 19 12 23 12
15 0z m-28 -142 c-3 -8 -6 -5 -6 6 -1 11 2 17 5 13 3 -3 4 -12 1 -19z m1363
-125 c-100 -16 -232 -49 -292 -73 -40 -16 -74 -28 -76 -25 -7 7 111 78 153 91
22 7 85 12 140 12 55 0 89 -3 75 -5z m2991 -97 c36 -8 81 -24 100 -35 44 -27
19 -27 -57 0 -32 11 -97 23 -144 27 -59 4 -77 8 -60 13 40 11 90 10 161 -5z
m529 -20 c0 -3 -4 -8 -10 -11 -5 -3 -10 -1 -10 4 0 6 5 11 10 11 6 0 10 -2 10
-4z m-4781 -40 c-3 -3 -11 5 -18 17 -13 21 -12 21 5 5 10 -10 16 -20 13 -22z
m16 -44 c0 -11 7 -16 19 -14 10 2 15 -1 11 -7 -9 -15 -51 -6 -46 10 2 8 4 20
4 27 1 18 12 3 12 -16z m1571 -114 c22 -15 32 -29 29 -39 -4 -12 1 -16 19 -16
36 0 86 -40 93 -74 3 -16 9 -29 14 -29 22 0 49 -42 49 -74 0 -66 -70 -87 -120
-37 -28 28 -31 28 -68 16 -89 -31 -196 34 -217 132 -4 22 0 46 13 76 34 77
114 96 188 45z m-1593 5 c-7 -2 -21 -2 -30 0 -10 3 -4 5 12 5 17 0 24 -2 18
-5z m37 -34 c0 -9 -6 -16 -13 -16 -9 0 -12 10 -9 30 3 21 7 25 13 16 5 -8 9
-21 9 -30z m-95 -30 c-3 -12 -7 -24 -10 -27 -3 -3 -3 5 -1 19 6 30 5 29 10 29
3 0 3 -10 1 -21z m4226 -1 c94 -32 157 -107 144 -171 -10 -45 -34 -70 -52 -55
-10 8 -19 6 -36 -9 -48 -45 -116 -41 -173 9 -46 40 -64 77 -64 129 0 33 6 47
34 75 38 38 82 44 147 22z m828 -75 c-24 -28 -111 -63 -160 -63 -47 0 -99 28
-99 53 0 6 9 1 20 -11 17 -18 32 -22 86 -22 63 0 133 23 149 50 3 5 9 10 12
10 3 0 -1 -7 -8 -17z m-4494 -33 c-3 -5 -12 -10 -18 -10 -7 0 -6 4 3 10 19 12
23 12 15 0z m4524 -12 c-21 -41 -67 -93 -93 -108 -24 -12 -36 -32 -18 -28 4 0
14 -2 22 -5 8 -4 38 -8 65 -10 28 -3 16 -3 -25 -2 -41 1 -88 8 -105 15 l-30
12 50 16 c40 14 59 29 95 74 49 63 57 70 39 36z m-4774 -166 c-3 -3 -11 0 -18
7 -9 10 -8 11 6 5 10 -3 15 -9 12 -12z m4845 -88 c-8 -8 -23 -20 -34 -25 -13
-7 -9 -1 9 15 34 29 43 33 25 10z m-80 -49 c-14 -8 -32 -14 -40 -14 -8 0 -1 6
15 14 40 18 57 18 25 0z m-4067 -109 c9 -7 17 -20 17 -29 0 -17 -50 -62 -80
-72 -49 -16 -67 49 -25 90 27 27 61 32 88 11z m-4425 -21 c-3 -3 -9 2 -12 12
-6 14 -5 15 5 6 7 -7 10 -15 7 -18z m8638 6 c5 -5 27 -14 49 -21 22 -7 34 -15
26 -18 -11 -4 32 -30 59 -36 3 -1 14 -7 25 -14 17 -10 15 -11 -15 -6 -19 3
-51 11 -70 17 -19 5 -46 11 -60 13 -14 1 -50 5 -80 9 -30 4 -70 7 -87 6 -18 0
-33 4 -33 9 0 12 45 24 63 17 7 -3 24 4 38 14 25 20 69 25 85 10z m-8592 -16
c3 -8 9 -15 13 -14 20 3 34 -2 29 -10 -9 -14 -45 -1 -57 20 -6 11 -6 19 0 19
5 0 11 -7 15 -15z m337 5 c30 -6 65 -12 79 -14 14 -3 59 -10 100 -16 121 -19
255 -55 304 -82 11 -7 24 -11 29 -10 10 3 47 -59 47 -81 0 -14 -6 -16 -27 -11
-16 3 -55 10 -88 14 -33 4 -72 12 -86 18 -15 6 -29 8 -32 5 -3 -3 -11 -1 -18
3 -7 4 -26 9 -41 11 -27 3 -125 51 -278 136 -71 40 -70 42 11 27z m556 -32
c-3 -8 -6 -5 -6 6 -1 11 2 17 5 13 3 -3 4 -12 1 -19z m4458 -3 c31 -30 31 -52
3 -82 -57 -61 -159 15 -107 80 27 35 71 36 104 2z m-935 -84 c13 -28 27 -51
32 -51 4 0 8 -9 8 -20 0 -22 8 -24 43 -11 20 8 27 6 31 -6 4 -8 2 -21 -3 -27
-7 -9 7 -19 52 -38 81 -34 97 -39 97 -30 0 4 -23 17 -51 29 -38 17 -50 27 -47
40 4 19 19 21 53 8 16 -7 18 -6 8 6 -21 21 -15 37 17 44 16 4 32 15 35 26 8
24 25 25 32 2 2 -10 22 -31 44 -46 38 -27 44 -47 14 -47 -8 0 -16 -4 -19 -8
-2 -4 11 -6 30 -4 19 2 35 0 35 -4 1 -5 3 -22 5 -38 l3 -29 -61 6 c-44 4 -57
2 -49 -6 6 -6 49 -13 95 -15 126 -7 261 38 345 113 21 19 44 35 50 35 6 0 10
4 8 9 -4 16 7 14 39 -5 l32 -19 -44 -67 c-53 -82 -119 -135 -221 -179 -75 -32
-83 -33 -208 -34 -142 0 -182 9 -285 67 -121 68 -210 151 -210 194 0 16 2 17
10 4 8 -13 10 -12 11 5 1 11 2 26 2 32 -1 7 3 11 7 8 4 -3 13 2 20 10 7 8 20
15 29 15 12 1 8 7 -12 26 -19 16 -36 23 -48 19 -10 -4 -19 -2 -19 3 0 12 29
24 41 16 5 -3 9 2 9 11 0 26 14 10 40 -44z m3400 45 c0 -11 -19 -15 -25 -6 -3
5 1 10 9 10 9 0 16 -2 16 -4z m30 -58 c13 -25 13 -31 0 -55 -29 -53 -120 -34
-120 24 0 65 88 87 120 31z m-3456 4 c2 -4 -5 -14 -17 -22 -19 -12 -21 -11
-10 2 7 8 10 18 6 21 -3 4 -1 7 5 7 6 0 13 -4 16 -8z m2570 -28 c42 -16 -13
-88 -63 -82 -36 4 -38 33 -5 63 28 26 41 29 68 19z m-6594 -69 c14 -3 50 -7
80 -10 129 -12 321 -68 301 -88 -10 -10 -190 -13 -241 -4 -70 12 -100 20 -100
26 0 4 -12 8 -27 9 -35 3 -95 31 -106 48 -4 8 -18 14 -30 14 -18 0 -19 2 -7
10 14 9 69 6 130 -5z m6915 -39 l30 -17 -34 4 c-34 4 -34 4 -13 -14 29 -23 28
-40 -4 -70 l-25 -24 33 -12 c49 -17 145 -15 218 5 63 17 140 64 223 134 47 40
73 31 71 -26 -4 -108 -196 -246 -371 -266 -177 -20 -317 26 -428 140 -55 57
-59 63 -41 73 10 7 29 22 42 35 27 26 47 28 64 7 15 -18 113 -75 129 -75 7 0
5 9 -5 26 -17 25 -17 26 12 50 l29 24 -30 -5 -30 -6 31 14 c17 8 34 23 38 32
6 16 8 16 19 3 6 -9 26 -23 42 -32z m-289 -9 c-10 -7 -31 -22 -46 -34 -34 -28
-46 -29 -53 -3 -4 15 3 24 28 36 19 9 40 22 46 30 11 13 14 13 28 -1 15 -16
14 -18 -3 -28z m314 -92 c0 -9 -9 -15 -22 -15 -22 1 -23 1 -4 15 25 19 26 19
26 0z m-4627 -10 c125 -33 220 -108 303 -241 47 -75 72 -140 105 -268 24 -94
20 -125 -6 -41 -10 33 -25 73 -33 89 l-14 30 -19 -35 c-10 -19 -16 -42 -13
-52 5 -16 2 -18 -18 -12 -19 6 -21 5 -10 -6 18 -19 15 -28 -9 -22 -18 5 -20 3
-15 -18 3 -13 3 -18 0 -11 -3 6 -14 12 -24 12 -17 0 -28 9 -85 75 l-26 30 14
-30 c25 -52 49 -128 54 -175 4 -42 2 -47 -20 -57 -21 -10 -26 -9 -31 3 -3 9
-10 12 -16 9 -6 -4 -7 -11 -3 -17 21 -36 -75 56 -103 97 -42 61 -45 53 -4 -13
44 -73 83 -161 76 -177 -3 -8 -1 -15 4 -15 17 0 0 -27 -26 -40 -14 -8 -22 -20
-20 -27 5 -12 -20 -19 -48 -14 -5 1 -6 -7 -3 -18 4 -18 2 -19 -14 -11 -15 9
-18 7 -13 -7 4 -12 -3 -9 -20 10 -14 15 -28 27 -31 27 -3 0 -48 34 -100 75
-124 98 -250 170 -357 203 -88 26 -101 38 -73 62 9 8 13 21 9 36 -5 20 -3 23
10 18 12 -5 15 -2 10 11 -4 9 -3 20 2 24 11 7 38 63 36 74 -1 4 2 7 7 7 5 0
13 9 16 20 3 11 13 20 20 20 8 0 19 16 27 35 l12 36 56 -6 c46 -5 52 -4 35 6
-33 20 -34 29 -4 62 15 17 26 34 23 39 -3 5 0 7 8 6 8 -2 12 4 10 15 -2 10 3
17 14 17 10 0 14 3 11 7 -4 3 -2 12 4 20 14 16 62 17 90 3 13 -7 19 -7 19 0 0
5 -4 10 -10 10 -5 0 -10 12 -10 26 0 19 4 25 14 21 10 -4 13 -1 9 9 -3 8 -2
14 3 12 5 -1 25 7 44 17 34 19 34 20 10 23 -43 7 -136 -29 -194 -75 -31 -24
-80 -73 -109 -110 -28 -36 -82 -96 -118 -132 -68 -67 -139 -177 -168 -260 -9
-25 -27 -63 -40 -84 -28 -46 -32 -122 -7 -178 14 -34 72 -116 103 -147 22 -23
14 -24 -15 -3 -43 30 -108 105 -131 149 -36 70 -37 113 -6 208 39 120 117 238
270 410 168 187 189 204 305 235 82 22 160 23 233 4z m339 -507 c-7 -7 -12 -8
-12 -2 0 6 3 14 7 17 3 4 9 5 12 2 2 -3 -1 -11 -7 -17z m155 -130 c-3 -7 -5
-2 -5 12 0 14 2 19 5 13 2 -7 2 -19 0 -25z m-912 -68 c8 -13 -5 -13 -25 0 -13
8 -13 10 2 10 9 0 20 -4 23 -10z m-575 -132 c0 -24 56 -136 84 -167 l21 -24
-25 7 c-14 3 -57 9 -95 12 l-70 7 2 48 c1 27 -3 51 -8 54 -15 10 -10 24 11 35
16 9 18 8 14 -5 -3 -8 -11 -12 -18 -8 -8 5 -8 3 0 -8 7 -8 14 -23 18 -34 3
-12 4 -9 2 8 -2 18 1 27 11 27 8 0 11 5 8 10 -3 6 0 10 7 11 9 0 10 2 1 5 -7
3 -9 12 -6 21 5 12 3 14 -7 8 -8 -5 -11 -4 -7 1 3 6 17 10 31 10 19 0 26 -5
26 -18z m1435 -32 c18 -13 16 -15 -25 -26 -77 -21 -116 -47 -186 -124 l-67
-75 -14 27 c-34 65 9 131 120 187 58 28 141 34 172 11z m142 -115 c39 -24 83
-56 98 -71 l27 -29 -42 -11 c-66 -18 -115 -56 -176 -137 -61 -80 -76 -92 -99
-73 -8 6 -18 9 -23 6 -11 -7 -64 29 -55 37 3 4 -1 7 -11 7 -9 0 -14 5 -11 10
3 6 0 10 -7 10 -14 0 -42 28 -45 43 -1 5 -9 14 -19 21 -52 38 14 167 110 213
41 19 63 23 116 20 56 -2 75 -9 137 -46z m863 -56 c177 -54 288 -170 322 -339
15 -76 -4 -233 -40 -330 -49 -134 -157 -294 -286 -422 -78 -78 -181 -154 -209
-154 -17 0 5 20 41 37 45 21 189 157 228 216 16 23 42 58 59 77 56 64 122 174
154 254 36 91 56 243 30 234 -7 -2 -17 -20 -20 -38 -4 -19 -12 -36 -18 -38 -6
-2 -11 -12 -11 -23 0 -10 -4 -19 -10 -19 -5 0 -10 -9 -10 -20 0 -11 -5 -20
-11 -20 -6 0 -9 -6 -6 -13 3 -7 -3 -18 -12 -24 -10 -6 -26 -27 -35 -47 -10
-22 -22 -34 -28 -30 -7 5 -9 2 -5 -9 4 -11 -1 -18 -14 -22 -10 -4 -17 -11 -14
-16 4 -5 -5 -13 -19 -18 -16 -7 -26 -19 -28 -38 l-3 -28 -24 35 -23 35 6 -32
c6 -36 -20 -93 -42 -93 -7 0 -10 -4 -7 -10 3 -5 -1 -10 -9 -10 -9 0 -16 -8
-16 -17 0 -9 -3 -14 -6 -10 -10 10 -36 -22 -28 -34 5 -8 3 -9 -5 -4 -8 4 -18
-1 -27 -13 -8 -12 -21 -19 -29 -15 -11 3 -13 1 -10 -10 4 -10 -2 -16 -21 -20
-31 -6 -39 2 -96 93 -23 36 -43 59 -45 52 -5 -14 -73 66 -70 82 1 6 -4 10 -10
9 -7 -2 -13 4 -13 12 0 8 -5 15 -12 15 -6 0 -43 33 -82 73 -66 68 -188 166
-246 197 -43 24 3 24 49 1 49 -25 58 -26 40 -4 -8 10 -9 14 -2 10 15 -9 14 32
-1 53 -9 13 -9 13 6 2 11 -9 18 -10 23 -2 3 5 0 10 -7 10 -8 0 -6 5 5 11 17
10 17 12 2 35 l-15 24 57 0 c32 0 83 -7 113 -15 30 -8 56 -12 59 -10 7 7 -98
51 -158 66 -81 20 -83 62 -2 61 37 -1 40 1 31 18 -12 22 -3 53 13 43 6 -3 7
-1 3 5 -4 7 -14 12 -21 12 -9 0 -12 6 -8 15 3 9 8 13 11 10 3 -2 11 4 19 15 8
11 21 20 29 20 8 0 14 5 14 10 0 6 5 10 11 10 6 0 8 -7 4 -17 -5 -14 -4 -15 6
-6 10 10 10 15 0 27 -10 12 -8 17 10 26 12 7 19 8 15 2 -3 -6 -2 -14 4 -17 6
-4 10 -3 9 2 -4 25 3 35 21 30 13 -3 18 -1 13 6 -4 6 2 8 15 5 12 -4 20 -2 16
3 -3 5 9 9 25 9 17 0 31 4 31 9 0 9 -70 0 -141 -19 -24 -6 -90 -36 -146 -65
-57 -30 -103 -51 -103 -46 0 15 82 73 143 101 53 24 127 44 237 64 55 10 276
-3 330 -19z m-2423 -1 c57 -8 141 -26 186 -39 103 -30 237 -90 237 -107 0 -7
18 -23 40 -36 22 -12 40 -30 40 -38 0 -10 6 -14 14 -11 20 8 28 -4 15 -20 -6
-7 -9 -22 -6 -32 3 -15 1 -18 -12 -14 -9 3 31 -40 89 -97 l105 -102 103 4 c56
2 102 2 102 1 0 -6 -87 -25 -138 -29 -31 -3 -59 -7 -62 -9 -5 -3 -46 -7 -210
-21 -103 -8 -240 -33 -308 -55 -65 -22 -92 -22 -47 -1 56 26 72 32 125 46 32
9 45 15 30 15 -68 2 -307 -90 -392 -150 -17 -13 -29 -18 -25 -12 4 6 0 14 -9
17 -8 3 -13 2 -10 -3 3 -5 -1 -12 -9 -15 -9 -3 -15 -1 -14 7 4 33 -2 49 -16
43 -13 -4 -14 -2 -5 14 6 11 8 20 4 20 -3 0 0 8 7 17 8 9 9 14 2 10 -6 -4 -22
-3 -35 2 -20 8 -11 16 14 12 4 0 5 6 2 14 -4 8 -11 12 -17 8 -6 -4 -7 -1 -2 7
10 17 12 54 3 60 -4 3 -1 18 7 33 7 15 11 27 8 27 -3 0 -1 6 4 13 11 15 9 43
-7 82 -14 32 -16 40 -18 69 -2 13 -7 16 -19 12 -10 -4 -14 -4 -10 0 4 4 0 16
-10 26 -9 10 -12 18 -7 18 5 0 4 4 -1 8 -22 15 -44 61 -40 83 3 12 0 28 -6 35
-6 7 -8 21 -5 32 5 16 1 17 -31 14 -58 -7 -86 -30 -79 -63 8 -41 50 -104 124
-188 l66 -73 -22 -62 c-50 -139 -63 -265 -38 -380 9 -44 18 -61 37 -72 30 -16
10 -18 -26 -2 -65 29 -75 257 -18 418 l30 85 -74 85 c-82 95 -126 174 -121
217 3 25 10 30 71 51 63 21 163 38 246 41 18 0 80 -6 138 -15z m1707 -93 c3
-5 -18 -26 -47 -47 -30 -23 -71 -68 -97 -108 -86 -129 -155 -125 -96 6 39 87
89 130 176 148 50 11 58 11 64 1z m-2004 -5 c0 -3 -4 -8 -10 -11 -5 -3 -10 -1
-10 4 0 6 5 11 10 11 6 0 10 -2 10 -4z m1507 -307 c11 -9 26 -18 34 -21 8 -3
9 -7 3 -11 -11 -7 -103 64 -118 92 -5 9 6 3 26 -14 19 -16 44 -37 55 -46z
m113 -73 c0 -9 -41 8 -52 22 -11 13 -8 12 20 -2 17 -9 32 -18 32 -20z m2336
-130 c16 5 16 4 4 -5 -8 -6 -10 -11 -5 -11 6 0 3 -5 -5 -10 -13 -9 -13 -10 1
-10 8 0 20 5 27 12 9 9 12 9 12 -1 0 -11 3 -11 17 0 15 12 16 12 10 -4 -4 -11
-3 -16 4 -12 5 4 16 2 24 -5 9 -7 15 -8 20 0 3 5 -1 10 -9 10 -9 0 -16 4 -16
9 0 7 28 8 69 2 3 -1 -4 -8 -15 -16 -10 -8 -15 -15 -10 -15 5 0 18 7 28 16 13
12 21 14 30 6 14 -11 18 -12 45 -12 14 0 14 -3 5 -12 -10 -10 -15 -10 -23 2
-9 12 -10 13 -7 1 5 -19 59 -34 72 -21 15 15 29 12 22 -5 -4 -11 2 -15 24 -15
16 0 32 5 35 10 10 16 28 12 21 -5 -3 -8 -1 -15 4 -15 6 0 10 4 10 9 0 5 9 11
21 14 16 4 18 3 9 -8 -9 -10 -4 -15 22 -20 22 -5 33 -4 36 5 4 10 6 10 12 0 8
-12 52 -21 175 -37 28 -3 61 -7 75 -7 14 -1 29 -5 33 -11 6 -6 10 -5 14 4 4
11 7 11 14 0 7 -12 20 -15 99 -18 45 -1 26 -22 -24 -24 -20 -1 -34 -6 -33 -12
4 -11 10 -12 79 -14 39 -1 46 -4 41 -17 -5 -13 -7 -13 -14 -2 -5 7 -9 8 -9 2
0 -6 -6 -11 -12 -12 -226 -32 -483 -31 -698 3 -205 32 -620 158 -620 187 0 5
-4 6 -10 3 -5 -3 -10 -2 -10 4 0 14 31 19 58 9 13 -4 28 -6 33 -2 5 3 9 1 9
-5 0 -5 9 -9 19 -8 22 1 18 17 -5 17 -8 0 -14 6 -14 14 0 10 13 13 55 10 30
-2 57 1 60 6 3 5 16 6 28 2 27 -9 48 -9 65 1 7 5 12 3 12 -4 0 -8 4 -8 16 1
12 11 15 11 12 1 -2 -8 5 -15 15 -16 18 -3 23 10 7 20 -5 3 -10 11 -10 17 0 7
5 7 14 -1 7 -6 22 -9 32 -5z m-3841 -16 c3 -5 2 -10 -4 -10 -5 0 -13 5 -16 10
-3 6 -2 10 4 10 5 0 13 -4 16 -10z m3525 -10 c0 -5 -2 -10 -4 -10 -3 0 -8 5
-11 10 -3 6 -1 10 4 10 6 0 11 -4 11 -10z m-2161 -41 c-12 -10 -20 -21 -17
-24 3 -3 11 1 18 10 7 8 21 15 32 15 25 0 135 -111 144 -145 3 -14 10 -25 14
-25 5 0 4 -14 -1 -32 -13 -46 -4 -46 27 1 58 89 58 -26 -1 -123 -72 -120 -175
-204 -380 -311 -61 -32 -172 -93 -248 -137 -75 -43 -142 -76 -149 -72 -7 4 -8
3 -4 -4 4 -7 3 -12 -3 -12 -5 0 -18 -3 -28 -7 -16 -6 -17 -5 -3 12 14 16 13
17 -8 11 -17 -6 -21 -4 -16 8 4 12 2 15 -9 10 -10 -3 -18 2 -22 16 -6 18 -9
19 -22 8 -12 -10 -18 -9 -29 7 -11 15 -11 20 -1 27 8 5 8 8 1 8 -16 0 -26 41
-14 55 6 7 8 14 5 17 -3 3 -1 33 3 66 l9 62 -36 2 c-20 0 -42 1 -48 1 -7 -1
-13 3 -13 8 0 5 -11 9 -24 9 -14 0 -28 5 -31 10 -4 6 -10 8 -14 6 -4 -3 -18
13 -31 35 -14 21 -28 39 -33 39 -4 0 -5 -6 -1 -12 3 -7 -6 1 -21 17 -17 19
-24 23 -21 12 3 -11 2 -15 -4 -12 -6 3 -10 13 -10 20 0 9 -6 12 -16 8 -14 -5
-15 -3 -5 15 14 26 2 28 -43 9 l-28 -12 54 -47 c69 -59 156 -103 236 -119 76
-16 83 -34 10 -26 -111 11 -249 85 -314 167 -19 23 -34 39 -34 34 0 -14 29
-54 68 -96 30 -32 33 -40 25 -65 -5 -15 -18 -33 -29 -38 -10 -6 -26 -14 -34
-20 -28 -18 -41 -15 -30 6 10 18 6 23 -14 20 -5 -1 -1 10 9 25 11 17 12 23 4
18 -8 -4 -26 -7 -41 -5 -20 2 -28 -3 -33 -20 -8 -23 -8 -23 -22 4 -14 28 -29
38 -20 13 4 -10 0 -12 -14 -9 -13 4 -19 0 -19 -11 0 -9 -5 -16 -11 -16 -5 0
-8 4 -5 9 3 5 -1 14 -9 21 -13 11 -13 14 2 27 14 11 15 16 5 20 -10 4 -10 8
-1 19 10 12 9 13 -5 8 -9 -3 -16 -2 -16 4 0 5 7 12 15 16 20 7 8 35 -16 33
-10 -1 -19 -4 -19 -7 0 -3 -14 -14 -30 -23 -30 -18 -30 -18 -40 8 -6 16 -15
24 -22 20 -7 -4 -2 4 12 16 18 16 20 20 7 16 -11 -4 -25 -1 -33 8 -24 23 7 60
67 79 27 9 72 30 98 46 140 86 337 161 511 194 135 26 626 73 638 61 6 -5
-143 -79 -198 -98 -25 -8 -126 -34 -225 -57 -245 -58 -353 -94 -483 -164 -61
-32 -25 -28 59 7 136 56 255 93 409 126 80 17 177 41 215 52 86 26 253 105
320 153 50 36 77 32 34 -5z m2751 7 c0 -3 -4 -8 -10 -11 -5 -3 -10 -1 -10 4 0
6 5 11 10 11 6 0 10 -2 10 -4z m190 -30 c0 -3 -4 -8 -10 -11 -5 -3 -10 -1 -10
4 0 6 5 11 10 11 6 0 10 -2 10 -4z m85 -24 c-3 -3 -11 0 -18 7 -9 10 -8 11 6
5 10 -3 15 -9 12 -12z m-2570 -92 c3 -5 1 -10 -4 -10 -6 0 -11 5 -11 10 0 6 2
10 4 10 3 0 8 -4 11 -10z m35 -60 c14 -22 28 -40 33 -40 4 0 7 -6 7 -14 0 -7
46 -61 103 -118 145 -149 244 -207 325 -194 33 6 35 5 19 -8 -65 -51 -294 89
-435 267 -51 64 -98 147 -84 147 4 0 19 -18 32 -40z m-2865 -337 c3 -15 15
-33 26 -41 11 -7 16 -19 12 -25 -4 -7 2 -5 12 3 10 8 16 10 13 4 -4 -5 4 -18
18 -28 13 -11 24 -25 24 -32 0 -7 7 -19 15 -28 9 -8 44 -62 78 -118 87 -144
150 -236 194 -284 67 -71 69 -78 15 -40 -40 28 -51 32 -42 17 6 -12 8 -21 5
-21 -3 0 6 -12 20 -27 14 -15 25 -31 25 -34 0 -15 128 -137 150 -144 l25 -8
-25 -9 c-20 -7 -22 -11 -10 -18 8 -5 11 -10 7 -10 -4 0 -18 7 -30 15 -13 8
-32 12 -45 8 -21 -5 -21 -7 -9 -27 10 -14 11 -29 6 -44 -7 -17 -6 -21 4 -15
18 11 38 13 31 1 -3 -5 3 -12 15 -15 11 -3 19 -9 16 -13 -3 -4 3 -7 13 -6 9 0
16 -5 14 -12 -1 -7 5 -12 15 -10 12 2 18 -3 17 -14 -1 -10 1 -16 5 -14 3 2 15
-5 26 -16 11 -11 15 -18 10 -16 -6 2 -11 -1 -13 -7 -1 -5 3 -11 8 -11 6 -1 15
-2 20 -3 6 0 10 -5 10 -11 0 -5 -8 -6 -17 -3 -15 6 -16 4 -6 -9 7 -8 10 -18 7
-21 -4 -3 -3 -14 1 -24 9 -22 6 -85 -5 -96 -4 -5 -6 4 -4 20 2 15 1 20 -2 11
-3 -10 -12 -18 -20 -18 -8 0 -12 -5 -9 -11 4 -6 -2 -19 -14 -30 -23 -22 -36
-25 -25 -6 4 6 -2 3 -14 -7 -12 -11 -22 -16 -22 -13 0 3 -14 1 -31 -5 -25 -8
-33 -8 -40 3 -7 11 -9 10 -9 -3 0 -20 -15 -24 -25 -8 -3 6 -11 10 -16 10 -6 0
-7 -4 -4 -10 3 -5 1 -10 -5 -10 -8 0 -11 18 -9 53 1 28 1 66 0 82 -2 30 -3 30
-17 -10 -8 -22 -24 -48 -35 -57 -12 -10 -18 -18 -13 -18 4 0 -1 -6 -11 -14
-11 -8 -27 -12 -37 -11 -10 2 -18 0 -18 -5 0 -8 -27 -7 -77 4 -13 3 -23 1 -23
-4 0 -4 -9 -6 -20 -3 -11 3 -20 13 -20 22 0 13 -2 13 -9 2 -6 -10 -10 -10 -16
-1 -4 6 -12 10 -19 8 -6 -2 -21 6 -33 19 -12 13 -17 23 -10 23 8 0 9 2 1 8
-17 11 -30 57 -14 47 9 -5 11 -4 6 3 -4 7 0 22 8 34 21 30 20 37 -4 31 -11 -3
-20 -9 -20 -13 0 -11 -59 -40 -82 -40 -10 0 -18 5 -18 12 0 6 -3 9 -6 5 -3 -3
-23 3 -42 14 -20 10 -42 19 -49 19 -7 0 -13 4 -13 10 0 5 8 6 18 3 9 -4 2 6
-16 22 -18 15 -31 34 -28 41 3 8 -1 14 -8 14 -8 0 -17 -6 -19 -12 -3 -7 -6 -1
-6 15 -1 15 -6 27 -12 27 -5 0 -7 5 -4 10 3 6 1 10 -6 10 -7 0 -9 3 -6 6 4 4
-2 14 -12 24 -13 11 -17 21 -11 30 5 8 3 25 -6 42 -8 15 -11 28 -6 28 4 0 9
16 9 37 1 20 -2 31 -7 24 -4 -7 -6 7 -5 31 2 27 7 42 15 40 6 -1 9 2 5 8 -4 6
-1 18 7 27 9 12 10 15 0 9 -16 -9 -28 22 -14 36 6 6 8 17 5 24 -3 9 1 14 11
14 13 0 15 4 8 16 -6 11 -4 32 8 63 21 57 33 128 22 134 -4 2 -2 2 5 1 7 -2
10 3 7 10 -3 7 2 16 10 19 9 4 16 18 16 32 0 14 11 37 25 51 25 25 25 25 3 19
-23 -7 -23 -7 -3 9 11 8 16 16 11 16 -5 0 1 11 14 25 17 18 19 25 9 26 -8 0
-4 4 9 9 12 5 22 16 22 23 0 8 9 26 21 41 11 14 18 26 15 26 -3 0 7 13 22 30
34 37 48 38 57 3z m2425 -8 c-7 -8 -17 -15 -23 -15 -6 0 -2 7 9 15 25 19 30
19 14 0z m-40 -30 c0 -5 -75 -57 -125 -85 -112 -64 -205 -110 -205 -103 0 5
19 19 43 32 143 76 219 119 244 138 27 21 43 28 43 18z m529 -247 c-7 -13 -14
-30 -15 -38 -2 -8 -7 -23 -13 -35 -6 -11 -20 -69 -31 -130 -36 -185 -67 -271
-115 -320 -36 -38 -43 -41 -52 -27 -10 14 -11 14 -6 -5 3 -13 7 -23 9 -23 3 0
45 20 95 45 113 56 125 57 97 8 -12 -21 -29 -47 -37 -57 -9 -11 -10 -16 -3
-12 6 4 12 3 12 -2 0 -16 -13 -22 -26 -11 -9 8 -11 5 -7 -10 4 -15 1 -21 -11
-21 -9 0 -16 -7 -16 -17 0 -14 -2 -14 -20 2 -11 10 -20 24 -20 32 0 8 -5 11
-10 8 -6 -4 -7 -12 -3 -18 4 -8 1 -7 -9 1 -13 10 -22 11 -38 2 -17 -9 -25 -9
-34 0 -8 8 -6 9 9 4 18 -7 19 -6 5 12 -14 18 -14 18 3 5 25 -20 31 -8 7 14
-18 16 -20 16 -26 1 -6 -16 -26 -23 -22 -8 0 4 -2 15 -6 24 -7 15 -12 16 -29
6 -20 -10 -20 -9 2 16 14 14 32 26 40 26 14 0 14 1 1 10 -10 7 -18 5 -26 -5
-9 -13 -13 -12 -30 4 -17 16 -20 16 -31 2 -11 -14 -13 -14 -28 4 -16 20 -16
20 -12 -3 5 -19 3 -21 -9 -11 -8 6 -14 23 -14 36 0 20 -3 23 -14 14 -10 -9
-16 -8 -26 4 -7 8 -15 13 -19 11 -17 -11 -34 15 -35 52 -1 36 -3 39 -17 26
-21 -19 -35 -18 -19 1 18 22 5 18 -38 -10 -88 -58 -329 -77 -284 -22 10 12 38
15 123 15 93 -1 113 2 131 18 12 11 18 13 14 7 -4 -7 -3 -13 2 -13 10 0 42 44
42 57 0 4 -5 0 -11 -9 -5 -10 -19 -18 -29 -18 -10 0 -22 -5 -25 -10 -8 -13
-26 -3 -24 13 3 29 -2 46 -13 42 -7 -2 -22 2 -32 10 -18 14 -17 17 25 67 45
53 99 138 137 213 l20 40 118 -3 c133 -4 136 -14 9 -33 -89 -13 -87 -25 6 -40
87 -15 217 7 302 51 34 18 66 36 72 41 15 15 18 -7 4 -33z m-1292 -75 l-2
-108 35 3 35 2 -38 -20 c-71 -39 -80 -4 -46 173 7 31 13 57 14 57 2 0 2 -48 2
-107z m133 17 c0 -5 -5 -10 -11 -10 -5 0 -7 5 -4 10 3 6 8 10 11 10 2 0 4 -4
4 -10z m1230 -92 c-23 -40 -70 -122 -104 -181 -33 -60 -62 -102 -64 -95 -5 25
67 179 115 247 91 130 122 147 53 29z m3437 61 c15 -6 39 -12 53 -14 49 -8 98
-23 126 -37 16 -9 55 -29 88 -46 32 -17 62 -34 65 -39 10 -14 86 -52 157 -79
62 -23 161 -71 174 -84 3 -3 51 -20 107 -38 57 -18 105 -37 108 -42 3 -4 -28
-11 -68 -15 -99 -10 -212 -40 -263 -70 -70 -41 -60 -46 28 -14 64 24 116 34
233 45 199 19 292 7 412 -54 106 -54 182 -203 170 -330 -4 -44 -3 -51 5 -32
14 36 3 156 -20 218 -26 68 -12 68 63 1 84 -78 108 -125 107 -211 -2 -78 -23
-135 -73 -198 -41 -51 -120 -104 -184 -123 -132 -39 -155 -45 -155 -39 0 4 19
18 42 31 103 59 190 178 158 216 -30 36 -120 13 -230 -57 -31 -20 -75 -42 -97
-48 -23 -7 -58 -26 -78 -43 -33 -27 -36 -34 -33 -69 l4 -40 -40 6 c-22 4 -42
3 -46 -3 -3 -6 -27 0 -59 15 -111 53 -341 81 -414 50 -18 -7 -46 -28 -61 -47
-23 -27 -27 -39 -22 -70 6 -38 -8 -62 -50 -86 -16 -9 -24 -9 -33 0 -9 9 -16 9
-30 0 -10 -7 -29 -9 -41 -6 -18 5 -21 3 -14 -8 6 -10 0 -8 -19 4 -19 12 -27
14 -27 5 0 -9 -3 -8 -10 2 -6 9 -13 11 -17 5 -8 -11 -34 -14 -43 -5 -9 9 -74
28 -120 35 -25 4 -64 18 -88 31 l-42 24 6 -24 c6 -26 -9 -42 -28 -29 -7 4 -23
6 -35 5 -11 -2 -24 2 -28 7 -4 7 1 9 12 5 16 -5 15 -4 -2 11 -13 10 -21 12
-23 5 -2 -6 -10 -2 -18 9 -9 12 -22 18 -36 16 -11 -3 -28 0 -37 5 -9 5 -12 10
-8 10 4 0 -17 23 -48 52 -55 51 -85 67 -85 46 0 -6 -7 -8 -15 -4 -9 3 -15 0
-15 -9 0 -8 4 -15 10 -15 5 0 7 -7 4 -15 -5 -12 -8 -12 -20 0 -8 7 -14 19 -14
26 0 7 -3 10 -6 6 -4 -3 -14 9 -24 28 -18 35 -70 194 -70 214 0 6 20 -10 46
-35 40 -40 148 -103 159 -92 3 2 -14 40 -36 83 -50 97 -79 206 -79 299 0 60 3
73 20 84 19 12 20 10 21 -60 1 -40 1 -78 0 -84 -1 -6 8 -31 19 -55 16 -36 19
-38 15 -14 -13 69 -18 245 -6 245 6 0 11 17 11 38 0 33 8 48 54 98 52 57 138
212 166 298 16 50 31 30 29 -39 -2 -34 1 -49 10 -47 11 2 74 49 205 154 63 50
77 55 123 37z m-5679 -333 c218 -130 451 -157 695 -79 75 23 78 10 7 -35 -78
-50 -59 -56 56 -17 92 31 164 67 227 112 26 20 51 33 54 30 13 -14 -124 -134
-187 -164 -151 -71 -410 -95 -576 -53 -168 42 -343 160 -431 288 -24 35 -43
67 -43 72 0 4 26 -17 58 -49 32 -31 95 -78 140 -105z m1381 143 c-20 -37 -96
-108 -166 -153 -68 -44 -211 -111 -219 -103 -2 2 64 49 148 104 84 55 173 117
198 136 54 43 54 43 39 16z m834 -220 c-12 -45 -23 -91 -23 -102 0 -19 4 -17
35 13 19 19 35 32 35 29 0 -13 -84 -228 -106 -270 -18 -36 -32 -50 -64 -63
-23 -9 -39 -20 -36 -25 3 -5 -6 -8 -20 -8 -22 0 -23 1 -11 16 31 35 61 110 84
213 13 59 35 133 49 165 24 54 62 111 75 112 3 1 -5 -36 -18 -80z m-573 67 c0
-2 -7 -7 -16 -10 -8 -3 -12 -2 -9 4 6 10 25 14 25 6z m-317 -91 c126 -62 215
-85 338 -86 112 -1 120 -14 27 -45 -108 -36 -260 0 -399 95 -134 91 -116 110
34 36z m-1434 -25 c-13 -9 -39 -2 -39 10 0 4 12 5 26 2 17 -3 22 -7 13 -12z
m-116 -7 c-7 -2 -19 -2 -25 0 -7 3 -2 5 12 5 14 0 19 -2 13 -5z m5267 -77 c0
-2 -8 -10 -17 -17 -16 -13 -17 -12 -4 4 13 16 21 21 21 13z m-5032 -56 c-7
-10 -14 -17 -17 -15 -4 4 18 35 25 35 2 0 -1 -9 -8 -20z m22 -38 c-6 -2 -10
-8 -10 -13 0 -4 7 -6 15 -3 8 4 15 1 15 -6 0 -6 4 -9 9 -5 5 3 13 0 16 -5 5
-8 -5 -9 -32 -5 -29 4 -33 3 -16 -4 23 -11 25 -30 3 -56 -12 -14 -12 -18 1
-26 10 -8 8 -9 -9 -4 -20 6 -22 3 -19 -17 2 -13 2 -17 0 -10 -3 7 -8 10 -11 8
-4 -2 -8 14 -10 37 -2 23 2 43 9 48 8 5 6 14 -10 30 -24 26 -31 59 -7 37 8 -7
12 -16 9 -20 -2 -5 3 -8 11 -8 9 0 15 3 14 8 0 4 2 15 7 25 6 15 10 16 16 5 5
-7 4 -14 -1 -16z m40 14 c0 -3 -4 -8 -10 -11 -5 -3 -10 -1 -10 4 0 6 5 11 10
11 6 0 10 -2 10 -4z m777 -46 c2 -22 -2 -32 -20 -40 -20 -10 -20 -10 -4 3 9 8
17 20 17 28 0 12 -2 12 -9 0 -6 -10 -10 -10 -16 -1 -6 9 -10 9 -16 -1 -5 -8
-9 -9 -9 -3 0 6 8 18 17 25 11 10 14 10 9 2 -4 -7 -2 -13 3 -13 11 0 15 15 11
35 -1 6 2 7 6 3 4 -5 9 -21 11 -38z m40 14 c-3 -3 -12 -4 -19 -1 -8 3 -5 6 6
6 11 1 17 -2 13 -5z m51 -14 c-7 -11 -16 -20 -20 -20 -5 0 -8 -5 -8 -12 0 -9
3 -9 11 -1 15 15 39 5 32 -13 -4 -10 -18 -13 -51 -9 -27 2 -52 -1 -62 -8 -13
-11 -13 -10 -1 6 7 9 21 17 31 17 9 0 23 11 30 25 7 13 20 26 29 28 9 3 17 5
19 6 1 0 -3 -8 -10 -19z m-48 -9 c0 -12 -20 -25 -27 -18 -7 7 6 27 18 27 5 0
9 -4 9 -9z m3479 0 c10 -7 7 -9 -12 -8 -14 1 -23 5 -20 10 6 9 15 9 32 -2z
m-3293 -23 c-20 -29 -20 -48 0 -48 8 0 12 5 9 10 -10 16 38 12 63 -6 20 -14
33 -42 13 -30 -4 3 -16 -1 -26 -8 -16 -12 -14 -13 23 -9 44 4 58 -11 21 -22
-16 -5 -18 -9 -9 -15 11 -7 10 -12 -3 -25 -21 -21 -22 -32 -2 -15 9 7 18 11
20 8 8 -8 -24 -32 -47 -35 -18 -3 -19 -1 -7 13 8 10 9 18 2 22 -5 4 -13 14
-17 22 -3 8 -4 3 -1 -12 4 -22 2 -26 -10 -22 -8 3 -12 10 -9 15 3 5 0 9 -5 9
-18 0 -13 -28 7 -39 22 -14 10 -14 -24 -1 -20 8 -29 8 -35 -1 -4 -8 -10 3 -15
27 -4 21 -14 50 -23 64 -11 17 -12 22 -2 16 10 -7 12 -4 6 13 -4 14 -2 21 8
21 10 0 12 9 9 31 -3 23 -1 30 7 25 7 -4 9 -16 6 -27 -4 -11 -2 -19 4 -19 6 0
11 6 11 14 0 14 26 46 36 46 3 0 -2 -10 -10 -22z m-2046 -8 c0 -5 -2 -10 -4
-10 -3 0 -8 5 -11 10 -3 6 -1 10 4 10 6 0 11 -4 11 -10z m2118 -15 c-3 -3 -9
2 -12 12 -6 14 -5 15 5 6 7 -7 10 -15 7 -18z m-253 -15 c3 -5 1 -10 -4 -10 -6
0 -11 5 -11 10 0 6 2 10 4 10 3 0 8 -4 11 -10z m-11 -15 c16 -12 17 -15 4 -15
-8 0 -21 7 -28 15 -16 19 -1 19 24 0z m349 -18 c-2 -4 -9 -5 -14 -2 -13 9 -11
-9 4 -25 6 -7 0 -5 -15 6 -35 24 -35 32 1 30 16 0 27 -4 24 -9z m92 -17 c3 -5
1 -10 -4 -10 -6 0 -11 5 -11 10 0 6 2 10 4 10 3 0 8 -4 11 -10z m-318 -37 c5
-13 -35 -38 -44 -29 -3 3 5 10 18 15 18 7 20 10 6 10 -10 1 -15 6 -12 12 8 12
27 7 32 -8z m323 7 c0 -5 -7 -7 -15 -4 -8 4 -15 8 -15 10 0 2 7 4 15 4 8 0 15
-4 15 -10z m-125 -18 c-3 -3 -11 0 -18 7 -9 10 -8 11 6 5 10 -3 15 -9 12 -12z
m115 -2 c13 -8 13 -10 -2 -10 -9 0 -20 5 -23 10 -8 13 5 13 25 0z m2885 -75
c-9 -36 -15 -72 -11 -80 5 -14 9 -14 33 2 16 10 34 23 41 30 7 7 17 13 20 13
4 0 30 -35 59 -77 65 -98 145 -179 231 -233 37 -24 94 -61 127 -82 l60 -40
-70 69 c-39 38 -85 94 -104 126 -37 62 -84 183 -78 201 2 6 20 -15 40 -47 83
-129 272 -296 456 -401 73 -42 229 -123 271 -140 8 -3 5 -4 -7 -2 -13 2 -26 0
-29 -5 -3 -5 0 -9 7 -9 7 0 9 -3 6 -7 -4 -3 -16 2 -26 11 -16 15 -23 15 -41 6
-18 -10 -24 -9 -31 1 -4 7 -5 17 -2 23 3 5 1 6 -5 2 -6 -4 -9 -12 -6 -19 3
-10 -5 -12 -31 -9 -31 4 -34 2 -29 -14 5 -18 5 -18 -9 -2 -11 14 -16 15 -26 5
-10 -9 -15 -8 -26 6 -8 12 -15 14 -20 8 -3 -6 -2 -11 3 -11 6 0 12 -7 16 -15
5 -13 3 -13 -17 0 -21 13 -74 13 -121 -1 -11 -4 -16 -2 -12 4 3 6 -11 10 -34
10 -22 1 -38 -3 -36 -7 3 -4 -8 -12 -25 -18 -20 -8 -31 -8 -36 -1 -3 6 -2 8 3
5 6 -3 16 -2 24 4 11 6 7 9 -15 11 -32 2 -42 1 -120 -5 -27 -3 -44 -2 -37 0 6
3 12 9 12 14 0 4 -6 6 -14 3 -7 -3 -20 1 -27 8 -27 26 -115 76 -174 99 -43 16
-79 41 -128 88 -72 70 -111 138 -177 310 l-33 84 56 54 c34 32 61 51 70 47 10
-3 16 4 21 27 3 18 9 29 13 26 3 -4 -2 -36 -12 -72z m-2917 21 c-7 -8 -15 -12
-17 -11 -5 6 10 25 20 25 5 0 4 -6 -3 -14z m5956 -119 c0 -50 -5 -71 -24 -98
-32 -46 -68 -80 -117 -107 -34 -18 -47 -21 -79 -13 -24 6 -30 9 -16 10 14 1
22 7 22 20 0 10 17 30 40 46 54 37 136 126 157 169 9 20 17 36 17 36 1 0 1
-29 0 -63z m-274 33 c0 -24 -61 -53 -96 -44 -33 8 -30 21 9 44 43 27 87 27 87
0z m-1880 -180 c0 -5 -4 -10 -10 -10 -5 0 -10 5 -10 10 0 6 5 10 10 10 6 0 10
-4 10 -10z m1210 -26 c36 -8 75 -22 88 -30 l23 -15 -23 -21 c-20 -18 -32 -19
-96 -14 -40 3 -92 11 -117 17 -52 13 -113 67 -93 81 16 11 133 1 218 -18z
m-1172 -192 c165 -131 253 -188 325 -213 51 -17 52 -18 17 -19 -29 -1 -32 -3
-15 -10 17 -7 14 -9 -14 -9 -24 -1 -32 3 -28 13 4 11 -7 14 -54 13 -60 -1 -84
8 -61 22 9 6 4 12 -19 21 -66 28 -176 109 -244 181 -60 64 -135 178 -135 205
0 5 19 -13 42 -40 24 -27 107 -101 186 -164z m1397 148 c3 -6 -1 -7 -9 -4 -18
7 -21 14 -7 14 6 0 13 -4 16 -10z m-559 -91 c19 -22 19 -22 -3 -8 -13 8 -23
17 -23 21 0 12 6 9 26 -13z m-658 -63 c79 -61 296 -178 400 -217 45 -18 82
-34 82 -37 0 -3 -42 -2 -92 1 -59 4 -87 3 -78 -3 11 -7 11 -10 2 -10 -7 0 -15
7 -18 15 -4 8 -11 15 -17 15 -6 0 -52 20 -102 44 -71 35 -105 60 -164 119 -77
78 -118 136 -88 124 8 -3 42 -26 75 -51z m-4704 -174 c3 -5 -1 -9 -9 -9 -8 0
-12 4 -9 9 3 4 7 8 9 8 2 0 6 -4 9 -8z m-79 -12 c3 -6 -1 -7 -9 -4 -18 7 -21
14 -7 14 6 0 13 -4 16 -10z m-110 -20 c3 -5 1 -10 -4 -10 -6 0 -11 5 -11 10 0
6 2 10 4 10 3 0 8 -4 11 -10z m4805 6 c0 -2 -8 -10 -17 -17 -16 -13 -17 -12
-4 4 13 16 21 21 21 13z m-5142 -38 c8 -10 4 -13 -13 -14 -19 -2 -21 1 -12 12
15 16 13 16 25 2z m5427 -8 c3 -5 2 -10 -4 -10 -5 0 -13 5 -16 10 -3 6 -2 10
4 10 5 0 13 -4 16 -10z m-5565 -34 c0 -3 -4 -8 -10 -11 -5 -3 -10 -1 -10 4 0
6 5 11 10 11 6 0 10 -2 10 -4z m-197 -65 c4 -1 7 -5 7 -11 0 -13 -43 -6 -48 8
-2 6 5 9 15 7 10 -2 21 -4 26 -4z m77 -26 c0 -12 -19 -12 -23 0 -4 9 -1 12 9
8 7 -3 14 -7 14 -8z m6110 -69 c0 -2 -7 -7 -16 -10 -8 -3 -12 -2 -9 4 6 10 25
14 25 6z m-43 -48 c-3 -8 -6 -5 -6 6 -1 11 2 17 5 13 3 -3 4 -12 1 -19z
m-5197 -42 c0 -2 -9 -6 -20 -9 -11 -3 -18 -1 -14 4 5 9 34 13 34 5z m4840 -16
c0 -5 -2 -10 -4 -10 -3 0 -8 5 -11 10 -3 6 -1 10 4 10 6 0 11 -4 11 -10z
m-3420 -120 c0 -5 -2 -10 -4 -10 -3 0 -8 5 -11 10 -3 6 -1 10 4 10 6 0 11 -4
11 -10z m2600 -4 c0 -3 -4 -8 -10 -11 -5 -3 -10 -1 -10 4 0 6 5 11 10 11 6 0
10 -2 10 -4z"/>
<path d="M6760 9680 c0 -5 5 -10 11 -10 5 0 7 5 4 10 -3 6 -8 10 -11 10 -2 0
-4 -4 -4 -10z"/>
<path d="M5837 5909 c7 -7 15 -10 18 -7 3 3 -2 9 -12 12 -14 6 -15 5 -6 -5z"/>
<path d="M5895 5910 c-3 -5 -1 -10 4 -10 6 0 11 5 11 10 0 6 -2 10 -4 10 -3 0
-8 -4 -11 -10z"/>
<path d="M3685 4490 c3 -5 8 -10 11 -10 2 0 4 5 4 10 0 6 -5 10 -11 10 -5 0
-7 -4 -4 -10z"/>
<path d="M2395 4090 c-3 -5 -1 -10 4 -10 6 0 11 5 11 10 0 6 -2 10 -4 10 -3 0
-8 -4 -11 -10z"/>
<path d="M2408 4053 c6 -2 18 -2 25 0 6 3 1 5 -13 5 -14 0 -19 -2 -12 -5z"/>
<path d="M4528 3174 c13 -25 42 -50 42 -37 0 5 -12 20 -26 34 -24 21 -26 22
-16 3z"/>
<path d="M2940 3786 c0 -2 8 -10 18 -17 15 -13 16 -12 3 4 -13 16 -21 21 -21
13z"/>
<path d="M2818 3463 c7 -3 16 -2 19 1 4 3 -2 6 -13 5 -11 0 -14 -3 -6 -6z"/>
<path d="M2220 2954 c0 -16 9 -18 28 -5 10 6 9 10 -7 14 -14 3 -21 0 -21 -9z"/>
<path d="M2270 2875 c-11 -13 -10 -14 4 -9 9 3 16 10 16 15 0 13 -6 11 -20 -6z"/>
<path d="M2365 2780 c4 -6 11 -8 16 -5 14 9 11 15 -7 15 -8 0 -12 -5 -9 -10z"/>
<path d="M3573 2178 c3 -9 1 -19 -6 -21 -7 -2 -9 -7 -6 -11 12 -13 28 19 17
34 -8 13 -9 12 -5 -2z"/>
<path d="M3705 2070 c3 -5 8 -10 11 -10 2 0 4 5 4 10 0 6 -5 10 -11 10 -5 0
-7 -4 -4 -10z"/>
<path d="M4015 1909 c-4 -6 -5 -12 -2 -15 2 -3 7 2 10 11 7 17 1 20 -8 4z"/>
<path d="M4067 1903 c-13 -12 -7 -22 12 -20 15 1 17 4 9 14 -12 15 -13 15 -21
6z"/>
<path d="M7140 1824 c0 -42 43 -120 60 -109 14 9 -2 45 -18 43 -8 -2 -17 4
-19 12 -4 13 -3 13 6 0 7 -9 11 -10 11 -3 0 6 -5 15 -10 18 -6 4 -8 10 -5 15
3 4 -2 13 -10 20 -8 7 -15 8 -15 4z"/>
<path d="M8532 1585 c-56 -24 -93 -56 -123 -103 -53 -83 -35 -122 56 -122 87
0 179 65 205 146 11 32 10 39 -7 63 -24 31 -80 38 -131 16z m85 -1 c31 -8 37
-37 17 -79 -12 -27 -20 -33 -29 -25 -9 7 -20 7 -38 -1 -16 -7 -39 -9 -64 -4
-21 5 -42 8 -46 7 -13 -4 10 32 41 61 16 15 42 32 58 37 38 11 35 11 61 4z"/>
<path d="M7035 1370 c-3 -5 -1 -10 4 -10 6 0 11 5 11 10 0 6 -2 10 -4 10 -3 0
-8 -4 -11 -10z"/>
<path d="M7030 1330 c0 -5 17 -10 38 -10 27 0 33 3 22 10 -20 13 -60 13 -60 0z"/>
<path d="M2055 1719 c-4 -6 -5 -12 -2 -15 2 -3 7 2 10 11 7 17 1 20 -8 4z"/>
<path d="M2031 1684 c0 -11 3 -14 6 -6 3 7 2 16 -1 19 -3 4 -6 -2 -5 -13z"/>
<path d="M3165 1660 c3 -5 8 -10 11 -10 2 0 4 5 4 10 0 6 -5 10 -11 10 -5 0
-7 -4 -4 -10z"/>
<path d="M3060 1566 c0 -2 7 -7 16 -10 8 -3 12 -2 9 4 -6 10 -25 14 -25 6z"/>
<path d="M7980 8753 c0 -5 27 -35 61 -68 64 -64 159 -185 159 -204 0 -6 4 -11
10 -11 5 0 14 -19 20 -42 6 -24 18 -48 26 -54 8 -7 14 -16 13 -20 -1 -5 3 -22
10 -39 7 -16 10 -38 7 -50 -3 -11 1 -28 9 -38 7 -10 11 -29 9 -43 -2 -13 0
-24 6 -24 5 0 10 -20 10 -44 0 -25 5 -48 10 -51 6 -3 10 -21 10 -38 0 -52 23
-187 32 -187 4 0 8 -9 8 -20 0 -11 -4 -20 -10 -20 -12 0 -31 35 -23 44 3 3 1
6 -5 6 -7 0 -12 4 -12 10 0 18 -51 120 -114 228 -56 97 -168 252 -182 252 -6
0 4 -19 22 -40 21 -25 127 -239 164 -330 28 -71 34 -98 35 -162 0 -43 3 -70 7
-60 5 13 7 11 7 -8 0 -14 -6 -34 -14 -44 -15 -20 -15 -20 -15 0 0 10 -8 24
-18 31 -18 10 -19 8 -15 -40 3 -29 8 -64 13 -79 6 -17 5 -28 -1 -28 -16 0 -10
-58 7 -68 15 -8 15 -11 -2 -32 -11 -12 -28 -32 -39 -43 -11 -11 -14 -17 -7
-13 15 9 15 1 1 -25 -6 -11 -12 -39 -15 -61 -2 -23 -15 -55 -29 -74 -15 -19
-21 -35 -15 -39 6 -4 4 -15 -5 -29 -12 -18 -22 -67 -24 -124 -2 -33 -24 0 -47
68 -30 88 -48 114 -39 55 4 -22 2 -52 -4 -67 -20 -53 -58 -27 -86 57 -18 54
-41 95 -53 95 -4 0 -4 -44 1 -97 5 -64 4 -113 -2 -140 -6 -23 -11 -55 -11 -72
0 -16 -4 -32 -10 -36 -5 -3 -19 -33 -31 -66 -15 -39 -26 -58 -35 -55 -8 3 -11
0 -8 -8 3 -7 -9 -25 -26 -40 -17 -14 -26 -26 -18 -26 7 -1 -4 -10 -24 -20 -20
-11 -42 -28 -48 -37 -8 -14 -13 -15 -17 -5 -4 9 -14 6 -38 -13 -19 -14 -36
-25 -39 -25 -7 0 1 121 9 142 10 25 -3 42 -21 27 -17 -14 -44 -67 -44 -88 -1
-18 -38 -105 -60 -138 -8 -13 -22 -23 -31 -23 -9 0 -20 -7 -23 -16 -3 -8 -10
-12 -16 -9 -5 3 -10 -1 -10 -9 0 -9 -4 -16 -10 -16 -5 0 -10 7 -10 15 0 8 -6
15 -13 15 -7 0 -19 22 -26 50 -21 81 -35 66 -46 -50 -4 -36 -11 -69 -15 -74
-5 -5 -27 -10 -49 -12 -48 -4 -84 -21 -76 -35 4 -5 3 -9 -2 -10 -4 0 -19 -2
-32 -5 -20 -4 -23 -1 -19 20 4 18 -1 27 -19 35 -13 6 -31 27 -39 46 -8 20 -21
38 -29 41 -7 3 -11 12 -9 19 3 7 1 16 -4 19 -16 10 -44 -5 -38 -20 9 -24 -8
-15 -34 17 -14 18 -33 40 -42 50 -10 11 -18 22 -18 25 0 14 -85 154 -93 154
-6 0 -6 -18 -2 -42 19 -107 11 -120 -26 -45 -12 23 -34 52 -50 65 -16 13 -29
30 -29 38 0 8 -4 14 -9 14 -5 0 -18 15 -28 33 -30 49 -88 111 -319 342 -230
229 -312 331 -383 473 -43 87 -69 118 -58 70 65 -294 89 -468 63 -468 -15 0
-155 144 -219 225 -59 74 -127 221 -157 335 -6 25 -17 106 -24 180 -12 123
-13 131 -21 86 -11 -66 2 -214 26 -311 47 -184 179 -389 368 -572 64 -61 117
-111 118 -110 4 5 -31 186 -62 314 -19 79 -35 151 -35 160 0 10 26 -23 58 -74
87 -139 134 -207 154 -221 10 -7 18 -20 18 -28 0 -8 5 -14 10 -14 6 0 15 -11
22 -25 6 -13 14 -22 19 -20 10 7 115 -104 176 -185 88 -116 108 -145 108 -153
0 -4 5 -11 11 -15 6 -4 13 -15 17 -25 4 -10 11 -16 16 -13 12 8 32 -17 96
-124 54 -89 114 -208 145 -290 7 -19 21 -46 31 -60 26 -39 65 -131 100 -238
24 -74 33 -121 37 -200 3 -63 8 -98 13 -90 6 9 9 6 9 -12 0 -34 -36 -109 -67
-142 -35 -37 -18 -35 70 6 40 19 124 55 187 81 148 61 222 100 278 150 26 22
42 33 38 25 -4 -8 10 3 31 25 22 22 65 61 95 87 31 26 92 92 136 146 114 142
182 273 237 454 l25 83 -3 -115 c-3 -97 -7 -125 -29 -177 -15 -35 -23 -63 -19
-63 5 0 41 30 80 66 144 133 270 354 357 624 26 80 55 161 65 181 84 167 122
484 84 702 -43 247 -163 490 -327 662 -68 72 -188 166 -188 148z m-350 -2093
c0 -5 -4 -10 -10 -10 -5 0 -10 5 -10 10 0 6 5 10 10 10 6 0 10 -4 10 -10z"/>
<path d="M5348 8643 c7 -3 16 -2 19 1 4 3 -2 6 -13 5 -11 0 -14 -3 -6 -6z"/>
<path d="M161 7494 c0 -11 3 -14 6 -6 3 7 2 16 -1 19 -3 4 -6 -2 -5 -13z"/>
<path d="M141 7419 c-10 -46 -9 -70 3 -58 6 6 18 109 13 109 -3 0 -10 -23 -16
-51z"/>
<path d="M5350 7270 c-101 -19 -182 -61 -252 -133 -40 -41 -75 -104 -64 -115
3 -2 32 7 64 21 157 71 367 92 540 55 85 -18 91 12 18 90 -63 67 -194 102
-306 82z m132 -37 c35 -14 38 -18 22 -24 -41 -16 -184 -7 -184 12 0 10 55 27
92 28 15 1 46 -7 70 -16z"/>
<path d="M435 7170 c-3 -5 -1 -10 4 -10 6 0 11 5 11 10 0 6 -2 10 -4 10 -3 0
-8 -4 -11 -10z"/>
<path d="M8465 7112 c-50 -23 -97 -77 -93 -106 3 -19 8 -21 73 -18 109 5 296
-43 369 -94 52 -36 61 -1 18 67 -83 129 -259 202 -367 151z m113 -29 c-10 -2
-28 -2 -40 0 -13 2 -5 4 17 4 22 1 32 -1 23 -4z"/>
<path d="M425 6971 c3 -47 7 -87 10 -89 9 -9 4 133 -6 153 -6 13 -7 -8 -4 -64z"/>
<path d="M1368 7012 c-9 -15 -13 -35 -9 -46 6 -14 10 -9 20 24 15 50 11 59
-11 22z"/>
<path d="M316 7001 c-4 -7 -5 -15 -2 -18 9 -9 19 4 14 18 -4 11 -6 11 -12 0z"/>
<path d="M1347 6923 c3 -7 6 -13 8 -13 2 0 5 6 8 13 3 8 -1 14 -8 14 -7 0 -11
-6 -8 -14z"/>
<path d="M9104 6908 c-4 -7 -3 -8 4 -4 7 4 12 2 12 -4 0 -6 5 -8 10 -5 11 7 4
25 -10 25 -5 0 -12 -5 -16 -12z"/>
<path d="M1339 6898 c-5 -15 -9 -71 -5 -67 12 12 25 69 15 69 -5 0 -9 -1 -10
-2z"/>
<path d="M451 6803 c-1 -12 4 -25 9 -28 12 -7 12 2 0 30 -8 19 -9 19 -9 -2z"/>
<path d="M1319 6773 c0 -27 -2 -60 -4 -75 -2 -16 0 -28 4 -28 5 0 11 24 15 53
8 73 8 97 -4 97 -5 0 -10 -21 -11 -47z"/>
<path d="M4088 6703 c7 -3 16 -2 19 1 4 3 -2 6 -13 5 -11 0 -14 -3 -6 -6z"/>
<path d="M481 6649 c6 -11 13 -33 15 -47 11 -60 38 -139 60 -177 29 -49 31
-34 4 27 -18 42 -55 166 -59 199 -1 4 -8 9 -16 13 -13 5 -14 2 -4 -15z"/>
<path d="M9052 6528 c-7 -7 -12 -16 -12 -21 0 -5 7 -1 16 8 9 9 14 18 12 20
-2 3 -10 -1 -16 -7z"/>
<path d="M4160 6469 c0 -5 5 -7 10 -4 6 3 10 8 10 11 0 2 -4 4 -10 4 -5 0 -10
-5 -10 -11z"/>
<path d="M7138 6463 c7 -3 16 -2 19 1 4 3 -2 6 -13 5 -11 0 -14 -3 -6 -6z"/>
<path d="M8980 6280 c-13 -8 -12 -10 3 -10 9 0 17 5 17 10 0 12 -1 12 -20 0z"/>
<path d="M4227 6236 c-3 -8 -2 -18 4 -21 5 -4 7 -9 5 -13 -2 -4 2 -12 9 -19
10 -10 14 -9 19 3 3 9 1 12 -4 9 -6 -3 -10 2 -10 12 0 10 -4 24 -9 31 -7 11
-9 11 -14 -2z"/>
<path d="M4363 6015 c0 -8 4 -12 9 -9 5 3 6 10 3 15 -9 13 -12 11 -12 -6z"/>
<path d="M4175 5972 c-3 -9 -3 -13 1 -9 4 4 13 -1 20 -11 7 -9 16 -14 20 -9 4
4 -2 16 -13 27 -19 17 -22 18 -28 2z"/>
<path d="M1442 5952 c-10 -7 -8 -12 7 -26 17 -15 19 -16 25 -1 11 29 -6 43
-32 27z m28 -12 c0 -5 -4 -10 -10 -10 -5 0 -10 5 -10 10 0 6 5 10 10 10 6 0
10 -4 10 -10z"/>
<path d="M1220 5930 c0 -5 5 -10 10 -10 6 0 10 5 10 10 0 6 -4 10 -10 10 -5 0
-10 -4 -10 -10z"/>
<path d="M4466 5924 c-3 -9 -6 -21 -5 -27 0 -7 4 -2 10 11 5 14 13 20 20 16 8
-4 9 -3 5 4 -10 17 -23 15 -30 -4z"/>
<path d="M4527 5916 c10 -13 22 -22 26 -19 5 3 -1 14 -12 24 -28 26 -35 24
-14 -5z"/>
<path d="M4145 5920 c4 -6 11 -8 16 -5 14 9 11 15 -7 15 -8 0 -12 -5 -9 -10z"/>
<path d="M1237 5914 c-3 -4 9 -30 28 -59 18 -29 30 -57 27 -61 -4 -4 -1 -4 6
0 7 4 12 2 12 -6 0 -8 14 -28 30 -46 17 -18 30 -36 30 -40 0 -4 27 -36 60 -71
75 -80 78 -68 4 19 -75 89 -165 221 -167 248 -1 21 -17 29 -30 16z"/>
<path d="M4488 5893 c6 -2 18 -2 25 0 6 3 1 5 -13 5 -14 0 -19 -2 -12 -5z"/>
<path d="M3542 5620 c0 -14 2 -19 5 -12 2 6 2 18 0 25 -3 6 -5 1 -5 -13z"/>
<path d="M1535 5530 c3 -5 8 -10 11 -10 2 0 4 5 4 10 0 6 -5 10 -11 10 -5 0
-7 -4 -4 -10z"/>
<path d="M1560 5495 c7 -8 17 -15 22 -15 6 0 5 7 -2 15 -7 8 -17 15 -22 15 -6
0 -5 -7 2 -15z"/>
<path d="M6936 5155 c-138 -52 -161 -141 -62 -240 52 -52 99 -75 189 -90 47
-8 49 -32 8 -96 -78 -121 -218 -189 -362 -176 -92 8 -172 63 -214 146 -29 58
-38 21 -9 -40 46 -97 111 -160 149 -145 10 3 15 -14 20 -67 24 -266 52 -399
99 -468 30 -44 115 -89 165 -89 152 1 279 215 357 598 3 17 11 22 37 22 59 0
131 28 163 62 37 39 79 108 67 108 -5 0 -17 -14 -27 -31 -24 -40 -98 -87 -151
-95 -123 -18 -246 81 -247 201 -1 49 6 65 30 65 65 0 147 53 179 113 20 39 13
105 -17 146 -12 18 -45 44 -73 58 -45 23 -66 27 -157 30 -75 2 -116 -2 -144
-12z m267 -21 c58 -20 85 -40 107 -77 28 -45 25 -72 -12 -112 -84 -89 -306
-75 -422 26 -25 22 -46 49 -46 59 0 24 45 77 82 96 68 35 203 39 291 8z m-363
-889 c50 -18 131 -21 176 -7 42 13 74 -3 97 -48 47 -93 -41 -243 -156 -269
-82 -18 -131 4 -197 86 -18 22 -29 56 -44 132 -19 97 -11 121 42 121 22 0 59
-7 82 -15z"/>
<path d="M9357 4393 c28 -6 36 -29 16 -49 -14 -13 -14 -17 -2 -25 11 -7 10 -9
-6 -9 -17 0 -17 -2 -5 -10 12 -8 11 -10 -7 -10 -21 0 -29 -15 -24 -43 1 -5 -4
-7 -11 -4 -7 2 -25 1 -39 -4 -17 -4 -31 -3 -38 4 -9 9 -11 5 -8 -13 3 -21 12
-27 53 -37 104 -24 283 -13 379 23 17 7 18 6 7 -8 -23 -29 -108 -57 -201 -68
-97 -11 -98 -11 -233 18 -48 10 -85 15 -82 10 3 -4 -2 -8 -11 -8 -25 0 -31
-31 -9 -47 18 -13 17 -14 -11 -8 -16 3 49 -28 145 -70 194 -84 182 -83 255
-19 l40 35 -32 -6 c-38 -7 -93 2 -93 16 0 5 12 9 28 9 93 0 332 174 388 282
18 34 12 47 -12 27 -28 -23 -192 -23 -350 0 -125 18 -199 26 -137 14z"/>
<path d="M8996 4049 c3 -5 1 -9 -5 -9 -7 0 -7 -8 -1 -26 6 -14 6 -23 1 -20 -5
4 -17 3 -26 0 -13 -6 -14 -9 -3 -16 9 -6 3 -8 -19 -5 -18 2 -33 0 -33 -5 0 -5
-4 -6 -10 -3 -5 3 -10 -1 -10 -10 0 -9 4 -14 9 -10 5 3 13 1 16 -5 4 -6 3 -9
-2 -8 -4 1 -28 -8 -52 -20 -51 -25 -67 -27 -74 -9 -4 9 -6 9 -6 -1 -1 -7 9
-17 22 -23 20 -8 19 -9 -6 -4 -18 4 -26 2 -22 -4 3 -7 0 -8 -9 -5 -11 4 -16 0
-16 -11 0 -9 -5 -13 -10 -10 -6 4 -8 10 -5 15 3 4 -1 10 -8 13 -9 3 -12 -4
-11 -25 2 -29 1 -30 -32 -25 -27 5 -37 2 -42 -11 -5 -14 -7 -13 -13 8 l-7 25
-1 -24 c-1 -20 -3 -21 -16 -11 -8 7 -15 8 -15 3 0 -5 -11 -10 -26 -11 -17 -1
-23 2 -19 11 4 6 0 4 -8 -5 -10 -13 -29 -18 -63 -18 -38 0 -45 -3 -34 -11 12
-9 11 -10 -7 -6 -16 4 -20 1 -16 -11 4 -9 2 -13 -4 -9 -23 15 -63 15 -63 1 0
-17 -22 -18 -39 -1 -10 10 -11 8 -5 -7 5 -14 4 -17 -5 -12 -7 5 -21 0 -32 -10
-18 -16 -19 -16 -13 -1 5 13 2 16 -10 11 -9 -3 -16 -17 -16 -30 0 -25 -14 -32
-26 -12 -4 6 -3 8 3 5 5 -3 10 0 10 8 0 10 -4 12 -12 5 -7 -5 -16 -6 -20 -2
-5 4 -5 -2 -1 -12 6 -19 6 -19 -12 -3 -14 13 -24 14 -47 7 l-30 -10 28 4 c18
2 25 0 19 -6 -5 -5 -19 -10 -31 -11 -15 -1 -19 -6 -15 -19 4 -15 1 -17 -28
-12 -22 4 -28 2 -20 -4 12 -8 7 -32 -13 -70 -1 -1 -18 5 -38 13 -49 20 -67 18
-39 -5 51 -42 314 -130 387 -129 l30 0 -25 17 c-33 22 -141 124 -137 129 2 2
29 -8 60 -21 93 -41 170 -57 265 -54 87 3 87 3 57 20 -38 21 -156 131 -132
124 103 -32 148 -38 262 -34 104 4 134 10 227 41 106 36 215 86 190 87 -7 0
-21 -4 -31 -9 -10 -6 -53 -19 -97 -31 -89 -23 -257 -28 -341 -10 -71 16 -155
52 -141 61 7 4 21 3 32 -3 10 -6 85 -13 165 -15 165 -6 283 9 416 52 91 30
228 95 227 109 0 5 -56 29 -124 54 -197 70 -258 90 -252 81z m24 -13 c0 -3 -4
-8 -10 -11 -5 -3 -10 -1 -10 4 0 6 5 11 10 11 6 0 10 -2 10 -4z m-110 -136 c0
-5 -2 -10 -4 -10 -3 0 -8 5 -11 10 -3 6 -1 10 4 10 6 0 11 -4 11 -10z m-53
-24 c0 -8 -6 -12 -15 -9 -11 5 -11 7 0 14 7 5 13 9 14 9 0 0 1 -6 1 -14z m-80
-48 c-3 -8 -6 -5 -6 6 -1 11 2 17 5 13 3 -3 4 -12 1 -19z"/>
<path d="M9105 4038 c33 -17 91 -40 190 -73 46 -15 -56 37 -127 65 -89 34
-122 39 -63 8z"/>
<path d="M9330 3956 c0 -2 7 -7 16 -10 8 -3 12 -2 9 4 -6 10 -25 14 -25 6z"/>
<path d="M8820 3933 c-9 -7 -21 -9 -26 -5 -5 4 -2 -1 6 -12 8 -11 16 -14 18
-7 2 6 9 8 14 5 6 -4 8 -2 4 4 -3 6 -2 13 4 17 5 3 10 2 10 -4 0 -6 7 -8 15
-5 8 4 15 9 15 13 0 11 -41 7 -60 -6z"/>
<path d="M7971 3104 c0 -11 3 -14 6 -6 3 7 2 16 -1 19 -3 4 -6 -2 -5 -13z"/>
<path d="M4695 2089 c-4 -6 -5 -12 -2 -15 2 -3 7 2 10 11 7 17 1 20 -8 4z"/>
<path d="M4950 1241 c0 -5 18 -25 40 -45 42 -38 65 -49 37 -18 -10 10 -14 22
-10 25 3 4 -1 7 -10 7 -9 0 -22 9 -29 20 -13 21 -28 27 -28 11z"/>
<path d="M3258 903 c7 -3 16 -2 19 1 4 3 -2 6 -13 5 -11 0 -14 -3 -6 -6z"/>
<path d="M2140 823 c0 -27 16 -38 24 -17 3 8 10 13 15 9 5 -3 12 -1 16 4 3 6
-4 8 -17 6 -12 -3 -26 1 -30 8 -5 8 -8 4 -8 -10z"/>
<path d="M4655 742 c30 -27 109 -72 126 -72 11 0 18 -4 14 -9 -3 -5 0 -13 6
-17 8 -4 9 -3 5 4 -11 18 3 14 25 -7 12 -11 30 -18 41 -16 14 3 18 0 14 -10
-6 -18 63 -74 84 -68 40 12 60 27 48 36 -9 6 -5 7 11 3 13 -3 20 -1 15 4 -5 4
-18 10 -29 12 -11 2 -20 11 -20 21 0 21 -41 51 -61 43 -11 -4 -12 -2 -4 14 17
32 11 33 -15 2 -18 -22 -31 -28 -50 -24 -14 2 -25 8 -25 12 0 4 -17 11 -37 15
-21 4 -65 20 -98 37 -33 16 -55 25 -50 20z m325 -106 c0 -3 -4 -8 -10 -11 -5
-3 -10 -1 -10 4 0 6 5 11 10 11 6 0 10 -2 10 -4z"/>
<path d="M8008 692 c5 -37 17 -42 25 -11 3 12 3 18 0 15 -3 -3 -11 2 -18 11
-10 13 -11 11 -7 -15z"/>
<path d="M1820 608 c0 -12 3 -17 8 -12 4 5 11 12 15 15 5 3 2 9 -7 12 -12 5
-16 0 -16 -15z"/>
<path d="M8160 620 c-9 -6 -10 -10 -3 -10 6 0 15 5 18 10 8 12 4 12 -15 0z"/>
<path d="M1859 603 c-13 -16 -12 -17 4 -4 16 13 21 21 13 21 -2 0 -10 -8 -17
-17z"/>
<path d="M8090 593 c-14 -7 -18 -13 -10 -13 17 0 47 17 40 23 -3 2 -16 -2 -30
-10z"/>
<path d="M2101 563 c-1 -17 16 -25 25 -12 4 7 3 9 -4 5 -5 -3 -13 0 -15 6 -4
9 -6 10 -6 1z"/>
<path d="M2140 560 c0 -5 5 -10 11 -10 5 0 7 5 4 10 -3 6 -8 10 -11 10 -2 0
-4 -4 -4 -10z"/>
<path d="M5032 549 c-7 -13 -10 -16 -8 -6 7 22 -5 22 -25 -1 -15 -17 -15 -20
3 -31 11 -7 17 -8 14 -2 -4 5 3 12 14 16 11 4 17 11 14 17 -4 7 -2 8 4 4 12
-7 5 -36 -9 -36 -5 0 -9 -5 -9 -10 0 -6 12 -3 26 6 23 16 26 16 42 1 9 -10 11
-17 5 -17 -7 0 -15 5 -18 10 -5 8 -11 8 -20 0 -11 -9 -11 -15 3 -31 9 -10 23
-19 31 -19 8 0 28 -10 45 -23 46 -35 53 -37 53 -23 0 8 -6 12 -14 9 -7 -3 -13
0 -13 5 0 6 -8 13 -18 16 -26 9 -47 47 -31 57 9 5 2 14 -24 29 -20 12 -34 27
-30 33 3 5 1 7 -5 3 -5 -3 -12 -1 -14 5 -2 6 -9 1 -16 -12z m64 -76 c-7 -7
-26 7 -26 19 0 6 6 6 15 -2 9 -7 13 -15 11 -17z"/>
<path d="M7730 506 c0 -2 7 -7 16 -10 8 -3 12 -2 9 4 -6 10 -25 14 -25 6z"/>
<path d="M7688 493 c7 -3 16 -2 19 1 4 3 -2 6 -13 5 -11 0 -14 -3 -6 -6z"/>
<path d="M3110 449 c0 -5 5 -7 10 -4 6 3 10 8 10 11 0 2 -4 4 -10 4 -5 0 -10
-5 -10 -11z"/>
</g>
</svg>
