<?xml version="1.0" standalone="no"?>
<!DOCTYPE svg PUBLIC "-//W3C//DTD SVG 20010904//EN"
 "http://www.w3.org/TR/2001/REC-SVG-20010904/DTD/svg10.dtd">
<svg version="1.0" xmlns="http://www.w3.org/2000/svg"
 width="1024.000000pt" height="1024.000000pt" viewBox="0 0 1024.000000 1024.000000"
 preserveAspectRatio="xMidYMid meet">

<g transform="translate(0.000000,1024.000000) scale(0.100000,-0.100000)"
fill="#000000" stroke="none">
<path d="M5734 9774 c-49 -25 -93 -49 -98 -54 -9 -9 51 10 71 23 7 5 9 1 6
-13 -3 -12 0 -20 6 -20 7 0 9 -5 5 -12 -4 -7 -3 -8 5 -4 6 4 9 12 6 17 -4 5 1
9 9 9 9 0 16 4 16 8 0 5 12 14 26 20 15 7 22 17 18 24 -4 6 -3 8 3 5 6 -4 16
-1 22 7 9 11 9 15 -1 20 -7 3 -3 4 10 2 12 -2 22 0 22 5 0 19 -40 7 -126 -37z"/>
<path d="M6230 9761 c-36 -8 -85 -30 -78 -36 2 -2 26 -6 53 -9 28 -3 52 -5 55
-6 3 0 -2 -5 -10 -10 -13 -9 -11 -13 10 -30 21 -17 23 -21 10 -29 -12 -9 -12
-11 3 -17 20 -7 23 -34 5 -35 -7 0 -3 -5 10 -11 13 -7 21 -17 18 -25 -3 -8 1
-16 9 -20 13 -4 13 -8 3 -21 -10 -12 -10 -16 -1 -19 8 -3 11 -14 7 -29 -4 -16
-2 -24 6 -24 7 0 10 -8 7 -19 -3 -12 1 -22 10 -25 8 -4 13 -13 9 -21 -3 -9 0
-15 9 -15 20 0 30 -21 15 -30 -9 -6 -7 -10 9 -15 22 -7 30 -35 9 -35 -7 0 -2
-7 11 -16 17 -12 20 -19 10 -25 -10 -6 -10 -10 0 -23 7 -8 9 -21 5 -27 -4 -7
1 -18 11 -26 11 -7 13 -13 7 -13 -16 0 -15 -27 1 -33 9 -3 9 -7 -1 -20 -11
-13 -10 -17 5 -26 17 -11 17 -11 0 -22 -14 -8 -16 -14 -7 -24 7 -8 9 -23 5
-34 -3 -10 -1 -22 4 -25 6 -4 8 -13 5 -21 -4 -8 1 -18 10 -21 24 -9 19 -34 -6
-34 -21 -1 -21 -2 6 -16 21 -12 25 -18 15 -24 -10 -7 -10 -14 -1 -34 6 -14 8
-25 4 -25 -27 4 -34 -2 -16 -15 29 -22 10 -31 -79 -36 -130 -8 -309 8 -327 29
-8 9 -39 28 -68 41 -35 16 -48 26 -40 32 9 5 6 8 -9 8 -32 0 -53 10 -53 25 0
8 -10 17 -22 21 -18 5 -20 8 -7 18 8 6 13 18 11 27 -2 11 15 25 53 45 78 39
79 48 6 39 -54 -6 -60 -5 -55 9 5 12 2 15 -10 10 -13 -5 -16 1 -16 27 0 27 10
42 55 84 50 46 68 76 48 75 -5 0 -26 -12 -48 -25 -47 -29 -55 -30 -55 -10 0
13 -4 14 -20 5 -24 -13 -26 -3 -5 27 14 19 13 21 -5 16 -17 -5 -19 0 -18 33 1
21 12 53 24 72 13 18 20 40 17 48 -3 9 0 26 7 40 21 38 3 41 -30 4 -43 -48
-58 -70 -88 -125 -29 -54 -60 -70 -69 -36 -5 20 -10 20 -142 16 -143 -4 -228
-16 -286 -41 -49 -20 -82 -18 -90 6 -10 32 -118 171 -176 226 -64 62 -140 119
-183 140 l-31 14 25 -17 c14 -10 35 -28 47 -40 13 -12 38 -34 58 -49 19 -14
35 -31 35 -37 0 -6 12 -24 27 -39 26 -28 21 -40 -7 -15 -8 6 -6 1 5 -13 11
-14 28 -31 38 -38 10 -7 17 -19 16 -25 -4 -24 13 -86 26 -90 7 -3 15 -15 18
-26 3 -13 1 -19 -5 -15 -7 4 -8 -5 -3 -24 6 -31 6 -31 -24 -21 -45 16 -61 6
-26 -16 71 -44 112 -84 111 -107 -1 -22 -5 -23 -71 -24 -38 0 -77 -1 -85 -2
-8 -1 19 -19 60 -40 41 -21 75 -45 75 -52 0 -8 11 -17 25 -20 l25 -6 -30 -11
c-29 -11 -29 -12 -7 -18 26 -9 29 -25 5 -25 -16 -1 -16 -2 1 -15 19 -14 18
-15 -5 -24 l-24 -10 23 -7 c24 -7 29 -20 10 -27 -10 -4 -9 -8 2 -16 28 -19 -5
-33 -149 -62 -253 -50 -527 -143 -601 -203 -31 -25 -70 -46 -70 -38 0 5 11 26
26 47 l25 37 -27 -6 c-21 -6 -25 -4 -20 8 3 9 9 24 13 33 5 12 2 15 -10 10
-19 -7 -13 17 12 47 15 18 15 19 -6 14 -24 -6 -33 15 -13 27 14 9 12 25 -2 23
-14 -3 -14 5 -3 35 5 12 2 17 -9 17 -14 0 -15 4 -6 20 7 14 7 20 0 20 -5 0
-10 15 -10 34 0 19 -5 38 -10 41 -7 4 -7 13 0 26 10 18 6 23 -12 20 -12 -2 -9
14 4 27 9 9 8 15 -7 26 -19 14 -19 15 -1 35 19 21 19 21 -7 21 -27 0 -36 13
-17 25 16 10 12 35 -5 29 -18 -7 -19 0 -4 28 8 15 8 22 -1 28 -9 6 -9 13 -1
29 10 17 9 22 -3 27 -13 5 -13 9 1 31 17 25 16 25 -5 19 -27 -9 -30 11 -4 30
16 12 16 13 0 19 -14 6 -15 10 -5 26 10 16 9 21 -2 29 -13 7 -13 11 -1 25 12
14 12 18 -1 25 -11 8 -12 13 -2 29 10 15 10 20 0 24 -9 3 -9 7 1 19 10 13 10
17 1 20 -7 2 -10 11 -7 19 7 18 5 35 -4 31 -13 -4 -9 11 10 31 13 15 14 21 4
24 -10 4 -10 8 -2 19 7 7 9 18 5 25 -6 8 -10 7 -16 -2 -5 -8 -9 -9 -9 -4 0 6
16 26 35 44 34 32 58 41 150 61 31 7 23 8 -38 5 -98 -5 -176 -39 -212 -93 -41
-62 -48 -127 -42 -352 5 -188 14 -276 50 -537 7 -51 10 -98 7 -104 -4 -6 -19
21 -33 60 -24 65 -43 150 -93 420 -19 102 -59 193 -87 197 -18 2 -16 -21 9
-81 14 -35 28 -115 20 -115 -3 0 -21 24 -39 53 -19 28 -44 61 -56 72 l-22 19
7 -29 c4 -17 18 -54 31 -83 27 -61 29 -128 8 -216 -16 -69 -33 -92 -41 -58 -7
26 -24 30 -22 5 1 -10 0 -36 0 -58 l-2 -40 -23 25 c-13 14 -57 81 -97 150 -40
68 -76 118 -78 111 -2 -7 -1 -16 4 -20 5 -3 11 -13 13 -21 2 -8 6 -24 9 -34 6
-23 -59 48 -111 120 -46 64 -119 129 -224 201 -29 20 -53 40 -53 44 0 5 -7 9
-15 9 -8 0 -15 5 -15 11 0 5 -4 8 -9 5 -4 -3 -19 6 -31 19 -13 14 -35 25 -48
25 -14 0 -22 3 -19 7 12 11 -91 62 -192 94 -156 50 -304 72 -338 51 -13 -8
129 -82 158 -82 12 0 12 -2 0 -9 -11 -7 -9 -12 10 -22 13 -7 27 -12 31 -11 4
1 5 -7 3 -18 -2 -12 4 -24 15 -30 27 -15 30 -13 30 20 0 29 2 30 43 30 24 0
66 -7 92 -15 27 -8 53 -11 58 -8 6 3 7 1 3 -5 -8 -14 15 -21 36 -11 43 23 316
-176 278 -202 -12 -9 -12 -10 3 -5 14 4 31 -8 65 -46 52 -57 82 -102 82 -122
0 -7 17 -29 38 -48 83 -80 103 -105 225 -302 53 -85 87 -161 81 -180 -4 -10 4
-42 16 -70 59 -135 86 -188 107 -208 l23 -21 0 45 0 46 45 7 c26 3 45 11 44
18 -4 34 2 45 25 43 13 0 24 -3 23 -6 -2 -5 40 -58 108 -137 44 -51 108 -65
209 -48 77 14 185 45 244 71 18 9 56 24 85 34 29 10 83 30 120 44 37 14 85 26
105 27 20 0 46 4 57 9 19 9 19 9 -2 16 -45 13 -31 29 67 74 14 6 39 18 55 28
17 9 49 16 72 16 39 -1 41 1 32 19 -18 33 4 42 98 40 47 -2 102 -7 121 -13 53
-14 51 -5 -7 31 -28 18 -51 35 -51 39 0 11 54 17 125 16 62 -2 124 -26 167
-66 27 -25 31 -21 17 19 -13 36 -9 44 24 47 51 4 138 -44 209 -117 74 -75 77
-75 51 14 -10 37 36 -2 67 -56 35 -60 37 -50 14 77 -8 48 -13 90 -11 92 9 10
60 -82 88 -160 30 -84 65 -149 52 -97 -4 17 -2 22 8 19 7 -2 18 -21 22 -41 7
-27 14 -37 29 -37 11 0 22 -8 25 -20 5 -18 7 -18 34 -5 17 10 30 11 34 5 3 -6
4 -10 2 -10 -9 0 21 -74 31 -78 5 -1 12 11 15 27 10 50 42 71 100 65 27 -2 53
-7 57 -9 4 -3 11 -26 15 -51 3 -26 11 -57 17 -70 l11 -23 22 34 c13 18 25 41
27 52 2 10 7 16 11 13 5 -3 15 10 22 28 8 17 21 32 29 32 8 0 21 9 30 21 8 12
22 19 33 17 15 -3 19 -16 25 -73 4 -39 5 -92 1 -120 l-5 -50 46 50 c56 60 131
170 189 277 14 25 38 66 53 90 56 87 66 108 48 108 -9 0 -12 5 -8 13 6 9 4 9
-8 -1 -13 -10 -17 -10 -21 0 -2 7 -24 -18 -48 -56 -23 -38 -45 -63 -47 -56 -8
24 21 136 53 203 18 37 30 67 26 67 -11 0 -76 -90 -101 -138 -12 -24 -23 -42
-26 -40 -2 3 -9 31 -15 64 -5 32 -13 68 -16 78 -5 19 -6 19 -23 -2 -12 -15
-20 -18 -22 -10 -3 9 -10 8 -22 -5 -17 -17 -19 -17 -42 8 -25 27 -54 75 -66
110 -4 11 -4 -36 0 -105 10 -184 7 -241 -14 -286 l-19 -39 -8 55 c-4 30 -9 69
-12 85 -2 17 -6 68 -9 114 -7 117 -23 231 -46 331 -10 47 -26 126 -35 175 -9
50 -27 128 -40 175 -13 47 -26 102 -29 124 -4 21 -8 42 -11 46 -2 4 -6 22 -9
41 -2 19 -9 45 -14 59 -31 77 -146 116 -272 91z m-528 -548 c28 -30 60 -125
62 -180 1 -59 -4 -69 -32 -54 -16 8 -21 7 -26 -4 -4 -11 -21 -15 -59 -15 -29
0 -58 -5 -65 -12 -8 -8 -15 -8 -26 1 -12 10 -16 9 -25 -6 -6 -10 -11 -12 -11
-6 0 9 -7 10 -25 3 -17 -6 -25 -6 -25 1 0 7 -11 8 -30 4 -19 -4 -30 -3 -30 4
0 15 -27 14 -33 -1 -3 -10 -8 -10 -21 1 -14 12 -19 12 -26 2 -16 -26 -46 -2
-63 52 -63 199 -63 196 -7 214 28 9 108 15 214 18 92 2 171 6 173 9 7 7 35 -8
55 -31z m294 -450 c-6 -6 -36 9 -36 18 0 5 9 4 20 -3 10 -7 18 -14 16 -15z"/>
<path d="M3213 9662 c-7 -4 1 -16 24 -32 19 -14 53 -44 75 -67 38 -40 76 -62
48 -28 -8 10 -9 15 -2 15 6 0 15 -7 20 -16 8 -15 10 -15 15 0 8 20 43 20 77 1
42 -24 58 -17 25 11 -45 37 -45 37 -122 72 -40 19 -78 30 -84 26 -7 -4 -9 -3
-6 3 11 17 -48 29 -70 15z"/>
<path d="M5552 9655 c4 -4 0 -14 -8 -22 -20 -20 -11 -27 16 -13 23 12 23 31
-1 38 -8 3 -11 1 -7 -3z"/>
<path d="M7974 9650 c-105 -14 -242 -57 -350 -111 -96 -47 -103 -53 -86 -65
20 -14 33 -12 147 23 28 8 83 18 123 20 l72 6 0 -26 c0 -14 -4 -29 -10 -32 -5
-3 -10 -13 -10 -22 0 -9 -9 -26 -19 -37 -11 -12 -21 -28 -23 -36 -2 -8 -7 -18
-13 -22 -16 -12 13 -9 90 8 96 21 290 31 309 15 10 -8 63 -12 160 -13 80 -1
146 -5 146 -10 0 -5 -16 -18 -35 -29 -19 -12 -35 -25 -35 -30 0 -5 -7 -9 -15
-9 -8 0 -29 -6 -47 -14 -18 -8 -48 -20 -65 -26 -18 -7 -33 -19 -33 -28 0 -12
9 -13 48 -8 26 4 88 11 137 16 50 5 100 12 111 15 31 10 38 -10 12 -34 l-22
-21 52 0 c29 0 52 -3 52 -6 0 -12 -55 -55 -79 -61 -14 -3 -35 -11 -47 -18 -21
-11 -20 -12 21 -24 24 -7 58 -10 77 -6 24 5 46 2 66 -9 17 -9 42 -16 56 -16
27 0 262 -58 284 -70 8 -4 -25 -10 -73 -14 -47 -3 -91 -3 -97 0 -6 4 -8 2 -4
-4 7 -12 63 -33 147 -56 31 -9 62 -22 68 -30 12 -15 -2 -19 -104 -31 -28 -3
-36 -21 -16 -35 4 -3 32 -24 62 -47 31 -24 61 -43 67 -43 16 0 15 -17 0 -23
-8 -3 -6 -6 5 -6 9 -1 17 -6 17 -12 0 -6 -11 -4 -27 5 -55 29 -142 66 -157 66
-33 0 -14 -17 42 -39 165 -65 202 -94 159 -128 -13 -10 -21 -26 -19 -37 4 -17
-1 -18 -36 -13 -23 2 -43 3 -46 0 -5 -6 27 -39 86 -88 28 -24 30 -52 2 -41
-21 8 -28 -13 -9 -34 23 -25 4 -34 -53 -24 -26 4 -56 9 -67 10 -11 1 -38 7
-60 13 -22 6 -48 11 -57 11 -35 0 13 -39 110 -92 50 -27 92 -54 92 -59 0 -11
-88 -4 -139 11 -32 9 -61 3 -33 -7 6 -3 12 -10 12 -16 0 -6 10 -22 23 -35 l22
-24 -60 27 c-138 63 -175 76 -192 67 -14 -9 -14 -10 4 -16 12 -4 36 -20 55
-36 18 -17 41 -32 51 -36 27 -9 22 -38 -5 -30 -13 4 -54 13 -92 21 -38 9 -77
21 -85 27 -9 7 0 -5 18 -25 31 -33 33 -37 14 -37 -11 0 -39 6 -61 14 -22 8
-55 16 -74 18 -27 2 -32 0 -30 -15 3 -16 -1 -18 -30 -12 -46 9 -101 28 -112
37 -6 4 -17 8 -25 8 -19 0 -192 101 -316 186 -55 37 -122 83 -150 101 -27 18
-110 63 -184 100 -128 63 -133 66 -110 79 l24 13 -25 2 c-102 8 -229 4 -258
-7 -67 -27 -175 -109 -235 -180 -64 -75 -114 -154 -98 -154 5 0 37 20 72 44
91 62 230 122 265 114 14 -3 4 -13 -38 -37 -119 -68 -318 -268 -318 -319 0 -5
43 3 95 19 53 16 119 31 148 34 l52 6 -55 -31 c-71 -40 -74 -44 -76 -85 -1
-30 3 -35 30 -41 19 -4 25 -9 16 -12 -8 -3 -22 -12 -32 -22 -16 -15 -9 -16
111 -16 109 1 132 -2 148 -16 11 -10 23 -18 27 -18 8 0 36 -26 36 -33 0 -2
-34 -7 -76 -10 -118 -10 -119 -18 -13 -73 42 -22 66 -40 59 -44 -22 -13 0 -70
44 -113 23 -23 62 -58 86 -77 47 -37 117 -101 88 -80 -31 21 -92 50 -108 50
-20 0 -40 -19 -40 -37 0 -8 21 -36 46 -63 39 -42 43 -50 26 -50 -32 0 -40 -55
-13 -84 12 -12 21 -25 21 -29 0 -4 -21 -7 -47 -8 l-48 0 24 -17 c49 -34 61
-48 66 -78 l5 -30 -112 23 c-62 13 -118 22 -126 21 -7 -2 25 -33 72 -70 47
-37 86 -75 86 -83 0 -8 6 -15 13 -15 8 0 7 -4 -3 -10 -8 -5 -23 -7 -32 -4 -10
3 -27 -1 -39 -9 -20 -15 -20 -15 10 -50 36 -40 43 -84 12 -67 -27 14 -27 14
-25 -24 l2 -34 -62 24 c-33 14 -94 45 -134 69 -40 25 -77 45 -83 45 -6 0 -9 6
-6 14 8 20 -21 43 -68 54 -61 15 -167 55 -196 75 -16 10 -47 18 -82 18 -54 2
-70 10 -46 25 18 11 -13 25 -43 18 -25 -5 -54 16 -31 23 6 2 9 13 6 23 -6 24
6 36 82 83 93 57 267 125 250 97 -6 -9 18 -15 55 -12 8 1 52 2 98 3 46 1 85 6
87 10 8 13 -62 39 -107 39 l-43 1 30 13 30 13 -43 22 c-23 12 -40 26 -37 30 9
15 -55 31 -123 31 -59 0 -64 1 -46 14 31 23 11 29 -93 29 -106 -1 -150 -13
-211 -59 l-33 -26 6 36 c7 33 6 36 -13 29 -26 -11 -64 -58 -86 -110 -11 -24
-23 -43 -28 -43 -5 0 -7 -4 -4 -9 3 -5 1 -34 -6 -65 -6 -31 -8 -59 -5 -62 3
-3 15 0 27 6 17 9 25 9 34 -1 8 -9 8 -10 -3 -4 -11 6 -13 1 -8 -26 4 -23 1
-41 -8 -53 -32 -42 -13 -49 21 -8 31 37 85 79 72 55 -3 -4 -13 -25 -23 -45
-11 -24 -24 -38 -36 -38 -11 0 -19 -7 -19 -15 0 -16 -46 -39 -60 -30 -5 3 -12
0 -16 -6 -5 -8 -2 -10 7 -5 8 4 6 1 -3 -7 -10 -8 -18 -18 -18 -24 0 -5 -13
-22 -30 -38 -16 -16 -30 -35 -30 -42 0 -7 -4 -13 -9 -13 -5 0 -15 -16 -22 -35
-7 -19 -16 -35 -20 -35 -4 0 -12 -13 -19 -30 -7 -16 -16 -30 -20 -30 -4 0 -11
-12 -15 -27 -3 -15 -18 -51 -33 -81 -21 -44 -23 -55 -12 -62 9 -6 19 -3 28 8
12 15 13 14 7 -8 -3 -14 -7 -32 -9 -41 -2 -8 -11 -31 -19 -51 -9 -20 -16 -47
-18 -60 -3 -30 19 -108 31 -108 5 0 8 -13 8 -28 -1 -36 20 -78 33 -65 6 6 14
39 19 75 9 63 43 158 56 158 3 0 4 -7 1 -15 -4 -8 -2 -17 4 -21 6 -3 6 -10 1
-17 -16 -20 -49 -207 -42 -242 1 -5 1 -40 0 -77 -1 -59 1 -67 19 -73 12 -3 21
-12 21 -20 0 -14 30 -25 72 -25 19 0 26 -4 22 -14 -11 -28 39 -26 104 5 68 32
122 37 67 6 -16 -9 -42 -27 -57 -40 l-28 -23 117 -2 c161 -3 213 15 289 99 16
17 37 40 47 50 9 11 17 24 17 29 0 22 33 60 51 60 11 0 25 -11 31 -26 10 -20
9 -30 -5 -54 -9 -15 -17 -42 -17 -59 0 -35 -26 -81 -45 -81 -8 0 -11 -8 -8
-18 3 -12 -4 -22 -21 -30 -14 -6 -26 -15 -26 -20 0 -5 -20 -19 -45 -32 -36
-18 -53 -22 -91 -16 -58 8 -51 -1 18 -25 l52 -17 66 33 c110 55 168 137 191
273 11 60 7 171 -7 229 -10 40 22 27 54 -23 71 -106 49 -281 -49 -388 -53 -58
-109 -96 -174 -116 -48 -15 -56 -21 -47 -37 9 -15 79 9 177 59 75 39 92 51
188 146 l79 77 76 -1 c68 -1 108 -7 225 -31 15 -3 27 -9 27 -14 0 -5 -12 -11
-27 -15 -16 -3 -32 -7 -38 -8 -5 -2 25 -11 68 -21 51 -13 88 -28 107 -45 17
-15 48 -32 70 -39 50 -15 61 -31 21 -31 -39 0 -41 -21 -4 -46 31 -20 36 -23
78 -58 l30 -25 -30 0 c-16 0 -47 3 -67 8 -61 14 -56 -13 8 -44 45 -22 53 -29
43 -41 -16 -19 -12 -22 67 -44 92 -26 196 -74 265 -122 58 -41 64 -42 139 -32
55 7 68 18 47 38 -8 9 -17 19 -19 24 -1 4 -29 22 -61 40 -81 46 -223 148 -231
167 -5 13 6 15 87 9 154 -11 273 32 375 133 56 57 58 76 4 54 -53 -21 -158
-41 -220 -41 -64 0 -222 44 -222 61 0 5 34 9 75 9 43 0 75 4 75 10 0 6 -11 10
-24 10 -27 0 -165 44 -211 68 -16 8 -44 27 -61 41 -18 14 -47 36 -65 49 l-34
22 50 0 c57 1 59 -1 -51 70 -63 41 -90 72 -53 63 13 -4 19 0 19 10 0 9 -4 18
-8 21 -18 11 -103 126 -93 126 6 0 52 -36 103 -80 100 -86 198 -148 180 -114
-6 11 -20 28 -31 38 -26 24 -28 48 -3 39 9 -3 -17 27 -58 68 -70 69 -170 222
-156 237 3 3 52 -37 108 -89 97 -89 104 -88 36 5 -35 48 -29 57 15 23 47 -36
142 -82 206 -101 57 -17 171 -20 206 -7 16 7 8 12 -40 25 -33 10 -79 28 -101
42 -51 29 -123 108 -163 178 -47 82 -80 236 -50 236 5 0 36 -12 67 -27 51 -24
68 -27 167 -27 87 0 118 4 150 19 l40 19 -65 6 c-149 15 -269 113 -421 346
-64 98 -76 142 -27 97 27 -24 33 -9 10 25 -24 32 -189 193 -251 242 -22 18
-39 35 -37 37 2 3 29 -7 58 -22 83 -41 195 -140 275 -245 102 -134 146 -180
171 -180 12 0 22 6 22 13 0 8 10 19 23 26 12 6 14 9 5 7 -12 -4 -18 0 -18 10
0 8 -9 24 -20 36 -19 21 -28 53 -12 46 4 -2 38 -18 76 -36 38 -17 74 -32 80
-32 32 0 120 -57 175 -114 33 -35 61 -60 61 -56 0 5 -4 11 -9 14 -5 3 -12 18
-15 33 -9 35 -62 139 -88 173 -25 32 -140 150 -212 218 -87 82 -74 90 68 41
50 -17 107 -39 128 -50 37 -19 39 -19 30 -2 -17 31 -114 121 -177 163 -33 23
-75 51 -92 63 -60 40 -35 49 47 17 54 -21 190 -29 190 -10 0 5 -15 17 -32 26
-39 20 -129 86 -124 91 2 2 41 -18 87 -45 46 -28 102 -57 124 -66 22 -9 67
-43 100 -75 113 -109 217 -177 315 -206 19 -6 14 2 -26 41 -54 54 -157 184
-150 192 3 2 40 -19 83 -48 164 -109 371 -191 478 -189 27 1 41 3 30 6 -148
32 -239 61 -290 93 -45 29 -89 69 -82 76 3 4 39 2 79 -4 46 -7 76 -8 82 -2 6
6 19 10 31 11 12 1 6 5 -17 13 -20 6 -43 17 -50 25 -11 11 -4 12 42 6 30 -3
70 -11 88 -17 46 -14 49 -5 11 31 -32 31 -32 31 -8 31 14 0 58 -16 98 -35 91
-44 190 -139 226 -218 50 -109 56 -239 14 -320 l-19 -38 31 18 c41 23 90 89
82 110 -4 11 -2 14 5 9 8 -4 10 -2 6 7 -3 8 0 34 6 56 6 23 12 86 12 140 2
130 -27 228 -75 256 -18 10 -39 28 -47 39 -8 12 -31 39 -52 62 -21 23 -35 44
-31 47 3 4 1 7 -5 7 -7 0 -12 7 -12 16 0 18 23 13 79 -17 19 -10 36 -17 38
-15 2 1 -10 29 -27 62 -36 72 -39 89 -9 73 30 -16 109 -100 109 -116 0 -8 11
-24 24 -37 24 -25 61 -163 70 -261 2 -27 2 13 1 90 -2 93 -9 158 -20 193 -19
63 -37 69 -30 10 5 -42 5 -41 -33 32 -63 125 -99 182 -152 245 -46 55 -70 96
-34 61 8 -9 19 -16 24 -16 5 0 22 -12 39 -26 38 -31 43 -11 9 33 -31 38 -50
73 -40 73 24 0 140 -110 189 -180 21 -29 24 -31 18 -10 -4 14 -12 28 -17 31
-5 3 -6 13 -2 22 8 23 -43 129 -100 204 -26 34 -89 99 -141 144 -52 45 -95 84
-95 86 0 2 12 1 28 -3 93 -20 178 -78 286 -196 l68 -73 -26 57 c-30 69 -65
122 -140 207 -31 36 -56 68 -56 73 0 13 49 -2 120 -36 39 -19 94 -58 139 -101
68 -65 74 -68 67 -40 -24 103 -115 238 -211 313 -154 121 -296 180 -524 217
-90 15 -103 21 -81 36 32 20 99 32 188 33 72 1 91 4 87 14 -3 8 -5 15 -5 17 0
10 -106 68 -171 94 -104 41 -220 61 -350 61 -124 0 -127 2 -77 69 33 45 58
130 57 196 l0 40 -16 -30 c-53 -101 -210 -184 -383 -200 -68 -7 -73 -6 -61 9
12 15 4 16 -95 16 -70 0 -143 -7 -203 -20 -52 -11 -96 -18 -98 -16 -15 14 149
120 218 140 29 9 78 17 108 18 l56 1 -60 6 -60 6 28 19 c16 11 55 22 90 25 71
8 59 15 -48 31 -80 11 -193 11 -281 0z m-153 -1831 c69 -45 82 -57 118 -107
21 -30 18 -29 -52 20 -41 29 -88 60 -105 70 -35 19 -61 58 -39 58 8 0 43 -19
78 -41z m-10 -446 c69 -71 110 -132 150 -220 27 -61 49 -153 36 -153 -3 0 -17
31 -31 68 -34 88 -104 201 -175 280 -31 35 -65 75 -75 89 l-19 25 29 -15 c16
-9 54 -42 85 -74z m190 -420 c6 -19 9 -36 6 -39 -6 -6 -42 55 -52 87 -8 24 -7
24 13 5 12 -10 26 -34 33 -53z m-104 17 c56 -44 90 -85 122 -147 42 -84 21
-86 -32 -4 -21 33 -65 89 -98 125 -69 75 -65 85 8 26z m-433 4 c3 -8 2 -12 -4
-9 -6 3 -10 10 -10 16 0 14 7 11 14 -7z m-659 -82 c-6 -5 -43 -19 -84 -32
-123 -39 -215 -110 -283 -222 -39 -63 -46 -56 -13 11 57 112 166 217 250 239
49 12 143 15 130 4z m553 -59 c37 -16 122 -90 122 -105 0 -19 -32 -4 -98 48
-89 69 -98 91 -24 57z m-633 -243 c28 -26 34 -75 13 -101 -16 -19 -128 -69
-155 -69 -10 0 -30 8 -43 17 -64 44 -67 88 -10 145 40 40 40 40 105 36 50 -3
70 -9 90 -28z m716 -198 c-12 -4 -67 24 -76 38 -4 6 14 0 40 -12 25 -12 42
-24 36 -26z m-923 -73 c4 -32 -24 -47 -46 -26 -11 12 -12 19 -2 36 15 29 44
23 48 -10z"/>
<path d="M7615 9640 c-11 -4 -23 -5 -28 -3 -9 5 -127 -32 -172 -55 -53 -26
-149 -93 -192 -135 -47 -45 -47 -45 -34 -66 7 -11 20 -6 61 27 56 45 116 64
131 41 4 -8 3 -20 -4 -29 -10 -12 -8 -12 13 1 14 9 26 26 28 38 2 11 9 21 16
21 6 0 32 20 56 46 25 25 68 59 95 76 62 39 59 37 54 42 -2 2 -13 0 -24 -4z"/>
<path d="M5637 9610 c-4 -15 0 -20 15 -20 10 0 16 5 13 10 -3 6 -1 10 4 10 6
0 11 5 11 10 0 19 -38 10 -43 -10z"/>
<path d="M5466 9563 c-11 -11 -6 -23 9 -23 8 0 15 4 15 9 0 13 -16 22 -24 14z"/>
<path d="M7120 9544 c0 -8 -4 -13 -9 -10 -4 3 -19 -6 -31 -19 -13 -14 -19 -25
-14 -25 5 0 1 -5 -9 -11 -41 -24 -106 -209 -73 -209 21 0 53 29 64 57 5 15 20
54 32 85 12 31 20 58 19 60 -2 2 6 19 19 39 25 40 27 49 12 49 -5 0 -10 -7
-10 -16z"/>
<path d="M2091 9525 c-94 -17 -173 -46 -253 -91 -61 -34 -121 -80 -73 -56 37
19 176 34 249 27 201 -18 536 -162 494 -212 -8 -10 -6 -13 13 -11 13 2 26 6
29 9 3 3 34 15 70 26 54 18 59 22 33 22 -43 1 -80 17 -117 49 -17 15 -55 38
-83 52 -65 31 -69 50 -10 50 51 0 63 8 39 27 -16 12 -16 14 3 28 11 9 29 13
40 10 11 -3 45 -12 75 -19 30 -7 64 -17 74 -21 14 -6 17 -5 12 3 -5 8 0 12 13
12 11 0 23 5 27 12 4 6 3 8 -4 4 -5 -3 -12 -3 -14 1 -4 10 -83 39 -173 65 -93
26 -337 34 -444 13z"/>
<path d="M5567 9523 c-4 -3 -7 -11 -7 -17 0 -6 5 -5 12 2 6 6 9 14 7 17 -3 3
-9 2 -12 -2z"/>
<path d="M5865 9500 c-3 -5 -1 -10 4 -10 6 0 11 5 11 10 0 6 -2 10 -4 10 -3 0
-8 -4 -11 -10z"/>
<path d="M6862 9448 c-73 -68 -77 -73 -108 -136 -22 -43 -24 -55 -14 -68 18
-20 54 -14 59 11 2 11 6 22 10 25 4 3 24 40 45 83 21 42 41 77 45 77 4 0 15
14 24 30 27 46 3 37 -61 -22z"/>
<path d="M1514 9440 c16 -107 126 -243 256 -318 36 -21 64 -42 63 -47 -4 -15
-286 -18 -371 -5 -81 13 -202 51 -240 76 l-25 17 21 -29 c26 -35 76 -83 119
-113 61 -42 183 -69 183 -40 0 5 -14 9 -31 9 -16 0 -28 4 -25 9 3 5 15 7 27 4
12 -3 24 -1 28 4 7 12 473 -1 571 -16 35 -6 66 -9 67 -7 5 5 -38 23 -122 51
-113 38 -240 110 -296 167 -26 26 -51 48 -56 48 -14 0 -87 79 -80 86 4 4 7 2
7 -4 0 -7 6 -12 14 -12 8 0 16 -7 19 -15 7 -17 81 -65 100 -65 7 0 31 -8 53
-19 49 -23 130 -38 120 -22 -4 6 -12 9 -17 6 -5 -4 -9 -1 -9 6 0 7 -3 10 -6 7
-3 -3 -40 12 -82 33 -162 81 -203 111 -265 194 l-30 40 7 -45z"/>
<path d="M7157 9376 c-15 -15 -13 -56 3 -56 5 0 6 9 3 21 -4 12 0 25 8 29 7 5
11 12 7 15 -3 3 -13 -1 -21 -9z"/>
<path d="M3483 9307 c20 -18 37 -40 37 -49 0 -19 30 -32 43 -19 13 13 -5 35
-57 73 -53 38 -68 35 -23 -5z"/>
<path d="M2380 9170 c-11 -7 -4 -10 28 -10 23 0 42 5 42 10 0 13 -50 13 -70 0z"/>
<path d="M2328 9163 c6 -2 18 -2 25 0 6 3 1 5 -13 5 -14 0 -19 -2 -12 -5z"/>
<path d="M2058 8963 c12 -2 30 -2 40 0 9 3 -1 5 -23 4 -22 0 -30 -2 -17 -4z"/>
<path d="M1840 8950 c0 -5 10 -10 23 -10 18 0 19 2 7 10 -19 13 -30 13 -30 0z"/>
<path d="M1905 8950 c-13 -6 2 -7 40 -3 33 3 62 7 64 9 9 8 -85 2 -104 -6z"/>
<path d="M1900 8833 c-76 -4 -100 -11 -100 -27 0 -17 -20 -24 -188 -66 -271
-69 -420 -138 -570 -264 -114 -94 -187 -227 -213 -386 -14 -85 -2 -104 25 -38
41 100 119 195 216 261 85 59 240 109 240 77 0 -5 -18 -24 -41 -42 -42 -33
-159 -173 -159 -189 0 -5 5 -9 10 -9 12 0 132 59 140 69 3 3 26 16 53 28 41
20 47 21 47 6 0 -9 -10 -30 -23 -47 -44 -58 -43 -81 1 -50 12 8 28 14 34 12
12 -4 5 -13 -67 -79 -22 -20 -53 -51 -70 -69 -27 -30 -27 -32 -5 -17 89 61
160 92 160 71 0 -9 -147 -144 -202 -186 -147 -111 -245 -162 -370 -194 -58
-15 -136 -10 -212 13 -42 12 61 -68 130 -102 126 -62 288 -81 391 -44 56 19
57 5 6 -51 -91 -102 -184 -242 -170 -257 3 -3 23 8 44 24 121 96 128 57 13
-77 -33 -38 -60 -72 -60 -76 0 -10 50 4 128 38 40 17 75 28 78 25 9 -9 -43
-52 -110 -93 -143 -86 -297 -85 -411 2 -41 31 -42 27 -14 -27 28 -55 100 -123
164 -153 98 -46 170 -60 317 -61 76 -1 140 -4 143 -7 9 -9 -50 -29 -126 -43
-101 -17 -68 -30 76 -29 125 1 230 27 368 91 42 20 79 34 82 31 19 -18 -112
-124 -209 -169 l-61 -28 47 -1 c182 -1 405 107 503 245 22 31 45 63 50 71 9
13 114 37 123 29 2 -2 -8 -26 -22 -54 -29 -56 -32 -77 -14 -83 8 -3 1 -20 -21
-47 -18 -23 -30 -45 -26 -49 4 -4 47 15 97 41 50 26 92 46 95 43 11 -11 -48
-94 -134 -188 -24 -26 -43 -52 -43 -57 0 -12 56 7 118 38 58 30 66 26 38 -15
-13 -20 -22 -43 -19 -50 8 -20 -182 -205 -250 -243 -80 -46 -82 -55 -10 -48
126 13 233 51 359 128 143 87 158 85 76 -10 -26 -31 -65 -78 -86 -106 -22 -27
-57 -69 -80 -92 -22 -24 -36 -43 -30 -43 26 0 163 53 244 95 50 25 90 43 90
39 0 -8 -35 -58 -92 -128 -32 -41 -46 -67 -46 -87 1 -32 9 -34 71 -20 28 7 39
6 45 -5 6 -12 14 -12 40 -3 70 24 65 6 -19 -78 -46 -45 -80 -85 -77 -89 6 -6
119 10 161 22 41 13 11 -18 -60 -59 -61 -36 -214 -107 -231 -107 -2 0 0 -4 3
-10 3 -5 23 -10 43 -10 49 0 32 -14 -48 -38 -109 -34 -126 -42 -110 -52 28
-17 -38 -30 -152 -30 -98 0 -117 3 -162 25 -28 14 -61 32 -73 41 -21 15 -23
15 -29 -1 -4 -10 -2 -26 4 -36 13 -20 5 -80 -12 -91 -8 -6 -6 -11 4 -18 13 -8
12 -10 -2 -10 -14 0 -18 -8 -18 -36 0 -19 -4 -43 -10 -53 -5 -10 -10 -35 -12
-55 -1 -24 -5 -33 -12 -26 -6 6 -16 10 -23 10 -8 0 -57 29 -111 64 -98 64
-210 121 -220 112 -2 -3 10 -13 28 -23 18 -10 78 -53 134 -95 150 -114 369
-329 319 -314 -31 10 -29 -8 2 -28 18 -12 24 -23 20 -36 -3 -10 1 -25 10 -33
8 -9 15 -23 15 -32 0 -9 5 -13 10 -10 6 4 10 -7 10 -26 0 -17 8 -48 19 -68 10
-20 24 -52 31 -71 6 -19 19 -53 27 -75 8 -22 16 -49 17 -60 4 -28 66 -174 77
-181 18 -11 47 7 71 44 40 61 66 136 93 268 39 189 89 303 167 381 75 76 87
70 42 -20 -15 -29 -42 -110 -61 -182 -18 -71 -52 -193 -76 -270 -40 -135 -44
-142 -95 -192 -29 -29 -63 -55 -76 -59 -18 -4 -22 -11 -18 -34 3 -19 9 -27 18
-23 10 3 14 -2 14 -18 0 -26 34 -89 48 -89 5 0 19 -19 31 -41 l24 -41 -59 37
c-33 21 -70 45 -84 54 -14 8 -27 18 -30 21 -24 26 -274 163 -378 206 -127 53
-117 41 31 -35 149 -77 188 -99 200 -118 4 -7 14 -13 21 -13 21 0 40 -27 24
-33 -8 -4 -7 -6 4 -6 28 -2 100 -43 139 -81 80 -77 109 -100 127 -100 25 0
127 111 159 173 14 29 54 137 89 240 59 178 114 298 149 327 22 18 19 3 -15
-90 -34 -92 -40 -128 -14 -92 20 29 44 29 37 0 -10 -44 -125 -324 -160 -390
-46 -88 -102 -150 -158 -177 -42 -20 -44 -22 -35 -47 11 -29 -1 -54 -27 -54
-7 0 -16 -7 -19 -15 -4 -8 -14 -15 -23 -15 -27 0 -129 -88 -151 -129 -28 -56
-19 -71 44 -71 55 0 99 -21 90 -44 -3 -7 -26 -25 -52 -39 -26 -15 -60 -38 -77
-52 l-30 -25 23 -16 c44 -32 37 -42 -100 -147 -80 -61 -142 -124 -161 -164
-15 -34 6 -53 62 -53 25 0 53 -4 61 -10 25 -15 -7 -55 -70 -89 -63 -34 -84
-54 -77 -73 7 -20 -19 -63 -55 -92 -18 -14 -38 -31 -45 -36 -7 -6 -25 -16 -40
-23 -39 -17 -73 -48 -73 -65 0 -9 -3 -12 -6 -9 -4 4 -23 -7 -44 -23 -31 -25
-120 -57 -120 -44 0 3 -11 -3 -25 -12 -14 -9 -25 -20 -25 -25 0 -9 21 -34 77
-96 27 -29 30 -59 6 -71 -10 -5 -49 -15 -88 -22 -38 -8 -77 -19 -86 -27 -8 -7
-21 -13 -27 -13 -21 0 -13 -46 13 -74 14 -15 25 -34 25 -42 0 -9 -31 -29 -76
-50 -78 -36 -123 -75 -124 -107 0 -10 4 -16 8 -13 13 8 51 -23 72 -57 l19 -31
-49 -35 c-27 -20 -67 -49 -89 -64 -62 -43 -81 -142 -24 -120 8 3 24 1 36 -5
29 -15 127 -20 126 -7 -3 23 3 49 8 38 2 -7 18 -13 34 -13 19 0 29 -5 29 -15
0 -8 9 -15 19 -15 11 0 22 -9 26 -19 8 -25 35 -16 35 10 0 10 4 19 10 19 5 0
7 -7 3 -17 -5 -14 -1 -15 35 -10 30 5 45 3 56 -9 17 -17 21 -29 8 -20 -5 3
-18 -3 -30 -14 -11 -11 -27 -17 -35 -14 -10 3 -19 -5 -27 -23 -12 -26 -17 -28
-63 -27 -28 1 -45 -1 -39 -5 17 -10 -3 -35 -23 -28 -9 4 -14 3 -10 -3 9 -14
55 -8 52 7 -1 6 3 12 8 12 6 0 9 -6 7 -14 -2 -11 4 -12 25 -6 16 5 38 4 51 0
12 -5 33 -4 47 1 14 5 32 7 41 3 9 -3 19 -2 23 3 9 14 118 34 179 34 29 0 52
5 52 10 0 13 57 13 65 0 3 -5 -4 -19 -15 -30 -11 -11 -18 -26 -14 -32 4 -6 3
-8 -4 -4 -6 3 -13 2 -17 -4 -3 -5 -15 -10 -26 -10 -22 0 -24 -10 -7 -29 11
-11 9 -12 -8 -3 -18 9 -25 7 -45 -15 l-24 -26 30 7 c17 4 42 10 57 13 15 3 25
9 22 14 -3 5 4 9 15 9 12 0 21 4 21 9 0 9 111 34 118 26 15 -15 -169 -165
-203 -165 -7 0 -15 -4 -17 -9 -1 -4 -24 -18 -50 -29 -43 -19 -64 -42 -38 -42
6 0 10 5 10 11 0 6 7 3 16 -5 17 -18 28 -21 19 -6 -4 6 9 10 31 10 87 0 211
70 326 184 45 45 62 56 71 47 9 -9 9 -16 -1 -29 -6 -9 -20 -33 -31 -52 -20
-37 -116 -134 -163 -164 -15 -10 -25 -22 -22 -27 3 -5 -2 -6 -10 -3 -9 3 -16
1 -16 -5 0 -14 27 -15 35 -1 3 6 18 10 32 10 29 0 113 40 145 70 12 11 28 20
35 20 7 0 13 7 13 15 0 8 5 15 11 15 7 0 8 -7 4 -17 -4 -10 -9 -32 -12 -49 -3
-17 -22 -49 -43 -71 -33 -36 -35 -42 -19 -46 11 -3 17 -1 14 4 -3 5 15 14 40
20 45 11 105 51 105 70 0 5 23 32 50 61 27 29 50 56 50 60 0 13 48 9 52 -4 6
-16 -14 -88 -24 -88 -4 0 -8 -9 -8 -20 0 -11 4 -20 8 -20 15 0 97 57 126 89
37 39 63 40 72 4 10 -37 27 -53 57 -53 22 0 82 25 97 40 24 24 99 75 137 94
49 25 65 29 96 27 17 -1 17 -3 -4 -33 -12 -18 -33 -44 -45 -58 -27 -29 -84
-137 -84 -157 0 -19 13 -16 54 12 20 13 71 43 114 65 75 38 112 49 112 33 0
-14 -41 -76 -81 -124 -22 -26 -39 -50 -39 -54 0 -12 -114 -116 -145 -132 -16
-9 -35 -22 -42 -29 -36 -35 109 -20 243 26 68 24 64 24 64 5 0 -28 21 -16 130
73 28 23 56 42 61 42 51 0 -137 -308 -254 -415 -58 -53 -67 -66 -53 -71 31
-12 148 4 224 31 41 14 87 25 102 25 33 0 97 51 154 123 21 26 42 47 47 47 27
0 -10 -148 -63 -253 -26 -52 -83 -113 -141 -152 -42 -29 -46 -34 -29 -39 27
-9 185 11 247 31 87 28 186 83 240 134 46 43 75 60 75 43 0 -17 -65 -132 -96
-170 -20 -24 -34 -47 -31 -50 7 -8 85 42 125 80 19 17 47 50 63 74 17 23 34
42 39 42 32 0 16 -286 -19 -346 l-20 -34 27 6 c180 39 333 130 418 249 21 30
43 55 48 55 17 0 -2 -89 -32 -152 -35 -74 -105 -148 -167 -177 -25 -12 -45
-24 -45 -27 0 -3 35 -2 78 1 178 14 304 77 394 197 54 73 62 73 56 1 -10 -104
-61 -178 -154 -224 -35 -18 -64 -34 -64 -37 0 -3 46 -2 103 1 175 10 281 55
393 168 38 38 75 69 82 69 18 0 15 -31 -9 -75 -34 -67 -33 -79 5 -50 32 25 76
34 76 16 0 -5 -15 -32 -34 -60 -40 -59 -30 -66 39 -26 88 52 160 150 185 253
20 81 58 31 42 -56 -5 -29 -6 -52 -2 -52 4 0 40 36 79 80 81 89 106 100 99 45
-2 -19 -2 -35 0 -35 7 0 82 84 82 92 0 17 30 7 45 -14 l15 -23 62 65 c33 36
72 82 86 103 38 57 55 50 50 -20 -3 -32 -9 -66 -13 -77 -8 -17 -6 -17 23 -2
67 35 237 260 266 354 23 72 37 -62 15 -141 -6 -22 -8 -41 -6 -43 10 -10 68
50 94 97 31 58 36 54 53 -51 15 -92 48 -165 101 -221 35 -38 40 -40 34 -19
-20 77 -28 171 -17 182 9 9 13 7 18 -8 19 -57 69 -147 106 -189 41 -46 113
-105 129 -105 4 0 -6 24 -22 53 -37 70 -61 164 -57 229 l4 53 17 -40 c98 -225
207 -336 383 -391 46 -15 87 -24 90 -22 3 3 -13 20 -35 37 -66 52 -139 181
-157 276 l-7 39 104 -105 c153 -155 243 -194 429 -187 l85 3 -65 31 c-36 17
-83 46 -103 64 -41 35 -94 117 -83 127 4 4 37 -9 74 -29 110 -60 206 -82 352
-81 140 0 238 21 332 70 l53 27 -60 7 c-64 6 -147 43 -179 78 -27 30 -16 34
35 15 54 -21 202 -25 220 -6 11 10 9 12 -7 12 -20 0 -94 45 -94 58 0 4 29 13
65 20 36 7 73 16 83 21 9 5 38 18 65 30 51 23 64 51 22 51 -40 0 -29 18 18 30
119 28 249 125 303 226 12 21 38 66 58 99 20 33 36 66 35 75 -1 8 1 28 6 43
11 42 -1 44 -20 3 -19 -40 -51 -51 -39 -13 3 12 10 27 14 32 11 13 46 120 55
163 6 31 5 33 -14 27 -20 -6 -21 -3 -22 62 0 47 -3 62 -9 48 -5 -11 -9 -34 -9
-52 -1 -37 -69 -174 -90 -181 -11 -4 -12 0 -6 14 13 31 34 155 34 204 1 62
-11 79 -33 49 -15 -22 -18 -22 -27 -7 -27 47 -59 57 -59 18 0 -50 -50 -13 -73
55 -20 58 -34 54 -42 -12 -13 -112 -47 -219 -66 -207 -4 2 -10 30 -14 63 -8
69 -32 114 -77 141 -41 25 -48 25 -48 0 0 -16 -7 -20 -35 -20 -28 0 -35 -4
-35 -20 0 -16 -7 -20 -30 -20 -16 0 -30 -5 -30 -11 0 -5 -5 -7 -11 -4 -6 4
-13 -2 -16 -14 -3 -12 -10 -21 -17 -21 -7 0 -12 -33 -14 -98 -3 -103 -14 -147
-39 -156 -12 -5 -14 -1 -9 18 3 14 2 27 -3 30 -4 3 -11 19 -14 34 -14 71 -101
120 -127 71 -8 -14 -21 -19 -55 -19 -25 0 -45 -4 -45 -10 0 -5 -7 -7 -15 -4
-18 7 -20 -7 -2 -25 10 -11 7 -12 -17 -7 -25 6 -28 5 -21 -11 24 -58 9 -75
-65 -76 -32 -1 -51 -6 -55 -15 -3 -8 -12 -11 -25 -7 -12 4 -20 2 -20 -5 0 -20
94 -106 143 -129 27 -13 51 -30 54 -37 3 -8 13 -14 22 -15 10 0 5 -5 -12 -13
-15 -7 -24 -16 -20 -20 9 -9 -83 1 -142 16 -22 5 -59 20 -82 33 -50 27 -53 22
-18 -29 31 -46 31 -48 -2 -40 -41 10 -104 59 -133 102 -65 97 -80 68 -35 -69
19 -57 32 -105 30 -107 -1 -2 -21 15 -44 37 -41 40 -45 39 -41 -9 2 -23 0 -22
-27 12 -15 21 -31 37 -35 38 -12 0 -10 -68 2 -91 23 -42 -7 -15 -37 34 -28 46
-49 106 -67 190 -10 42 -25 32 -32 -23 -4 -27 -11 -50 -16 -50 -10 0 -3 -75 9
-106 11 -29 -15 -13 -27 16 -22 53 -32 46 -27 -21 5 -62 5 -63 -5 -19 -27 117
-35 135 -57 134 -22 -1 -24 4 -36 81 -3 22 -9 48 -12 59 -8 29 -21 0 -29 -66
-4 -32 -10 -56 -14 -53 -4 3 -11 34 -15 70 -6 61 -17 82 -28 53 -10 -28 -16 2
-18 90 -1 51 1 95 5 99 3 3 6 16 6 28 0 11 5 26 11 32 6 6 7 13 1 17 -5 3 -20
-6 -32 -19 -13 -14 -27 -25 -31 -25 -8 0 3 50 20 93 6 16 11 31 11 35 0 11
-45 -41 -53 -61 -11 -29 -27 -9 -21 26 4 18 15 49 26 71 19 39 17 59 -4 38 -7
-7 -16 -12 -20 -12 -19 0 -4 29 61 114 87 115 134 164 204 209 38 24 34 37
-10 30 -36 -6 -37 -5 -23 12 8 10 -15 -5 -51 -33 -60 -47 -89 -62 -89 -47 0
36 103 141 172 176 21 11 68 26 106 33 37 8 100 26 141 41 79 28 173 45 156
28 -5 -6 -41 -31 -80 -57 -38 -25 -64 -46 -58 -46 17 0 103 21 128 31 11 4 63
10 116 13 53 3 109 10 125 17 19 7 67 9 142 5 65 -4 112 -3 112 2 0 12 -25 33
-36 31 -14 -3 -44 12 -44 22 0 6 9 5 20 -1 11 -6 20 -8 20 -6 0 3 -37 61 -81
128 -57 86 -115 157 -193 236 -61 61 -105 112 -99 112 16 0 95 -31 185 -74
102 -47 164 -69 180 -63 7 3 4 6 -8 6 -11 1 -31 13 -45 27 -13 14 -51 42 -84
62 -149 89 -335 216 -332 226 2 7 40 12 95 14 51 1 92 6 92 11 0 5 -26 20 -57
34 -32 14 -67 33 -78 41 -20 15 -19 15 5 15 14 0 59 -4 100 -9 49 -5 81 -5 94
2 17 9 5 17 -80 59 -60 29 -110 61 -126 81 l-28 32 -40 -39 c-51 -50 -53 -30
-7 63 19 37 51 109 72 160 20 51 48 114 60 140 23 47 23 47 30 19 7 -25 -14
-174 -31 -224 -4 -10 6 -1 21 21 36 50 71 141 80 205 8 61 21 73 36 34 12 -30
7 -288 -7 -333 -6 -21 3 -15 52 30 67 63 90 94 147 200 22 41 43 80 47 85 4 6
15 36 25 68 18 58 28 71 55 72 11 0 17 17 22 65 10 97 42 233 55 237 34 12 27
-208 -12 -355 -13 -50 -36 -116 -50 -145 l-25 -52 25 30 c61 71 145 284 165
415 6 41 15 79 20 84 35 35 44 -245 11 -358 l-20 -69 25 24 c15 13 45 51 67
84 41 59 41 61 39 143 -1 50 2 82 8 82 5 0 10 7 10 16 0 8 7 22 15 30 15 16
21 130 15 315 -1 46 3 79 9 83 13 9 105 -180 126 -260 21 -81 29 -198 17 -261
-5 -29 -8 -53 -6 -53 2 0 16 21 31 48 27 45 28 53 28 177 0 109 -5 147 -28
237 -15 59 -27 113 -27 119 0 21 28 -18 64 -89 27 -53 38 -91 45 -153 5 -44
14 -85 20 -90 6 -5 9 -6 6 -3 -3 4 0 13 6 20 17 21 14 320 -5 456 -9 64 -16
129 -15 145 2 15 -1 38 -5 51 -11 34 11 27 55 -17 34 -34 40 -37 49 -22 6 10
13 12 18 6 4 -5 25 -26 47 -45 52 -46 22 -8 -70 89 -101 107 -65 107 66 -1 32
-26 57 -38 78 -38 17 0 31 2 31 5 0 11 -73 141 -89 160 -21 24 -34 55 -22 55
4 0 16 -9 27 -21 29 -32 54 -43 54 -23 0 8 -31 46 -69 82 -74 72 -74 72 -141
117 -67 45 -76 55 -59 66 20 12 28 11 78 -11 24 -11 46 -19 48 -17 2 2 -47 52
-108 112 -124 119 -176 150 -277 161 l-64 7 46 -67 c25 -37 46 -75 46 -84 -1
-16 -2 -16 -14 1 -15 19 -41 23 -33 5 20 -49 20 -48 -9 -48 -27 0 -27 0 -8
-18 10 -10 34 -27 52 -37 17 -11 32 -22 32 -26 0 -4 12 -10 26 -13 15 -4 24
-10 20 -13 -3 -3 -25 1 -48 10 -85 31 -186 57 -224 57 l-38 0 23 -17 c160
-122 259 -235 331 -378 27 -55 52 -118 55 -140 5 -33 -3 -22 -49 70 -62 124
-133 211 -220 269 -30 20 -61 42 -68 49 -11 11 -71 37 -84 37 -2 0 -4 -6 -4
-14 0 -8 17 -29 39 -48 36 -31 63 -78 44 -78 -4 0 -28 11 -53 24 -41 22 -222
96 -235 96 -19 0 3 -50 45 -104 27 -35 47 -66 44 -69 -3 -3 -40 12 -82 33 -71
35 -130 60 -208 89 -16 7 -42 23 -56 36 -14 13 -28 22 -30 19 -3 -2 -38 25
-78 60 -79 70 -103 82 -121 60 -16 -20 -4 -42 33 -62 63 -33 184 -180 165
-199 -3 -2 -38 22 -79 55 -114 93 -232 132 -233 77 -1 -31 -14 -45 -41 -45
-17 0 -27 -8 -34 -25 -6 -15 -20 -27 -37 -30 -15 -4 -37 -10 -48 -15 -11 -4
-28 -11 -38 -14 -10 -3 -15 -10 -12 -16 4 -6 -1 -7 -11 -3 -11 4 -15 2 -11 -4
8 -13 -36 -33 -76 -33 -32 -1 -85 -29 -56 -31 37 -2 -52 -28 -98 -29 -29 0
-53 -4 -53 -10 0 -5 -7 -10 -15 -10 -18 0 -143 38 -167 51 -12 6 -18 6 -18 -1
0 -18 -40 -10 -83 17 -23 15 -47 27 -53 28 -6 0 -26 12 -45 27 -29 25 -33 35
-37 86 l-4 58 48 19 c134 50 195 99 244 196 29 57 54 140 64 219 l7 45 -15
-31 c-25 -56 -39 -53 -31 9 9 71 -15 126 -79 185 -77 71 -99 77 -271 76 -170
-2 -264 -21 -373 -76 -151 -76 -208 -218 -128 -322 54 -71 143 -97 266 -77 75
12 88 7 37 -14 -41 -17 -116 -20 -165 -6 l-32 10 19 -27 c37 -53 132 -133 183
-157 29 -13 83 -31 121 -41 71 -17 75 -23 59 -82 -8 -26 -79 -112 -94 -112 -5
0 -33 -21 -61 -46 -84 -75 -144 -106 -195 -100 -31 4 -54 0 -80 -13 -20 -10
-48 -22 -62 -26 l-25 -7 24 26 c32 34 14 33 -63 -3 -80 -37 -106 -45 -106 -32
0 16 -41 14 -116 -5 -68 -17 -85 -15 -64 11 7 8 11 15 9 15 -56 6 -129 6 -184
0 -38 -4 -72 -6 -74 -4 -2 2 2 10 8 18 10 11 8 15 -6 20 -31 9 -77 10 -99 3
-12 -4 -31 -4 -44 1 l-22 8 26 18 c35 23 25 36 -30 36 -24 0 -44 5 -44 10 0 6
5 10 11 10 8 0 7 5 -2 16 -8 10 -26 14 -50 13 -20 -2 -43 2 -51 8 -7 6 -24 14
-37 18 -13 4 -19 10 -13 14 6 3 16 19 22 35 9 25 8 27 -7 22 -9 -4 -20 -2 -23
5 -4 6 -23 14 -41 18 -28 6 -33 11 -31 29 5 36 -12 25 -62 -38 -26 -32 -72
-86 -104 -118 -31 -32 -83 -86 -114 -119 -31 -34 -84 -78 -118 -99 -33 -20
-57 -41 -53 -45 12 -12 109 -14 266 -4 l138 8 85 -43 c47 -24 89 -51 95 -61 5
-11 14 -19 20 -19 28 0 147 -144 284 -345 176 -257 247 -339 472 -545 92 -85
95 -87 149 -117 21 -12 38 -26 37 -32 -4 -17 104 -97 150 -111 23 -8 49 -19
57 -26 8 -6 37 -21 65 -33 27 -12 52 -25 55 -30 8 -12 50 -24 50 -13 0 11 58
4 90 -11 25 -13 142 -128 136 -135 -4 -3 -31 17 -60 44 -11 10 -78 37 -81 32
0 -2 -6 -15 -13 -30 -7 -17 -19 -28 -31 -28 -13 0 -18 -5 -15 -14 3 -8 1 -17
-4 -20 -6 -3 -8 -15 -5 -26 7 -26 -5 -25 -77 5 -33 14 -62 25 -65 25 -3 0 -3
-14 0 -30 l5 -30 -52 21 c-29 11 -64 22 -78 25 -14 3 -26 9 -28 15 -2 5 -12 9
-22 9 -14 0 -20 -9 -22 -31 l-3 -31 -27 22 c-19 15 -28 17 -28 8 -1 -8 -8 -4
-19 10 -26 30 -34 28 -27 -8 3 -17 9 -44 12 -61 6 -29 4 -31 -17 -24 -13 4
-41 23 -61 43 -28 26 -45 35 -70 34 -18 0 -36 5 -40 11 -5 9 -12 9 -25 1 -15
-9 -22 -4 -50 40 -18 28 -33 54 -33 59 0 4 -4 5 -10 2 -5 -3 -10 -31 -10 -61
0 -30 -4 -54 -9 -54 -8 0 -30 51 -53 126 -11 37 -14 40 -31 30 -15 -8 -21 -8
-24 2 -6 17 -23 15 -23 -3 0 -8 -4 -15 -8 -15 -12 0 -32 22 -32 36 0 7 -11 25
-25 40 -22 23 -25 24 -25 8 0 -16 -2 -17 -10 -4 -9 13 -12 13 -24 -2 -18 -24
-36 -23 -36 2 0 31 -19 24 -35 -12 -8 -21 -11 -52 -7 -87 6 -59 -6 -64 -28
-11 -14 35 -31 40 -23 8 5 -21 4 -21 -16 5 -13 15 -27 42 -32 60 -5 17 -13 39
-19 47 -8 13 -11 12 -24 -5 -14 -19 -15 -19 -21 -2 -4 9 -5 26 -2 37 8 31 -11
34 -25 4 l-12 -26 -16 48 c-16 46 -17 48 -29 27 -6 -13 -13 -41 -15 -63 -2
-23 -6 -43 -9 -46 -6 -6 -16 40 -20 91 -2 22 -7 29 -20 27 -12 -2 -17 4 -17
22 0 14 -4 28 -10 31 -5 3 -10 19 -10 36 0 29 -22 41 -35 19 -3 -5 -15 -10
-26 -10 -11 0 -22 -7 -25 -15 -13 -32 -34 -16 -34 26 0 37 -2 40 -16 28 -9 -7
-20 -23 -25 -36 -11 -28 -25 -30 -32 -3 -7 26 -27 26 -27 -1 0 -11 -4 -18 -9
-15 -14 9 -19 77 -11 156 4 41 5 77 4 79 -6 7 -54 -53 -54 -66 0 -7 -4 -13 -9
-13 -5 0 -13 -9 -16 -20 -12 -39 -25 -8 -25 61 0 74 -8 84 -34 44 -24 -36 -36
-31 -36 15 0 36 -3 40 -24 40 -13 0 -27 -6 -29 -12 -3 -7 -3 4 0 26 6 36 5 38
-14 28 -11 -6 -25 -18 -33 -27 -10 -12 -16 -13 -27 -3 -14 12 -13 46 3 131 5
26 4 27 -20 17 -23 -8 -26 -7 -26 11 0 20 -1 20 -31 2 -17 -10 -62 -49 -100
-87 -39 -37 -72 -66 -75 -64 -2 3 9 45 26 94 17 49 32 94 33 99 1 6 7 13 12
17 7 5 7 8 0 8 -5 0 -34 -23 -64 -50 -30 -28 -56 -50 -58 -50 -9 0 -1 93 13
139 8 29 13 55 10 58 -3 3 -22 -11 -42 -31 -42 -42 -46 -43 -44 -13 3 37 1 49
-10 42 -20 -13 -9 21 30 86 22 37 40 70 40 74 0 23 -107 -48 -155 -102 -24
-27 -24 -27 -25 -6 0 13 -8 32 -17 43 -17 19 -18 19 -50 -17 -18 -20 -35 -34
-38 -32 -2 3 14 40 36 84 37 75 101 153 124 155 6 0 18 13 28 29 15 26 15 30
1 35 -9 3 -35 6 -60 6 -43 0 -43 1 -34 26 6 14 10 30 10 35 0 16 -49 10 -92
-11 -23 -11 -47 -20 -53 -20 -7 0 -25 -11 -41 -25 -39 -34 -48 -31 -28 8 27
51 34 66 34 72 0 3 -18 5 -39 5 -27 0 -44 -6 -53 -18 -7 -10 -21 -21 -30 -25
-27 -10 -23 30 12 130 32 91 37 118 16 91 -7 -10 -18 -18 -23 -18 -11 0 -113
-101 -113 -112 0 -4 -7 -8 -15 -8 -8 0 -13 6 -11 13 3 6 7 52 10 102 l6 90
-29 -35 c-17 -19 -43 -63 -58 -97 -30 -69 -53 -82 -53 -31 l0 32 -20 -22 c-12
-12 -25 -22 -29 -22 -12 0 87 259 111 289 25 33 23 41 -11 41 -33 0 -90 -41
-185 -132 -21 -21 -40 -38 -42 -38 -5 0 28 104 43 135 9 17 38 61 66 98 27 37
47 71 43 74 -3 3 -44 -17 -90 -45 -47 -29 -91 -52 -99 -52 -18 0 -11 41 12 67
58 66 56 62 17 53 -21 -5 -39 -4 -42 1 -6 11 -1 18 69 101 l48 57 -37 -10
c-20 -6 -50 -19 -67 -30 -41 -25 -44 -24 -61 9 -15 28 -14 30 37 79 29 27 67
62 85 76 41 33 37 33 -58 3 -41 -14 -93 -29 -115 -34 -22 -5 -48 -13 -57 -17
-12 -5 -18 -3 -18 6 1 25 222 142 346 184 43 14 82 29 87 32 21 13 -33 27
-122 32 -54 4 -96 11 -98 17 -2 6 16 17 39 24 24 7 48 18 53 23 12 10 -70 1
-130 -16 -22 -6 -47 -12 -55 -13 -24 -5 29 32 67 45 40 15 73 44 73 65 0 15
70 48 144 68 49 13 63 38 21 38 -41 0 -29 26 18 37 170 44 177 46 166 59 -10
12 16 20 141 40 75 12 83 12 140 -6 30 -10 87 -25 125 -34 62 -14 75 -21 116
-64 25 -27 70 -83 101 -124 65 -86 154 -170 209 -198 20 -11 77 -31 126 -46
75 -22 110 -26 233 -27 155 -2 194 3 204 29 5 13 2 15 -16 10 -57 -17 -244
-18 -317 -2 -160 34 -282 124 -344 255 -38 79 -49 190 -24 237 l16 29 1 -40
c1 -64 28 -175 56 -234 15 -29 54 -82 88 -116 53 -54 71 -66 131 -85 134 -41
326 -37 434 11 108 48 196 156 227 281 18 77 23 218 10 301 -4 29 -3 47 2 47
6 0 41 -30 79 -68 46 -45 74 -83 87 -115 10 -26 22 -47 28 -45 12 4 12 3 3 53
-14 80 -36 139 -90 243 -30 58 -53 107 -51 109 8 8 91 -126 132 -212 49 -103
65 -98 45 13 -7 37 -12 82 -11 99 0 18 -6 45 -14 61 -8 15 -20 57 -27 92 -8
40 -21 75 -36 91 -13 14 -23 30 -23 37 0 31 -178 190 -245 218 -30 12 -269 39
-315 36 -72 -6 -233 -40 -240 -51 -3 -5 -28 -18 -55 -28 -92 -35 -285 -177
-285 -210 0 -6 -6 -16 -13 -20 -7 -4 -26 -26 -42 -48 -17 -22 -33 -43 -38 -46
-4 -3 -17 -23 -29 -45 -29 -55 -91 -133 -105 -134 -15 0 -35 -35 -25 -44 3 -4
-1 -4 -10 -1 -9 4 -27 1 -40 -6 -23 -12 -23 -12 -4 9 10 12 27 24 37 27 11 4
19 13 19 21 0 8 7 14 16 14 14 0 14 2 3 16 -8 10 -15 12 -17 5 -2 -6 -12 -11
-23 -11 -10 0 -19 -4 -19 -10 0 -26 -261 -153 -278 -135 -4 4 -1 10 6 12 23 9
162 124 172 143 9 17 7 18 -20 10 -16 -5 -71 -29 -121 -54 -51 -25 -94 -44
-96 -42 -4 4 37 43 91 89 l30 24 -27 18 c-25 16 -31 16 -65 3 -58 -24 -104
-36 -142 -39 -19 -2 -42 -8 -50 -13 -8 -6 1 9 21 34 61 75 97 142 68 124 -7
-4 -30 -9 -52 -12 l-39 -4 26 48 c15 27 56 84 93 127 36 43 63 80 59 84 -5 6
-84 -24 -96 -37 -12 -12 -102 -50 -121 -50 -16 0 -13 7 21 40 29 29 40 47 40
70 0 17 -5 30 -12 30 -9 0 -8 4 2 11 13 9 12 10 -2 5 -10 -3 -25 -9 -33 -12
-8 -3 -15 -1 -15 5 0 23 49 107 83 141 51 53 72 100 45 100 -6 0 -48 -24 -92
-53 -182 -121 -183 -68 -2 116 36 37 66 69 66 72 0 7 -49 -4 -76 -17 -12 -5
-30 -8 -40 -6 -11 2 31 29 111 70 127 66 140 83 40 52 -27 -8 -68 -17 -90 -19
-22 -3 -65 -7 -95 -11 -30 -3 -50 -2 -45 3 6 4 21 29 34 54 12 26 33 52 46 59
13 7 25 20 28 30 2 10 39 34 83 56 44 21 85 44 92 51 16 16 175 93 194 93 7 1
38 12 68 26 l55 24 -50 -5 c-108 -11 -203 -29 -320 -62 -19 -5 -18 -4 3 20 42
45 251 101 425 113 53 4 97 10 97 15 0 9 -75 26 -180 41 -105 14 -110 17 -77
34 63 33 4 43 -118 18 -62 -12 70 54 161 81 90 26 294 64 349 65 19 0 -18 17
-100 44 -201 69 -238 87 -198 100 38 12 161 26 231 26 39 0 72 4 72 8 0 5 -9
17 -20 27 -11 10 -20 23 -20 29 0 19 -60 85 -92 102 -59 31 -248 27 -248 -6 0
-4 -24 -32 -52 -62 -94 -95 -183 -216 -273 -373 -92 -158 -274 -405 -300 -405
-8 0 -15 5 -17 11 -2 7 -44 -19 -95 -57 -80 -61 -200 -134 -219 -134 -11 0 78
65 115 85 53 27 251 233 295 306 l38 64 -113 -112 c-63 -62 -132 -126 -154
-143 -22 -17 -47 -36 -55 -43 -13 -10 -47 -29 -190 -104 -14 -7 -32 -13 -42
-13 -9 0 -45 -15 -80 -34 -74 -40 -120 -56 -100 -35 6 7 12 18 12 24 0 6 -3 7
-8 0 -4 -5 -17 -16 -29 -23 -20 -11 -23 -10 -23 7 0 11 5 23 10 26 15 9 12 35
-4 35 -8 0 -63 -25 -122 -56 -121 -62 -147 -61 -95 4 30 38 39 62 24 62 -8 0
-113 -56 -150 -80 -18 -11 -24 -12 -37 -1 -9 8 -16 20 -16 28 0 10 -5 11 -19
4 -16 -9 -18 -7 -18 15 0 26 41 58 150 114 26 14 47 28 47 33 0 8 -72 -1 -108
-14 -27 -10 -192 -12 -192 -3 0 15 59 58 120 87 36 17 67 35 68 39 2 4 10 8
17 8 8 0 17 5 21 11 5 9 -1 10 -20 5 -18 -4 -25 -3 -21 4 3 5 0 17 -9 25 -16
17 -68 11 -101 -12 -11 -7 -30 -13 -42 -13 -18 0 -23 6 -23 25 0 18 27 55 91
125 50 55 87 100 83 100 -15 0 -84 -34 -84 -42 0 -4 -8 -8 -19 -8 -17 0 -106
-31 -143 -51 -10 -5 -27 -9 -37 -9 -11 0 -23 -4 -26 -10 -10 -16 -39 -11 -57
9 -9 11 -13 21 -8 23 5 2 10 9 12 17 6 27 103 101 188 144 106 54 140 76 140
92 0 15 -26 9 -92 -19 -68 -29 -72 -19 -16 39 64 67 77 94 42 87 -20 -3 -24 0
-24 18 0 16 -4 20 -16 16 -9 -3 -19 -6 -24 -6 -5 0 -16 -7 -24 -16 -9 -8 -21
-14 -28 -12 -15 5 31 48 113 104 52 35 66 49 62 64 -6 24 -2 24 -63 0 -28 -11
-53 -20 -56 -20 -16 0 44 73 90 108 16 12 24 22 17 22 -6 0 -10 6 -9 13 2 9
-16 11 -72 8 -66 -3 -73 -2 -61 12 7 9 26 19 42 22 16 4 29 10 29 14 0 4 16
13 35 20 65 23 31 51 -64 51 -34 0 -61 4 -61 9 0 15 100 49 176 59 38 6 80 15
94 21 l25 10 -22 7 c-41 12 -27 34 22 34 45 0 95 17 95 32 0 4 -6 8 -12 8 -21
1 51 60 72 60 11 0 20 5 20 10 0 6 -6 9 -12 8 -7 -1 -38 -3 -68 -5z m2663
-2066 c31 -14 60 -33 63 -41 3 -9 10 -13 15 -10 5 3 36 -22 70 -54 33 -33 57
-62 52 -65 -4 -2 -46 18 -93 45 -158 91 -302 118 -500 95 -64 -7 -64 -7 -31 8
19 8 51 18 72 21 21 4 47 13 56 21 14 10 44 13 128 10 92 -3 120 -8 168 -30z
m-157 -246 c22 -10 50 -31 62 -46 40 -50 22 -159 -23 -141 -15 5 -16 4 -5 -9
16 -19 -3 -69 -23 -63 -17 6 -21 46 -7 64 10 11 9 14 -8 14 -11 0 -36 -7 -56
-15 -51 -21 -99 -11 -132 28 -35 42 -29 96 17 143 46 47 107 56 175 25z m-287
-265 c18 -22 -4 -58 -32 -54 -37 5 -36 68 1 68 11 0 25 -6 31 -14z m-552 -62
c-3 -3 -12 -4 -19 -1 -8 3 -5 6 6 6 11 1 17 -2 13 -5z m1103 -126 c0 -9 3 -9
9 1 12 18 41 7 42 -16 5 -71 -80 -233 -122 -233 -13 0 -11 -44 4 -60 6 -8 0
-4 -15 9 -28 24 -28 24 -28 3 0 -16 -4 -20 -16 -15 -10 4 -22 0 -28 -9 -16
-22 -201 -54 -221 -38 -5 4 -32 10 -60 13 -63 7 -125 25 -125 37 0 4 -15 18
-34 29 -19 12 -36 31 -40 44 -3 12 -15 27 -28 32 -29 13 -36 54 -12 72 23 17
81 17 91 -1 4 -7 41 -31 82 -52 68 -36 81 -39 155 -39 110 0 159 23 248 118
37 39 71 82 74 95 7 23 24 31 24 10z m1265 -213 c55 -8 116 -18 135 -23 l35
-9 -30 -6 c-16 -3 -66 -9 -110 -12 -44 -3 -102 -11 -129 -17 -45 -10 -161 -6
-173 5 -11 11 9 45 30 52 82 26 114 33 127 28 8 -3 60 -11 115 -18z m-3515
-308 c0 -8 -12 -20 -27 -28 -15 -8 -65 -43 -112 -78 -47 -35 -114 -76 -148
-92 -67 -31 -194 -69 -230 -69 -39 0 -25 17 20 24 23 4 66 17 94 31 59 27 177
104 170 111 -2 3 -55 0 -118 -7 -97 -9 -229 -6 -217 7 3 2 47 13 99 23 52 11
119 29 150 40 31 11 110 26 175 32 66 6 121 13 123 15 9 9 21 3 21 -9z m-130
-168 c0 -6 -22 -37 -48 -68 -70 -80 -71 -85 -31 -76 l34 8 -35 -40 c-19 -21
-54 -54 -77 -72 -23 -17 -61 -58 -85 -89 -53 -70 -68 -86 -74 -80 -2 3 0 17 6
32 19 50 14 57 -25 40 -48 -20 -77 -18 -73 3 2 10 12 19 23 21 28 5 68 44 132
130 64 85 159 172 206 189 42 15 47 15 47 2z m6003 -196 c31 -25 57 -46 57
-48 0 -7 -50 26 -111 73 -31 23 -61 42 -67 42 -7 0 -12 5 -12 11 0 13 55 -19
133 -78z m-6138 -129 c-24 -37 -52 -90 -61 -118 -19 -59 -34 -80 -34 -48 0 44
44 153 77 192 56 66 68 48 18 -26z m3828 -111 c-7 -2 -21 -2 -30 0 -10 3 -4 5
12 5 17 0 24 -2 18 -5z m-65 -10 c-10 -2 -28 -2 -40 0 -13 2 -5 4 17 4 22 1
32 -1 23 -4z m2002 -254 c12 -52 20 -111 18 -130 -2 -25 -11 1 -31 96 -16 71
-37 151 -48 177 -27 69 -23 72 10 8 16 -30 38 -98 51 -151z m-858 -14 c51 -15
51 -15 114 -70 43 -36 63 -75 39 -75 -18 0 -26 -25 -18 -61 5 -28 4 -30 -13
-21 -11 6 -28 20 -38 31 -23 26 -115 85 -122 79 -2 -3 5 -17 16 -31 70 -89
120 -183 120 -225 0 -12 -7 -9 -27 10 -66 60 -157 87 -138 40 20 -49 33 -117
25 -131 -8 -14 -9 -14 -15 2 -4 9 -13 17 -20 17 -7 0 -16 6 -18 13 -9 22 1
-47 12 -83 15 -47 15 -98 0 -83 -18 18 -49 3 -49 -23 0 -34 -10 -29 -50 23
-45 61 -99 117 -106 111 -2 -3 4 -29 16 -57 21 -54 27 -121 10 -121 -5 0 -23
21 -40 46 -32 45 -52 55 -30 14 12 -22 16 -107 6 -117 -3 -3 -11 6 -17 20 -6
14 -18 28 -25 31 -11 4 -13 -9 -9 -69 3 -41 1 -76 -4 -79 -5 -4 -24 23 -42 59
-32 65 -56 77 -45 24 6 -31 -1 -59 -15 -59 -5 0 -9 8 -9 18 0 10 -11 33 -25
52 -14 19 -25 41 -25 50 0 16 -18 40 -30 40 -7 0 -3 -97 5 -117 2 -7 1 -15 -4
-17 -8 -6 -45 97 -46 129 -1 11 4 23 10 27 7 5 4 23 -8 55 -10 26 -20 59 -23
73 -3 14 -12 47 -20 74 -20 69 -18 93 11 122 14 14 25 31 25 39 0 9 10 15 25
15 27 0 32 9 14 27 -6 6 -8 21 -4 33 5 17 13 21 31 17 14 -2 22 -2 19 1 -9 9
27 42 46 42 10 0 22 8 28 18 8 14 24 17 89 17 59 0 78 3 75 13 -3 6 -9 12 -14
12 -5 0 -9 9 -9 21 0 19 4 20 38 16 143 -21 142 -21 142 2 0 18 6 21 48 21 26
0 68 -7 94 -15z m-4372 -227 c-6 -63 -10 -185 -7 -275 4 -181 -3 -195 -43 -80
-31 88 -38 243 -15 322 19 67 63 160 72 151 3 -3 0 -56 -7 -118z m5217 2 c28
-61 44 -192 24 -204 -4 -3 -14 29 -21 71 -6 42 -19 94 -27 117 -8 23 -16 54
-19 71 l-4 30 18 -30 c9 -17 22 -41 29 -55z m-2421 -44 c100 -34 236 -114 257
-152 15 -27 27 -3 27 54 0 54 2 59 31 76 37 22 141 33 172 18 12 -5 37 -16 56
-23 39 -14 78 -48 96 -81 29 -57 36 -69 45 -88 6 -11 17 -59 26 -107 12 -70
12 -96 3 -146 -17 -82 -72 -170 -125 -197 -16 -8 -31 -17 -34 -20 -27 -27 -84
-42 -180 -47 -101 -5 -109 -4 -190 28 -47 18 -101 43 -122 55 -61 39 -142 126
-180 194 -48 87 -105 230 -120 301 -28 139 68 193 238 135z m-431 -214 c13
-21 51 -66 84 -101 33 -36 59 -67 56 -69 -7 -8 -40 25 -99 98 -62 76 -97 128
-78 116 7 -4 24 -24 37 -44z m203 -183 c19 -30 11 -32 -11 -3 -10 13 -14 24
-10 24 5 0 14 -9 21 -21z m1022 -123 c-12 -33 -33 -66 -42 -66 -3 0 1 15 9 33
27 54 51 78 33 33z m606 -288 c-8 -56 -58 -157 -92 -188 -31 -29 -30 -26 15
66 19 38 37 78 41 89 32 86 46 100 36 33z m81 -103 c-7 -49 -34 -121 -43 -113
-4 4 10 68 32 146 9 30 16 8 11 -33z m-241 -76 c-24 -72 -72 -144 -139 -206
-52 -49 -77 -64 -77 -45 0 4 20 32 45 62 43 51 95 124 154 212 13 21 27 36 29
33 3 -2 -3 -28 -12 -56z m-2935 -324 c135 -38 347 -124 489 -199 l95 -50 135
-1 c210 -3 311 -39 555 -201 107 -70 176 -143 77 -81 -20 13 -48 30 -61 37
-21 11 -23 10 -18 -4 4 -9 1 -16 -5 -16 -7 0 -6 -5 2 -15 25 -31 -1 -14 -55
35 -87 79 -216 133 -370 155 -27 4 -53 11 -56 16 -3 5 -23 12 -45 14 -32 4
-34 3 -9 -3 25 -6 27 -9 14 -17 -8 -6 -18 -17 -21 -26 -7 -19 18 -31 171 -83
57 -19 130 -51 161 -69 76 -45 211 -97 280 -107 98 -14 272 -70 285 -91 7 -11
-6 -11 -65 1 -84 16 -88 -14 -5 -40 71 -22 209 -82 232 -100 12 -9 44 -23 70
-30 26 -8 62 -22 78 -32 17 -10 41 -18 54 -18 22 0 23 1 9 18 -9 9 -48 76 -88
147 -40 72 -80 138 -88 148 -24 27 -12 28 59 4 84 -29 169 -80 228 -138 52
-51 147 -186 138 -195 -8 -9 -28 6 -22 16 3 4 -8 14 -24 21 -17 7 -32 22 -35
33 -3 11 -8 17 -11 14 -4 -3 -2 -15 4 -26 6 -12 11 -32 11 -46 0 -14 5 -28 10
-31 6 -3 10 -21 9 -38 0 -18 -3 -26 -6 -19 -2 6 -10 12 -17 12 -7 0 -21 9 -31
20 -10 11 -15 20 -11 20 11 0 -41 94 -70 125 -20 21 -26 24 -20 10 10 -28 20
-145 12 -145 -4 0 -20 7 -35 15 -24 12 -161 35 -210 35 -34 0 26 -27 74 -35
57 -8 196 -59 237 -87 14 -10 30 -18 35 -18 12 0 56 -41 50 -46 -2 -2 -20 3
-40 11 -72 30 -70 15 10 -62 71 -69 87 -92 136 -193 36 -75 60 -138 66 -180
16 -99 13 -111 -15 -51 -30 67 -30 67 -48 52 -12 -10 -18 -5 -34 31 l-20 43
-1 -40 c-1 -22 -10 -72 -22 -112 -16 -54 -31 -80 -60 -109 -29 -28 -39 -33
-39 -21 0 9 6 17 13 17 14 0 38 76 30 97 -3 7 -14 13 -24 13 -11 0 -19 7 -19
18 0 27 -49 75 -71 69 -11 -3 -22 0 -25 5 -4 6 -13 -4 -20 -21 -12 -28 -18
-32 -45 -29 -27 3 -34 -2 -48 -29 -9 -18 -21 -33 -28 -33 -6 0 -14 -14 -18
-31 -4 -17 -13 -33 -21 -36 -8 -3 -14 -9 -14 -15 0 -18 -41 -98 -50 -98 -18 0
-21 22 -9 70 11 42 10 54 -5 93 -9 24 -25 52 -35 61 -16 15 -21 15 -48 1 -29
-14 -34 -14 -70 7 -21 12 -42 27 -46 33 -9 11 -4 -18 8 -47 5 -13 2 -18 -9
-18 -12 0 -15 -6 -11 -22 4 -18 0 -26 -21 -35 -24 -11 -29 -10 -42 9 l-15 21
-8 -21 -8 -21 -49 21 c-27 12 -57 18 -66 15 -22 -9 -20 -43 4 -60 24 -17 100
-112 100 -125 0 -7 -11 -7 -32 -1 -18 5 -51 11 -73 14 -22 3 -63 9 -92 13 -62
11 -85 1 -53 -21 l22 -15 -22 -12 c-13 -7 -37 -9 -61 -5 -40 7 -53 -7 -28 -32
6 -6 14 -27 19 -47 11 -51 -5 -55 -82 -18 -39 18 -68 27 -77 22 -10 -5 -25 2
-45 22 -48 48 -46 12 7 -120 25 -60 25 -62 5 -62 -11 0 -39 20 -64 44 -37 38
-46 42 -58 31 -18 -18 -33 -2 -74 80 -43 85 -58 188 -46 314 11 122 5 118 -61
-36 -27 -62 -52 -113 -57 -113 -4 0 -8 19 -9 43 0 23 -4 51 -8 62 -7 18 -11
15 -29 -22 -27 -52 -52 -122 -52 -148 -1 -42 -31 51 -33 103 -1 29 -8 56 -14
60 -6 4 -15 20 -18 35 -9 36 -18 34 -41 -8 -10 -19 -22 -35 -26 -35 -5 0 -8
25 -8 55 0 30 -4 55 -8 55 -7 0 -86 -100 -86 -110 -1 -9 -30 -40 -39 -40 -5 0
-6 8 -2 18 4 9 14 46 21 82 15 70 42 141 59 152 7 5 6 11 -1 18 -7 7 -23 4
-54 -11 -24 -12 -58 -21 -76 -22 -19 -1 -36 -7 -38 -14 -9 -23 -25 -14 -23 13
1 15 -3 29 -9 31 -10 3 -86 -67 -113 -105 -22 -31 -31 -17 -31 45 l0 57 -30
-29 c-16 -16 -32 -26 -35 -23 -11 11 7 56 31 79 22 21 34 46 16 35 -4 -2 -6
11 -4 30 5 44 -8 43 -54 -1 -19 -19 -39 -35 -43 -35 -4 0 -26 -16 -48 -35 -23
-19 -44 -35 -47 -35 -3 0 9 27 27 59 35 65 33 82 -7 56 l-26 -17 11 32 c13 35
65 92 119 129 l35 23 -137 -6 c-82 -3 -138 -2 -138 3 0 5 15 20 33 32 17 12
34 24 35 25 2 1 5 16 6 32 2 27 0 29 -24 22 -26 -8 -170 -82 -230 -119 -41
-25 -50 -26 -50 -7 0 15 154 166 170 166 5 0 10 7 10 16 0 12 -5 14 -17 9 -46
-19 -60 -17 -65 9 -4 22 0 29 26 41 38 19 99 69 73 61 -57 -18 -67 -18 -61 -2
3 9 10 16 15 16 5 0 9 5 9 11 0 6 -16 10 -37 9 -21 -1 -49 -1 -63 -1 -24 2
-24 3 15 37 22 20 75 61 118 91 43 30 76 57 74 60 -3 2 -22 -4 -43 -13 -22 -9
-48 -20 -59 -24 -27 -10 -111 -52 -159 -79 -21 -12 -41 -20 -44 -16 -10 10 20
50 68 90 57 47 65 70 20 60 -35 -8 -40 7 -7 23 l22 11 -22 0 c-13 1 -23 6 -23
12 0 12 33 62 62 93 27 30 15 30 -42 2 -83 -42 -182 -109 -240 -164 -60 -57
-75 -64 -64 -29 12 38 89 129 157 187 65 54 78 70 56 70 -14 0 -186 -87 -221
-111 -14 -11 -36 -19 -48 -19 -11 0 -18 -4 -15 -10 3 -5 -1 -10 -9 -10 -23 0
-20 15 7 33 12 8 45 37 72 64 64 62 271 201 372 249 43 20 73 38 68 40 -6 2
-51 -5 -100 -17 -114 -26 -161 -29 -157 -10 2 10 -5 12 -25 7 -94 -20 -208
-37 -231 -34 -24 3 -19 7 38 35 36 17 99 42 140 56 123 42 397 98 525 109 66
5 136 12 155 15 74 12 -6 22 -182 22 -145 1 -178 4 -178 15 0 8 12 17 28 21
15 3 36 15 47 25 43 40 204 33 376 -15z m289 1 c107 -27 192 -66 320 -147 36
-23 76 -48 89 -55 22 -11 23 -14 8 -20 -30 -11 -88 4 -172 44 -44 22 -98 45
-120 52 -22 7 -58 22 -80 34 -22 11 -73 34 -114 51 -41 17 -76 36 -79 43 -5
16 77 15 148 -2z m2848 -348 c39 -32 59 -58 44 -58 -12 1 -106 90 -95 90 6 0
29 -15 51 -32z m359 -47 c123 -65 209 -119 200 -128 -2 -2 -24 5 -48 15 -24
11 -87 34 -139 52 -52 17 -111 42 -130 54 -93 60 -108 71 -103 79 12 20 95 -7
220 -72z m-612 -1 c4 -6 15 -8 26 -5 10 3 33 0 51 -8 18 -8 49 -21 68 -28 19
-7 41 -19 48 -25 10 -10 6 -13 -15 -16 -19 -3 -7 -7 32 -12 81 -10 98 -18 55
-26 -20 -3 -34 -11 -32 -18 1 -7 -4 -12 -10 -12 -7 0 -45 -5 -85 -10 -103 -13
-245 9 -342 55 -60 29 -71 38 -62 49 14 17 58 13 180 -16 46 -10 86 -17 89
-14 3 4 0 6 -7 6 -7 0 -10 4 -7 8 2 4 32 5 65 2 72 -7 70 3 -5 25 -95 27 -110
35 -94 45 20 13 37 12 45 0z m-608 -162 c74 -35 148 -139 179 -253 16 -58 19
-124 4 -90 -8 19 -9 19 -9 -2 -1 -16 -7 -23 -21 -23 -12 0 -20 -7 -20 -17 -1
-10 -10 -1 -22 22 -28 54 -104 182 -166 282 -62 99 -66 117 -19 108 17 -4 51
-16 74 -27z m1367 5 c14 -7 -3 -12 -66 -16 -45 -4 -99 -7 -118 -7 l-35 1 28
15 c57 31 143 34 191 7z m-1145 -8 c36 -21 52 -25 86 -19 36 5 52 1 98 -25 31
-17 62 -31 70 -31 9 0 17 -13 19 -31 l5 -32 -86 6 c-94 6 -130 20 -201 75 -61
48 -74 64 -57 74 17 11 17 11 66 -17z m-474 -22 c64 -22 138 -72 163 -110 12
-20 21 -37 19 -40 -3 -2 -46 23 -96 57 -50 33 -112 72 -138 85 -26 14 -49 28
-52 30 -7 8 59 -6 104 -22z m-297 -54 c52 -31 89 -67 102 -100 7 -16 16 -29
21 -29 5 0 9 -8 9 -17 0 -9 8 -26 18 -37 17 -21 17 -21 -5 -2 -22 18 -24 18
-42 2 -17 -16 -19 -15 -31 14 -7 16 -15 30 -19 30 -3 0 -17 18 -30 39 -14 22
-34 45 -45 53 -27 18 -76 68 -76 78 0 12 55 -5 98 -31z m-2221 -295 c-3 -3
-12 -4 -19 -1 -8 3 -5 6 6 6 11 1 17 -2 13 -5z m2950 -186 c-3 -7 -5 -2 -5 12
0 14 2 19 5 13 2 -7 2 -19 0 -25z m-4777 -42 c0 -3 -4 -8 -10 -11 -5 -3 -10
-1 -10 4 0 6 5 11 10 11 6 0 10 -2 10 -4z m1196 -51 c-15 -8 -40 -15 -55 -14
-24 0 -23 1 9 13 19 8 44 14 55 15 15 1 13 -3 -9 -14z m5271 -272 c35 -3 63
-9 63 -13 0 -20 -55 -41 -107 -41 -66 0 -77 8 -63 45 8 21 15 26 28 21 9 -3
45 -9 79 -12z m-1770 -250 c3 -30 0 -61 -10 -83 -15 -35 -15 -34 -16 60 -1 70
2 91 10 83 7 -7 14 -33 16 -60z m1428 57 c4 -6 -10 -10 -37 -9 -40 1 -41 2
-13 9 43 11 43 11 50 0z"/>
<path d="M4983 2473 c9 -2 23 -2 30 0 6 3 -1 5 -18 5 -16 0 -22 -2 -12 -5z"/>
<path d="M3420 8737 c0 -13 -14 -17 -65 -19 -101 -5 -97 -9 110 -107 106 -51
201 -120 207 -151 2 -8 9 -20 15 -28 7 -7 16 -18 20 -25 9 -14 99 -87 107 -87
25 0 -53 161 -125 256 -38 52 -146 131 -204 152 -16 5 -38 13 -47 17 -13 5
-18 2 -18 -8z"/>
<path d="M4461 7482 c-5 -2 -7 -10 -4 -19 5 -11 1 -14 -13 -10 -90 26 -167 24
-206 -4 -15 -10 -43 -19 -61 -19 -37 0 -63 -21 -54 -43 8 -21 194 -66 268 -66
39 1 88 -7 122 -19 36 -12 60 -15 64 -9 3 6 33 7 74 3 65 -6 69 -5 69 14 0 24
13 26 30 5 7 -8 17 -12 22 -9 6 4 -20 35 -58 70 -37 35 -70 61 -72 59 -3 -2
-25 8 -51 23 -40 24 -99 34 -130 24z"/>
<path d="M4708 7273 c7 -3 16 -2 19 1 4 3 -2 6 -13 5 -11 0 -14 -3 -6 -6z"/>
<path d="M860 6333 c-146 -12 -290 -55 -309 -92 -11 -19 -9 -23 72 -165 26
-45 43 -86 40 -95 -4 -9 -25 -38 -48 -66 -114 -137 -220 -304 -204 -320 3 -2
42 11 86 29 122 52 195 68 338 74 130 5 150 20 29 21 -70 1 -124 17 -124 37 0
20 23 66 43 86 9 10 17 27 17 38 0 11 6 20 14 20 8 0 21 17 29 38 9 20 27 49
41 63 14 15 22 29 20 32 -3 3 4 11 16 17 14 8 19 17 15 30 -4 13 3 24 25 40
17 12 37 37 45 57 8 19 24 37 35 40 15 4 19 11 15 24 -5 15 -1 19 19 19 14 0
26 4 26 9 0 5 10 11 22 13 13 2 24 10 26 19 2 14 -10 18 -65 23 -115 11 -176
13 -223 9z"/>
<path d="M951 6094 c0 -11 3 -14 6 -6 3 7 2 16 -1 19 -3 4 -6 -2 -5 -13z"/>
<path d="M1820 5986 c0 -2 6 -11 13 -18 6 -7 18 -28 24 -47 10 -28 10 -36 -1
-45 -7 -6 -22 -28 -34 -48 -21 -38 -21 -38 -1 -38 11 0 18 -4 15 -8 -6 -11 1
-12 92 -18 44 -4 72 -2 72 4 0 6 -22 26 -49 46 -27 20 -52 43 -55 51 -7 19 -7
19 40 -1 l39 -16 -50 52 c-48 50 -105 97 -105 86z"/>
<path d="M6780 5972 c-38 -14 -41 -17 -21 -20 14 -2 49 -1 80 3 53 7 54 7 31
21 -31 16 -34 16 -90 -4z"/>
<path d="M6930 5800 c14 -4 36 -8 50 -8 23 -1 23 0 5 8 -11 5 -33 8 -50 8 -29
0 -29 0 -5 -8z"/>
<path d="M1145 5244 c-95 -20 -276 -102 -367 -167 -186 -134 -337 -365 -383
-585 -23 -114 -18 -205 11 -181 8 6 14 16 14 21 0 22 92 138 154 195 69 63
189 129 285 157 30 9 92 16 138 16 75 0 105 10 70 23 -14 5 -124 3 -147 -4
-11 -3 -14 3 -13 19 2 14 -3 22 -12 22 -8 0 -15 2 -15 4 0 14 32 76 43 83 6 4
25 27 40 51 15 23 31 42 35 42 15 0 82 70 82 85 0 8 8 15 18 15 10 0 24 16 35
38 23 47 72 102 92 102 8 0 15 4 15 8 0 12 111 42 160 43 l45 2 -50 7 c-52 9
-216 11 -250 4z"/>
<path d="M1488 5223 c6 -2 18 -2 25 0 6 3 1 5 -13 5 -14 0 -19 -2 -12 -5z"/>
<path d="M4150 4929 c0 -5 5 -7 10 -4 6 3 10 8 10 11 0 2 -4 4 -10 4 -5 0 -10
-5 -10 -11z"/>
<path d="M4090 4890 c-19 -16 -29 -30 -22 -30 6 0 12 4 12 9 0 5 12 11 27 13
17 2 29 10 31 21 5 24 -8 21 -48 -13z"/>
<path d="M1400 4664 c0 -8 68 -34 86 -34 10 0 15 2 12 5 -7 7 -98 34 -98 29z"/>
<path d="M1527 4619 c7 -7 15 -10 18 -7 3 3 -2 9 -12 12 -14 6 -15 5 -6 -5z"/>
<path d="M7370 2412 c-28 -10 -2 -17 67 -20 57 -2 74 1 66 9 -10 10 -110 18
-133 11z"/>
<path d="M7988 2401 c-70 -8 -81 -16 -30 -24 39 -7 107 7 117 23 7 11 3 11
-87 1z"/>
<path d="M7623 2393 c-13 -2 -23 -9 -23 -14 0 -14 33 -10 54 6 20 15 15 17
-31 8z"/>
<path d="M8070 2335 c0 -10 102 -56 113 -51 7 2 4 5 -5 5 -10 1 -18 5 -18 9 0
5 -16 16 -35 25 -36 17 -55 21 -55 12z"/>
<path d="M1165 1940 c-13 -5 -14 -9 -5 -9 8 0 24 4 35 9 13 5 14 9 5 9 -8 0
-24 -4 -35 -9z"/>
<path d="M1370 1915 c0 -8 5 -15 10 -15 6 0 10 7 10 15 0 8 -4 15 -10 15 -5 0
-10 -7 -10 -15z"/>
<path d="M1717 1829 c7 -7 15 -10 18 -7 3 3 -2 9 -12 12 -14 6 -15 5 -6 -5z"/>
</g>
</svg>
