<?xml version="1.0" standalone="no"?>
<!DOCTYPE svg PUBLIC "-//W3C//DTD SVG 20010904//EN"
 "http://www.w3.org/TR/2001/REC-SVG-20010904/DTD/svg10.dtd">
<svg version="1.0" xmlns="http://www.w3.org/2000/svg"
 width="1024.000000pt" height="1024.000000pt" viewBox="0 0 1024.000000 1024.000000"
 preserveAspectRatio="xMidYMid meet">

<g transform="translate(0.000000,1024.000000) scale(0.100000,-0.100000)"
fill="#000000" stroke="none">
<path d="M5954 7676 c-14 -22 -15 -40 -10 -106 l7 -81 -39 -47 c-44 -53 -62
-86 -92 -165 -36 -96 -134 -161 -310 -206 -47 -12 -98 -27 -113 -33 -78 -30
-57 -129 49 -235 119 -119 245 -138 469 -69 150 45 216 48 286 10 97 -53 135
-156 126 -339 -7 -139 -33 -240 -101 -380 -67 -140 -145 -244 -277 -370 -125
-119 -196 -171 -474 -345 -115 -72 -242 -156 -282 -187 -279 -212 -454 -480
-470 -720 -7 -98 8 -148 67 -221 98 -124 296 -173 494 -122 348 89 1040 616
1406 1071 214 266 347 524 402 782 31 146 30 390 -1 531 -109 482 -387 826
-933 1153 -84 51 -161 95 -170 98 -11 5 -22 -2 -34 -19z"/>
<path d="M3684 7236 c-145 -29 -283 -133 -343 -260 -39 -81 -86 -282 -77 -330
4 -22 20 -46 42 -65 30 -26 43 -31 89 -31 42 0 60 5 83 25 46 39 58 77 44 144
-27 127 -2 214 81 287 169 149 427 22 427 -210 0 -90 -33 -183 -89 -254 -14
-18 -75 -74 -135 -125 -60 -51 -133 -121 -163 -156 -145 -177 -223 -445 -195
-679 34 -294 186 -578 420 -784 53 -47 97 -78 197 -139 l40 -24 -23 35 c-63
97 -137 277 -154 375 -3 15 -10 19 -30 17 -21 -3 -33 6 -63 44 -82 108 -146
288 -167 467 -21 179 17 363 109 527 38 67 81 118 208 250 176 182 213 239
236 360 23 129 -28 287 -128 391 -67 71 -146 114 -242 135 -77 16 -86 16 -167
0z"/>
<path d="M4757 6355 c-42 -46 -143 -139 -224 -207 -81 -68 -169 -150 -196
-183 -147 -181 -232 -406 -243 -650 -11 -208 37 -387 147 -554 62 -95 189
-229 264 -281 l45 -31 0 26 c0 38 56 200 93 270 l32 60 -67 67 c-91 92 -141
193 -146 294 -6 118 33 203 117 252 44 26 54 27 216 32 148 5 175 8 211 27 49
26 100 82 125 137 10 23 27 47 38 54 37 22 26 56 -34 107 -42 37 -56 55 -60
83 -16 100 -48 143 -157 218 l-46 32 10 53 c17 90 -8 267 -38 276 -5 1 -44
-35 -87 -82z"/>
<path d="M4187 3649 c-16 -6 -36 -27 -47 -50 -16 -31 -155 -403 -300 -804 -26
-70 -7 -105 56 -105 46 0 72 33 109 136 l32 89 194 3 194 2 35 -97 c18 -53 42
-105 52 -115 25 -25 89 -24 112 1 26 29 23 48 -27 182 -26 68 -96 259 -156
423 -61 165 -118 308 -129 318 -23 23 -86 32 -125 17z m72 -261 c63 -172 111
-321 106 -327 -8 -8 -241 -15 -260 -7 -10 4 2 50 53 200 37 108 69 196 73 196
3 0 15 -28 28 -62z"/>
<path d="M5156 3629 l-26 -20 0 -182 0 -181 -37 36 c-53 50 -94 68 -155 68
-104 0 -205 -72 -257 -180 -22 -47 -26 -68 -26 -150 0 -85 3 -101 28 -148 34
-65 98 -131 152 -156 88 -42 175 -30 249 35 l46 41 0 -27 c0 -35 41 -75 78
-75 17 0 37 9 51 23 l22 24 -3 437 -3 438 -24 19 c-30 25 -62 24 -95 -2z m-99
-440 c81 -50 107 -205 49 -291 -51 -76 -130 -97 -214 -57 -113 55 -138 233
-45 325 57 57 140 66 210 23z"/>
<path d="M1781 3621 c-21 -21 -21 -28 -21 -456 0 -422 1 -436 20 -455 26 -26
80 -26 108 0 21 20 22 29 22 169 l0 149 148 4 c159 4 188 13 261 74 127 107
127 328 -1 451 -69 67 -111 77 -325 81 -183 4 -192 3 -212 -17z m386 -146 c54
-33 83 -86 83 -156 0 -61 -22 -102 -70 -132 -31 -19 -49 -22 -150 -22 l-115 0
-3 168 -2 167 106 0 c97 0 111 -2 151 -25z"/>
<path d="M7389 3599 c-76 -82 14 -214 111 -164 19 10 38 31 46 52 44 105 -80
194 -157 112z"/>
<path d="M3194 3522 c-22 -15 -35 -55 -34 -105 2 -76 2 -77 -26 -77 -42 0 -64
-18 -64 -50 0 -36 31 -70 64 -70 l24 0 4 -202 c4 -222 8 -241 67 -291 58 -48
199 -60 243 -20 23 20 24 76 1 94 -9 8 -39 14 -70 14 -45 0 -58 4 -74 24 -17
21 -19 41 -19 202 l0 179 74 0 c66 0 77 3 90 22 21 30 20 54 -4 78 -16 16 -33
20 -89 20 l-69 0 -4 81 c-3 66 -7 83 -23 95 -20 15 -73 19 -91 6z"/>
<path d="M6941 3504 c-17 -21 -21 -41 -21 -95 l0 -69 -33 0 c-60 0 -88 -59
-47 -100 11 -11 33 -20 49 -20 l30 0 3 -208 c3 -203 4 -209 28 -245 34 -50 90
-79 164 -84 71 -6 108 6 132 42 14 21 14 30 4 55 -14 33 -13 33 -87 34 -35 1
-57 7 -72 20 -20 18 -21 29 -21 202 l0 183 82 3 c76 3 83 5 94 27 13 26 3 69
-19 83 -7 4 -45 8 -84 8 l-73 0 0 75 c0 62 -4 79 -20 95 -30 30 -83 27 -109
-6z"/>
<path d="M7406 3354 c-14 -13 -16 -57 -16 -323 0 -345 -1 -341 73 -341 66 0
67 5 67 347 0 338 1 333 -70 333 -22 0 -45 -7 -54 -16z"/>
<path d="M5631 3349 c-100 -19 -191 -92 -234 -187 -31 -70 -35 -191 -8 -262
28 -73 98 -152 165 -185 66 -32 158 -36 235 -10 67 22 143 91 178 163 25 51
28 68 28 157 0 90 -3 105 -27 152 -68 128 -203 197 -337 172z m116 -140 c99
-37 146 -185 92 -296 -32 -65 -70 -88 -150 -88 -57 0 -71 4 -103 29 -78 59
-98 181 -44 278 38 71 131 105 205 77z"/>
<path d="M6136 3344 c-14 -14 -16 -69 -16 -453 0 -425 1 -438 20 -456 27 -25
80 -22 102 6 16 18 18 43 18 179 l0 159 50 -34 c67 -45 111 -58 179 -53 106 8
199 75 248 182 24 53 28 73 28 151 0 108 -20 159 -90 234 -64 68 -129 95 -216
89 -72 -6 -148 -40 -172 -79 -17 -28 -27 -23 -27 14 0 50 -24 77 -70 77 -22 0
-45 -7 -54 -16z m381 -144 c29 -13 52 -34 72 -65 39 -61 47 -111 27 -177 -44
-152 -222 -188 -320 -65 -29 37 -31 44 -31 125 0 73 4 93 23 124 44 71 145 97
229 58z"/>
<path d="M8390 3340 c-19 -19 -20 -33 -20 -310 l0 -291 25 -24 c31 -32 74 -33
103 -2 21 22 22 32 22 200 0 197 6 225 59 270 63 53 154 45 210 -18 l31 -36 0
-195 c0 -194 0 -195 25 -219 31 -32 74 -33 104 -1 23 24 23 27 19 243 -4 236
-8 256 -64 322 -38 46 -96 71 -167 71 -66 0 -112 -17 -167 -60 -46 -36 -50
-37 -50 -6 0 13 -9 35 -21 50 -26 33 -79 36 -109 6z"/>
<path d="M2654 3339 c-87 -25 -181 -122 -205 -212 -19 -70 -7 -193 25 -255 32
-64 90 -123 148 -153 126 -65 348 -10 348 85 0 32 -25 66 -47 66 -6 0 -35 -11
-65 -25 -65 -30 -118 -32 -175 -4 -46 22 -78 59 -88 102 l-7 27 216 0 c248 0
232 -7 230 95 0 38 -9 78 -22 108 -28 64 -109 141 -168 161 -51 17 -140 20
-190 5z m155 -137 c39 -19 66 -54 75 -94 l6 -28 -150 0 -151 0 7 23 c32 103
123 146 213 99z"/>
<path d="M7830 3329 c-53 -24 -134 -99 -160 -150 -67 -129 -35 -307 73 -406
74 -69 99 -78 207 -78 79 0 102 4 137 23 58 30 118 96 151 162 23 47 27 68 27
145 0 79 -4 97 -28 142 -40 77 -81 118 -149 153 -52 26 -72 30 -137 30 -55 0
-89 -6 -121 -21z m200 -130 c163 -92 111 -379 -69 -379 -97 0 -169 68 -178
167 -15 169 119 284 247 212z"/>
</g>
</svg>
