<?xml version="1.0" standalone="no"?>
<!DOCTYPE svg PUBLIC "-//W3C//DTD SVG 20010904//EN"
 "http://www.w3.org/TR/2001/REC-SVG-20010904/DTD/svg10.dtd">
<svg version="1.0" xmlns="http://www.w3.org/2000/svg"
 width="1024.000000pt" height="1024.000000pt" viewBox="0 0 1024.000000 1024.000000"
 preserveAspectRatio="xMidYMid meet">

<g transform="translate(0.000000,1024.000000) scale(0.100000,-0.100000)"
fill="#000000" stroke="none">
<path d="M0 10020 l0 -220 240 0 c233 0 240 1 240 20 0 19 7 20 160 20 153 0
160 -1 160 -20 0 -18 7 -20 60 -20 53 0 60 -2 60 -20 0 -19 7 -20 100 -20 93
0 100 -1 100 -20 0 -19 7 -20 160 -20 153 0 160 -1 160 -20 0 -18 7 -20 80
-20 73 0 80 2 80 20 0 18 7 20 80 20 73 0 80 2 80 20 0 13 7 20 20 20 13 0 20
-7 20 -20 0 -19 7 -20 96 -20 87 0 96 2 101 20 5 18 14 20 94 20 82 0 89 2 89
20 0 18 7 20 70 20 63 0 70 -2 70 -20 0 -19 7 -20 120 -20 113 0 120 -1 120
-20 0 -20 7 -20 320 -20 313 0 320 0 320 -20 0 -18 7 -20 80 -20 73 0 80 -2
80 -20 0 -17 7 -20 40 -20 33 0 40 -3 40 -20 0 -19 7 -20 200 -20 193 0 200 1
200 20 0 20 7 20 320 20 313 0 320 0 320 -20 0 -19 7 -20 160 -20 153 0 160 1
160 20 0 17 7 20 40 20 33 0 40 -3 40 -20 0 -11 5 -20 10 -20 6 0 10 9 10 20
0 16 7 20 38 20 26 0 42 6 52 20 9 12 27 20 45 21 16 0 24 3 18 6 -18 7 -16
21 3 41 15 15 16 14 10 -6 -9 -27 5 -29 24 -2 8 12 26 20 42 20 21 0 28 5 28
20 0 15 7 20 28 20 58 0 101 12 95 26 -3 9 2 14 16 14 14 0 21 6 21 20 0 17 7
20 40 20 33 0 40 3 40 20 0 16 7 20 31 20 24 0 30 -4 25 -15 -3 -8 -1 -15 5
-15 5 0 12 7 15 15 4 8 16 15 28 14 20 0 20 -1 1 -9 -13 -6 -15 -9 -5 -9 30
-1 60 12 60 25 0 16 16 19 25 4 4 -6 12 -7 18 -3 7 4 53 6 102 5 54 -2 96 2
105 8 12 9 10 10 -10 5 -19 -5 -22 -4 -10 4 19 14 93 14 85 1 -4 -6 8 -10 29
-10 20 0 36 -5 36 -11 0 -6 27 -10 73 -9 106 2 119 1 112 -10 -4 -6 10 -10 34
-10 23 0 41 -4 41 -10 0 -5 8 -10 19 -10 10 0 23 -6 29 -13 8 -9 33 -12 82
-10 62 2 70 0 70 -16 0 -12 14 -24 43 -35 53 -20 77 -20 77 -1 0 21 28 19 33
-2 3 -11 6 -7 8 12 5 52 6 60 14 79 5 11 16 27 24 36 9 10 32 37 51 62 19 24
44 49 55 55 101 52 113 57 230 81 121 25 298 -17 374 -89 14 -13 31 -24 39
-26 19 -2 37 -20 37 -36 0 -7 7 -12 15 -12 8 0 15 -3 15 -6 0 -3 7 -14 15 -24
12 -15 7 -14 -30 6 -38 19 -64 24 -158 27 -65 2 -140 -1 -173 -7 -172 -34
-362 -162 -401 -268 -20 -55 -38 -41 -39 30 -1 60 -1 61 -10 22 -5 -21 -7 -46
-4 -54 3 -8 0 -18 -7 -22 -9 -6 -9 -11 2 -23 7 -9 11 -18 9 -21 -7 -6 -65 10
-143 40 -95 36 -277 65 -399 65 -110 -1 -253 -22 -271 -40 -8 -9 -1 -10 28 -4
45 8 44 -10 -1 -20 -52 -13 -163 -69 -156 -79 3 -6 1 -7 -5 -3 -13 8 -72 -23
-72 -37 0 -4 -4 -6 -8 -3 -19 11 -217 -163 -271 -239 l-32 -44 93 33 c51 19
113 36 138 40 35 5 27 0 -40 -23 -111 -36 -170 -67 -197 -101 l-23 -28 47 -7
c50 -7 145 -48 163 -70 9 -11 0 -11 -44 2 -41 11 -74 14 -130 8 -82 -7 -96
-21 -55 -54 21 -17 20 -17 -37 -13 -90 6 -155 -27 -83 -43 29 -7 30 -8 13 -26
-9 -10 -23 -19 -31 -19 -8 0 -27 -7 -43 -15 -21 -11 -27 -20 -23 -35 4 -16 0
-20 -21 -20 -14 0 -34 -8 -44 -18 -26 -26 -44 -6 -27 28 30 58 65 130 65 135
0 24 -71 -59 -73 -85 0 -3 -6 -9 -12 -15 -7 -5 -15 -22 -19 -37 -3 -15 -19
-42 -35 -60 -37 -43 -95 -137 -88 -144 3 -3 13 8 21 25 14 26 78 71 102 71 4
0 -13 -22 -38 -48 -76 -81 -89 -147 -75 -362 8 -135 -4 -120 -23 28 -7 56 -15
101 -16 99 -8 -7 -19 -209 -18 -312 1 -114 27 -244 74 -366 15 -41 16 -49 4
-34 -28 36 -72 130 -99 213 -15 45 -30 84 -34 86 -16 10 18 -92 69 -209 50
-114 53 -126 59 -235 9 -131 20 -160 83 -215 24 -20 32 -31 18 -23 -14 7 -30
13 -37 13 -7 0 -19 9 -27 20 -12 16 -15 17 -16 4 0 -24 68 -97 111 -119 44
-23 151 -27 196 -8 31 13 73 47 73 59 0 5 -12 4 -26 -1 -47 -18 -117 -12 -172
16 -29 14 -52 32 -52 40 0 8 -6 25 -14 37 -13 20 -48 137 -41 137 1 0 27 -11
57 -25 66 -30 138 -42 164 -26 17 9 15 10 -12 11 -19 0 -51 14 -85 38 -51 35
-56 42 -80 117 -15 44 -29 92 -33 107 l-6 28 51 -39 c78 -59 142 -72 238 -50
42 9 46 8 78 -23 84 -81 163 -221 163 -289 0 -24 12 -38 73 -87 41 -32 116
-80 168 -107 87 -45 226 -127 359 -211 92 -59 137 -44 292 96 75 68 80 71 101
57 39 -26 170 -151 198 -190 l27 -37 -28 -68 c-75 -177 -93 -450 -37 -564 42
-86 97 -105 208 -72 148 44 255 135 376 322 109 170 128 197 209 297 166 207
352 355 444 355 64 0 64 -14 -2 -46 -63 -30 -202 -119 -247 -160 -75 -66 -103
-95 -152 -155 -66 -79 -108 -139 -171 -241 -26 -43 -59 -90 -73 -105 -14 -15
-25 -32 -25 -36 0 -18 -68 -106 -142 -183 -89 -93 -177 -143 -298 -170 -84
-19 -121 -9 -151 40 -10 17 -19 25 -19 17 0 -7 17 -29 37 -48 l37 -35 95 4
c84 4 105 9 166 38 119 58 225 176 412 463 184 280 339 440 508 525 113 56
148 51 232 -32 22 -23 55 -51 72 -64 17 -13 29 -27 26 -32 -3 -5 6 -34 20 -66
37 -84 34 -95 -21 -74 -15 6 -34 8 -42 5 -11 -4 7 -27 63 -79 79 -74 85 -93
25 -76 -19 5 -36 7 -39 4 -8 -8 46 -54 55 -46 4 4 4 2 1 -4 -3 -6 12 -30 33
-53 36 -39 86 -129 76 -138 -2 -2 -18 14 -36 37 -31 39 -67 66 -76 57 -3 -2 5
-26 17 -53 44 -101 49 -136 60 -394 6 -140 14 -286 17 -325 6 -59 -3 -244 -12
-253 -2 -1 -10 0 -19 4 -9 3 -18 24 -22 47 -10 59 -22 77 -50 77 -21 0 -25 -5
-25 -29 0 -51 -60 -331 -71 -331 -3 0 -9 -13 -12 -30 -4 -18 -13 -30 -22 -30
-9 0 -18 -12 -22 -30 -3 -16 -12 -30 -19 -30 -10 0 -14 -13 -14 -40 0 -33 -3
-40 -20 -40 -17 0 -20 -7 -20 -45 0 -35 4 -45 17 -45 9 0 14 -2 11 -5 -12 -13
-137 20 -463 121 -186 58 -300 84 -365 83 -71 -1 -70 -2 65 -35 64 -15 542
-147 713 -196 39 -12 72 -25 72 -29 0 -5 -6 -6 -13 -3 -10 3 -11 -11 -6 -68 4
-40 5 -75 3 -77 -13 -14 -727 197 -717 212 3 5 -4 6 -16 2 -17 -5 -21 -2 -21
14 0 16 -6 21 -27 21 -39 0 -61 15 -34 23 27 7 27 27 1 27 -11 0 -20 -6 -20
-12 0 -9 -3 -9 -9 1 -8 12 -12 11 -27 -3 -14 -15 -15 -19 -3 -27 16 -10 -138
0 -158 10 -7 4 4 42 36 121 89 216 146 318 346 620 79 118 152 234 164 256 23
44 43 142 31 149 -22 14 -139 -165 -257 -391 -69 -132 -99 -182 -101 -166 -9
64 93 284 229 492 151 231 193 310 164 310 -13 0 -79 -68 -127 -130 l-28 -35
5 37 c3 20 19 67 35 104 94 205 103 219 170 284 63 62 85 75 185 114 27 10 33
15 19 15 -50 2 -200 -68 -272 -126 -57 -47 -113 -132 -183 -277 -68 -144 -108
-268 -120 -380 -20 -181 -30 -201 -48 -96 -27 168 2 297 126 548 25 51 43 96
39 99 -8 8 -6 11 -53 -72 -62 -107 -90 -166 -120 -252 -25 -69 -28 -92 -28
-203 0 -101 4 -134 18 -166 l19 -41 -33 -94 c-23 -68 -33 -114 -34 -165 -1
-55 -7 -81 -25 -110 -48 -82 -128 -243 -160 -322 -19 -45 -37 -78 -40 -72 -10
16 -66 29 -81 19 -19 -12 -119 -11 -119 1 0 6 -9 10 -20 10 -11 0 -20 5 -20
10 0 6 -17 10 -37 10 -54 0 -116 27 -138 60 -28 42 -89 52 -179 29 -37 -9 -48
-18 -69 -58 -21 -37 -25 -57 -21 -94 8 -90 153 -466 288 -750 42 -88 60 -137
51 -137 -38 0 -304 552 -396 821 -57 168 -68 255 -46 377 16 94 36 149 150
412 25 58 50 123 55 145 16 60 31 222 35 390 5 140 4 147 -9 105 -25 -80 -37
-182 -30 -270 6 -81 -5 -167 -32 -255 -7 -24 -9 -13 -10 55 0 47 -6 101 -11
120 -6 19 -12 69 -13 110 -1 41 -5 -13 -8 -120 -8 -218 -9 -226 -115 -515 -53
-147 -86 -283 -100 -417 -6 -54 -11 -68 -24 -68 -22 1 -91 17 -98 23 -3 3 31
99 75 214 80 207 173 490 171 521 0 10 -15 -30 -33 -88 -35 -111 -73 -213
-180 -482 -36 -91 -66 -176 -66 -188 0 -26 14 -54 51 -101 16 -20 29 -46 29
-58 0 -22 -67 -196 -101 -262 -23 -45 -20 -45 -168 -24 -143 21 -303 64 -442
118 -161 62 -157 61 -139 48 27 -19 212 -89 320 -120 58 -16 168 -42 245 -56
118 -21 255 -58 340 -91 19 -7 19 -7 2 13 -10 11 -44 28 -75 38 -31 9 -63 19
-70 21 -8 2 -12 8 -10 12 2 5 34 87 72 183 38 96 73 186 78 200 l9 26 58 -19
58 -19 53 -127 c30 -70 93 -215 142 -322 48 -107 88 -200 88 -208 0 -7 -17
-39 -38 -70 -21 -31 -50 -78 -64 -103 -25 -43 -31 -47 -120 -77 -122 -41 -404
-125 -493 -146 -84 -20 -79 -22 -265 77 -151 81 -378 230 -580 382 -203 152
-296 213 -337 221 -31 6 -34 8 -18 14 11 4 23 3 26 -3 9 -13 159 -23 159 -10
0 5 -19 14 -42 20 -52 14 -182 96 -171 108 4 4 3 5 -3 2 -28 -16 -181 146
-154 163 10 6 -98 61 -247 125 -71 31 -100 58 -105 98 -3 16 -16 44 -31 62
-40 51 -32 105 15 105 10 0 76 -29 147 -64 70 -36 155 -72 189 -80 70 -19 99
-20 59 -2 l-28 12 25 12 c14 6 29 20 35 31 9 16 5 24 -24 50 -20 17 -42 31
-50 31 -11 0 -8 12 10 54 l24 55 -36 -25 c-36 -24 -50 -28 -88 -24 -31 3 -65
40 -65 72 0 15 -4 28 -10 28 -5 0 -10 -11 -10 -25 0 -14 -3 -24 -7 -23 -13 4
-63 -34 -57 -43 3 -5 -2 -6 -11 -3 -12 5 -16 2 -13 -12 5 -31 -26 -26 -69 11
-50 43 -67 46 -28 5 16 -16 23 -30 17 -30 -25 0 -179 84 -237 128 l-60 47 -97
3 c-86 3 -99 2 -118 -16 -22 -20 -21 -62 1 -62 5 0 9 -9 9 -21 0 -12 4 -17 11
-14 15 10 59 -35 59 -60 0 -11 6 -27 12 -33 14 -14 17 -44 5 -53 -4 -3 27 -13
70 -22 43 -10 85 -22 93 -28 12 -8 11 -9 -5 -5 -57 16 -150 23 -157 12 -12
-17 -10 -20 25 -36 31 -15 44 -41 51 -105 1 -11 18 -45 38 -76 37 -57 46 -79
51 -134 2 -16 17 -57 34 -90 17 -33 34 -71 38 -85 21 -67 81 -176 133 -242 46
-57 112 -172 112 -193 0 -9 -131 49 -175 77 -40 26 -60 32 -98 30 -43 -1 -63
-11 -158 -74 -60 -39 -109 -76 -109 -82 0 -6 -19 8 -42 30 -24 23 -61 54 -83
70 -33 24 -27 14 33 -51 49 -53 70 -84 66 -95 -4 -8 -9 -36 -11 -62 l-6 -48
-41 33 c-35 28 -32 22 24 -40 65 -74 69 -76 106 -74 15 2 23 -5 28 -22 3 -13
16 -35 29 -48 14 -14 27 -42 31 -68 4 -24 15 -56 25 -70 13 -18 17 -37 13 -65
-4 -36 -1 -41 61 -101 67 -64 106 -81 141 -63 32 17 104 3 149 -29 58 -41 72
-48 63 -35 -4 6 25 -3 64 -20 85 -38 131 -92 190 -225 36 -80 52 -152 32 -139
-5 3 -6 -9 -4 -27 3 -24 -6 -11 -36 48 -23 44 -48 89 -57 100 -9 11 -13 14
-10 7 12 -24 65 -226 64 -247 0 -19 -1 -19 -9 1 -20 51 -28 30 -29 -78 -2
-107 -11 -145 -33 -132 -6 4 -8 -3 -4 -17 5 -21 5 -21 -3 -4 -5 11 -19 57 -31
102 -13 46 -29 91 -36 100 -12 16 -13 16 -14 -9 0 -15 5 -50 11 -78 12 -56 9
-65 -18 -56 -11 4 -25 28 -37 65 -31 97 -37 93 -30 -16 6 -91 5 -103 -9 -103
-10 0 -21 15 -29 43 l-12 42 -7 -81 c-4 -50 -12 -91 -23 -105 -9 -13 -16 -17
-16 -10 0 7 -6 11 -13 8 -9 -3 -11 6 -9 33 8 82 -4 75 -58 -35 -53 -107 -54
-109 -58 -72 -3 37 -22 53 -22 18 0 -23 -25 -46 -35 -32 -3 6 -2 19 3 28 14
27 32 143 31 199 -1 27 -3 40 -6 29 -19 -84 -93 -266 -105 -259 -5 3 -7 18 -3
32 l6 26 -21 -25 c-18 -20 -21 -21 -15 -4 24 68 25 87 14 210 -6 72 -12 131
-14 133 -1 2 -6 -23 -10 -55 -6 -44 -9 -53 -16 -38 -7 18 -8 18 -8 2 -1 -10
-5 -16 -10 -13 -4 3 -7 40 -5 83 l3 78 -9 -75 c-7 -68 -19 -128 -52 -259 -8
-31 -13 -39 -18 -27 -4 13 -16 -2 -45 -58 -21 -42 -52 -88 -68 -104 l-29 -27
8 30 c4 17 11 38 15 47 12 23 11 28 -6 28 -12 0 -13 4 -6 18 28 54 68 312 44
287 -5 -5 -22 -48 -37 -95 -35 -111 -48 -140 -63 -140 -7 0 -19 -14 -28 -30
-24 -47 -36 -37 -30 23 4 28 8 63 11 77 5 24 4 24 -16 -5 -22 -33 -25 -27 -10
26 8 27 6 53 -5 100 -8 35 -15 79 -15 98 0 71 -12 18 -21 -91 -14 -184 -17
-200 -38 -188 -19 10 -27 40 -37 145 -10 103 -25 88 -18 -18 5 -70 4 -97 -5
-97 -6 0 -11 5 -11 10 0 6 -6 10 -14 10 -16 0 -16 -2 -51 133 -27 108 -31 117
-47 117 -15 0 -3 -198 16 -267 13 -49 10 -64 -8 -46 -3 4 -17 8 -29 10 -12 2
-27 9 -34 16 -20 20 -93 167 -93 187 0 32 -21 120 -29 120 -4 0 -5 -22 -1 -50
7 -56 -9 -69 -27 -22 -10 25 -11 26 -12 4 -1 -13 -5 -21 -9 -18 -20 12 -88
160 -124 266 -34 105 -37 110 -32 60 3 -30 12 -90 20 -133 9 -42 14 -85 12
-95 -6 -26 -97 149 -134 256 -18 52 -35 96 -38 100 -19 18 6 -117 40 -223 9
-27 20 -68 24 -90 4 -22 11 -48 15 -57 4 -11 3 -18 -3 -18 -12 0 -81 132 -113
214 -25 65 -49 154 -64 236 l-12 65 -7 -46 c-7 -41 -2 -106 19 -254 l6 -40
-22 39 c-37 68 -58 143 -70 254 -6 59 -12 108 -14 110 -2 2 -6 -41 -10 -94 -7
-86 -4 -166 9 -296 3 -21 1 -40 -4 -43 -10 -6 -26 60 -40 170 -13 101 -29 173
-40 180 -4 2 -6 -8 -4 -23 4 -26 4 -26 -6 3 -5 16 -7 47 -3 69 4 25 2 37 -4
33 -18 -11 -80 -150 -120 -266 l-38 -115 -3 80 c-1 43 1 121 6 171 4 51 5 89
1 85 -11 -12 -28 -74 -34 -127 -14 -115 -19 -125 -25 -50 -5 67 3 203 15 254
5 20 4 21 -8 10 -7 -8 -22 -44 -32 -81 -11 -36 -23 -64 -29 -61 -13 8 0 180
19 256 9 34 27 86 41 115 13 29 26 61 27 70 2 9 11 31 20 49 27 52 20 51 -40
-7 -103 -98 -133 -124 -138 -119 -2 3 7 22 20 42 14 20 51 85 82 144 83 159
152 274 185 307 16 16 34 49 40 72 16 59 34 63 43 11 3 -23 13 -55 21 -72 8
-16 12 -22 10 -13 -14 50 -18 249 -6 299 42 181 92 297 163 373 58 63 59 76 7
76 l-40 0 17 35 c15 32 15 38 1 69 -17 36 -14 71 9 94 7 7 13 22 13 33 0 16
-7 19 -50 19 -48 0 -50 1 -50 28 0 15 5 33 10 38 6 6 13 35 17 64 5 41 14 62
37 87 17 18 41 44 53 59 26 31 41 86 24 92 -21 7 -11 21 22 29 17 5 58 7 90 5
50 -3 61 -8 90 -39 17 -19 40 -39 50 -44 17 -10 17 -9 2 20 -8 17 -18 51 -22
77 -4 32 -9 41 -15 32 -6 -9 -7 -6 -3 10 4 15 1 24 -9 28 -9 3 -16 11 -16 18
1 22 100 -98 116 -141 9 -24 20 -43 24 -43 4 0 15 -18 25 -40 12 -27 24 -40
38 -40 15 0 17 4 11 18 -5 9 -8 38 -7 65 1 26 -2 47 -7 47 -5 0 -11 13 -15 30
-4 16 -11 32 -16 35 -11 7 -12 45 -1 45 12 0 52 -87 52 -114 0 -72 26 -106 80
-106 11 0 20 -4 20 -10 0 -5 4 -10 10 -10 6 0 5 9 -1 24 -7 15 -8 36 -4 53 8
27 9 26 17 -17 5 -25 11 -60 14 -77 4 -21 12 -33 23 -34 12 0 12 -2 -4 -9 -15
-7 -10 -9 24 -9 l43 -1 -6 33 c-4 17 -12 61 -17 97 -5 36 -12 73 -15 83 -3 11
0 17 10 17 9 0 16 -5 16 -11 0 -5 5 -7 12 -3 8 5 9 2 5 -9 -6 -17 8 -33 17
-19 3 5 10 37 15 71 13 78 43 142 87 185 l33 32 -41 19 c-23 10 -60 19 -82 21
-23 2 -79 8 -125 15 -92 13 -187 7 -252 -16 -23 -8 -56 -15 -73 -15 -28 0
-141 -27 -124 -29 12 -2 -39 -51 -53 -51 -8 0 -4 -7 9 -16 36 -25 25 -33 -25
-18 -25 8 -74 14 -107 14 -72 0 -152 15 -339 65 -99 26 -154 35 -195 33 -54
-3 -58 -5 -74 -38 -32 -66 -15 -212 43 -360 44 -112 39 -110 101 -60 29 24 46
41 37 38 -14 -5 -69 39 -69 56 0 3 -10 16 -22 29 -13 13 -28 32 -35 43 -10 16
-10 13 -3 -15 15 -55 -6 -22 -28 44 -11 33 -24 87 -27 120 -6 51 -4 63 12 77
15 14 26 15 63 7 64 -14 172 -70 178 -91 4 -16 57 -38 92 -38 13 0 13 1 0 11
-11 7 -3 8 28 4 23 -4 42 -4 42 -1 0 19 -202 101 -300 122 l-65 14 56 -5 c117
-10 418 -137 405 -171 -2 -6 0 -16 5 -21 5 -5 -16 -26 -52 -53 -53 -38 -59
-46 -44 -56 14 -11 13 -14 -15 -34 -16 -12 -30 -28 -30 -35 0 -8 -17 -26 -37
-41 -52 -38 -81 -71 -108 -124 -29 -55 -65 -108 -65 -96 0 23 84 157 126 199
25 26 41 47 34 47 -23 0 -147 -71 -175 -100 -32 -34 -43 -92 -16 -88 12 2 16
-4 14 -29 -3 -56 23 -47 66 22 40 63 61 86 61 66 0 -5 -5 -13 -10 -16 -6 -3
-10 -14 -10 -23 0 -13 2 -13 16 4 9 10 4 -3 -11 -29 -44 -80 -88 -192 -68
-176 10 9 3 -11 -16 -48 -18 -34 -39 -64 -47 -67 -14 -5 -53 -76 -59 -107 -2
-11 -13 -31 -24 -46 -12 -14 -21 -30 -21 -35 0 -17 47 42 110 137 34 52 66 95
71 95 12 0 -8 -49 -37 -90 -17 -24 -11 -19 20 15 49 52 52 53 35 8 l-10 -28
29 28 c34 32 94 45 84 17 -3 -8 -29 -44 -59 -80 -29 -35 -53 -74 -53 -87 0
-12 -8 -27 -17 -32 -22 -11 -41 -48 -89 -171 -40 -104 -96 -200 -116 -200 -18
0 -40 -38 -32 -52 4 -7 3 -8 -4 -4 -7 4 -20 -10 -33 -36 -12 -24 -30 -55 -41
-70 -39 -56 3 -26 82 60 82 87 88 87 54 3 -15 -35 -11 -71 8 -71 5 0 26 16 45
35 19 19 37 35 39 35 6 0 -4 -44 -27 -115 -21 -70 -39 -145 -33 -145 2 0 13
15 24 33 14 22 20 26 20 14 0 -31 -41 -141 -70 -187 -36 -58 -46 -90 -30 -100
13 -8 -32 -107 -83 -177 -17 -24 -28 -45 -25 -48 3 -3 31 17 62 46 31 28 56
46 56 41 0 -6 -20 -37 -45 -69 -25 -32 -53 -69 -62 -83 -9 -14 -30 -40 -47
-59 -33 -36 -27 -34 40 11 57 38 68 37 61 -9 -4 -21 -9 -76 -13 -122 -7 -88 1
-101 27 -39 7 18 21 40 30 49 9 9 19 23 21 30 11 29 19 -3 39 -152 21 -161 31
-372 17 -363 -10 6 -44 119 -62 207 -8 38 -17 71 -19 73 -10 10 -32 -190 -32
-288 0 -60 -1 -108 -3 -108 -2 0 -10 17 -19 37 -11 27 -18 86 -22 203 l-6 165
-14 -87 c-8 -49 -17 -88 -20 -88 -18 0 -55 162 -59 253 l-4 97 -22 -22 c-11
-13 -41 -40 -66 -61 -25 -22 -39 -35 -31 -31 11 5 13 3 8 -9 -8 -22 7 -65 17
-49 4 7 16 12 27 12 35 0 22 -49 -43 -159 -84 -145 -120 -192 -227 -293 -51
-49 -89 -88 -86 -88 3 0 25 10 48 21 54 28 97 40 97 28 0 -22 -58 -99 -143
-188 -51 -53 -76 -82 -57 -65 19 18 55 44 80 58 41 25 38 21 -30 -43 -41 -39
-80 -71 -86 -71 -40 -1 -180 -203 -207 -300 -51 -177 -67 -245 -67 -277 0 -32
2 -34 17 -22 15 12 16 12 9 -6 -8 -19 -22 -219 -30 -410 l-4 -90 13 74 c26
144 50 98 50 -94 -1 -126 -20 -181 -81 -235 -36 -31 -60 -39 -51 -17 47 127
50 138 35 150 -9 7 -30 52 -47 101 -42 119 -50 132 -51 81 -1 -63 -16 -77 -28
-24 -5 24 -10 35 -11 24 -1 -13 -8 -5 -22 25 -15 36 -28 49 -61 64 -23 10 -54
16 -69 14 -16 -3 -26 -1 -23 4 3 4 -4 8 -16 8 -12 0 -18 4 -15 10 7 12 -68 3
-100 -12 -15 -7 -14 -4 5 13 l25 22 -24 -8 c-13 -4 -46 -9 -73 -11 -59 -4
-100 -16 -186 -55 -35 -16 -68 -29 -73 -29 -12 0 -12 -880 1 -900 7 -11 10 -6
10 22 0 27 4 36 13 32 9 -3 21 19 38 70 25 79 39 96 39 49 0 -19 3 -24 9 -15
5 9 11 -8 15 -47 4 -34 11 -61 15 -61 5 0 14 39 20 87 7 49 19 102 27 118 l14
30 -4 -40 c-3 -22 -8 -64 -12 -92 -10 -79 10 -65 28 20 18 80 57 191 65 183 3
-2 -4 -33 -16 -68 -11 -35 -28 -104 -36 -155 -15 -84 -15 -95 0 -120 l16 -28
-6 28 c-3 15 -2 39 1 53 l7 27 13 -24 c15 -28 13 -31 51 90 14 47 22 62 19 39
-5 -43 0 -49 15 -15 7 16 8 -7 5 -78 -4 -87 -3 -93 5 -45 14 81 39 160 50 160
5 0 9 -28 10 -62 1 -90 17 -122 19 -38 2 58 3 61 10 30 5 -20 19 -58 31 -85
l22 -50 9 40 c5 22 13 67 17 100 7 58 7 57 15 -57 4 -64 5 -122 1 -127 -14
-24 26 -9 41 14 13 20 15 40 11 88 l-6 62 15 -47 c16 -52 28 -64 19 -21 -3 16
-2 22 1 15 11 -24 23 -1 30 59 10 91 24 81 25 -18 1 -85 1 -87 15 -55 8 18 19
30 24 27 6 -3 10 0 11 7 0 7 4 5 8 -6 4 -10 0 -40 -10 -69 -17 -50 -16 -94 2
-65 5 7 9 22 10 33 l0 20 10 -20 c9 -19 9 -19 5 1 -2 12 4 64 13 115 l17 94 7
-50 c11 -81 30 -155 39 -155 4 0 8 24 8 53 0 37 3 48 10 37 5 -8 10 -32 10
-52 0 -56 17 -54 30 5 11 46 55 147 64 147 2 0 1 -42 -1 -92 -3 -67 -2 -89 6
-78 6 8 11 26 11 40 0 19 2 22 10 10 7 -12 11 -10 20 10 9 22 10 20 5 -15 -3
-22 -7 -51 -11 -65 -4 -20 -1 -18 15 10 12 21 21 55 21 85 1 28 4 43 7 35 14
-44 16 -44 28 -10 8 19 15 46 16 60 1 14 6 -2 10 -35 17 -122 21 -145 30 -151
5 -3 9 10 10 28 1 18 5 44 9 58 l8 25 1 -25 c2 -49 18 -55 26 -9 6 34 9 40 15
24 4 -11 3 -33 -3 -48 -5 -15 -7 -31 -4 -34 3 -3 9 6 13 21 3 14 10 26 14 26
5 0 11 10 13 23 2 12 5 -3 6 -33 1 -40 4 -51 11 -40 5 8 10 28 10 43 0 48 20
19 21 -31 l1 -47 13 50 13 50 1 -55 c2 -48 3 -52 14 -34 7 12 17 19 23 17 7
-2 15 13 20 34 l8 38 6 -35 7 -35 8 33 c4 18 11 30 16 25 4 -4 4 -26 -1 -48
-5 -22 -9 -67 -9 -100 l1 -60 9 44 c8 41 18 60 52 104 20 24 27 21 27 -12 0
-16 7 -36 15 -45 8 -8 15 -23 15 -33 0 -10 5 -25 11 -33 8 -11 9 -8 5 15 -17
101 -17 115 -3 136 15 21 16 20 31 -27 8 -27 21 -66 29 -87 l14 -38 12 43 c8
24 15 49 17 55 2 9 14 11 35 6 29 -6 31 -4 25 18 -7 22 -6 23 7 6 8 -10 17
-14 19 -10 3 4 3 2 2 -5 -5 -17 17 -63 40 -86 19 -20 19 -20 13 12 -6 30 -5
32 13 22 11 -6 20 -8 20 -4 0 3 9 -4 20 -17 l21 -24 -16 32 c-8 18 -21 32 -27
30 -10 -2 -31 63 -23 71 1 2 18 -18 36 -44 29 -40 34 -44 37 -25 3 22 4 21 23
-3 11 -14 27 -46 35 -71 9 -25 18 -45 21 -45 2 0 2 33 -1 73 -5 61 -4 67 6 40
14 -41 28 -42 28 -3 0 17 5 30 11 30 7 0 9 -9 6 -23 -9 -36 -18 -153 -10 -137
3 8 12 35 19 60 10 36 12 39 13 18 1 -34 16 -37 26 -6 5 13 11 32 15 43 5 15
10 5 19 -39 l13 -58 25 41 c28 48 36 52 27 14 -8 -33 -5 -31 31 22 15 22 24
30 21 18 -11 -34 -26 -136 -21 -141 2 -2 7 11 10 30 6 31 9 34 45 35 35 2 39
-1 42 -25 3 -25 6 -22 30 27 l28 55 0 -41 c0 -58 15 -93 40 -93 11 0 20 -4 20
-10 0 -5 4 -10 9 -10 4 0 11 20 14 45 2 26 8 49 11 53 11 11 26 -20 27 -58 1
-21 3 -27 6 -15 17 74 26 96 42 105 14 7 20 6 25 -5 3 -8 0 -14 -6 -12 -17 3
-37 -87 -28 -125 7 -27 16 -23 11 5 -1 5 10 17 23 28 14 11 28 29 31 40 4 12
13 18 20 15 9 -3 15 4 18 17 2 12 4 -12 4 -53 0 -42 4 -84 10 -95 10 -18 11
-17 10 10 0 17 0 48 2 70 l3 40 13 -40 13 -40 11 28 c6 16 11 36 11 45 0 9 4
23 9 30 5 9 19 -13 42 -68 18 -45 35 -76 38 -69 2 7 9 3 18 -12 l14 -24 -5 27
c-3 14 -9 34 -12 45 -3 10 3 5 14 -12 12 -16 30 -41 42 -55 l22 -25 -7 30 c-3
17 -9 39 -12 50 -5 17 -4 18 11 6 14 -12 16 -11 16 8 0 33 15 25 35 -20 16
-34 20 -38 26 -23 4 11 8 13 8 7 1 -7 6 -13 12 -13 6 0 3 14 -8 33 -30 50 -37
77 -12 44 17 -22 24 -25 30 -15 6 9 9 7 9 -9 0 -13 16 -40 35 -61 19 -22 46
-63 60 -93 13 -30 25 -48 25 -41 0 7 4 11 8 8 5 -3 7 17 4 44 -5 57 11 69 23
18 6 -25 9 -29 12 -14 7 29 30 49 36 33 3 -6 6 -2 6 10 1 12 6 25 11 28 7 4
10 -6 8 -29 -2 -42 6 -54 27 -36 11 10 13 25 9 66 -4 30 -4 54 -1 54 3 0 16
-32 28 -72 21 -71 21 -72 36 -48 l14 25 -6 -25 c-10 -37 -11 -75 -2 -77 19 -7
25 0 31 42 7 43 26 64 26 28 0 -10 5 -25 10 -33 7 -11 8 -3 4 26 -4 24 -2 44
4 48 6 3 8 25 6 49 -3 33 -2 37 5 17 5 -14 9 -42 10 -62 1 -53 17 -89 36 -82
11 5 15 -1 15 -22 0 -21 3 -25 12 -16 6 6 11 25 10 42 l-1 32 20 -23 c10 -12
19 -31 19 -43 0 -37 12 -66 26 -66 14 0 20 34 16 93 -1 15 2 27 7 27 10 0 15
-14 26 -70 10 -50 18 -59 26 -30 7 24 7 24 8 3 1 -22 5 -23 85 -23 l83 0 -5
50 c-2 28 -2 50 1 50 4 0 16 -22 28 -50 21 -48 39 -65 39 -36 0 17 38 66 51
66 6 0 1 -13 -10 -29 -12 -16 -21 -34 -21 -40 0 -8 887 -11 3200 -11 l3200 0
-1 383 c-1 210 -4 371 -8 357 -8 -24 -8 -24 -24 14 -10 21 -17 42 -17 47 0 5
-4 9 -10 9 -5 0 -10 -13 -10 -29 0 -16 -3 -44 -7 -62 -6 -31 -8 -27 -19 41 -7
41 -13 100 -14 130 l-2 55 -9 -40 c-4 -22 -8 -58 -9 -80 0 -22 -7 -60 -14 -85
-11 -37 -15 -41 -21 -25 -4 11 -11 29 -16 40 -7 16 -9 14 -6 -13 3 -24 0 -31
-9 -28 -8 3 -18 -2 -23 -11 -7 -13 -10 -11 -15 14 -6 25 1 48 34 113 46 91 39
101 -9 15 -17 -30 -34 -54 -39 -54 -23 4 -32 -4 -32 -26 0 -14 -4 -25 -9 -25
-9 0 -21 80 -21 140 0 53 -16 23 -29 -57 -12 -67 -14 -71 -32 -60 -23 14 -23
10 0 122 10 50 17 91 16 93 -2 2 -18 -36 -37 -85 -21 -54 -41 -89 -50 -91 -9
-2 -35 2 -57 8 -36 9 -41 14 -41 40 0 35 -10 38 -34 11 -16 -18 -21 -18 -56
-6 -21 7 -51 20 -66 28 -16 8 -45 17 -64 21 l-35 6 33 -13 c42 -16 67 -55 58
-91 -6 -23 -9 -25 -26 -16 -11 6 -22 21 -26 34 -5 22 -8 23 -40 14 -20 -5 -49
-6 -65 -3 -25 6 -29 11 -29 41 0 34 1 35 34 29 18 -4 36 -3 39 2 3 4 -7 8 -21
8 -15 0 -42 4 -60 8 -30 6 -33 5 -27 -12 7 -24 -4 -31 -31 -21 -17 7 -20 14
-17 35 4 20 10 24 27 20 21 -6 21 -6 1 9 -30 22 -33 27 -65 78 -16 26 -46 59
-68 73 -74 49 -244 68 -394 43 -65 -10 -68 -12 -46 -24 12 -7 35 -13 51 -14
45 0 32 -27 -23 -45 -53 -18 -70 -37 -70 -80 0 -38 24 -26 28 14 3 28 10 35
49 52 73 31 80 27 67 -40 -4 -17 -13 -31 -20 -31 -9 0 -14 -11 -14 -31 0 -17
-4 -28 -10 -24 -5 3 -7 27 -5 53 4 35 3 41 -4 22 -5 -14 -9 -40 -10 -58 -1
-34 -1 -34 -40 -27 -23 4 -42 2 -45 -4 -6 -10 7 -15 59 -24 27 -4 24 -52 -5
-83 -21 -21 -24 -21 -57 -8 -19 8 -55 16 -79 17 l-44 2 0 57 c0 36 -5 60 -13
65 -7 4 -25 29 -40 54 -14 25 -43 61 -64 80 -21 18 -30 30 -21 26 11 -4 21 0
26 8 16 29 63 23 247 -32 38 -11 8 7 -49 30 l-58 24 74 29 c40 17 72 35 70 42
-1 7 5 12 14 12 17 0 46 25 38 32 -6 7 130 18 240 19 l91 2 -80 9 c-95 11
-129 17 -123 24 8 7 207 -15 273 -30 33 -8 101 -20 150 -26 115 -16 295 -60
409 -100 108 -38 345 -150 439 -208 55 -33 67 -38 67 -23 0 30 -240 161 -439
241 -160 63 -312 100 -660 159 -95 17 -176 32 -178 35 -3 2 10 12 29 22 18 9
49 30 69 45 44 35 56 35 216 8 254 -42 495 -115 667 -201 83 -42 249 -140 278
-166 17 -14 18 -13 18 10 0 20 -13 34 -57 63 -141 94 -357 191 -556 251 -70
21 -352 81 -464 99 -24 4 -43 9 -43 12 0 2 13 23 29 46 68 100 121 244 140
381 18 127 14 348 -9 477 -24 139 -24 132 0 124 26 -8 69 24 70 52 0 28 -16
38 -62 38 -28 0 -38 -5 -43 -20 -6 -18 -7 -18 -14 5 -5 14 -11 86 -15 160 -5
109 -4 140 8 162 8 16 11 30 5 33 -5 4 -9 42 -9 86 0 61 3 79 14 79 15 0 26
-21 26 -51 0 -15 5 -18 23 -14 29 6 198 33 217 34 40 2 160 23 204 34 58 15
73 37 27 37 -33 0 -52 23 -34 41 5 5 7 25 5 45 l-4 36 -57 -5 c-61 -6 -89 6
-70 29 6 8 17 14 25 14 7 0 15 4 18 9 11 17 -6 41 -29 41 -12 0 -28 7 -35 15
-14 17 -57 20 -80 6 -10 -7 -19 -2 -32 20 -19 32 -48 37 -72 14 -8 -8 -23 -15
-34 -15 -11 0 -46 -21 -77 -48 l-58 -47 -91 -2 c-50 -1 -101 -2 -113 -3 -12 0
-31 -12 -41 -25 -11 -14 -24 -25 -28 -25 -15 1 -101 190 -129 281 -14 48 -38
104 -53 125 -47 65 -47 68 18 132 81 80 81 101 1 255 -32 61 -70 145 -84 185
-64 175 -122 630 -146 1137 l-8 170 52 50 c29 28 64 68 78 91 14 22 49 60 79
84 107 87 166 172 194 281 22 84 15 248 -14 338 l-21 64 45 -44 c57 -55 133
-174 167 -259 14 -36 31 -103 38 -150 10 -73 10 -93 -4 -140 -31 -105 -122
-179 -223 -181 -36 0 -44 -3 -29 -9 66 -29 189 9 238 73 108 142 112 326 10
475 -71 104 -113 151 -183 207 -36 29 -73 66 -82 82 l-18 31 63 -27 c53 -22
77 -26 162 -26 89 0 105 3 150 27 94 50 159 144 179 263 l8 40 -32 -47 c-61
-92 -216 -168 -341 -168 -37 0 -80 8 -116 23 l-58 22 40 3 c240 15 407 78 455
172 26 51 26 131 0 188 -21 46 -36 58 -20 16 14 -36 12 -109 -4 -147 -18 -45
-74 -91 -143 -118 -50 -21 -75 -24 -178 -23 -104 0 -131 4 -198 27 -128 45
-193 83 -264 155 -59 60 -163 195 -163 212 0 3 27 11 59 18 84 17 190 74 249
132 50 49 105 145 118 205 l6 30 -20 -30 c-35 -55 -109 -112 -183 -139 -103
-38 -246 -52 -335 -32 -141 31 -211 52 -256 79 -72 42 -66 50 8 11 92 -48 120
-45 56 6 -59 46 -63 52 -53 69 7 11 24 8 82 -14 41 -15 89 -30 107 -33 29 -4
33 -8 29 -29 -5 -27 1 -24 17 9 6 13 21 24 33 26 12 2 26 9 32 16 8 9 2 11
-24 8 l-35 -4 0 63 c0 111 -11 134 -162 333 -44 58 -63 93 -78 148 l-20 72 62
-59 c34 -33 51 -46 39 -30 -92 126 -137 203 -167 289 -13 34 -12 41 5 65 17
24 33 72 59 176 6 22 18 60 27 85 29 74 31 220 6 319 -35 140 -101 261 -186
342 -35 33 -43 49 -48 88 -9 73 -65 196 -137 300 -36 52 -64 98 -62 102 1 5
-4 8 -10 7 -7 -2 -12 3 -10 10 1 8 -2 11 -6 8 -5 -3 -18 4 -28 16 -12 14 -14
18 -4 13 10 -5 8 -1 -4 13 -10 12 -22 20 -25 17 -4 -2 -7 5 -7 16 0 16 3 17
11 7 7 -9 34 -12 98 -10 82 3 87 2 87 -18 0 -18 6 -20 60 -20 53 0 60 -2 60
-20 0 -19 7 -20 160 -20 153 0 160 1 160 20 0 18 7 20 80 20 73 0 80 2 80 20
0 19 7 20 140 20 133 0 140 1 140 20 0 13 7 20 20 20 13 0 20 7 20 20 0 20 7
20 280 20 l280 0 0 40 0 40 200 0 c127 0 200 -4 200 -10 0 -5 5 -10 11 -10 5
0 8 4 5 9 -3 5 0 9 7 8 39 -1 57 5 57 19 0 9 5 12 13 8 7 -5 7 -1 -2 10 -13
16 -12 17 15 10 25 -6 27 -5 17 8 -17 20 -7 28 39 28 l38 0 0 60 0 60 40 0
c33 0 40 3 40 20 0 20 -7 20 -4940 20 l-4940 0 0 -220z m3417 -52 c25 -24 30
-62 11 -103 -10 -22 -17 -25 -60 -25 -43 0 -50 3 -58 26 -6 14 -10 40 -10 58
0 26 5 35 23 41 12 5 31 11 42 15 11 5 22 8 24 9 3 1 15 -9 28 -21z m4054 -85
c13 -16 12 -17 -3 -4 -10 7 -18 15 -18 17 0 8 8 3 21 -13z m-1191 -33 c0 -5
-2 -10 -4 -10 -3 0 -8 5 -11 10 -3 6 -1 10 4 10 6 0 11 -4 11 -10z m1269 -154
c-3 -3 -11 5 -18 17 -13 21 -12 21 5 5 10 -10 16 -20 13 -22z m83 -76 c42 -57
112 -193 124 -244 l7 -29 -33 29 c-18 16 -52 68 -76 116 -24 47 -57 108 -73
134 -30 47 -32 71 -5 56 8 -4 33 -33 56 -62z m-2652 56 c0 -3 -4 -8 -10 -11
-5 -3 -10 -1 -10 4 0 6 5 11 10 11 6 0 10 -2 10 -4z m855 -75 c-12 -11 -83
-26 -73 -16 6 6 26 12 78 24 2 1 0 -3 -5 -8z m1948 -413 c10 -111 21 -127 27
-38 l5 75 56 -75 c95 -126 135 -228 146 -376 6 -83 -11 -214 -28 -214 -5 0 -9
7 -9 15 0 19 -49 129 -55 124 -2 -3 7 -40 20 -82 36 -113 30 -211 -14 -251
-19 -17 -20 -17 -27 21 -4 21 -13 50 -20 64 -14 28 -41 194 -75 464 -18 148
-31 210 -78 375 l-10 35 28 -31 c23 -26 29 -42 34 -106z m-2148 -72 c44 -21
94 -57 135 -96 41 -39 49 -49 20 -26 -77 63 -152 109 -215 133 -41 15 -52 22
-35 22 14 1 57 -14 95 -33z m1103 -485 c128 -66 188 -225 147 -393 -31 -131
-93 -211 -171 -220 l-29 -3 -2 -100 c-1 -99 5 -96 22 8 l6 37 59 -2 c33 -2 60
-7 60 -12 0 -4 16 -6 35 -4 25 3 35 0 35 -10 0 -9 7 -11 21 -7 18 6 46 -19
171 -149 219 -228 333 -322 550 -452 l119 -71 -53 -30 c-148 -84 -328 -286
-530 -593 -162 -246 -244 -318 -405 -356 -63 -14 -70 -14 -99 1 -40 21 -69 74
-90 161 -24 102 -14 183 45 360 l49 149 16 -37 c9 -21 16 -42 16 -47 0 -5 5
-13 12 -17 8 -5 9 2 5 26 -9 44 -80 140 -167 225 -81 80 -120 128 -96 119 12
-5 15 2 14 31 -1 22 4 40 13 46 8 5 10 9 6 9 -5 0 12 30 38 66 26 36 45 68 42
70 -2 3 -40 -35 -83 -83 -127 -142 -244 -260 -285 -289 -21 -14 -56 -28 -79
-31 -37 -5 -48 -1 -123 49 -45 31 -145 90 -222 131 -258 139 -290 164 -197
153 46 -6 47 -6 17 8 l-30 14 37 7 c21 4 44 5 50 2 7 -2 17 -6 22 -8 5 -2 10
6 11 19 2 20 -1 22 -34 16 -20 -4 -53 -13 -75 -20 -53 -19 -79 -17 -110 7 -20
16 -25 26 -20 46 4 14 3 28 -2 32 -10 7 -44 77 -44 90 0 14 44 21 52 8 4 -7 8
11 8 38 -1 36 -10 69 -33 118 -18 37 -36 64 -41 60 -4 -4 -4 0 -1 8 17 45
-216 193 -271 172 -14 -5 -20 -44 -8 -56 9 -9 35 4 28 14 -9 15 46 10 82 -7
19 -9 53 -34 76 -55 39 -36 41 -38 14 -29 -15 6 -55 26 -88 46 -33 19 -62 33
-64 31 -2 -2 23 -19 56 -38 61 -35 73 -49 42 -49 -10 0 -23 -5 -30 -12 -9 -9
-17 -7 -34 9 -13 11 -33 25 -44 32 -52 26 -129 190 -165 351 -18 84 -25 219
-13 279 6 31 60 78 132 115 l31 16 126 -129 c81 -83 158 -151 214 -189 l87
-59 -55 -36 c-98 -63 -163 -146 -121 -154 8 -2 57 28 108 66 51 38 104 72 117
75 14 4 56 -4 102 -20 93 -31 210 -42 281 -24 28 6 82 32 120 56 l69 44 129
-10 c100 -9 135 -16 156 -31 l27 -19 -1 27 c-2 55 14 259 23 296 11 41 61 104
93 117 36 15 85 11 124 -9z m517 -371 c7 -36 16 -94 19 -130 3 -36 10 -89 16
-119 19 -102 8 -202 -36 -307 l-16 -39 -95 100 c-126 133 -179 203 -167 220 5
7 35 43 67 81 84 99 155 254 158 344 1 32 2 31 21 -25 10 -33 25 -89 33 -125z
m-2256 -153 c54 -142 90 -205 151 -258 32 -29 57 -56 54 -61 -16 -26 -146 12
-186 55 -57 61 -71 108 -76 254 -2 73 -1 145 3 160 7 25 9 21 21 -35 7 -35 22
-86 33 -115z m2377 -387 c-9 -136 -24 -136 -20 0 l3 125 -15 -80 c-8 -44 -17
-100 -20 -123 l-6 -44 -28 27 -28 27 35 96 c19 54 42 119 51 147 l17 49 8 -74
c5 -41 6 -109 3 -150z m-2070 2 c-7 -6 -45 39 -45 53 0 6 11 -3 25 -19 14 -15
23 -31 20 -34z m2933 -77 c22 -46 39 -185 23 -185 -6 0 -14 5 -17 10 -3 6 -17
10 -30 10 -32 0 -107 33 -125 56 -14 17 -14 17 10 1 36 -25 48 -21 15 5 l-28
21 44 13 c24 7 54 11 66 8 28 -7 29 0 4 34 -10 15 -21 41 -24 57 -4 17 -9 41
-12 55 -6 23 -4 22 25 -10 17 -19 39 -53 49 -75z m-3274 -283 c-3 -3 -11 0
-18 7 -9 10 -8 11 6 5 10 -3 15 -9 12 -12z m2850 -92 c3 -6 -5 -10 -19 -10
-14 0 -28 5 -31 10 -3 6 5 10 19 10 14 0 28 -4 31 -10z m740 -1165 c33 -134
31 -236 -6 -330 l-23 -60 -7 75 c-4 41 -9 167 -12 280 -5 232 0 235 48 35z
m-2292 -245 c-3 -12 -8 -19 -11 -16 -5 6 5 36 12 36 2 0 2 -9 -1 -20z m-3553
-180 c6 -11 9 -20 7 -20 -2 0 -12 9 -22 20 -10 11 -13 20 -7 20 6 0 16 -9 22
-20z m267 -67 c-3 -10 -5 -2 -5 17 0 19 2 27 5 18 2 -10 2 -26 0 -35z m963
-245 c0 -11 -10 -9 -49 10 -19 9 -36 23 -39 30 -2 8 12 5 42 -10 25 -12 46
-26 46 -30z m-153 -154 l28 -26 -35 23 c-46 29 -45 29 -32 29 6 0 24 -12 39
-26z m2196 -154 c-3 -11 -7 -20 -9 -20 -2 0 -4 9 -4 20 0 11 4 20 9 20 5 0 7
-9 4 -20z m1184 4 c-3 -3 -12 -4 -19 -1 -8 3 -5 6 6 6 11 1 17 -2 13 -5z m-84
-74 c29 -32 143 -93 158 -84 5 3 9 2 9 -3 0 -4 21 -16 48 -27 26 -10 65 -26
87 -36 24 -11 44 -15 50 -9 5 5 14 9 20 9 5 0 4 -4 -3 -8 -9 -6 11 -21 62 -45
40 -20 78 -37 83 -37 5 0 29 -21 53 -46 45 -46 109 -97 97 -77 -4 6 0 13 8 17
15 5 11 -4 -67 -179 -18 -38 -105 -216 -194 -395 -159 -317 -248 -471 -282
-489 -85 -45 -713 -136 -1182 -171 -201 -15 -1343 -31 -1404 -19 -66 12 -198
65 -406 164 -251 118 -287 132 -367 142 -69 9 -72 8 -84 -14 -16 -29 -23 -29
-48 3 -25 32 -27 64 -6 105 20 37 39 45 157 59 165 19 168 30 8 25 -142 -4
-146 -5 -168 -31 -30 -34 -43 -22 -50 45 -4 45 -2 53 24 79 27 27 36 29 169
41 193 17 203 35 15 26 -80 -4 -153 -12 -164 -17 -13 -7 -16 -7 -12 1 4 6 0
11 -9 11 -8 0 -18 -8 -21 -17 -18 -58 -25 -67 -38 -52 -21 22 -25 89 -7 144
24 75 43 81 199 61 137 -17 262 -21 207 -6 -51 14 -280 50 -319 50 -53 0 -132
-60 -161 -121 -21 -47 -22 -48 -44 -32 -20 14 -22 21 -16 67 13 91 25 107 132
179 54 36 107 69 116 73 10 4 59 -14 124 -45 60 -28 140 -58 178 -67 155 -37
171 -44 230 -90 111 -87 328 -224 454 -287 l126 -62 90 1 c84 1 216 21 515 79
69 13 166 31 215 41 83 15 392 104 610 174 195 64 502 150 532 150 42 0 51 16
13 24 -17 3 -30 12 -30 20 0 7 15 56 34 107 18 52 69 198 111 324 74 217 98
275 114 275 4 0 20 -13 34 -30z m-3045 -75 c14 -22 59 -74 101 -116 66 -66 87
-80 156 -106 44 -17 117 -38 163 -47 106 -19 142 -40 353 -198 334 -250 505
-363 678 -447 75 -36 90 -47 75 -53 -53 -22 -498 -100 -599 -105 l-110 -5
-109 56 c-117 61 -326 193 -326 206 0 5 5 12 10 15 15 9 12 25 -4 25 -7 0 -26
16 -40 35 -24 31 -25 35 -9 36 16 0 17 1 1 7 -21 9 -170 144 -164 149 2 3 22
-5 45 -16 55 -29 87 -27 36 2 -33 18 -48 37 -82 107 -42 83 -55 121 -30 89 7
-9 31 -26 55 -38 l43 -22 -46 56 c-25 31 -55 75 -66 98 -12 23 -54 92 -95 152
-40 61 -82 133 -94 160 l-21 50 27 -25 c14 -14 38 -43 52 -65z m-1658 41 c0
-3 -4 -8 -10 -11 -5 -3 -10 -1 -10 4 0 6 5 11 10 11 6 0 10 -2 10 -4z m-69
-112 c-10 -23 -17 -30 -19 -20 -2 9 -8 16 -13 16 -5 0 -1 9 8 20 29 34 43 25
24 -16z m-31 -41 c0 -10 -4 -34 -9 -53 -5 -19 -12 -47 -15 -62 -9 -39 -25 -35
-20 5 7 59 26 127 35 127 5 0 9 -8 9 -17z m2145 -103 c19 -8 19 -9 -2 -9 -12
-1 -25 4 -28 9 -7 12 2 12 30 0z m3356 -27 c-12 -20 -14 -14 -5 12 4 9 9 14
11 11 3 -2 0 -13 -6 -23z m-3687 -353 c26 -40 27 -52 0 -26 -13 14 -37 66 -30
66 2 0 15 -18 30 -40z m2412 -52 l23 -46 -72 -22 c-40 -12 -81 -24 -91 -27
-26 -7 -18 12 42 104 53 81 51 82 98 -9z m-4402 -32 c-16 -52 -78 -131 -95
-120 -7 4 -9 3 -6 -2 3 -6 2 -16 -4 -24 -7 -12 -9 -12 -9 3 0 10 11 33 24 50
13 18 33 50 45 73 24 43 56 57 45 20z m5901 -144 c-3 -3 -11 0 -18 7 -9 10 -8
11 6 5 10 -3 15 -9 12 -12z m119 -31 c17 -11 34 -20 39 -20 20 -1 67 -33 62
-41 -4 -6 0 -10 8 -10 7 0 24 -12 38 -26 l24 -26 -30 8 c-49 11 -224 110 -225
127 0 14 53 7 84 -12z m-141 -138 c-7 -2 -19 -2 -25 0 -7 3 -2 5 12 5 14 0 19
-2 13 -5z m206 -42 c71 -36 74 -39 52 -50 -12 -7 -30 -9 -39 -6 -9 4 -33 11
-52 16 -76 17 -145 47 -148 63 -3 13 6 16 55 16 47 -1 72 -8 132 -39z m-4349
-250 c0 -17 -15 -19 -28 -5 -11 12 -9 14 8 14 11 0 20 -4 20 -9z m90 1 c0 -5
-7 -17 -15 -28 -14 -18 -14 -17 -4 9 12 27 19 34 19 19z m2781 -245 c22 -44
34 -56 81 -79 l56 -28 11 -75 c6 -42 11 -100 11 -130 0 -46 3 -53 16 -48 12 4
15 0 12 -17 -2 -19 -17 -27 -88 -50 -48 -15 -147 -38 -220 -50 -228 -37 -473
-88 -706 -145 -504 -123 -800 -228 -1176 -416 -120 -60 -218 -107 -218 -104 0
2 13 26 30 53 44 73 82 158 107 247 l23 80 -5 -70 c-5 -69 -5 -70 12 -40 13
24 16 61 17 180 1 83 -2 170 -7 195 l-7 45 30 -62 c34 -71 55 -184 46 -252 -9
-64 9 -33 29 50 20 88 19 215 -5 339 -11 57 -18 112 -15 121 5 15 -49 130 -91
194 l-16 25 69 -2 c149 -4 1325 22 1428 32 152 13 488 50 500 55 35 12 51 2
76 -48z m105 31 c44 -12 45 -14 40 -42 -4 -17 -11 -35 -16 -40 -21 -21 -110
43 -110 80 0 17 26 18 86 2z m-4576 -187 c0 -16 6 -36 13 -43 8 -7 14 -20 15
-28 3 -46 13 -109 22 -139 5 -19 8 -36 6 -38 -3 -4 -9 9 -42 98 -7 20 -16 59
-19 85 -3 27 -8 59 -11 72 -2 12 0 22 6 22 5 0 10 -13 10 -29z m6794 23 c9 -3
16 -11 16 -17 0 -18 -42 -57 -61 -57 -9 0 -19 -6 -21 -12 -3 -8 -9 -4 -17 10
-16 31 -6 59 27 71 34 12 37 12 56 5z m-6889 -41 c-3 -16 -11 -32 -16 -37 -5
-6 -4 5 1 25 6 18 10 35 10 36 0 2 3 3 6 3 3 0 3 -12 -1 -27z m6963 -65 c7 -7
12 -21 12 -32 -1 -23 -48 -97 -67 -103 -6 -2 -21 17 -32 43 -23 51 -15 80 20
69 12 -4 19 1 24 15 7 23 25 26 43 8z m-2172 -175 c-11 -11 -17 4 -9 23 7 18
8 18 11 1 2 -10 1 -21 -2 -24z m2232 -14 c14 -59 3 -96 -16 -54 -12 26 -26 32
-37 15 -12 -19 -25 -10 -45 30 -25 49 -25 48 8 53 76 11 78 11 90 -44z m-2260
-24 c7 -14 12 -32 12 -39 0 -13 -259 -73 -500 -117 -537 -96 -1193 -313 -1690
-557 -129 -64 -239 -116 -244 -116 -12 -1 -38 76 -29 85 16 15 242 135 370
196 409 195 940 350 1616 469 267 47 331 61 402 88 53 19 50 20 63 -9z m955 8
c-7 -2 -21 -2 -30 0 -10 3 -4 5 12 5 17 0 24 -2 18 -5z m-478 -114 c72 -35 82
-53 30 -56 -111 -5 -387 -42 -398 -53 -4 -4 20 -17 53 -29 34 -13 59 -25 56
-28 -3 -3 -60 -9 -128 -14 -152 -10 -316 -33 -473 -66 -170 -35 -632 -149
-745 -183 -119 -36 -245 -73 -245 -71 0 1 -40 -14 -90 -34 -49 -19 -115 -42
-145 -51 -30 -9 -77 -26 -105 -39 -90 -41 -279 -116 -343 -136 -66 -21 -123
-22 -129 -2 -11 32 334 203 651 322 359 136 995 297 1406 356 123 18 207 36
250 53 123 49 205 71 245 68 22 -2 72 -18 110 -37z m892 -21 c-3 -8 -6 -5 -6
6 -1 11 2 17 5 13 3 -3 4 -12 1 -19z m921 -55 c0 -62 -11 -73 -19 -18 -2 18 9
85 15 85 1 0 3 -30 4 -67z m-984 49 c2 -4 1 -14 -4 -21 -9 -15 -60 -7 -60 8 0
16 55 26 64 13z m-244 -430 c0 -8 -123 -39 -210 -53 -25 -4 -63 -12 -85 -18
-22 -6 -60 -10 -85 -10 l-45 1 40 9 c22 5 65 13 95 19 107 18 156 28 205 43
59 17 85 20 85 9z m-447 -89 c3 -5 -16 -9 -42 -9 -32 -1 -40 1 -26 7 26 10 63
11 68 2z m-103 -12 c0 -10 -24 -21 -46 -21 -8 0 -14 5 -14 11 0 6 9 9 20 6 11
-3 20 -1 20 4 0 5 5 9 10 9 6 0 10 -4 10 -9z m-70 -16 c0 -8 -75 -25 -265 -61
-256 -47 -346 -68 -560 -127 -107 -30 -145 -39 -145 -33 0 7 154 52 325 96
152 38 262 62 440 95 44 8 100 19 125 24 53 11 80 13 80 6z m-1095 -285 c-3
-5 -21 -10 -38 -9 -27 0 -29 2 -12 9 28 12 57 12 50 0z m-320 -99 c-6 -5 -84
-34 -175 -64 -167 -56 -251 -78 -219 -58 9 6 25 13 35 15 28 6 55 15 204 67
138 48 172 57 155 40z m-430 -141 c-27 -12 -43 -12 -25 0 8 5 22 9 30 9 10 0
8 -3 -5 -9z m-50 -10 c-3 -5 -15 -10 -26 -10 -11 0 -29 -5 -40 -11 -11 -5 -30
-9 -42 -7 -14 3 2 10 43 20 36 9 66 17 68 17 2 1 0 -3 -3 -9z m-261 -78 c-98
-34 -186 -76 -334 -160 -25 -14 -42 -22 -38 -18 13 15 113 76 124 76 7 0 14 3
16 8 6 13 122 69 193 92 39 12 79 26 90 31 11 4 29 8 40 8 11 0 -30 -17 -91
-37z m-2508 -445 c-8 -39 -22 -89 -30 -109 -10 -24 -12 -38 -6 -38 16 0 51 85
67 164 8 39 18 75 23 80 9 9 29 -51 31 -94 2 -24 2 -24 6 -2 11 57 53 -16 53
-93 0 -32 4 -45 14 -45 17 0 26 22 26 63 0 27 5 22 35 -42 19 -40 35 -84 35
-97 0 -14 7 -40 14 -59 8 -19 13 -35 10 -35 -3 0 0 -9 6 -21 9 -15 8 -39 -1
-92 -12 -76 -19 -74 -35 8 -7 34 -9 26 -14 -55 -4 -71 -10 -101 -24 -120 -12
-16 -16 -19 -12 -7 6 18 -21 77 -35 77 -11 0 -19 -30 -24 -100 -3 -35 -7 -66
-9 -68 -2 -1 -7 28 -11 65 -4 37 -9 75 -11 83 -32 130 -46 154 -21 35 7 -33
10 -71 6 -85 -7 -24 -7 -24 -8 5 -1 17 -8 41 -15 55 -14 24 -14 23 -21 -25 -4
-28 -11 -59 -15 -70 -7 -18 -9 -18 -19 8 -6 16 -11 35 -11 43 0 8 -4 14 -10
14 -5 0 -10 8 -10 18 -1 24 -29 -26 -30 -53 -1 -19 -1 -19 -11 -2 -12 20 -4
85 17 135 7 18 9 30 5 27 -5 -3 -17 -28 -27 -55 -17 -48 -19 -50 -31 -28 -8
15 -13 18 -13 8 -1 -8 -7 -28 -14 -45 -13 -28 -14 -25 -9 40 3 39 1 86 -5 105
-10 33 -10 30 -13 -35 l-2 -70 -7 67 c-9 89 -23 101 -20 18 2 -36 2 -85 1
-110 l-3 -45 -15 43 c-20 57 -26 48 -15 -22 9 -55 3 -74 -18 -61 -5 3 -10 11
-10 17 0 5 -7 24 -15 41 -8 18 -21 50 -29 72 l-15 40 0 -35 c-2 -54 -20 -75
-23 -25 -1 32 -2 29 -7 -19 -5 -51 -9 -60 -28 -62 -21 -4 -23 0 -25 46 -3 82
-5 104 -12 130 -6 21 -5 22 4 7 6 -9 16 -14 22 -11 7 5 9 1 5 -9 -3 -10 -2
-17 3 -17 6 0 10 3 10 8 0 4 17 6 38 4 l37 -4 23 76 c15 50 36 92 64 128 85
107 129 182 155 266 22 70 28 81 34 63 5 -12 3 -51 -5 -94z m-106 -43 c0 -8
-5 -12 -10 -9 -6 4 -8 11 -5 16 9 14 15 11 15 -7z m-2221 -10 c34 -7 43 -24
12 -24 -10 0 -33 -6 -50 -13 l-32 -14 43 -14 43 -14 -103 -3 c-92 -2 -104 -1
-124 18 -14 12 -31 19 -42 16 -40 -10 4 17 56 35 54 19 140 24 197 13z m8457
-22 c-3 -5 -18 -7 -33 -4 l-28 6 30 6 c34 7 40 5 31 -8z m274 -7 c25 -9 61
-29 80 -46 19 -17 29 -28 23 -24 -10 4 -12 -13 -10 -72 2 -43 7 -85 12 -92 9
-16 22 -17 -208 23 -76 13 -141 27 -145 30 -9 10 -3 124 9 170 l11 39 91 -6
c51 -3 112 -13 137 -22z m-5680 -21 c0 -14 16 -59 35 -100 19 -40 35 -78 35
-83 0 -5 6 -12 13 -14 9 -4 9 -7 -1 -14 -8 -7 20 -26 93 -64 102 -53 115 -65
121 -114 3 -25 -27 -125 -37 -125 -4 0 -11 29 -14 65 -4 36 -11 65 -15 65 -11
0 -20 -26 -21 -58 0 -15 -3 -21 -6 -14 -8 20 -21 14 -37 -15 -13 -26 -15 -27
-22 -8 -4 10 -15 51 -25 90 l-17 70 -1 -55 c-1 -30 -8 -68 -16 -84 -8 -15 -15
-35 -15 -42 0 -8 -4 -14 -9 -14 -14 0 -28 23 -36 58 -3 18 -11 30 -16 26 -5
-3 -9 10 -9 28 0 57 -15 59 -16 2 -2 -68 -17 -91 -44 -64 -10 10 -28 38 -39
62 l-20 43 3 -40 c2 -22 1 -32 -1 -22 -7 27 -23 10 -24 -26 0 -18 -4 -41 -8
-52 -7 -17 -10 -14 -20 20 -6 22 -11 60 -12 85 l-1 45 -15 -35 c-9 -19 -16
-49 -17 -67 -2 -30 -16 -61 -16 -34 0 7 -4 9 -10 6 -6 -3 -7 1 -4 9 5 14 -5
20 -27 18 -8 -1 -29 102 -29 145 0 26 4 33 20 33 15 0 22 9 27 31 3 17 16 37
29 46 13 8 24 24 24 34 0 24 17 25 22 2 2 -10 23 26 47 79 30 66 48 95 58 91
7 -3 13 -13 13 -23 0 -33 16 -30 29 6 15 40 31 45 31 8z m4617 10 c-3 -3 -12
-4 -19 -1 -8 3 -5 6 6 6 11 1 17 -2 13 -5z m-7296 -62 c-6 -11 -20 -22 -32
-25 -20 -5 -19 -3 6 23 31 32 43 33 26 2z m7624 -9 c86 -45 135 -128 134 -225
0 -56 -16 -131 -18 -87 -1 9 -8 22 -16 29 -13 10 -15 9 -15 -10 0 -17 -4 -21
-17 -16 -9 4 -20 1 -25 -6 -4 -8 -8 3 -8 29 0 23 -4 45 -10 48 -6 4 -10 -12
-10 -42 0 -31 -3 -43 -9 -34 -5 7 -17 11 -27 8 -14 -4 -29 8 -60 49 l-41 55 0
-66 c1 -70 -8 -90 -27 -63 -13 18 -26 15 -22 -5 1 -7 -2 -2 -8 11 -5 12 -13
22 -18 22 -4 0 -8 11 -8 25 0 36 -14 31 -29 -10 -7 -19 -17 -35 -22 -35 -12 0
-13 -7 21 85 36 95 38 118 8 79 -12 -16 -47 -60 -77 -99 -30 -38 -56 -72 -58
-74 -7 -11 -45 37 -93 119 -49 82 -79 116 -66 73 16 -53 36 -152 36 -183 0
-29 -2 -32 -14 -20 -14 16 -46 139 -46 178 0 12 -4 22 -8 22 -5 0 -5 -30 0
-66 13 -96 4 -123 -11 -34 -7 41 -19 95 -26 120 -14 43 -14 40 -9 -65 5 -109
0 -150 -17 -139 -12 7 -11 -3 3 -29 10 -20 10 -21 -5 -9 -9 8 -19 22 -22 33
-4 10 -14 19 -24 19 -11 0 -22 14 -30 38 -24 67 -61 145 -66 140 -3 -3 2 -24
10 -48 16 -46 20 -100 7 -100 -4 0 -15 12 -24 28 -9 15 -25 36 -36 46 -19 16
-19 20 -6 59 l14 42 123 32 c193 52 364 85 537 105 39 5 91 -7 135 -29z
m-7474 -32 c-32 -26 -33 -29 -15 -35 11 -3 44 -2 74 4 29 5 80 10 113 10 60 0
60 0 42 -20 -30 -34 -173 -100 -214 -100 -20 1 -61 10 -91 21 -30 11 -67 23
-82 26 -28 5 -75 48 -61 56 4 2 53 16 108 31 55 15 105 29 110 31 6 2 19 4 30
4 16 0 14 -5 -14 -28z m8348 -51 l-1 -25 -7 25 c-4 14 -11 39 -14 55 l-6 30
14 -30 c8 -16 14 -41 14 -55z m-309 -60 c0 -12 -27 -12 -55 0 -16 7 -13 9 18
9 20 1 37 -3 37 -9z m175 -25 c61 -13 97 -24 81 -24 -42 -1 -219 30 -230 40
-16 15 32 10 149 -16z m-6066 -37 c43 -81 64 -179 41 -193 -6 -4 -16 8 -24 26
-15 35 -20 31 -31 -21 -7 -30 -9 -32 -16 -15 -10 27 -11 245 -1 245 5 0 19
-19 31 -42z m5770 -33 c-11 -79 -19 -96 -19 -39 0 39 18 119 25 112 2 -2 0
-35 -6 -73z m108 61 c3 -3 -5 -19 -17 -37 -13 -17 -23 -44 -24 -59 -1 -26 -2
-27 -18 -13 -13 12 -18 31 -18 71 l0 55 36 -6 c20 -3 39 -8 41 -11z m403 4 c0
-5 -11 -10 -25 -10 -14 0 -25 5 -25 10 0 6 11 10 25 10 14 0 25 -4 25 -10z
m-320 -47 c0 -22 -2 -23 -15 -9 -8 8 -15 19 -15 24 0 5 7 9 15 9 9 0 15 -10
15 -24z m650 2 c12 -8 5 -53 -11 -69 -13 -14 -12 20 2 46 12 23 8 21 -43 -14
l-28 -19 0 34 c0 18 3 36 6 39 6 6 55 -5 74 -17z m-512 -2 c-10 -2 -26 -2 -35
0 -10 3 -2 5 17 5 19 0 27 -2 18 -5z m-6934 -17 c32 -13 33 -16 27 -53 -7 -37
-33 -94 -53 -120 -8 -10 -20 -5 -52 19 -61 48 -67 58 -62 106 3 23 8 47 11 52
9 15 91 12 129 -4z m7016 5 c0 -4 -11 -6 -25 -3 -14 2 -25 6 -25 8 0 2 11 4
25 4 14 0 25 -4 25 -9z m-273 -33 c-3 -7 -5 -2 -5 12 0 14 2 19 5 13 2 -7 2
-19 0 -25z m802 18 c9 -11 8 -18 -5 -30 -19 -20 -19 -20 -28 17 -7 30 12 38
33 13z m68 -43 c-4 -17 -4 -17 -12 0 -4 9 -4 25 0 35 8 16 8 16 12 0 3 -10 3
-26 0 -35z m-820 15 c-3 -8 -6 -5 -6 6 -1 11 2 17 5 13 3 -3 4 -12 1 -19z
m-1413 -39 c15 -29 14 -33 -4 -57 l-20 -25 0 46 c0 25 -3 53 -7 63 -11 29 14
7 31 -27z m-5314 -44 c0 -19 -4 -35 -8 -35 -4 0 -6 16 -4 35 2 19 6 35 8 35 2
0 4 -16 4 -35z m5823 10 c-3 -9 -8 -14 -10 -11 -3 3 -2 9 2 15 9 16 15 13 8
-4z m-4346 -37 c-3 -8 -6 -5 -6 6 -1 11 2 17 5 13 3 -3 4 -12 1 -19z m-525
-50 c-8 -8 -9 -4 -5 13 4 13 8 18 11 10 2 -7 -1 -18 -6 -23z m98 16 c0 -8 -5
-12 -10 -9 -6 4 -8 11 -5 16 9 14 15 11 15 -7z m-3293 -16 c-3 -8 -6 -5 -6 6
-1 11 2 17 5 13 3 -3 4 -12 1 -19z m3281 -434 c-3 -14 -5 -12 -10 9 -3 19 -2
25 4 19 6 -6 8 -18 6 -28z"/>
<path d="M6624 8566 c-42 -19 -58 -61 -48 -128 4 -29 8 -65 9 -80 1 -15 16
-43 33 -63 27 -30 32 -44 32 -85 0 -57 10 -67 51 -50 38 16 69 75 69 131 0 33
-6 47 -34 75 -21 21 -45 35 -62 36 -16 0 -36 1 -44 2 -11 1 -16 15 -18 52 -6
85 40 106 128 62 52 -27 76 -58 101 -129 10 -30 18 -44 19 -33 1 69 -69 175
-134 205 -48 22 -61 23 -102 5z m86 -260 c0 -6 5 -4 11 4 8 11 9 9 3 -10 -3
-14 -9 -27 -11 -30 -9 -10 -33 34 -33 59 1 25 1 25 15 7 8 -11 15 -25 15 -30z"/>
<path d="M5923 8124 c-17 -7 -70 -15 -117 -16 -52 -1 -80 -6 -73 -11 7 -5 1
-6 -16 -3 -42 10 -99 -10 -143 -49 l-39 -36 45 30 c25 16 56 32 70 36 16 5 9
-4 -22 -23 -54 -35 -73 -62 -82 -114 -8 -45 6 -50 36 -13 25 32 31 32 50 -7
21 -45 94 -125 129 -144 27 -13 32 -13 58 2 16 10 35 28 42 40 26 49 -18 141
-89 184 -23 14 -42 28 -42 31 0 7 89 19 148 19 37 0 42 -3 42 -22 1 -53 17
-47 23 7 3 31 13 67 22 81 18 28 8 30 -42 8z"/>
<path d="M6020 7537 c0 -27 -46 -102 -81 -133 -41 -37 -131 -94 -156 -100 -17
-5 -34 0 -55 16 -16 12 -31 20 -34 18 -12 -12 65 -52 109 -56 l49 -5 79 81
c78 80 126 158 115 188 -9 22 -26 16 -26 -9z"/>
<path d="M5850 7251 c0 -5 14 -21 31 -36 31 -25 32 -25 45 -6 8 11 11 26 8 35
-5 12 -9 13 -25 3 -15 -9 -23 -9 -39 1 -11 7 -20 8 -20 3z"/>
<path d="M9845 10130 c-3 -5 -3 -10 2 -10 4 0 19 -3 32 -7 17 -4 22 -3 17 6
-4 6 -12 9 -17 6 -5 -4 -9 -1 -9 4 0 14 -17 14 -25 1z"/>
<path d="M6937 10035 c-41 -14 -58 -25 -38 -25 8 0 6 -8 -5 -25 -9 -14 -15
-28 -12 -30 2 -2 31 3 63 12 42 12 102 17 197 17 150 1 154 6 29 46 -73 23
-177 26 -234 5z"/>
<path d="M9567 9945 c3 -8 9 -12 14 -9 12 7 11 11 -5 17 -10 4 -13 1 -9 -8z"/>
<path d="M2160 9718 c0 -4 14 -8 30 -8 17 0 30 2 30 4 0 2 -13 6 -30 8 -16 3
-30 1 -30 -4z"/>
<path d="M4840 9590 c0 -5 5 -10 10 -10 6 0 10 5 10 10 0 6 -4 10 -10 10 -5 0
-10 -4 -10 -10z"/>
<path d="M4652 8275 c-1 -112 8 -177 24 -182 8 -3 9 9 2 44 -5 26 -13 91 -17
143 l-8 95 -1 -100z"/>
<path d="M8095 7030 c10 -11 23 -20 28 -20 6 0 2 9 -8 20 -10 11 -23 20 -28
20 -6 0 -2 -9 8 -20z"/>
<path d="M6514 6495 c0 -66 1 -92 3 -57 2 34 2 88 0 120 -2 31 -3 3 -3 -63z"/>
<path d="M6262 6385 c0 -16 2 -22 5 -12 2 9 2 23 0 30 -3 6 -5 -1 -5 -18z"/>
<path d="M3212 6292 c-55 -65 -133 -193 -126 -204 4 -6 15 -8 25 -5 11 3 19 1
19 -5 0 -22 21 6 49 67 17 36 31 68 31 72 0 3 12 30 26 60 15 29 24 56 22 59
-3 3 -24 -17 -46 -44z"/>
<path d="M3290 6320 c-9 -6 -10 -10 -3 -10 6 0 15 5 18 10 8 12 4 12 -15 0z"/>
<path d="M3272 5900 c-33 -21 -75 -92 -86 -150 l-7 -35 18 35 c10 19 32 44 50
56 18 12 29 25 25 29 -4 5 -1 5 7 0 7 -4 16 -2 21 4 4 7 26 15 49 18 45 6 45
9 -10 41 -35 21 -35 21 -67 2z"/>
<path d="M3300 5818 c-30 -12 -57 -23 -59 -24 -8 -6 26 -31 73 -53 29 -14 59
-39 75 -62 14 -21 33 -39 41 -39 11 -1 11 -3 2 -7 -7 -3 -31 2 -53 11 -90 36
-186 10 -215 -59 -26 -63 -12 -138 28 -148 18 -5 19 -4 4 12 -22 24 -20 68 3
80 25 14 32 4 19 -25 -10 -21 -8 -28 9 -46 l21 -20 54 25 c33 15 64 38 78 58
31 44 47 54 90 55 19 0 68 1 108 2 l73 2 -68 80 c-37 44 -76 83 -85 86 -10 3
-18 11 -18 18 0 7 -15 26 -33 44 -39 38 -68 40 -147 10z m70 -238 c7 -17 9
-37 4 -47 -6 -15 -8 -14 -12 7 -2 14 -13 35 -25 48 l-20 22 20 0 c13 0 25 -10
33 -30z m70 20 c0 -5 -2 -10 -4 -10 -3 0 -8 5 -11 10 -3 6 -1 10 4 10 6 0 11
-4 11 -10z"/>
<path d="M1821 5730 c0 -8 4 -22 9 -30 12 -18 12 -2 0 25 -6 13 -9 15 -9 5z"/>
<path d="M2058 5693 c6 -2 18 -2 25 0 6 3 1 5 -13 5 -14 0 -19 -2 -12 -5z"/>
<path d="M4130 5654 c0 -11 92 -47 187 -72 61 -17 119 -34 129 -40 11 -6 41
-48 68 -94 27 -45 73 -118 102 -161 29 -42 83 -129 120 -191 37 -63 71 -113
75 -111 4 3 47 -15 95 -40 49 -25 94 -44 99 -44 6 0 -10 10 -35 22 -132 65
-148 78 -191 151 -24 39 -77 123 -119 186 -42 63 -97 149 -123 191 -64 103
-78 114 -177 138 -47 11 -118 31 -157 44 -40 13 -73 23 -73 21z"/>
<path d="M4000 5579 l-35 -30 43 27 c23 15 42 28 42 30 0 11 -18 0 -50 -27z"/>
<path d="M3930 5540 c-8 -5 -10 -10 -5 -10 6 0 17 5 25 10 8 5 11 10 5 10 -5
0 -17 -5 -25 -10z"/>
<path d="M2564 5515 c-35 -21 -124 -134 -124 -158 0 -4 12 -2 26 3 18 7 31 7
40 -1 7 -6 30 -15 51 -19 34 -8 36 -7 18 5 -53 37 -56 48 -24 89 28 35 39 33
32 -7 -4 -28 -1 -37 21 -54 14 -12 26 -26 26 -32 0 -14 94 -15 120 -1 37 20
42 46 19 92 l-21 43 32 -31 c18 -18 33 -43 33 -58 2 -27 13 -31 54 -20 22 6
19 11 -38 76 -34 38 -75 76 -90 84 -45 23 -127 18 -175 -11z"/>
<path d="M3260 5404 c0 -2 13 -10 30 -19 26 -13 29 -13 24 0 -3 8 -10 12 -15
9 -5 -3 -9 -1 -9 4 0 5 -7 9 -15 9 -8 0 -15 -2 -15 -3z"/>
<path d="M3148 5394 c22 -10 13 -26 -12 -20 -13 3 -40 -1 -60 -9 -20 -8 -38
-15 -41 -15 -26 0 -27 -1 -15 -15 7 -8 20 -15 29 -15 9 0 34 -9 56 -20 21 -11
39 -19 39 -17 1 1 11 17 24 35 30 42 26 76 -8 79 -14 1 -19 0 -12 -3z m-13
-53 c3 -6 -4 -9 -15 -8 -11 1 -20 5 -20 9 0 11 28 10 35 -1z"/>
<path d="M2874 5308 l-19 -23 23 19 c21 18 27 26 19 26 -2 0 -12 -10 -23 -22z"/>
<path d="M2770 5294 c-8 -3 -51 -9 -95 -14 l-80 -9 91 3 c50 2 100 8 110 14
19 12 6 14 -26 6z"/>
<path d="M3140 5206 c0 -60 -67 -125 -154 -151 -39 -12 -44 -12 -39 1 7 19 0
18 -39 -6 -42 -25 -73 -25 -90 -1 -10 14 -18 17 -28 11 -8 -5 -12 -10 -10 -12
52 -33 68 -36 137 -28 100 13 147 35 196 91 l43 49 43 -21 c24 -11 58 -23 75
-25 41 -5 134 34 155 66 l15 25 -22 -19 c-12 -10 -30 -16 -41 -13 -12 3 -22
-1 -25 -9 -7 -19 -108 -19 -145 1 -16 8 -38 27 -50 42 l-20 28 -1 -29z"/>
<path d="M3428 5213 c7 -3 16 -2 19 1 4 3 -2 6 -13 5 -11 0 -14 -3 -6 -6z"/>
<path d="M4012 5204 c10 -10 20 -16 22 -13 3 3 -5 11 -17 18 -21 13 -21 12 -5
-5z"/>
<path d="M7268 5163 c7 -3 16 -2 19 1 4 3 -2 6 -13 5 -11 0 -14 -3 -6 -6z"/>
<path d="M2571 4987 c-13 -21 -12 -21 5 -5 10 10 16 20 13 22 -3 3 -11 -5 -18
-17z"/>
<path d="M2501 4919 c-33 -45 -16 -49 24 -6 28 30 31 37 17 37 -10 0 -28 -14
-41 -31z"/>
<path d="M5060 4875 c14 -8 30 -14 35 -14 6 0 -1 6 -15 14 -14 8 -29 14 -35
14 -5 0 1 -6 15 -14z"/>
<path d="M2357 4682 c-5 -7 -13 -9 -19 -6 -7 5 -9 -2 -4 -19 3 -15 2 -27 -5
-29 -20 -7 -31 -328 -10 -328 4 0 13 55 20 123 7 67 17 143 22 169 12 53 9
110 -4 90z"/>
<path d="M2411 4524 c0 -11 3 -14 6 -6 3 7 2 16 -1 19 -3 4 -6 -2 -5 -13z"/>
<path d="M2401 4474 c0 -11 3 -14 6 -6 3 7 2 16 -1 19 -3 4 -6 -2 -5 -13z"/>
<path d="M385 3850 c-3 -5 -1 -10 6 -10 7 0 5 -8 -6 -20 -10 -11 -20 -18 -23
-16 -2 3 -18 -10 -36 -28 -17 -18 -50 -39 -74 -46 -38 -12 -47 -12 -73 4 -25
15 -29 15 -29 2 0 -9 -7 -16 -15 -16 -12 0 -13 4 -3 25 6 14 9 27 6 30 -3 3
-35 14 -72 24 l-66 18 0 -193 c1 -161 4 -194 16 -194 17 0 19 -21 3 -37 -15
-15 -22 -523 -7 -540 18 -22 28 -15 49 31 11 25 33 57 49 72 l29 28 -29 13
c-19 7 -30 19 -30 32 0 18 5 20 53 15 85 -8 116 -14 122 -24 6 -9 -8 -73 -31
-149 -8 -25 -14 -61 -13 -80 l0 -36 25 54 c13 30 39 100 56 155 17 56 38 110
46 121 12 18 13 15 7 -30 -6 -49 -6 -50 22 -51 184 -9 193 -11 193 -49 0 -22
-3 -24 -31 -18 -39 7 -77 -27 -124 -112 -61 -112 -100 -333 -55 -317 29 10 50
35 62 73 6 21 14 36 18 34 5 -3 8 27 8 66 0 38 3 73 6 77 4 3 17 -7 30 -22 17
-22 27 -27 44 -22 13 5 22 3 22 -3 0 -6 9 -11 20 -11 11 0 20 5 20 10 0 6 14
10 30 10 l30 0 0 -86 c0 -78 2 -85 16 -73 18 15 54 82 54 101 0 7 4 19 9 26 7
12 12 12 29 1 19 -12 23 -11 37 6 8 11 13 27 11 37 -4 18 20 28 67 28 45 0 66
16 65 51 -1 22 -7 33 -22 39 -12 4 -24 6 -28 3 -4 -2 -18 3 -30 11 -13 8 -47
18 -76 22 -47 6 -53 9 -50 28 3 24 32 26 150 12 76 -9 74 -11 81 83 6 71 24
61 32 -16 10 -115 10 -114 45 -97 16 9 33 20 36 26 4 6 3 8 -3 5 -15 -9 -9
153 6 180 14 27 15 93 0 93 -5 0 -7 6 -3 13 6 9 5 9 -7 0 -14 -11 -19 -13 -42
-13 -7 0 -18 -20 -25 -45 -7 -25 -19 -48 -28 -52 -8 -3 -56 6 -107 20 -89 24
-93 29 -34 42 22 4 28 11 25 27 -2 17 -16 25 -63 37 -33 9 -60 21 -60 26 0 6
17 14 37 19 67 17 53 66 -18 66 -18 0 -35 4 -39 10 -6 10 45 40 69 40 29 0 26
19 -6 36 -18 9 -42 27 -54 39 -11 12 -26 24 -34 27 -16 5 -4 48 15 48 8 0 14
15 17 39 4 45 -27 91 -61 91 -25 0 -51 26 -51 51 0 10 -3 18 -7 18 -20 -3 -29
3 -42 32 -8 19 -18 28 -27 25 -24 -9 -62 12 -66 35 -2 17 -11 24 -35 26 -17 2
-34 -1 -38 -7z m-315 -380 c13 -9 13 -10 0 -10 -8 0 -22 5 -30 10 -13 9 -13
10 0 10 8 0 22 -5 30 -10z m309 -195 c187 -47 216 -51 226 -35 3 6 13 10 21
10 22 0 16 -38 -8 -54 -20 -12 -31 -13 -78 -1 -30 7 -136 32 -235 55 -189 44
-220 54 -209 72 10 15 80 4 283 -47z m248 -307 c-3 -8 -6 -5 -6 6 -1 11 2 17
5 13 3 -3 4 -12 1 -19z"/>
<path d="M10186 3599 c-15 -12 -25 -28 -22 -35 6 -16 -27 -54 -46 -54 -7 0 0
-11 15 -25 15 -14 27 -31 27 -38 -1 -7 -25 -30 -55 -52 -29 -22 -58 -50 -64
-62 -10 -21 -41 -33 -41 -15 0 4 -13 13 -29 20 -39 17 -100 12 -112 -9 -13
-26 -11 -49 5 -49 25 0 29 -21 7 -36 -11 -8 -23 -30 -27 -49 -3 -19 -10 -35
-15 -35 -5 0 -9 -5 -9 -11 0 -8 28 -8 93 -3 50 5 112 8 137 9 l45 0 7 -115 c4
-63 5 -155 2 -203 -5 -72 -3 -96 11 -128 16 -35 34 -51 35 -31 1 4 3 135 5
291 5 287 7 300 41 301 7 0 9 -18 6 -52 -4 -45 -3 -50 12 -45 10 4 20 7 22 7
2 0 4 94 4 209 0 233 -4 249 -54 210z m-29 -295 c-3 -3 -12 -4 -19 -1 -8 3 -5
6 6 6 11 1 17 -2 13 -5z"/>
<path d="M9166 3381 c-4 -7 -5 -15 -2 -18 9 -9 19 4 14 18 -4 11 -6 11 -12 0z"/>
<path d="M937 3284 c-12 -12 -8 -24 8 -24 8 0 15 -3 15 -7 0 -13 54 -35 58
-23 2 5 10 10 18 10 8 0 14 9 14 20 0 17 -7 20 -39 20 -22 0 -46 2 -53 5 -8 3
-17 2 -21 -1z"/>
<path d="M1642 3200 c0 -14 2 -19 5 -12 2 6 2 18 0 25 -3 6 -5 1 -5 -13z"/>
<path d="M2863 3060 c0 -25 2 -35 4 -22 2 12 2 32 0 45 -2 12 -4 2 -4 -23z"/>
<path d="M10213 3042 c-9 -6 -12 -41 -10 -123 2 -107 3 -115 20 -105 14 9 17
27 17 123 0 111 -3 121 -27 105z"/>
<path d="M10000 3018 c0 -5 13 -43 29 -86 16 -42 31 -84 34 -92 3 -8 6 28 6
81 l1 97 -35 4 c-19 2 -35 0 -35 -4z"/>
<path d="M9924 3003 c3 -10 10 -38 16 -63 13 -49 56 -130 69 -130 17 0 30 27
24 51 -3 13 -19 54 -36 92 -25 56 -34 67 -54 67 -18 0 -23 -4 -19 -17z"/>
<path d="M9763 3003 c-33 -6 -29 -43 7 -78 16 -15 39 -48 50 -73 27 -56 35
-50 16 14 -8 27 -18 69 -23 93 -8 46 -14 51 -50 44z"/>
<path d="M9840 2976 c16 -70 40 -77 40 -11 0 41 -2 45 -24 45 -22 0 -23 -3
-16 -34z"/>
<path d="M130 2936 c-67 -80 -83 -162 -21 -111 22 19 31 34 28 47 -6 22 1 22
27 3 19 -15 19 -15 -3 -39 -21 -23 -22 -27 -10 -63 17 -49 26 -59 32 -37 13
45 30 140 28 155 -1 9 3 29 9 44 11 30 7 40 -25 48 -15 4 -31 -7 -65 -47z"/>
<path d="M9690 2980 c20 -13 33 -13 25 0 -3 6 -14 10 -23 10 -15 0 -15 -2 -2
-10z"/>
<path d="M9570 2969 c0 -14 84 -92 88 -81 1 5 -3 26 -10 48 -11 34 -18 39 -45
42 -21 2 -33 -1 -33 -9z"/>
<path d="M9904 2955 c4 -16 12 -34 17 -40 5 -5 4 6 -2 25 -15 45 -24 54 -15
15z"/>
<path d="M326 2938 c-8 -18 -23 -54 -34 -79 -37 -85 -103 -320 -96 -341 5 -18
10 -13 35 32 16 29 33 58 38 64 5 6 16 34 24 62 18 60 66 155 121 237 22 33
15 42 -37 51 -36 7 -38 5 -51 -26z"/>
<path d="M9422 2946 l-32 -23 26 -39 c15 -21 46 -62 70 -91 35 -41 50 -51 73
-51 15 1 33 -2 40 -6 6 -4 11 0 11 9 0 11 5 15 14 12 15 -6 6 19 -55 151 l-29
62 -43 0 c-30 0 -53 -7 -75 -24z"/>
<path d="M9707 2920 c22 -23 40 -35 42 -28 4 12 -55 68 -71 68 -5 0 9 -18 29
-40z"/>
<path d="M9285 2920 c-4 -6 -10 -8 -14 -6 -4 3 -13 1 -21 -4 -11 -7 -11 -22
-2 -91 7 -45 13 -83 14 -85 2 -1 30 -4 63 -5 69 -3 73 4 45 81 -9 25 -20 54
-24 64 -5 14 -10 16 -18 8 -15 -15 -38 -3 -38 20 0 15 5 19 20 15 11 -3 18 -1
14 4 -7 12 -31 11 -39 -1z"/>
<path d="M9860 2898 c0 -9 5 -20 11 -23 17 -11 20 0 4 21 -13 17 -14 17 -15 2z"/>
<path d="M4031 2884 c0 -11 3 -14 6 -6 3 7 2 16 -1 19 -3 4 -6 -2 -5 -13z"/>
<path d="M9619 2848 c30 -84 32 -88 51 -88 16 0 17 4 8 43 -11 44 -31 72 -60
88 -16 8 -16 5 1 -43z"/>
<path d="M3352 2870 c0 -14 2 -19 5 -12 2 6 2 18 0 25 -3 6 -5 1 -5 -13z"/>
<path d="M9930 2870 c0 -19 33 -75 37 -63 2 6 -3 25 -12 42 -16 32 -25 39 -25
21z"/>
<path d="M9390 2829 c0 -29 34 -87 56 -96 8 -3 24 -2 34 3 17 8 16 12 -19 49
-20 22 -45 46 -54 54 -15 12 -17 11 -17 -10z"/>
<path d="M9722 2823 c14 -18 28 -38 31 -45 2 -7 8 -10 12 -6 9 9 -16 45 -47
66 -21 15 -21 14 4 -15z"/>
<path d="M9882 2820 c11 -32 28 -49 28 -28 0 29 -13 58 -26 58 -10 0 -11 -6
-2 -30z"/>
<path d="M42 2823 c-6 -12 -12 -30 -12 -39 0 -17 1 -17 16 -2 9 8 14 26 12 39
l-3 24 -13 -22z"/>
<path d="M9690 2814 c0 -14 27 -50 33 -44 3 3 -3 16 -13 30 -11 14 -20 20 -20
14z"/>
<path d="M978 2803 c7 -3 16 -2 19 1 4 3 -2 6 -13 5 -11 0 -14 -3 -6 -6z"/>
<path d="M9930 2795 c0 -8 7 -15 16 -15 14 0 14 3 4 15 -7 8 -14 15 -16 15 -2
0 -4 -7 -4 -15z"/>
<path d="M99 2763 c-13 -16 -12 -17 4 -4 9 7 17 15 17 17 0 8 -8 3 -21 -13z"/>
<path d="M40 2705 c-38 -61 -42 -94 -18 -134 12 -20 29 -46 39 -59 l17 -22 -2
32 c0 22 3 32 12 31 15 -4 15 2 1 29 -8 16 -7 29 6 59 16 35 16 39 1 54 -9 9
-16 23 -16 31 0 24 -18 15 -40 -21z"/>
<path d="M135 2684 c-11 -11 -14 -26 -9 -48 3 -18 1 -51 -5 -73 -8 -31 -8 -49
3 -79 l13 -39 16 37 c22 51 31 120 23 173 -8 48 -16 54 -41 29z"/>
<path d="M9983 2663 c-14 -5 -18 -65 -6 -77 4 -4 7 -24 6 -44 -2 -32 0 -29 12
18 16 61 19 110 8 109 -5 0 -14 -3 -20 -6z"/>
<path d="M10070 2663 c0 -16 63 -102 72 -97 5 3 3 16 -6 30 -9 13 -23 35 -32
49 -15 23 -34 34 -34 18z"/>
<path d="M9743 2645 c-11 -11 -8 -21 13 -52 35 -53 37 -53 29 -8 -13 80 -19
87 -42 60z"/>
<path d="M9901 2652 c-30 -3 -33 -6 -27 -30 3 -15 9 -55 12 -90 4 -34 11 -65
15 -68 5 -3 9 -18 9 -35 0 -16 4 -29 9 -29 14 0 23 74 19 170 l-3 85 -34 -3z"/>
<path d="M9652 2642 c-9 -3 -6 -11 9 -30 11 -15 28 -43 36 -62 23 -52 29 -12
7 49 -16 46 -24 53 -52 43z"/>
<path d="M9825 2625 c3 -16 10 -55 16 -85 5 -30 12 -57 15 -59 10 -10 -9 100
-23 137 -12 31 -13 32 -8 7z"/>
<path d="M9367 2633 c-8 -13 36 -109 63 -138 37 -39 43 -16 17 66 -20 65 -26
74 -49 77 -14 2 -28 -1 -31 -5z"/>
<path d="M710 2620 c0 -5 5 -10 11 -10 5 0 7 5 4 10 -3 6 -8 10 -11 10 -2 0
-4 -4 -4 -10z"/>
<path d="M9451 2623 c-1 -18 19 -67 25 -61 3 3 -2 21 -10 39 -8 19 -15 29 -15
22z"/>
<path d="M9503 2622 l-21 -3 25 -57 c13 -31 31 -64 39 -72 14 -13 15 -12 8 15
-3 17 -16 40 -27 52 -16 18 -18 25 -8 37 17 21 11 32 -16 28z"/>
<path d="M9550 2614 c0 -10 5 -14 15 -10 11 4 19 -3 26 -21 5 -14 12 -23 16
-20 3 4 0 20 -7 37 -13 32 -50 42 -50 14z"/>
<path d="M10190 2605 c0 -8 2 -15 4 -15 2 0 6 7 10 15 3 8 1 15 -4 15 -6 0
-10 -7 -10 -15z"/>
<path d="M540 2598 c1 -7 10 -29 20 -48 l19 -35 -5 35 c-8 50 -12 60 -24 60
-5 0 -10 -6 -10 -12z"/>
<path d="M9728 2555 c8 -30 17 -53 20 -50 6 6 -18 94 -28 100 -4 2 0 -20 8
-50z"/>
<path d="M709 2593 c0 -4 -3 -19 -5 -32 -5 -28 -2 -26 15 6 7 14 8 24 1 28 -5
3 -10 3 -11 -2z"/>
<path d="M2 2497 c-2 -34 1 -73 6 -86 9 -24 9 -24 35 19 27 47 27 52 -16 102
l-22 28 -3 -63z"/>
<path d="M252 2511 c-7 -23 -16 -50 -19 -60 -4 -12 -1 -11 16 5 17 16 22 30
19 60 l-3 39 -13 -44z"/>
<path d="M9476 2537 c3 -10 9 -15 12 -12 3 3 0 11 -7 18 -10 9 -11 8 -5 -6z"/>
<path d="M10051 2534 c0 -11 3 -14 6 -6 3 7 2 16 -1 19 -3 4 -6 -2 -5 -13z"/>
<path d="M9344 2518 c-5 -7 -3 -8 6 -3 9 6 12 4 8 -6 -3 -8 -2 -23 3 -34 6
-15 8 -11 8 18 1 36 -11 48 -25 25z"/>
<path d="M9570 2524 c0 -17 18 -36 30 -32 7 2 4 10 -9 22 -12 11 -21 15 -21
10z"/>
<path d="M10166 2515 c-3 -9 -6 -22 -5 -28 0 -7 5 -1 10 12 5 13 8 26 5 28 -2
2 -6 -3 -10 -12z"/>
<path d="M541 2476 c-8 -20 -8 -33 -2 -39 13 -13 24 13 19 45 -4 22 -5 22 -17
-6z"/>
<path d="M9320 2491 c0 -6 4 -13 10 -16 6 -3 7 1 4 9 -7 18 -14 21 -14 7z"/>
<path d="M10053 2397 c4 -81 2 -111 -8 -121 -7 -7 -10 -18 -5 -25 17 -28 28
17 37 155 4 57 1 73 -12 84 -15 13 -16 5 -12 -93z"/>
<path d="M9800 2458 c0 -9 4 -27 10 -40 5 -13 14 -48 20 -78 11 -60 25 -88 36
-77 4 3 2 12 -3 19 -6 7 -18 46 -27 87 -18 78 -35 122 -36 89z"/>
<path d="M9341 2444 c0 -11 3 -14 6 -6 3 7 2 16 -1 19 -3 4 -6 -2 -5 -13z"/>
<path d="M9918 2333 c-5 -58 -1 -74 18 -66 21 8 18 -34 -3 -46 -10 -5 -14 -13
-10 -18 5 -4 15 1 23 11 16 22 19 106 4 106 -5 0 -10 14 -10 30 0 48 -18 34
-22 -17z"/>
<path d="M10224 2341 c5 -7 0 -21 -9 -31 -9 -10 -14 -24 -9 -31 5 -9 11 -7 21
6 16 23 17 51 1 61 -7 5 -8 3 -4 -5z"/>
<path d="M9676 2305 c4 -8 8 -15 10 -15 2 0 4 7 4 15 0 8 -4 15 -10 15 -5 0
-7 -7 -4 -15z"/>
<path d="M9661 2274 c0 -11 3 -14 6 -6 3 7 2 16 -1 19 -3 4 -6 -2 -5 -13z"/>
<path d="M10033 2203 c-1 -19 1 -22 8 -12 11 17 12 39 2 39 -5 0 -9 -12 -10
-27z"/>
<path d="M178 1573 c7 -3 16 -2 19 1 4 3 -2 6 -13 5 -11 0 -14 -3 -6 -6z"/>
<path d="M27 1545 c-8 -8 -17 -11 -21 -8 -3 4 -6 -1 -6 -9 0 -10 7 -14 23 -12
12 2 72 11 132 19 141 20 152 24 42 19 -49 -2 -92 -6 -97 -9 -5 -3 -20 -1 -34
5 -19 7 -29 6 -39 -5z"/>
<path d="M408 1523 c6 -2 18 -2 25 0 6 3 1 5 -13 5 -14 0 -19 -2 -12 -5z"/>
<path d="M792 1225 c0 -16 2 -22 5 -12 2 9 2 23 0 30 -3 6 -5 -1 -5 -18z"/>
<path d="M411 580 c14 -31 19 -36 19 -24 0 6 -7 19 -16 30 -14 18 -14 18 -3
-6z"/>
<path d="M1531 534 c0 -11 3 -14 6 -6 3 7 2 16 -1 19 -3 4 -6 -2 -5 -13z"/>
<path d="M1037 500 c-3 -11 -1 -23 4 -26 5 -3 9 6 9 20 0 31 -6 34 -13 6z"/>
<path d="M1631 484 c0 -11 3 -14 6 -6 3 7 2 16 -1 19 -3 4 -6 -2 -5 -13z"/>
<path d="M1678 450 c2 -16 6 -30 8 -30 2 0 4 14 4 30 0 17 -4 30 -8 30 -5 0
-7 -13 -4 -30z"/>
<path d="M1860 446 c0 -8 5 -18 10 -21 6 -3 10 3 10 14 0 12 -4 21 -10 21 -5
0 -10 -6 -10 -14z"/>
<path d="M1790 431 c0 -6 4 -13 10 -16 6 -3 7 1 4 9 -7 18 -14 21 -14 7z"/>
<path d="M1665 400 c3 -5 8 -10 11 -10 2 0 4 5 4 10 0 6 -5 10 -11 10 -5 0 -7
-4 -4 -10z"/>
<path d="M1836 395 c4 -8 10 -12 15 -9 11 6 2 24 -11 24 -5 0 -7 -7 -4 -15z"/>
<path d="M2190 341 c0 -11 5 -23 10 -26 6 -4 10 5 10 19 0 14 -4 26 -10 26 -5
0 -10 -9 -10 -19z"/>
<path d="M2551 324 c0 -11 3 -14 6 -6 3 7 2 16 -1 19 -3 4 -6 -2 -5 -13z"/>
<path d="M2661 315 c0 -11 4 -29 9 -40 8 -18 9 -18 9 5 0 14 -4 32 -9 40 -8
12 -10 12 -9 -5z"/>
</g>
</svg>
