<?xml version="1.0" standalone="no"?>
<!DOCTYPE svg PUBLIC "-//W3C//DTD SVG 20010904//EN"
 "http://www.w3.org/TR/2001/REC-SVG-20010904/DTD/svg10.dtd">
<svg version="1.0" xmlns="http://www.w3.org/2000/svg"
 width="1024.000000pt" height="1024.000000pt" viewBox="0 0 1024.000000 1024.000000"
 preserveAspectRatio="xMidYMid meet">

<g transform="translate(0.000000,1024.000000) scale(0.100000,-0.100000)"
fill="#000000" stroke="none">
<path d="M4235 9898 c-49 -33 -99 -100 -110 -147 -5 -26 -6 -26 -94 -26 -81 0
-90 -2 -125 -29 -42 -32 -42 -42 -1 -26 16 6 42 8 58 4 l30 -6 -39 -22 c-62
-35 -104 -113 -104 -194 0 -22 4 -31 11 -26 9 5 10 -44 4 -192 l-7 -199 -29
-37 c-56 -70 -72 -121 -67 -219 4 -78 9 -97 41 -161 l38 -73 -99 -145 -99
-145 -64 -6 c-66 -6 -99 -18 -134 -49 -11 -10 -49 -26 -85 -35 -116 -28 -573
-182 -750 -252 -145 -57 -294 -133 -369 -188 -122 -90 -237 -262 -275 -411 -9
-34 -20 -101 -25 -150 -6 -49 -23 -138 -39 -199 -120 -452 -209 -880 -287
-1390 -15 -93 -40 -242 -56 -330 -16 -88 -31 -178 -34 -200 -3 -22 -10 -69
-16 -105 -6 -36 -14 -150 -19 -255 -5 -104 -14 -208 -20 -230 -9 -30 -9 -69 0
-170 7 -71 17 -135 22 -142 5 -6 9 -85 9 -175 -1 -117 3 -178 14 -218 8 -30
18 -68 21 -85 l6 -30 -54 -3 c-333 -18 -718 -103 -808 -179 -30 -24 -30 -26
-30 -123 l0 -98 64 -56 63 -56 12 -128 c7 -70 16 -161 21 -202 5 -41 13 -127
19 -190 6 -63 18 -189 27 -279 13 -133 14 -168 3 -187 -15 -28 -34 -31 -44 -7
-6 16 -8 16 -16 -4 -5 -15 -14 -21 -24 -17 -8 3 -15 1 -15 -5 0 -6 -4 -11 -10
-11 -5 0 -10 9 -10 19 0 33 -17 33 -32 1 -13 -31 -38 -41 -38 -15 0 21 -7 19
-44 -11 l-31 -27 -11 39 -12 39 -7 -43 c-4 -23 -11 -42 -15 -42 -5 0 -15 -3
-23 -6 -11 -4 -17 4 -22 26 l-7 31 -21 -28 c-11 -16 -24 -32 -28 -37 -4 -5
-14 8 -23 28 -19 47 -36 46 -37 -1 0 -21 -3 -33 -5 -26 -4 8 -13 9 -30 3 -13
-5 -24 -6 -24 -2 0 4 -7 -2 -15 -12 -11 -14 -15 -16 -15 -5 -1 11 -3 11 -13
-2 -7 -9 -18 -14 -24 -12 -7 3 -13 -1 -13 -9 0 -10 -3 -9 -10 2 -6 9 -13 11
-17 5 -5 -5 -23 -11 -40 -12 -29 -2 -37 4 -72 55 -77 110 -73 111 -68 -11 l5
-109 -24 23 -24 22 0 -286 0 -286 30 -34 c16 -19 30 -37 30 -40 0 -3 -14 -8
-30 -12 -27 -6 -30 -11 -30 -44 0 -32 6 -41 40 -67 22 -16 40 -32 40 -36 0 -4
-12 -14 -27 -22 l-28 -14 30 -11 c40 -15 95 -44 101 -53 3 -4 -12 -16 -33 -27
-37 -18 -103 -75 -103 -87 0 -4 19 -4 42 0 24 3 75 6 113 7 l70 2 -3 -37 -3
-37 26 17 c25 16 28 16 56 0 16 -10 40 -27 53 -39 80 -76 345 -233 550 -326
l49 -22 -24 -26 -24 -26 25 7 c48 12 140 19 140 10 0 -5 -25 -29 -55 -52 -59
-46 -63 -67 -11 -59 182 30 192 31 226 14 18 -10 42 -17 53 -17 11 0 56 -15
101 -34 131 -54 407 -153 508 -182 81 -23 182 -51 213 -58 40 -11 79 -20 225
-56 l164 -40 2671 0 2670 0 100 24 c229 55 286 70 415 107 185 52 414 128 540
179 58 23 121 48 140 55 19 7 87 38 150 69 63 31 119 56 125 56 6 0 15 10 20
23 7 15 17 21 33 19 22 -3 223 93 336 161 45 27 64 34 77 26 26 -13 31 -11 27
10 -2 14 19 37 75 81 63 49 84 61 103 56 19 -5 24 -2 24 11 0 16 8 18 73 13
39 -4 80 -4 90 -2 18 4 24 22 8 22 -12 0 -71 49 -71 59 0 4 19 8 42 10 23 1
45 4 47 7 3 2 -11 17 -30 33 -32 27 -33 30 -14 37 11 4 32 17 48 28 l27 20 0
164 c0 153 -1 164 -17 157 -16 -7 -106 -38 -153 -53 -9 -3 -1 -8 18 -12 79
-18 45 -45 -70 -57 -32 -3 -58 -10 -58 -14 0 -5 8 -9 17 -9 56 0 -78 -38 -139
-39 -36 -1 -36 -17 -2 -25 42 -11 16 -25 -77 -41 -46 -8 -86 -15 -89 -16 -3 0
5 -4 18 -9 12 -5 22 -14 22 -21 0 -7 -31 -10 -101 -7 -70 2 -95 0 -83 -7 29
-17 70 -54 59 -55 -5 0 -35 7 -65 14 -52 14 -54 14 -30 -2 46 -32 75 -60 68
-67 -4 -4 -27 -2 -52 4 -25 6 -71 11 -103 10 l-58 -1 42 -11 c56 -16 81 -40
63 -61 -16 -21 -39 -20 -129 4 -94 25 -130 26 -86 3 39 -20 66 -44 60 -53 -2
-4 -62 -5 -132 -2 l-128 4 25 -27 25 -27 -75 7 c-41 3 -95 8 -120 11 -42 4
-44 4 -25 -11 45 -35 55 -46 55 -60 0 -19 -7 -19 -60 0 -23 8 -45 15 -47 15
-3 0 14 -18 37 -41 46 -45 47 -55 4 -38 -42 16 -228 68 -232 64 -2 -1 13 -12
32 -24 59 -37 114 -114 69 -96 -44 17 -197 35 -285 32 -94 -2 -104 -7 -57 -31
24 -12 66 -63 58 -71 -3 -2 -21 0 -40 5 -29 9 -268 50 -291 50 -22 0 -3 -17
36 -33 39 -16 112 -75 103 -84 -2 -2 -35 1 -73 6 -114 16 -265 22 -333 14
l-64 -8 51 -32 c60 -37 68 -58 20 -49 -173 32 -271 26 -318 -19 -30 -28 -30
-28 -52 -9 -13 10 -25 21 -28 24 -41 42 -168 110 -204 110 -23 0 -25 -2 -16
-26 6 -14 30 -52 55 -83 25 -32 45 -60 45 -64 0 -4 -17 0 -37 9 -72 31 -139
45 -243 50 l-105 5 29 -23 c77 -62 77 -60 18 -53 -29 3 -94 17 -145 30 -50 13
-94 22 -96 20 -2 -3 1 -10 6 -17 5 -7 22 -35 38 -62 l28 -49 -44 7 c-58 9
-184 53 -236 81 l-43 24 0 -54 c0 -30 -4 -56 -9 -59 -4 -3 -20 19 -33 50 l-25
55 -13 -48 c-18 -67 -25 -71 -50 -27 l-21 39 6 -47 c4 -28 2 -48 -3 -48 -5 0
-29 11 -53 24 -24 14 -74 36 -110 49 l-66 25 -6 -65 c-6 -83 -18 -95 -47 -48
-32 51 -68 84 -119 107 -47 22 -60 16 -61 -27 -1 -35 -15 -45 -76 -56 -62 -11
-114 -1 -114 22 0 16 -47 -16 -95 -65 -40 -41 -40 -41 -43 -15 -2 14 1 44 6
67 11 48 5 52 -28 17 -37 -40 -130 -109 -137 -102 -3 4 0 27 6 53 7 25 10 49
7 51 -2 3 -38 -14 -79 -36 -42 -23 -78 -41 -81 -41 -11 0 -6 20 19 72 14 28
24 53 22 54 -1 2 -38 -24 -82 -56 -95 -70 -110 -74 -101 -25 3 19 9 51 12 70
l6 34 -53 -29 c-30 -16 -80 -38 -111 -50 -71 -26 -271 -80 -277 -75 -2 2 18
30 45 62 84 99 84 97 -2 58 -151 -70 -164 -71 -104 -10 24 25 39 45 33 45 -24
0 -161 -31 -246 -56 -49 -14 -90 -24 -92 -22 -2 2 10 34 26 72 16 37 29 70 29
72 0 6 -59 -25 -95 -50 -16 -12 -56 -45 -88 -73 -59 -54 -84 -66 -73 -37 3 9
9 28 13 42 3 15 15 42 25 61 23 41 19 47 -19 28 -15 -8 -53 -22 -83 -32 -30
-10 -83 -31 -117 -46 -38 -17 -63 -24 -63 -17 0 7 17 32 38 57 21 25 41 51 45
57 6 11 -124 -26 -196 -55 -47 -18 -60 -15 -45 12 7 12 13 30 14 39 1 14 -3
15 -25 7 -55 -21 -110 -60 -158 -113 -28 -30 -53 -52 -57 -49 -3 4 -6 27 -6
53 0 45 -1 47 -26 42 -24 -4 -26 -3 -19 19 4 13 18 45 31 71 13 26 24 50 24
53 0 8 -111 -50 -161 -84 -24 -16 -60 -46 -78 -65 -19 -20 -39 -36 -43 -36
-14 0 -9 38 12 97 11 31 19 58 17 59 -1 2 -35 -24 -75 -57 -68 -56 -72 -58
-72 -34 0 14 7 42 15 62 8 20 14 38 12 40 -3 2 -37 -12 -78 -32 -40 -19 -87
-35 -103 -35 l-30 0 30 31 c25 27 26 30 8 25 -20 -6 -156 -32 -219 -42 -27 -4
-28 -3 -13 9 10 8 15 17 12 20 -3 3 7 12 24 21 16 8 32 12 36 9 3 -4 6 0 6 9
0 8 6 15 13 16 27 1 57 11 80 27 13 8 41 17 61 19 24 1 42 10 52 25 12 16 19
20 27 12 16 -16 49 -14 75 5 12 8 26 13 32 9 5 -3 14 5 21 17 7 12 19 29 26
37 13 12 15 12 13 -5 -1 -10 -2 -24 -1 -31 1 -14 27 -11 42 4 6 6 17 9 24 7 7
-3 19 5 27 18 47 70 76 80 62 21 l-7 -28 23 20 c14 12 24 16 27 9 2 -7 18 -4
44 9 34 17 42 18 50 6 7 -11 9 -11 9 4 0 9 5 17 10 17 6 0 10 -8 10 -17 0 -15
4 -14 19 6 10 13 23 21 30 17 6 -4 11 -2 11 4 0 6 16 10 38 9 20 -2 47 3 60 9
59 31 62 32 62 21 0 -8 4 -8 15 1 8 6 19 9 25 5 5 -3 10 1 10 9 0 19 31 21 48
4 9 -9 12 -8 12 5 0 13 9 17 35 17 20 0 49 7 65 15 17 9 30 12 30 8 0 -4 5 -2
12 5 7 7 20 12 29 12 10 0 19 6 22 13 3 9 7 9 20 -2 13 -10 17 -10 17 -1 0 7
7 10 15 6 8 -3 19 2 24 12 6 11 20 15 45 14 20 -2 36 2 36 7 0 5 17 15 38 22
50 16 80 37 87 60 9 28 25 23 25 -8 l0 -27 35 38 c36 40 60 43 59 8 0 -12 3
-19 8 -16 4 3 8 13 8 23 0 25 27 88 53 122 20 28 41 37 50 22 5 -9 -16 -107
-28 -138 -8 -18 -7 -19 8 -6 12 9 17 10 17 2 0 -13 58 25 78 52 7 9 31 26 53
37 37 19 39 19 39 2 0 -9 -6 -27 -14 -38 -13 -19 -13 -20 4 -19 11 1 23 4 26
8 14 13 43 7 46 -10 5 -21 -11 -63 -24 -63 -4 0 -7 -4 -6 -9 2 -6 -28 -33 -67
-60 -38 -28 -76 -56 -84 -63 -8 -7 -21 -15 -28 -18 -8 -3 -9 -10 -3 -20 6 -10
25 -15 55 -15 32 0 44 -4 40 -13 -4 -10 0 -10 17 -1 15 8 23 9 26 1 2 -7 32
-9 84 -6 l81 5 -24 -20 c-24 -20 -24 -20 -2 -16 14 2 27 -3 33 -13 5 -10 10
-12 10 -4 0 14 36 16 45 2 3 -5 19 5 35 23 l28 32 7 -28 c6 -21 10 -25 20 -17
7 6 30 13 51 15 22 2 41 5 44 6 3 1 8 1 13 0 4 0 7 4 7 10 0 5 9 9 20 7 10 -2
26 6 34 17 10 12 19 16 23 10 10 -13 49 -12 46 1 -1 5 13 10 30 9 20 0 37 7
45 18 13 17 15 17 26 2 11 -15 13 -15 25 -1 9 10 21 14 33 10 13 -4 29 2 45
18 22 20 25 20 19 4 -5 -16 -4 -17 9 -6 9 7 18 10 22 7 3 -4 11 -3 17 2 6 4
26 11 44 14 25 5 31 4 26 -6 -4 -6 1 -5 12 5 10 9 36 19 57 23 20 4 40 11 43
16 3 5 10 9 15 9 6 0 7 -5 4 -10 -3 -6 -2 -10 4 -10 5 0 11 5 13 11 2 5 11 11
20 12 9 2 23 9 32 16 9 7 23 10 32 7 10 -4 27 5 46 24 42 43 63 37 38 -11 -7
-13 -7 -19 0 -19 5 0 10 5 10 11 0 5 8 9 18 7 11 -2 27 3 36 11 15 13 19 13
26 0 8 -12 11 -11 22 4 7 10 25 19 38 21 14 2 33 7 42 11 9 4 22 4 28 0 5 -3
13 1 16 9 3 9 15 16 25 16 10 0 19 5 19 10 0 6 12 10 26 10 16 0 34 10 46 25
28 35 42 32 35 -9 -5 -30 -3 -34 11 -29 9 3 23 11 31 17 11 8 15 8 19 -2 3
-10 9 -9 29 3 14 9 27 14 31 11 3 -3 13 1 23 10 10 9 25 14 33 11 9 -4 18 -1
22 4 3 6 15 9 25 6 11 -3 19 -2 19 2 0 14 49 31 56 20 4 -7 14 0 24 16 12 19
19 23 23 13 4 -10 8 -10 16 2 9 12 13 13 20 1 7 -10 12 -8 24 9 18 25 41 18
34 -11 -8 -31 7 -22 33 21 29 47 46 47 42 0 -3 -30 -2 -32 12 -21 8 7 18 21
21 32 4 10 10 19 15 19 5 0 7 -8 4 -17 -4 -12 1 -9 15 7 11 14 21 29 21 34 0
5 7 3 15 -4 12 -10 19 -10 27 -2 17 17 31 15 24 -4 -5 -13 0 -12 29 5 44 25
49 26 41 4 -5 -13 0 -11 18 6 22 21 29 23 51 13 20 -9 26 -8 35 6 8 14 11 14
19 3 7 -10 13 -11 31 -1 18 10 24 9 32 -1 7 -11 11 -11 15 -1 2 7 13 17 24 22
14 8 17 7 13 -4 -7 -18 41 -16 76 3 18 11 25 11 28 2 3 -9 10 -7 23 5 13 12
19 13 19 4 0 -8 4 -9 12 -3 7 5 26 10 42 11 16 1 34 6 41 12 6 5 15 7 18 4 3
-3 11 -3 17 1 7 4 33 9 59 11 27 2 51 10 58 20 6 9 16 13 22 10 5 -4 16 3 25
15 12 18 18 20 30 10 9 -8 16 -8 20 -2 4 6 13 8 21 4 8 -3 15 0 15 6 0 7 8 15
18 18 9 4 22 14 29 22 11 14 12 14 13 -4 1 -18 3 -17 26 9 17 20 28 25 33 18
5 -9 12 -8 27 3 10 8 27 15 37 15 9 0 17 5 17 11 0 6 6 9 14 6 8 -3 20 1 27 9
10 12 14 12 20 2 6 -9 13 -8 28 6 16 15 24 16 35 7 11 -9 16 -9 21 -1 4 7 18
10 31 7 14 -2 27 0 30 4 8 13 44 11 44 -3 0 -6 -7 -18 -15 -27 -9 -9 -29 -33
-45 -55 -17 -21 -30 -35 -30 -31 0 5 -9 0 -19 -9 -12 -11 -17 -25 -13 -38 3
-14 1 -19 -6 -14 -7 4 -12 1 -12 -8 0 -9 -6 -16 -13 -16 -11 0 -23 -21 -46
-82 -10 -26 -9 -28 14 -28 14 0 25 4 25 9 0 5 18 12 40 16 30 5 40 11 40 26 0
24 9 24 26 2 13 -17 13 -17 14 0 0 19 20 24 20 5 1 -7 7 -2 14 11 9 16 15 20
21 12 4 -7 14 -9 24 -6 9 4 21 8 26 9 6 2 24 9 40 16 17 7 41 15 55 17 13 2
29 8 35 12 5 5 26 11 45 14 69 12 95 18 105 26 5 4 24 7 40 6 17 0 39 5 50 12
23 15 39 17 30 3 -8 -13 1 -13 26 0 13 7 19 7 19 1 0 -7 9 -7 25 -1 14 5 29 9
33 9 4 -1 9 0 12 1 7 3 63 8 125 11 28 1 55 6 62 11 7 5 14 4 18 -2 5 -8 13
-6 26 6 18 16 19 16 19 -1 0 -16 2 -16 25 -1 22 14 25 15 25 1 0 -13 3 -13 21
-3 17 10 23 10 26 1 3 -9 10 -10 23 -3 10 5 25 7 33 4 9 -3 25 -1 36 6 12 6
21 7 21 2 0 -4 37 -7 83 -6 45 2 82 4 82 5 0 2 34 8 80 13 22 3 40 6 40 7 0 1
10 3 23 5 12 2 32 6 45 8 12 2 22 4 22 5 0 1 15 4 33 7 18 2 42 9 53 14 11 6
24 8 29 5 5 -3 12 0 15 6 4 5 13 8 20 5 7 -2 16 -2 19 2 4 3 16 7 28 9 12 2
27 8 34 14 6 5 16 9 20 7 14 -3 85 30 127 59 21 15 47 43 58 62 l20 36 -7 -33
c-7 -39 0 -41 21 -4 10 16 14 19 11 7 l-6 -20 16 20 c29 36 55 105 61 160 7
64 -17 122 -71 174 l-35 34 24 -59 c30 -76 38 -140 22 -184 -15 -44 -28 -41
-45 10 -21 62 -24 59 -76 -71 -15 -36 -40 -81 -56 -100 l-30 -34 16 39 c10 26
13 52 8 79 l-6 41 -19 -49 c-20 -53 -57 -100 -45 -57 3 12 8 32 11 45 5 20 5
21 -7 4 -7 -10 -22 -28 -32 -40 -18 -20 -19 -21 -12 -2 27 69 30 110 5 63 -13
-25 -51 -65 -57 -60 -2 2 -7 0 -10 -4 -4 -4 -1 -4 6 0 20 11 14 -9 -8 -29 -20
-18 -21 -18 -14 1 6 16 2 15 -22 -7 -35 -31 -97 -69 -113 -69 -8 0 -10 8 -5
22 7 22 6 22 -17 5 -35 -25 -85 -47 -109 -47 -12 0 -18 -4 -15 -10 5 -8 -39
-15 -47 -8 -2 2 -16 -6 -33 -18 -41 -29 -55 -36 -55 -30 0 3 19 18 43 35 46
32 101 95 95 111 -2 6 -16 -2 -31 -16 -17 -15 -40 -26 -55 -26 -15 0 -51 -6
-81 -14 -30 -8 -102 -13 -165 -13 -61 0 -170 -7 -241 -15 -72 -9 -173 -21
-225 -27 -52 -6 -113 -17 -135 -24 -32 -11 -80 -23 -115 -30 -30 -6 -80 -29
-80 -36 0 -6 -5 -7 -11 -4 -6 4 -17 -2 -25 -14 -8 -12 -21 -21 -27 -21 -8 0
-8 3 -2 8 6 4 11 22 11 39 2 42 79 150 136 192 26 20 36 31 25 31 -19 0 -98
-46 -109 -64 -4 -6 -9 -8 -12 -6 -9 10 69 127 99 149 104 76 101 73 75 66 -14
-4 -32 -10 -40 -12 -8 -3 1 10 20 27 47 42 164 98 236 111 33 7 63 16 69 21
11 10 -76 1 -119 -13 -16 -5 -31 -7 -34 -5 -7 8 91 53 153 71 80 23 80 23 43
49 -18 12 -39 34 -46 49 -7 15 -16 27 -20 27 -15 0 -3 89 27 204 41 156 41
269 1 221 -20 -24 -30 -17 -20 13 15 44 39 204 36 239 -1 18 -5 36 -10 40 -9
10 -26 -16 -26 -41 0 -11 -4 -33 -9 -50 -57 -185 -71 -242 -77 -311 l-6 -80
-42 84 c-22 47 -46 86 -52 88 -13 4 -24 -28 -24 -70 0 -15 -7 -30 -15 -33 -17
-7 -35 -64 -35 -112 0 -53 -13 -36 -88 115 -16 31 -40 87 -47 108 -6 19 -7 19
-20 2 -7 -11 -16 -49 -20 -85 -3 -37 -9 -85 -12 -107 -5 -35 -7 -37 -14 -17
-5 12 -13 22 -19 22 -5 0 -10 9 -10 19 0 11 -4 22 -9 25 -11 7 -38 108 -46
176 -4 30 -16 89 -27 130 -24 90 -24 126 -3 295 42 349 150 531 336 565 l54 9
-66 -3 c-37 -2 -71 -1 -76 3 -14 9 -46 84 -98 226 -43 120 -175 619 -191 722
l-7 45 43 -31 c44 -32 76 -41 67 -18 -64 153 -117 279 -130 304 -24 46 -22 52
22 46 44 -6 81 10 81 35 0 10 -13 31 -29 46 -26 25 -28 32 -20 59 18 64 10
114 -31 202 -40 84 -62 117 -34 50 20 -49 18 -85 -4 -85 -30 0 -49 22 -67 79
-12 36 -20 49 -26 40 -4 -8 -3 -16 3 -20 17 -11 29 -96 17 -127 l-11 -27 -20
25 c-11 14 -40 47 -64 73 -24 26 -44 52 -44 57 0 5 -6 13 -12 17 -7 5 -26 23
-42 41 -23 24 -27 35 -18 44 9 9 16 7 29 -8 21 -24 79 -54 102 -54 9 1 -3 11
-26 23 -24 12 -50 33 -59 46 -14 20 -23 23 -60 18 -24 -2 -45 -2 -48 0 -3 3 6
35 19 72 22 60 24 80 23 208 l-2 143 37 37 c21 20 45 49 53 65 18 35 27 35 41
1 l10 -28 13 30 c8 17 14 62 13 106 -1 60 -6 85 -27 126 -18 36 -22 53 -14 55
7 3 -2 10 -20 16 -17 6 -32 9 -32 7 0 -2 15 -27 33 -56 29 -48 32 -60 34 -143
2 -50 0 -84 -4 -76 -3 8 -14 39 -25 68 -11 29 -24 50 -29 46 -5 -3 -7 -8 -5
-12 2 -4 0 -31 -5 -61 -8 -52 -33 -96 -50 -86 -4 3 -15 -5 -23 -17 -21 -29
-20 -24 4 40 20 53 26 137 11 160 -5 9 -10 -5 -14 -38 -9 -76 -76 -205 -137
-265 -27 -27 -50 -45 -50 -39 0 6 11 21 25 34 14 13 25 28 25 34 0 6 -22 -13
-50 -42 -105 -112 -200 -180 -277 -196 -29 -7 -34 -4 -57 31 -103 155 -115
348 -41 641 20 79 34 146 31 149 -3 3 -10 -5 -15 -18 -7 -18 -10 -4 -11 61 -1
127 -14 128 -34 3 -10 -59 -18 -114 -19 -120 0 -7 -8 -13 -17 -13 -9 0 -22 6
-30 13 -7 6 -2 -3 13 -21 31 -38 34 -79 13 -157 -10 -37 -15 -46 -21 -32 -13
31 -23 18 -14 -20 5 -21 9 -84 9 -139 0 -56 5 -126 11 -155 6 -30 12 -80 14
-112 4 -71 41 -149 103 -219 30 -33 52 -48 69 -48 27 0 165 96 223 155 19 19
39 34 45 32 15 -5 29 -147 19 -193 -9 -38 -9 -38 -12 24 -2 52 -6 62 -21 62
-15 0 -21 -13 -30 -76 -6 -42 -9 -79 -7 -82 2 -4 0 -16 -4 -27 -5 -14 -9 -4
-14 38 -5 39 -12 57 -22 57 -8 0 -14 -10 -14 -24 0 -13 -7 -29 -15 -36 -9 -7
-15 -28 -14 -49 1 -33 2 -34 10 -11 6 17 7 7 3 -30 -5 -50 -55 -180 -69 -180
-3 0 -3 55 -1 123 4 95 3 112 -5 77 -5 -25 -14 -65 -20 -90 -13 -57 -51 -134
-94 -188 l-34 -43 2 50 c2 28 1 51 0 51 -1 0 -12 -18 -23 -40 -29 -58 -131
-161 -186 -190 -27 -14 -70 -37 -97 -52 -26 -16 -50 -28 -53 -28 -2 0 18 35
44 77 42 67 92 165 92 180 0 3 -20 -20 -44 -51 -47 -60 -184 -177 -238 -202
-65 -30 -87 -45 -112 -74 -13 -17 -29 -30 -33 -30 -5 0 -15 -6 -21 -13 -28
-27 -50 -8 -51 46 -1 19 -6 27 -18 27 -19 0 -42 42 -64 114 -25 85 15 207 128
383 17 28 17 28 -2 14 -11 -8 -37 -33 -58 -55 l-38 -41 36 60 c48 77 85 116
165 173 115 81 169 142 210 237 17 40 18 46 4 52 -17 6 -52 -9 -99 -44 -17
-12 -69 -32 -115 -43 -47 -11 -110 -27 -140 -35 -60 -16 -130 -20 -114 -7 5 4
34 16 64 26 186 63 333 190 455 396 21 36 45 75 52 88 13 21 15 21 48 8 33
-14 34 -14 22 5 -17 30 -82 60 -114 55 -14 -3 -58 -21 -97 -40 -119 -57 -171
-80 -179 -78 -5 1 -6 -2 -3 -7 10 -15 -74 -42 -213 -67 -47 -8 -91 -12 -98
-10 -18 7 -44 -4 -37 -15 10 -16 -40 -8 -71 11 -16 11 -43 27 -60 36 -16 8
-58 34 -92 57 -48 32 -65 50 -73 77 -5 19 -6 37 -2 41 4 3 36 27 72 52 83 58
97 73 105 119 12 62 -19 83 -195 130 -43 12 -43 12 -15 16 17 2 80 -2 140 -9
121 -13 390 -18 372 -7 -7 4 -24 8 -39 8 -26 0 -28 3 -28 45 0 48 -13 58 -36
28 -13 -17 -14 -17 -8 2 8 23 44 65 56 65 5 0 6 -11 2 -24 -3 -13 -1 -27 6
-31 8 -5 10 4 8 30 -4 44 -28 66 -55 49 -25 -15 -45 -60 -51 -111 -4 -42 -6
-43 -39 -43 -29 0 -34 3 -30 18 3 9 13 37 21 62 8 25 23 72 33 105 14 46 26
65 52 82 33 22 35 22 55 6 18 -16 19 -16 7 -1 -7 9 -9 23 -5 29 4 7 0 17 -10
24 -24 18 -11 39 58 91 75 57 158 96 254 119 102 24 307 17 405 -15 38 -12 71
-20 73 -17 9 9 -154 50 -226 58 -87 9 -240 -4 -320 -27 -85 -24 -202 -90 -268
-150 -67 -60 -99 -118 -125 -224 -9 -36 -26 -87 -37 -114 -19 -41 -25 -47 -43
-42 -49 14 -236 19 -283 7 -82 -21 -81 -17 -78 -215 3 -182 9 -213 55 -278 25
-35 90 -68 134 -68 17 0 49 9 73 20 l44 20 36 -29 c20 -16 52 -32 70 -36 17
-4 32 -10 32 -13 -1 -4 -26 -23 -57 -42 -75 -48 -143 -124 -189 -214 l-39 -76
-72 0 c-67 0 -89 -9 -63 -25 6 -3 10 -2 10 3 0 7 98 -3 107 -12 1 -1 -5 -22
-13 -46 -31 -88 -16 -211 30 -249 27 -23 18 -28 -61 -35 -43 -3 -95 -9 -115
-12 -22 -3 -38 -2 -38 4 0 6 -20 12 -44 13 -25 2 -42 0 -38 -5 3 -5 -2 -7 -11
-3 -10 3 -17 2 -17 -3 0 -21 -21 -9 -40 22 l-19 32 5 -42 c4 -37 2 -42 -15
-42 -11 0 -22 6 -24 13 -3 6 -6 2 -6 -10 -2 -44 -27 -23 -49 40 -36 103 -61
202 -53 210 4 4 20 -24 36 -63 15 -38 30 -69 31 -67 2 2 -5 36 -16 75 -11 39
-20 76 -20 82 0 23 18 7 35 -30 33 -74 37 -59 10 41 -14 55 15 38 50 -28 20
-37 33 -59 29 -48 -3 11 -15 46 -26 78 -25 72 -12 97 21 41 27 -46 37 -39 16
12 -18 43 -13 69 11 60 12 -4 15 -2 10 9 -3 9 7 27 24 45 33 34 44 74 14 49
-15 -13 -17 -11 -12 19 6 45 -10 41 -79 -16 -78 -65 -195 -143 -268 -180 -72
-35 -335 -136 -341 -130 -9 10 96 67 198 109 59 24 108 48 108 53 0 5 7 14 15
20 13 9 16 37 17 145 1 82 -3 135 -9 139 -6 4 -13 17 -17 29 -5 15 -31 34 -79
57 -40 19 -110 63 -155 98 -125 94 -134 99 -165 94 -25 -5 -29 -1 -57 62 -25
54 -29 71 -20 90 16 37 13 49 -49 202 -99 241 -140 405 -160 631 l-9 111 -68
102 c-38 55 -109 155 -159 221 -49 66 -103 140 -118 164 l-29 43 48 49 c27 27
52 49 57 49 4 0 23 -11 40 -24 49 -37 124 -58 209 -60 72 -1 79 1 107 28 16
16 46 59 66 95 19 36 60 109 90 161 30 52 55 102 55 112 0 12 13 21 41 28 72
20 88 50 73 143 -10 59 -21 43 -16 -23 4 -48 1 -60 -10 -60 -8 0 -20 15 -26
33 l-11 32 5 -32 6 -33 -86 0 c-46 0 -97 5 -112 10 -15 6 -29 8 -32 6 -2 -3 7
-30 22 -60 19 -38 25 -65 23 -91 -4 -36 -4 -36 13 -18 10 10 27 34 37 53 12
20 29 36 41 38 29 4 28 -12 -6 -73 -20 -38 -34 -51 -57 -56 -16 -4 -22 -7 -12
-8 9 0 17 -5 17 -10 0 -18 -111 -206 -131 -223 -21 -18 -59 -25 -59 -11 0 3 7
14 16 24 8 9 22 43 30 76 18 70 26 112 18 96 -3 -7 -14 -13 -25 -13 -16 0 -19
-7 -19 -54 0 -47 -4 -57 -35 -91 -34 -35 -37 -37 -83 -30 -26 3 -72 19 -103
33 -64 31 -192 139 -182 155 3 5 1 7 -4 4 -6 -4 -18 2 -28 13 -10 11 -15 20
-11 20 8 0 -23 50 -46 73 -10 10 -23 15 -30 11 -6 -4 -8 -3 -5 3 4 6 -6 21
-21 35 -15 14 -33 34 -40 44 -7 10 -10 12 -7 4 4 -8 -8 1 -24 20 -17 19 -29
41 -26 48 2 7 1 11 -4 8 -16 -10 -31 72 -31 168 0 106 -13 136 -58 136 -14 0
-47 8 -74 18 -83 28 -147 122 -155 227 -10 118 56 223 152 243 157 32 252
-121 200 -321 -8 -32 -15 -61 -15 -66 0 -8 100 -34 107 -28 2 2 10 40 18 83 8
43 28 104 43 134 26 53 32 57 137 112 82 43 109 62 108 75 -1 10 -5 63 -9 118
-6 93 -5 102 15 127 12 15 46 39 76 54 30 14 55 30 55 35 0 4 -20 22 -45 39
-25 17 -45 32 -45 34 0 10 212 -88 420 -193 129 -66 256 -125 283 -131 l47
-12 0 -117 c0 -64 7 -147 15 -185 17 -79 20 -70 -72 -171 -35 -37 -63 -61 -63
-53 0 18 -26 43 -32 30 -1 -4 -14 -5 -28 -1 -16 4 -19 7 -7 8 9 1 17 7 17 14
1 25 50 50 90 44 35 -4 39 -2 53 29 16 33 16 33 -14 58 -17 15 -36 26 -43 26
-18 0 -134 -136 -158 -185 -19 -39 -19 -47 -8 -116 l13 -74 13 32 c7 17 18 34
24 38 5 3 10 16 10 28 0 18 2 19 11 7 8 -12 10 -12 7 5 -2 11 -13 24 -26 30
-31 14 -28 25 7 25 34 0 63 -32 54 -59 -4 -9 13 9 37 39 24 30 66 79 93 108
46 49 49 56 43 90 -19 110 -27 195 -24 262 l3 75 58 6 c32 4 60 9 64 12 3 4
-17 4 -44 0 -55 -6 -82 11 -33 21 37 7 176 95 210 132 l25 26 -35 -21 c-41
-25 -181 -71 -213 -71 -17 1 -13 5 18 22 68 36 107 71 146 131 57 87 77 162
34 127 -23 -19 -27 -7 -11 31 8 19 20 68 27 110 10 62 10 85 -1 123 -18 64
-26 64 -22 1 4 -60 -13 -101 -61 -152 -35 -37 -53 -43 -37 -13 20 37 50 174
49 225 -1 82 -15 99 -21 27 -6 -65 -37 -130 -79 -167 -22 -20 -22 -20 -15 0
30 76 54 155 47 155 -4 0 -16 -9 -27 -21 -30 -33 -94 -66 -159 -82 -74 -19
-165 -31 -165 -23 0 4 11 23 23 44 55 86 55 86 -10 52 -147 -76 -311 -62 -543
47 -90 43 -98 44 -165 40 -38 -3 -79 -8 -90 -12 -16 -5 -14 -1 8 19 15 14 44
28 65 31 20 4 46 10 57 15 15 7 10 9 -23 9 -49 1 -85 -15 -160 -71 l-53 -40
16 33 c10 17 31 45 48 61 42 37 22 36 -38 -4z m480 -245 c25 -3 48 -10 52 -16
3 -6 2 -7 -4 -4 -5 3 -35 7 -66 8 -31 1 -54 5 -52 9 2 3 -17 16 -43 28 -26 12
-58 31 -72 42 -14 12 11 3 57 -20 46 -22 103 -43 128 -47z m68 -50 c-13 -2
-33 -2 -45 0 -13 2 -3 4 22 4 25 0 35 -2 23 -4z m87 -17 c0 -9 -30 -14 -35 -6
-4 6 3 10 14 10 12 0 21 -2 21 -4z m-931 -1145 c54 -28 60 -39 72 -132 13
-110 70 -357 114 -492 l34 -108 -38 -37 c-88 -85 -158 -145 -167 -143 -5 1 -9
9 -10 19 -4 75 -6 76 -21 12 -8 -36 -15 -104 -16 -152 -1 -49 -5 -88 -9 -88
-4 0 -13 9 -20 20 -7 11 -18 20 -25 20 -19 0 -97 96 -152 188 -76 128 -151
337 -170 476 l-8 59 51 51 c28 28 62 65 76 81 81 98 109 135 133 177 15 26 35
52 45 57 27 16 69 13 111 -8z m-329 -210 c21 -2 2 -15 -50 -35 -25 -10 -55
-27 -68 -39 -33 -31 -49 -9 -21 27 25 32 71 54 103 51 11 -1 28 -3 36 -4z
m-585 -341 c-3 -5 -12 -10 -18 -10 -7 0 -6 4 3 10 19 12 23 12 15 0z m-75 -30
c0 -5 -8 -10 -17 -10 -15 0 -16 2 -3 10 19 12 20 12 20 0z m-180 -64 c0 -2 -9
-6 -20 -9 -11 -3 -18 -1 -14 4 5 9 34 13 34 5z m-50 -16 c0 -5 -5 -10 -11 -10
-5 0 -7 5 -4 10 3 6 8 10 11 10 2 0 4 -4 4 -10z m1590 -78 c0 -25 -274 -291
-287 -279 -12 12 32 64 145 175 105 101 142 128 142 104z m51 -69 c18 -27 67
-93 109 -148 42 -55 93 -125 114 -155 20 -30 53 -77 72 -104 27 -38 34 -58 34
-95 0 -135 -162 -575 -315 -855 -72 -131 -203 -333 -231 -357 -16 -13 -16 -12
-7 6 6 11 41 70 78 130 129 213 225 434 269 616 31 133 38 177 42 301 4 120 3
131 -19 172 -28 54 -43 49 -56 -20 -17 -85 -57 -228 -83 -296 -19 -52 -28 -28
-28 77 0 57 -9 185 -19 282 -11 98 -23 219 -27 268 l-8 90 -7 -115 c-8 -117
-54 -307 -93 -376 l-16 -29 6 40 c4 22 6 42 6 45 0 23 -5 30 -21 30 -16 0 -13
6 15 34 40 40 44 72 10 88 -24 10 -24 11 -6 27 30 27 61 129 67 224 4 64 10
87 19 87 8 0 13 4 12 9 -3 12 34 71 44 71 4 0 22 -21 39 -47z m-1520 -40 c13
-16 12 -17 -3 -4 -10 7 -18 15 -18 17 0 8 8 3 21 -13z m813 -29 c3 -8 2 -12
-4 -9 -6 3 -10 10 -10 16 0 14 7 11 14 -7z m486 -163 c0 -5 -7 -12 -16 -15 -8
-3 -12 -10 -9 -16 3 -5 0 -7 -8 -4 -15 5 -50 -33 -42 -46 3 -5 -71 -7 -99 -2
-12 3 24 42 38 42 6 0 34 11 61 24 54 26 75 31 75 17z m-80 -110 c36 -10 5
-19 -44 -13 -26 3 -34 7 -25 13 16 10 33 10 69 0z m653 -338 c4 -27 10 -79 13
-117 4 -39 13 -81 21 -95 7 -14 13 -32 13 -40 0 -22 44 -143 105 -291 30 -74
55 -139 55 -146 0 -18 -50 -74 -66 -74 -8 0 -14 8 -14 18 -1 9 -9 35 -20 57
-11 22 -19 50 -20 63 0 12 -4 22 -8 22 -5 0 -19 35 -31 77 l-24 78 -58 -65
c-33 -35 -59 -58 -59 -50 0 8 16 57 35 108 45 118 44 142 -1 66 -39 -66 -70
-101 -80 -91 -3 3 8 51 24 107 17 55 46 172 64 260 17 88 35 160 39 160 3 0 9
-21 12 -47z m1411 -569 c20 -8 21 -34 2 -34 -8 0 -24 9 -37 20 -24 19 -24 19
-2 20 12 0 28 -3 37 -6z m-3304 -114 c36 -6 85 -21 110 -33 l45 -22 16 -91 c8
-50 14 -100 13 -110 -2 -10 3 -25 9 -33 7 -8 11 -16 9 -18 -7 -7 10 -63 19
-63 5 0 9 -4 9 -10 0 -5 -12 -10 -27 -10 -29 0 -160 -57 -151 -65 2 -3 38 7
79 21 66 23 84 25 174 20 68 -3 145 -16 240 -41 77 -20 176 -45 220 -57 169
-43 699 -31 762 18 16 12 10 13 -39 8 -32 -4 -58 -4 -58 -1 0 3 26 11 58 17
31 7 73 20 93 30 34 18 460 167 507 177 12 3 22 9 22 14 0 14 57 39 91 39 22
0 47 -13 90 -47 98 -80 131 -103 197 -134 73 -35 97 -65 88 -111 -3 -18 -6
-74 -7 -124 l-2 -91 -48 -16 -49 -15 0 26 c0 14 -5 52 -12 83 -10 47 -9 63 2
84 7 14 11 28 7 31 -3 3 -10 -3 -16 -14 -19 -35 -45 -15 -84 64 -21 41 -35 79
-32 84 4 7 -24 24 -31 18 -1 -2 3 -17 10 -33 87 -196 137 -331 125 -338 -2 -1
-26 -13 -53 -25 -39 -19 -51 -21 -57 -10 -5 7 -9 17 -9 22 0 15 -122 330 -131
341 -17 18 -9 -20 22 -105 17 -47 44 -129 61 -182 l31 -97 -37 -36 c-68 -64
-80 -52 -141 128 -21 63 -35 125 -35 155 0 29 -6 56 -16 68 -15 18 -15 18 -9
-11 4 -16 8 -58 10 -92 2 -35 6 -67 10 -73 3 -5 12 -43 19 -84 13 -78 12 -134
-3 -149 -17 -17 -64 4 -103 46 -21 23 -52 56 -68 74 -31 32 -31 32 -14 65 13
26 14 30 2 21 -8 -7 -37 -15 -64 -18 -27 -3 -73 -8 -101 -12 -36 -4 -69 0
-103 11 -55 18 -63 17 -260 -45 -157 -50 -344 -122 -353 -136 -4 -7 -17 -13
-27 -13 -11 0 -20 -7 -20 -16 0 -8 -4 -12 -10 -9 -5 3 -10 2 -10 -3 0 -5 -44
-17 -97 -26 -231 -39 -283 -50 -368 -81 -62 -22 -102 -31 -127 -27 -28 3 -38
0 -38 -9 0 -11 -3 -11 -10 1 -9 13 -11 13 -21 0 -9 -12 -10 -12 -5 4 5 16 2
18 -24 14 -16 -3 -30 -1 -30 4 0 5 -12 7 -27 5 -16 -2 -39 0 -53 6 -14 5 -47
15 -75 22 -27 7 -59 16 -70 20 -16 5 -17 5 -5 -4 13 -9 13 -11 -2 -11 -9 0
-24 7 -32 16 -15 14 -16 14 -16 0 0 -9 -4 -16 -10 -16 -5 0 -10 6 -10 13 0 17
-30 18 -49 3 -12 -9 -13 -8 -8 6 4 12 1 16 -13 13 -26 -5 -18 15 37 92 23 34
43 64 43 67 0 13 -30 -8 -35 -25 -6 -17 -9 -18 -22 -7 -13 10 -14 9 -11 -8 1
-12 -1 -21 -7 -22 -5 0 -9 6 -7 14 4 19 -8 18 -24 -3 -8 -11 -13 -13 -14 -5 0
7 -13 12 -30 12 -19 0 -30 5 -30 14 0 8 -5 18 -12 22 -7 4 -8 3 -4 -4 4 -7 2
-12 -3 -12 -6 0 -11 7 -11 15 0 9 -6 18 -14 21 -7 3 -35 34 -62 70 -27 35 -52
64 -57 64 -4 0 -6 3 -4 8 3 4 -1 13 -9 20 -19 17 -18 16 16 -90 41 -127 81
-194 126 -213 39 -16 78 -20 70 -7 -2 4 5 14 16 21 18 11 20 11 15 -3 -4 -9
-2 -16 4 -16 6 0 8 -9 4 -20 -5 -16 3 -25 40 -47 61 -37 100 -69 83 -71 -7 0
-74 -4 -148 -7 -133 -7 -135 -7 -157 17 -23 25 -49 88 -110 268 -20 58 -56
156 -80 219 -24 62 -55 154 -68 205 -13 50 -33 117 -45 148 -28 79 -26 99 13
125 72 49 169 84 322 116 41 9 232 7 295 -3z m3280 -207 c0 -18 -3 -33 -7 -33
-5 0 -19 -3 -32 -7 -16 -4 -22 -3 -17 5 4 6 -4 12 -21 14 -38 4 -53 39 -53
123 l0 70 65 -70 c52 -56 65 -76 65 -102z m-1164 72 c13 -31 24 -59 24 -64 0
-11 -192 -90 -292 -121 -43 -13 -24 12 37 49 49 30 95 73 167 159 14 18 29 32
33 32 3 0 17 -25 31 -55z m1951 -252 c-44 -59 -108 -121 -167 -160 -68 -45
-148 -85 -162 -81 -17 6 87 104 137 130 49 25 162 107 194 142 38 41 37 22 -2
-31z m967 -100 c3 -21 6 -56 6 -78 0 -70 -38 -241 -66 -297 -27 -55 -94 -152
-100 -146 -2 2 7 37 20 78 32 100 40 186 26 295 l-10 90 52 47 c29 26 56 48
59 48 4 0 9 -17 13 -37z m-1524 -23 c0 -17 -2 -19 -14 -8 -10 9 -11 15 -2 20
16 11 16 10 16 -12z m197 -15 c2 -1 -4 -10 -12 -21 -24 -31 -85 -136 -85 -146
0 -18 -33 -83 -52 -101 -24 -23 -23 -21 12 62 23 53 31 88 32 139 1 37 3 70 5
74 3 6 92 0 100 -7z m-310 -297 c-3 -7 -5 -2 -5 12 0 14 2 19 5 13 2 -7 2 -19
0 -25z m-1599 16 c12 -4 22 -10 22 -13 0 -15 -227 -113 -290 -127 -77 -17 -90
-17 -90 -4 0 23 102 78 225 121 86 30 98 32 133 23z m3325 -194 c67 -82 238
-273 250 -278 4 -2 7 -8 7 -13 0 -16 -29 -10 -80 16 -28 14 -50 23 -50 20 0
-3 11 -22 24 -43 39 -62 87 -162 123 -257 51 -134 52 -136 6 -92 -21 20 -44
37 -50 37 -7 0 -8 -12 -2 -37 14 -60 10 -207 -7 -290 -8 -42 -32 -108 -51
-147 -37 -74 -73 -130 -79 -124 -2 2 6 33 17 69 24 76 37 266 21 319 -10 35
-10 35 -11 -18 -1 -31 -5 -51 -11 -47 -5 3 -14 -11 -19 -32 -12 -43 -44 -212
-44 -230 0 -6 -6 -9 -14 -6 -8 3 -13 22 -14 47 l-1 41 -20 -65 c-11 -36 -23
-67 -28 -70 -8 -5 -48 -110 -57 -147 -3 -13 -11 -23 -19 -23 -14 0 -15 4 -34
103 -12 62 -24 72 -34 30 -13 -53 -89 -186 -168 -296 -79 -108 -166 -207 -185
-207 -5 0 -59 -47 -119 -104 -60 -57 -110 -103 -111 -102 -1 1 16 62 38 136
70 238 109 412 76 340 -7 -14 -21 -39 -33 -55 -11 -17 -35 -59 -54 -95 -18
-36 -40 -76 -49 -90 -9 -14 -24 -41 -34 -60 -10 -19 -46 -65 -80 -101 -64 -69
-84 -78 -172 -82 -39 -2 -40 -3 -47 -47 -3 -25 -7 -76 -7 -115 -1 -69 -1 -69
-21 -50 -22 23 -110 216 -110 243 0 13 -2 14 -9 3 -7 -11 -15 -6 -40 20 -17
19 -38 50 -47 69 -9 19 -22 48 -30 64 -8 16 -14 36 -14 45 0 9 -5 23 -11 31
-7 11 -9 4 -7 -27 1 -23 -1 -45 -5 -49 -7 -7 -8 4 -12 94 -1 23 -4 44 -7 47
-4 4 -12 -62 -31 -260 -3 -30 -3 -30 -26 15 -12 25 -35 70 -51 100 -16 30 -48
101 -71 157 -27 65 -47 99 -52 94 -10 -10 6 -268 19 -321 11 -43 -11 -10 -41
60 -15 36 -37 88 -50 115 -13 28 -35 87 -50 131 -22 67 -30 81 -45 77 -23 -6
-31 21 -39 127 -6 78 -8 83 -19 57 -6 -15 -18 -63 -26 -105 -8 -42 -14 -68
-15 -56 -1 11 -4 24 -8 28 -16 15 -19 120 -14 371 4 165 83 345 172 391 45 23
52 19 44 -28 -7 -42 -6 -42 10 -20 9 12 20 22 26 22 5 0 30 -21 57 -47 26 -27
62 -60 80 -75 l33 -27 -27 -52 c-24 -48 -26 -59 -19 -121 14 -150 50 -208 127
-208 35 0 46 6 85 48 74 79 87 113 88 220 1 99 4 106 55 119 14 3 61 23 105
43 44 21 91 41 105 45 24 7 53 18 128 51 39 17 45 17 36 3 -32 -52 286 137
389 231 36 33 86 89 111 123 26 34 50 67 54 72 18 23 76 146 103 220 31 86 48
122 63 143 12 16 44 -14 129 -118z m-3693 83 c0 -5 -7 -17 -15 -27 -24 -32
-19 -100 10 -134 56 -66 152 -69 280 -9 61 29 80 35 88 25 5 -7 30 -58 57
-114 62 -130 83 -148 167 -141 60 6 61 6 69 -21 5 -20 8 -23 11 -9 3 9 9 17
14 17 5 0 13 -8 16 -17 10 -28 36 -43 50 -31 9 7 14 6 18 -4 8 -20 290 -15
430 7 252 40 636 143 713 192 13 8 25 13 26 11 12 -15 36 -113 31 -128 -10
-32 -142 -146 -209 -181 -36 -18 -62 -37 -60 -41 3 -4 27 -8 55 -8 29 0 49 -5
49 -11 0 -6 -15 -28 -33 -50 -63 -73 -107 -195 -107 -293 0 -31 0 -31 31 17
17 26 34 47 38 47 4 0 -1 -39 -11 -87 -10 -49 -18 -103 -18 -120 0 -38 -11
-41 -48 -14 -141 99 -522 261 -892 379 -201 65 -742 192 -816 192 -20 0 -21 4
-20 98 1 87 -2 103 -27 154 -32 65 -85 116 -158 153 -28 15 -48 30 -43 34 5 5
65 30 134 56 69 26 132 51 140 56 19 11 30 11 30 2z m1314 -55 c32 -73 68
-197 60 -209 -11 -18 -20 -8 -41 49 -18 45 -63 203 -63 219 0 1 4 3 8 3 4 0
20 -28 36 -62z m-33 -68 c43 -102 60 -185 38 -178 -15 5 -72 167 -83 238 -9
60 0 47 45 -60z m-36 -42 c19 -61 35 -123 35 -137 l0 -26 -19 24 c-20 26 -71
196 -71 237 0 48 20 13 55 -98z m-46 -10 c35 -112 43 -173 21 -173 -10 0 -23
33 -44 116 -25 101 -29 149 -12 149 3 0 18 -42 35 -92z m-1511 31 c100 -49
144 -86 183 -153 41 -73 40 -165 -5 -406 -19 -102 -39 -207 -43 -235 -7 -44
-11 -50 -32 -50 -21 0 -27 7 -37 48 -7 27 -15 51 -18 55 -4 3 -20 -7 -36 -23
-34 -32 -39 -26 -11 13 10 15 33 61 51 102 98 223 94 346 -17 452 -48 47 -151
100 -226 118 -32 7 -60 17 -63 22 -8 13 48 80 81 94 40 18 74 11 173 -37z
m1461 -37 c39 -129 45 -182 20 -182 -7 0 -28 62 -58 175 -28 104 7 110 38 7z
m-50 -20 c24 -79 38 -182 25 -182 -19 0 -42 39 -38 62 2 13 1 17 -2 9 -5 -11
-8 -11 -16 0 -5 9 -6 -1 -2 -26 7 -43 7 -44 5 -62 -2 -20 -37 -3 -55 27 -21
37 -43 197 -28 212 12 12 34 -25 52 -91 6 -23 14 -41 16 -38 3 3 -2 30 -11 62
-9 31 -15 59 -12 61 5 5 30 -65 40 -111 4 -16 5 -15 6 5 0 14 -6 49 -14 79
-14 54 -12 77 5 66 5 -3 18 -36 29 -73z m-121 -112 c22 -103 20 -125 -7 -110
-22 11 -48 170 -41 245 3 34 26 -30 48 -135z m2952 131 c0 -11 -40 -61 -49
-61 -4 0 -5 16 -3 35 3 29 8 35 28 35 13 0 24 -4 24 -9z m32 -23 c-8 -8 -9 -4
-5 13 4 13 8 18 11 10 2 -7 -1 -18 -6 -23z m-3049 -103 c7 -44 11 -90 9 -102
-6 -30 -30 -30 -36 0 -12 58 -16 132 -10 180 6 45 8 49 15 27 5 -14 15 -61 22
-105z m3070 30 c-3 -59 -17 -77 -38 -49 -19 25 -19 38 1 75 22 44 39 32 37
-26z m-3146 -57 c-2 -13 -4 -3 -4 22 0 25 2 35 4 23 2 -13 2 -33 0 -45z m3153
-67 c0 -12 -11 -23 -30 -30 -34 -11 -39 -1 -12 28 22 25 42 26 42 2z m-3855
-206 c176 -36 411 -96 610 -156 320 -97 668 -244 890 -376 l50 -30 -3 -89 c-2
-48 -5 -90 -6 -92 -2 -1 -40 20 -85 48 -77 48 -330 178 -416 215 -357 152
-747 279 -1096 357 -205 45 -200 42 -178 109 6 19 13 40 15 47 2 7 12 11 21 8
10 -3 99 -21 198 -41z m2108 -167 c-4 -35 -8 -88 -7 -119 0 -54 0 -55 -23 -45
-34 16 -49 74 -34 129 22 78 33 97 53 97 19 0 19 -4 11 -62z m111 -128 c64
-77 36 -205 -56 -255 -29 -15 -43 -17 -64 -10 -42 15 -85 76 -91 129 -10 81
16 127 32 56 7 -31 56 -80 81 -80 26 0 64 47 64 78 0 16 -13 47 -30 70 l-30
42 34 0 c26 0 40 -7 60 -30z m1655 -186 c80 -322 135 -494 196 -618 l35 -70
-56 -49 c-61 -55 -87 -92 -148 -212 -22 -44 -41 -82 -43 -84 -10 -14 -16 21
-24 131 -10 158 -18 198 -35 198 -8 0 -14 -9 -14 -20 0 -11 -4 -20 -10 -20 -5
0 -10 -18 -10 -39 0 -46 -9 -73 -21 -65 -5 3 -9 16 -9 29 0 13 -4 26 -9 29 -5
3 -12 18 -16 33 -3 15 -11 30 -16 33 -27 17 -28 219 -1 305 5 17 10 55 10 84
2 76 20 164 47 238 13 35 25 67 26 71 1 4 6 18 11 32 5 14 15 58 21 97 6 40
15 69 19 65 4 -4 25 -80 47 -168z m-4311 -159 c-43 -137 -198 -598 -243 -725
-15 -41 -40 -145 -56 -230 -15 -85 -44 -204 -64 -265 -64 -197 -64 -202 7
-286 44 -52 46 -75 19 -179 l-16 -65 38 -35 c29 -27 40 -45 44 -77 5 -38 -14
-150 -24 -140 -2 3 -6 38 -9 78 -4 49 -11 79 -21 89 -14 13 -15 12 -9 -13 4
-16 7 -93 7 -173 l0 -144 34 0 c31 0 34 -4 49 -47 9 -26 16 -48 16 -49 0 -1
-15 2 -32 7 -75 21 -75 5 0 -20 37 -13 51 -24 64 -51 9 -19 16 -39 14 -45 -1
-5 15 -27 36 -48 21 -21 38 -43 38 -48 0 -6 11 -20 25 -31 38 -30 178 -198
164 -198 -11 0 -153 93 -176 116 -14 14 -153 10 -226 -7 -27 -6 -63 -23 -80
-38 -18 -14 -26 -18 -18 -8 8 10 9 17 3 17 -6 0 -22 -14 -35 -32 -21 -26 -28
-30 -40 -19 -17 14 -32 -1 -22 -21 4 -7 -1 -4 -9 6 -9 11 -16 23 -16 27 0 14
118 115 160 137 27 14 75 27 124 32 43 5 81 11 83 13 5 6 -75 35 -131 47 -45
10 -54 8 -100 -14 -55 -28 -136 -97 -136 -118 -1 -8 -5 -7 -14 5 -16 20 -27
23 -20 3 8 -21 -14 -29 -32 -12 -21 21 -7 44 62 101 54 43 55 45 27 46 -15 0
-37 2 -48 4 -11 2 -29 -2 -40 -9 -31 -20 -82 -29 -90 -16 -10 16 16 41 102 99
l75 51 -62 0 c-35 0 -73 -6 -90 -15 -20 -10 -30 -12 -30 -4 0 6 -7 9 -15 5 -8
-3 -15 0 -15 7 1 16 25 47 37 47 6 0 21 9 35 19 24 19 123 44 230 56 l56 7 -1
155 -2 155 -35 29 c-52 44 -100 54 -195 39 -92 -14 -125 -28 -179 -79 l-40
-36 33 42 c41 54 77 80 146 104 66 23 171 25 222 4 51 -21 62 -18 31 9 -25 23
-26 25 -13 62 7 22 11 43 8 48 -5 8 -40 5 -138 -10 l-40 -6 42 22 c92 48 118
121 68 194 -14 20 -25 39 -25 42 0 3 16 42 36 87 103 232 161 413 140 434 -4
4 -25 -2 -46 -15 -47 -27 -51 -42 40 173 68 161 210 566 210 601 0 42 44 131
92 186 28 32 52 57 54 55 2 -1 -15 -61 -38 -132z m4110 -157 c-10 -76 -29
-148 -40 -148 -4 0 -9 -12 -9 -27 -1 -23 -2 -24 -6 -6 -2 12 -13 25 -24 28
-14 5 -19 16 -19 41 0 55 58 153 81 138 4 -2 9 5 12 16 11 41 13 18 5 -42z
m-94 -241 c0 -38 -4 -61 -13 -66 -10 -6 -12 -33 -9 -110 1 -55 2 -101 1 -101
-2 0 -16 19 -33 42 -16 22 -30 39 -30 36 0 -14 51 -153 61 -164 6 -7 7 -19 3
-26 -6 -10 -5 -10 8 0 14 12 21 4 57 -65 23 -43 72 -120 111 -171 38 -51 70
-94 70 -96 0 -8 -45 7 -70 24 -24 16 -76 40 -86 40 -3 0 0 -9 6 -20 9 -16 8
-18 -5 -14 -23 9 -18 -10 11 -37 53 -49 149 -209 126 -209 -5 0 -55 43 -111
96 -112 106 -119 96 -23 -34 68 -92 108 -173 117 -234 7 -45 6 -47 -15 -43
-13 2 -23 6 -24 7 -14 22 -77 98 -96 115 -30 27 -40 28 -41 6 0 -14 -3 -13
-11 5 -6 12 -15 22 -20 22 -12 0 -11 -4 14 -55 16 -33 24 -41 28 -30 4 11 14
-2 32 -40 18 -39 22 -55 12 -51 -17 6 -17 2 -5 -42 5 -17 8 -32 6 -32 -2 0
-20 24 -41 52 -35 50 -59 55 -34 7 7 -12 15 -57 19 -100 6 -70 5 -78 -12 -83
-14 -3 -24 8 -45 50 -14 30 -30 54 -34 54 -8 0 -1 -101 9 -130 3 -8 9 -40 14
-70 23 -130 23 -130 -16 -52 -19 39 -37 72 -40 72 -2 0 -2 -65 -2 -145 2 -133
0 -145 -18 -158 -19 -15 -20 -17 -24 -184 -1 -38 -18 -26 -25 17 -8 51 -46
127 -46 92 0 -13 6 -35 14 -50 13 -25 32 -124 41 -216 3 -21 0 -46 -5 -55 -7
-13 -9 -13 -10 -2 0 8 -19 32 -42 54 -39 37 -44 38 -98 35 -48 -3 -56 -1 -53
13 12 45 -115 78 -165 43 -12 -8 -22 -10 -22 -5 0 6 -11 13 -25 17 -28 7 -31
16 -11 33 22 18 48 80 62 146 22 104 8 616 -21 775 -8 41 -19 111 -26 155 -6
44 -16 90 -21 102 -24 50 12 123 127 262 78 95 132 178 187 291 44 91 61 90
34 -3 -15 -52 -15 -52 5 -28 10 12 16 27 13 32 -3 5 0 9 7 9 6 0 9 8 6 20 -3
11 -2 18 3 15 8 -5 20 28 20 60 0 12 21 41 46 65 26 26 63 79 87 125 l40 80
15 -45 c8 -25 15 -71 16 -103z m-6404 -102 c0 -8 -3 -15 -7 -15 -11 0 -178
-19 -217 -25 -17 -2 -67 -9 -111 -15 -44 -6 -96 -15 -115 -19 l-35 -9 33 -1
33 -1 -4 -62 c-2 -41 -8 -63 -15 -62 -7 1 -28 2 -48 3 l-37 1 5 45 c6 49 3 53
-22 30 -16 -14 -18 -14 -23 5 -4 16 0 20 21 20 14 0 23 3 19 6 -12 12 -91 -9
-111 -31 -31 -32 -76 -60 -76 -46 0 7 14 17 30 22 17 6 30 15 30 20 0 5 -18 0
-40 -11 -22 -11 -40 -24 -40 -29 0 -17 53 -52 97 -62 48 -13 55 -24 20 -33
-13 -3 -35 -16 -50 -30 l-26 -24 -15 23 c-14 21 -14 23 4 18 11 -3 20 0 20 6
0 6 -15 11 -33 11 -18 0 -65 16 -105 35 -83 40 -85 53 -13 89 124 62 291 102
546 130 77 9 154 17 170 19 78 10 115 7 115 -8z m-30 -147 c0 -68 -4 -128 -8
-135 -5 -9 -16 -9 -45 0 -42 13 -47 24 -14 30 16 3 11 6 -19 11 -38 8 -42 11
-58 60 -10 28 -20 71 -23 94 l-5 44 60 -4 c33 -1 64 0 68 4 4 4 13 3 21 -3 10
-9 13 -8 13 5 0 9 2 16 5 16 3 0 5 -55 5 -122z m-191 -11 c-2 -71 -3 -83 -9
-52 -4 22 -8 32 -9 22 0 -12 -7 -17 -18 -15 -24 4 -32 78 -9 78 9 0 16 7 16
15 0 10 -10 15 -26 15 -24 0 -26 -3 -22 -35 4 -34 3 -35 -30 -35 -31 0 -34 -2
-29 -25 3 -16 0 -24 -7 -22 -6 2 -12 28 -14 58 -3 43 -1 52 9 42 18 -18 49
-16 49 3 0 9 10 19 23 22 22 6 22 6 -3 13 -23 7 -23 7 7 8 17 1 33 -5 36 -11
3 -9 7 -7 12 4 15 38 25 3 24 -85z m-157 71 c-7 -7 -12 -8 -12 -2 0 14 12 26
19 19 2 -3 -1 -11 -7 -17z m48 6 c0 -2 -7 -4 -15 -4 -8 0 -15 4 -15 10 0 5 7
7 15 4 8 -4 15 -8 15 -10z m364 0 c3 -8 2 -12 -4 -9 -6 3 -10 10 -10 16 0 14
7 11 14 -7z m2651 -29 c39 -2 78 -4 88 -4 10 -1 15 -5 12 -11 -13 -20 -114
-78 -193 -110 l-82 -34 -48 17 c-26 9 -55 17 -64 17 -25 0 -73 -45 -103 -95
-18 -32 -40 -52 -75 -70 -38 -19 -55 -36 -74 -73 -29 -55 -31 -42 -11 64 23
118 35 162 63 242 l27 72 195 -6 c107 -3 227 -7 265 -9z m-3267 -30 c-3 -3 -9
2 -12 12 -6 14 -5 15 5 6 7 -7 10 -15 7 -18z m272 -90 c7 -8 8 -15 2 -15 -5 0
-15 7 -22 15 -7 8 -8 15 -2 15 5 0 15 -7 22 -15z m60 -5 c12 -8 11 -10 -7 -10
-13 0 -23 5 -23 10 0 13 11 13 30 0z m-146 -42 c-5 -7 -2 -9 9 -5 12 4 14 2
10 -10 -5 -12 -2 -15 10 -10 9 3 17 2 17 -3 0 -6 -5 -10 -11 -10 -5 0 -8 -4
-5 -9 3 -5 -2 -8 -11 -7 -9 0 -18 -6 -20 -14 -4 -13 -3 -13 6 0 6 8 11 10 11
5 0 -17 -22 -35 -42 -35 -14 0 -18 -8 -18 -35 0 -28 -4 -35 -20 -35 -13 0 -20
-7 -20 -20 0 -11 -7 -20 -15 -20 -9 0 -20 -11 -25 -25 -11 -28 -15 -30 -26
-13 -5 7 -3 8 6 3 10 -6 12 -4 7 8 -3 9 -2 19 3 22 15 9 12 45 -4 45 -20 0 -6
54 29 113 25 43 38 52 73 48 6 -1 12 3 12 9 0 5 7 10 16 10 9 0 12 -5 8 -12z
m-124 -4 c0 -3 -8 -18 -19 -32 -23 -33 -51 -114 -51 -147 0 -14 -4 -25 -10
-25 -5 0 -10 -5 -10 -11 0 -5 4 -8 9 -5 5 3 11 -10 13 -28 3 -28 1 -34 -14
-33 -20 1 -22 6 -9 26 6 9 2 20 -10 32 -27 27 -28 168 -1 191 27 24 102 47
102 32z m355 -33 c3 -5 -3 -12 -14 -16 -11 -3 -33 -21 -48 -39 -16 -18 -36
-31 -44 -28 -11 3 -11 2 1 -7 9 -7 11 -14 5 -18 -5 -5 -11 -15 -13 -23 -2 -8
-9 -21 -14 -28 -14 -16 -28 1 -28 34 0 12 -7 24 -15 28 -20 7 -19 18 3 44 9
11 25 30 34 41 14 17 29 21 72 21 30 0 57 -4 61 -9z m4781 -68 c-3 -27 -11
-172 -16 -323 -20 -545 -47 -719 -133 -851 -33 -51 -88 -85 -152 -93 -22 -3
-70 -21 -107 -40 -37 -19 -70 -31 -73 -26 -3 4 -6 27 -7 49 -1 35 -3 39 -17
28 -27 -21 -71 -71 -88 -99 -22 -35 -48 -38 -39 -4 3 12 3 26 0 29 -9 8 -61
-19 -67 -35 -4 -11 -7 -10 -15 0 -7 10 -14 9 -33 -6 -21 -18 -24 -18 -35 -4
-11 15 -14 15 -31 2 -36 -30 -63 -41 -63 -28 0 9 -3 8 -10 -2 -7 -10 -10 -11
-10 -2 0 16 -52 5 -63 -15 -11 -18 -27 -16 -42 4 -12 16 -15 15 -43 -15 -32
-34 -52 -41 -52 -17 0 23 -28 18 -55 -10 -14 -16 -26 -22 -30 -15 -3 6 -11 7
-17 4 -7 -5 -9 -1 -5 9 9 24 -6 21 -21 -3 -7 -12 -17 -18 -22 -15 -5 3 -11 1
-15 -5 -10 -16 -25 -1 -18 18 3 11 -4 7 -21 -10 -14 -15 -26 -30 -26 -33 0
-13 -38 -54 -44 -48 -3 3 -6 29 -6 56 0 43 -2 48 -15 37 -8 -7 -15 -9 -15 -5
0 13 -45 -38 -69 -78 -23 -37 -41 -41 -41 -9 0 9 -5 24 -10 32 -9 13 -12 13
-23 0 -18 -22 -56 -42 -67 -35 -6 4 -10 1 -10 -5 0 -7 -8 -9 -19 -5 -12 3 -21
0 -25 -10 -9 -26 -27 -17 -20 10 11 44 -20 19 -47 -38 -13 -29 -28 -52 -34
-52 -5 0 -11 33 -13 73 -2 39 -5 72 -8 72 -14 0 -104 -79 -128 -112 -15 -21
-32 -38 -37 -38 -5 0 -9 23 -9 50 0 37 -4 50 -14 50 -8 0 -18 -5 -21 -11 -4
-5 -12 -8 -17 -7 -6 2 -25 -9 -42 -24 -17 -15 -45 -33 -63 -39 -27 -9 -32 -15
-30 -39 1 -15 5 -26 9 -23 15 9 137 -57 143 -78 4 -11 20 -36 37 -55 25 -28
28 -37 18 -49 -8 -10 -9 -15 -2 -15 6 0 9 -9 7 -20 -2 -11 4 -25 14 -32 13 -9
20 -31 24 -78 3 -36 3 -55 0 -42 -2 12 -8 20 -13 17 -5 -3 -12 17 -16 45 -4
27 -10 50 -15 50 -5 0 -8 3 -7 7 3 8 -19 37 -54 74 -9 9 -13 21 -10 26 4 4 3
5 -2 1 -14 -11 -63 29 -105 85 -45 61 -62 79 -124 130 -26 22 -52 56 -62 79
-17 43 -14 57 7 41 18 -13 98 -10 126 5 12 7 32 10 44 6 12 -4 24 -1 28 7 11
16 53 20 62 5 5 -7 12 -5 21 8 10 14 21 17 41 12 19 -5 28 -2 33 9 4 11 13 15
27 11 13 -3 34 3 51 14 22 14 31 16 37 7 6 -9 11 -7 19 6 8 14 14 15 24 7 10
-8 15 -6 20 9 7 23 21 28 27 9 6 -16 54 22 52 40 -1 6 -2 17 -3 22 -2 20 -17
9 -29 -22 l-13 -33 -19 25 -20 25 -6 -23 c-4 -13 -12 -21 -18 -19 -51 19 -56
18 -75 -13 -14 -24 -20 -28 -24 -16 -8 19 -37 21 -37 4 0 -10 -3 -9 -9 1 -7
11 -10 10 -15 -5 -5 -16 -15 -19 -61 -19 -30 1 -57 4 -61 8 -4 4 -13 2 -20 -4
-8 -7 -14 -7 -19 1 -3 5 -17 10 -31 10 -14 0 -27 6 -30 14 -3 8 -12 12 -19 10
-7 -3 -16 0 -20 6 -6 9 -10 9 -17 -1 -7 -10 -8 -6 -5 14 3 16 0 44 -6 63 -9
31 -21 39 -114 83 -79 38 -105 56 -113 76 -18 46 -11 48 35 7 87 -77 221 -120
400 -129 188 -9 368 22 415 72 13 14 29 25 36 25 15 0 23 -64 13 -109 -13 -60
11 -79 32 -24 13 34 -15 196 -40 231 -11 16 -46 41 -78 57 -32 15 -96 54 -144
85 -89 61 -113 92 -158 211 -17 44 -17 47 1 68 19 25 24 76 8 86 -19 12 -10
22 34 39 24 9 46 23 49 30 3 7 19 16 35 19 37 8 92 53 92 77 0 30 -26 25 300
56 393 37 883 142 1165 249 92 35 193 89 236 125 19 16 38 29 42 30 5 0 6 -21
3 -47z m-4311 2 c121 -3 245 -9 275 -13 l55 -6 -50 -7 c-32 -5 -14 -6 52 -4
56 2 105 0 108 -4 8 -13 -16 -19 -109 -27 -47 -4 -83 -10 -81 -14 3 -4 -16 -5
-42 -2 -33 4 -44 2 -39 -7 4 -6 11 -9 14 -7 4 2 23 1 42 -4 l35 -8 -42 -1
c-39 -1 -43 -3 -43 -27 0 -14 4 -23 10 -19 6 3 10 1 10 -5 0 -6 5 -8 10 -5 8
5 7 11 -1 21 -15 18 -2 18 17 -1 13 -12 12 -15 -6 -25 -11 -6 -22 -21 -26 -34
-3 -14 -15 -26 -27 -28 -32 -6 -357 0 -384 7 -22 5 -23 10 -23 85 0 64 -3 80
-15 80 -12 0 -15 -16 -15 -81 l0 -81 -52 6 c-29 4 -91 12 -137 18 l-83 12 5
45 c9 74 30 124 57 139 19 10 55 12 145 8 66 -3 219 -8 340 -11z m4449 -227
c36 -73 94 -189 131 -257 61 -117 77 -172 40 -141 -18 15 -19 2 -4 -37 33 -84
60 -275 40 -287 -6 -4 -11 -23 -11 -42 0 -20 -11 -60 -25 -91 -14 -31 -32 -80
-40 -109 -16 -61 -34 -99 -35 -74 -2 30 -19 -25 -20 -65 l-1 -40 -12 29 c-12
26 -14 27 -27 11 -9 -11 -13 -38 -12 -83 1 -37 -2 -74 -8 -82 -8 -12 -10 -13
-10 -1 0 26 -13 2 -17 -31 -2 -18 -10 -39 -18 -47 -13 -14 -15 -13 -15 7 0 20
-2 21 -20 10 -11 -7 -20 -18 -20 -24 0 -7 -12 -15 -27 -19 -15 -3 -37 -17 -50
-31 -29 -31 -36 -30 -51 8 -11 31 -12 32 -28 13 -14 -19 -15 -16 -11 41 5 58
19 96 52 139 12 15 28 20 65 20 41 0 47 2 36 13 -18 18 -80 19 -101 2 -23 -19
-85 -158 -92 -207 -3 -24 -10 -40 -17 -38 -6 2 -27 6 -46 8 -107 14 -125 42
-87 142 34 91 91 145 152 145 15 0 24 4 20 10 -4 6 -30 9 -58 8 -41 -2 -52 0
-55 13 -1 9 5 19 15 23 53 18 97 55 122 101 51 93 102 285 115 435 4 36 8 83
11 105 2 22 7 103 10 180 7 167 14 289 20 330 2 17 4 33 4 38 3 28 30 -11 85
-125z m-4134 92 c-12 -8 -11 -10 7 -10 12 0 30 -11 41 -25 13 -16 26 -23 36
-19 12 5 15 2 10 -11 -4 -10 -14 -15 -25 -12 -11 3 -19 1 -19 -4 0 -20 -17 -7
-33 26 -9 19 -21 35 -26 35 -20 0 -18 26 2 28 17 1 19 -1 7 -8z m-32 -52 c20
-20 13 -27 -17 -15 -17 6 -28 15 -25 19 7 12 28 10 42 -4z m662 7 c0 -3 14
-67 31 -143 40 -180 44 -325 11 -389 -24 -47 -27 -79 -11 -136 8 -31 7 -47 -7
-83 -15 -38 -15 -51 -4 -87 7 -23 21 -54 31 -69 27 -38 25 -147 -7 -283 -19
-86 -40 -250 -44 -358 0 -5 -4 -5 -10 -2 -5 3 -10 -1 -10 -11 0 -12 -6 -15
-24 -12 -15 3 -27 0 -30 -8 -3 -8 -12 -14 -20 -14 -8 0 -27 -5 -43 -12 -15 -6
-31 -12 -35 -13 -5 -2 -11 -4 -15 -5 -5 -2 -12 -4 -18 -5 -16 -3 -47 -15 -80
-30 -70 -33 -140 -54 -148 -46 -6 6 -2 22 9 40 18 31 44 49 44 31 0 -18 29
-10 40 10 6 11 15 18 21 15 11 -7 32 12 42 38 5 13 13 16 32 11 16 -4 25 -2
25 5 0 6 11 16 25 21 31 12 32 18 45 220 6 91 25 309 41 485 17 176 34 394 39
485 10 177 25 325 35 340 6 10 35 14 35 5z m-500 -25 c-8 -5 -19 -10 -25 -10
-5 0 -3 5 5 10 8 5 20 10 25 10 6 0 3 -5 -5 -10z m-169 -40 c22 -12 24 -47 8
-136 -17 -97 -74 -199 -154 -280 -103 -103 -215 -154 -348 -156 -96 -1 -157
31 -249 133 -105 115 -148 182 -148 230 0 21 4 39 9 39 5 0 21 -23 36 -51 68
-131 168 -249 240 -285 50 -24 64 -26 139 -22 169 9 311 110 396 280 35 71 44
100 48 158 3 47 0 75 -8 85 -15 18 1 21 31 5z m-636 -200 c3 -6 -1 -7 -9 -4
-18 7 -21 14 -7 14 6 0 13 -4 16 -10z m65 -32 c1 -18 3 -84 6 -146 l6 -112
-31 17 c-27 16 -28 18 -11 21 19 3 20 11 20 116 0 74 -4 116 -12 124 -9 9 -8
12 5 12 12 0 17 -9 17 -32z m83 15 c-7 -2 -19 -2 -25 0 -7 3 -2 5 12 5 14 0
19 -2 13 -5z m141 -14 c-3 -5 -1 -9 5 -9 5 0 13 5 17 11 15 25 23 -20 20 -119
-2 -77 -6 -106 -17 -113 -30 -20 -120 -40 -165 -37 l-46 3 -2 68 c-1 72 7 87
19 35 7 -29 9 -30 12 -10 3 14 12 22 24 22 17 0 19 8 19 83 l0 82 60 -3 c33
-2 58 -8 54 -13z m912 -234 c-19 -168 -51 -524 -66 -725 -17 -239 -24 -263
-68 -258 l-27 3 3 120 c4 164 18 349 48 615 40 364 45 391 103 480 16 24 16
23 19 -35 2 -33 -4 -123 -12 -200z m-1089 133 c-2 -13 -4 -5 -4 17 -1 22 1 32
4 23 2 -10 2 -28 0 -40z m2593 -39 c0 -10 -9 -28 -20 -39 -17 -17 -18 -24 -10
-41 6 -11 10 -30 9 -42 -2 -13 8 -34 24 -51 31 -33 36 -59 10 -49 -29 10 49
-61 97 -89 25 -14 54 -36 65 -49 l20 -22 -25 7 c-72 21 -100 26 -157 26 -68 0
-167 -31 -177 -55 -4 -12 -75 -55 -91 -55 -16 0 1 29 50 85 41 46 69 68 108
83 l52 21 -40 0 c-22 1 -63 -10 -92 -24 -29 -13 -53 -21 -53 -18 0 3 -7 0 -15
-7 -8 -7 -21 -10 -29 -7 -8 3 -17 1 -20 -6 -3 -9 -8 -8 -15 3 -6 8 -11 18 -11
21 0 8 144 79 159 79 5 0 14 7 21 15 7 8 29 15 49 15 27 0 32 3 21 10 -22 14
-116 12 -154 -4 -57 -24 -113 -30 -119 -12 -7 18 45 45 148 77 78 24 74 31
-28 44 -32 4 -57 11 -57 16 0 11 85 22 125 16 29 -5 39 0 78 39 46 45 77 51
77 13z m-320 -71 c0 -2 -11 -3 -25 -3 -26 0 -35 20 -13 27 11 4 38 -14 38 -24z
m-1780 -48 c0 -21 -33 -60 -50 -60 -18 0 -10 23 17 52 32 33 33 34 33 8z m416
-277 c-11 -142 -28 -266 -43 -298 -12 -27 -13 -21 -8 60 7 104 33 303 41 316
13 22 16 3 10 -78z m1950 -27 c69 -21 104 -55 104 -100 0 -32 -4 -37 -52 -60
-29 -14 -78 -31 -108 -38 -58 -13 -373 -18 -385 -6 -14 14 42 114 82 146 96
75 230 97 359 58z m-2899 -38 c-2 -13 -4 -5 -4 17 -1 22 1 32 4 23 2 -10 2
-28 0 -40z m6838 -99 c5 -5 21 -9 36 -9 48 0 88 -24 109 -65 11 -22 20 -40 20
-41 0 -1 -19 0 -42 3 -34 3 -39 2 -25 -7 9 -6 17 -16 17 -23 0 -7 -4 -6 -10 3
-8 12 -10 11 -10 -8 0 -22 -1 -22 -41 10 -32 26 -49 32 -82 31 -23 0 -49 5
-57 11 -27 23 -101 56 -110 51 -17 -10 -110 -16 -110 -6 0 5 8 11 18 14 9 3
49 17 87 31 57 21 81 25 130 20 33 -3 64 -10 70 -15z m-4733 -53 c10 -45 7
-50 -21 -41 -17 5 -21 15 -21 46 0 33 3 40 17 37 11 -2 20 -18 25 -42z m100
-53 c-2 -13 -9 -23 -14 -23 -17 0 -58 49 -58 70 l0 21 38 -22 c31 -18 38 -27
34 -46z m4358 34 c0 -1 -14 -38 -30 -81 -17 -43 -34 -100 -38 -127 -6 -43 -9
-46 -24 -35 -25 19 -31 72 -17 153 11 63 16 74 38 82 24 9 71 14 71 8z m137
-20 c7 0 19 -7 27 -16 12 -14 11 -28 -9 -106 -13 -49 -26 -103 -29 -118 l-7
-29 -77 4 -77 3 -3 35 c-5 47 15 146 39 192 20 39 44 49 94 41 17 -3 36 -5 42
-6z m-4467 -24 c0 -20 -3 -24 -11 -16 -7 7 -9 19 -6 27 10 24 17 19 17 -11z
m4614 -27 c20 -8 37 -25 45 -44 12 -27 11 -34 -7 -59 -42 -59 -96 -101 -134
-106 -44 -6 -43 -8 -23 89 19 94 21 97 53 117 33 20 26 20 66 3z m-7700 -18
c17 -24 8 -42 -17 -33 -18 7 -30 32 -21 46 9 15 22 10 38 -13z m5204 9 c8 -9
3 -24 -20 -57 -39 -58 -98 -175 -98 -195 0 -16 -35 -21 -45 -5 -8 13 -8 130 1
164 5 22 4 27 -6 21 -6 -4 -4 5 6 20 10 15 32 36 49 46 35 22 98 25 113 6z
m-5689 -46 c11 -20 5 -31 -15 -31 -14 0 -27 28 -18 41 9 14 23 10 33 -10z
m5151 -11 c0 -5 -5 -10 -11 -10 -5 0 -7 5 -4 10 3 6 8 10 11 10 2 0 4 -4 4
-10z m1463 -134 c7 -19 -1 -26 -31 -26 -24 0 -25 1 -7 20 21 24 31 25 38 6z
m520 -12 c13 -4 11 -16 -13 -67 -15 -34 -35 -94 -45 -134 -10 -43 -21 -70 -28
-68 -7 2 -24 6 -39 9 -26 6 -27 9 -30 79 -3 64 -5 69 -15 47 -21 -44 -15 4 7
54 29 68 102 104 163 80z m188 -20 c22 -12 15 -92 -12 -146 -5 -10 -9 -32 -9
-48 0 -21 -4 -29 -12 -24 -8 5 -9 0 -5 -15 9 -34 -18 -52 -71 -48 -26 1 -56 8
-67 14 -11 6 -24 13 -30 15 -14 4 -9 100 9 162 19 64 49 93 101 98 37 4 82 0
96 -8z m-2211 -25 c0 -16 4 -19 21 -14 18 6 19 5 10 -13 -12 -23 -45 -37 -62
-26 -7 4 -20 -4 -30 -17 -12 -16 -21 -21 -28 -14 -14 14 -2 55 15 55 7 0 21
11 30 25 20 30 44 33 44 4z m-4950 -24 c32 -18 40 -18 40 0 0 8 7 15 15 15 17
0 55 -39 55 -56 0 -25 -61 -29 -133 -8 -20 6 -41 40 -32 54 8 14 25 12 55 -5z
m7338 -33 c27 -25 32 -36 32 -75 0 -46 -15 -70 -30 -48 -4 8 -11 2 -20 -18
-13 -33 -30 -41 -30 -15 0 11 -7 8 -22 -11 -28 -31 -95 -44 -104 -20 -9 23 12
183 26 200 8 10 31 15 64 15 43 0 58 -5 84 -28z m-2578 -61 c0 -22 -31 -46
-102 -81 -54 -27 -68 -22 -47 17 33 62 149 112 149 64z m-2013 -268 c92 -77
150 -109 280 -152 154 -52 323 -64 503 -36 120 18 185 39 234 78 31 24 40 27
47 16 11 -16 7 -175 -3 -172 -4 1 -20 -9 -34 -22 -29 -27 -44 -32 -44 -14 0 5
-4 7 -10 4 -5 -3 -10 -1 -10 4 0 6 -4 11 -10 11 -5 0 -10 -7 -10 -16 0 -8 -6
-21 -13 -29 -11 -11 -17 -9 -32 12 l-19 24 -17 -33 c-10 -18 -18 -27 -19 -20
0 18 -20 15 -20 -4 0 -10 -6 -14 -15 -11 -8 4 -17 2 -21 -4 -4 -6 -11 -6 -20
2 -11 9 -14 9 -14 -1 0 -9 -6 -8 -19 4 -18 17 -20 17 -29 0 -9 -16 -11 -16
-28 4 l-18 21 -20 -22 c-17 -19 -27 -21 -54 -16 -19 4 -38 11 -43 16 -12 12
-59 5 -59 -8 0 -5 -4 -9 -10 -9 -5 0 -10 4 -10 9 0 5 -5 22 -11 38 l-11 28
-14 -27 c-16 -30 -34 -37 -34 -14 0 7 -6 18 -13 24 -10 8 -16 6 -25 -9 -10
-16 -16 -18 -27 -9 -8 6 -19 9 -25 5 -5 -3 -10 -1 -10 5 0 7 -7 10 -15 6 -10
-3 -15 1 -15 12 0 14 -2 15 -10 2 -7 -11 -11 -8 -20 15 -11 29 -12 29 -26 11
-16 -23 -16 -23 -39 26 -9 21 -22 35 -27 32 -5 -3 -12 3 -15 15 -7 28 -19 27
-27 -4 -7 -28 -24 -33 -32 -10 -4 8 -11 15 -16 15 -15 0 -37 32 -38 54 0 15
-3 16 -15 6 -10 -8 -15 -9 -15 -2 0 17 -59 74 -70 67 -6 -3 -7 1 -4 10 5 11 0
18 -14 22 -11 3 -23 11 -26 19 -3 7 -12 11 -21 8 -10 -4 -15 0 -15 15 0 12 -6
21 -13 21 -15 0 -69 63 -80 93 -4 10 -11 15 -17 12 -5 -3 -10 4 -11 17 -1 13
-3 47 -5 76 l-4 54 107 -100 c60 -55 145 -131 190 -169z m734 171 c24 -9 70
-22 102 -30 72 -17 108 -35 157 -81 40 -35 62 -87 54 -121 -8 -27 -93 -61
-222 -87 -110 -23 -421 -20 -436 4 -12 18 35 116 75 157 43 44 164 115 203
119 12 1 28 3 36 4 12 1 12 4 -2 12 -10 5 -18 17 -18 24 0 18 -2 18 51 -1z
m695 -5 c7 -12 -22 -46 -32 -37 -8 9 5 48 16 48 5 0 12 -5 16 -11z m-3856 -48
c0 -5 3 -16 6 -25 4 -12 0 -16 -15 -16 -26 0 -40 28 -20 41 18 11 29 11 29 0z
m50 2 c0 -17 -19 -35 -29 -29 -18 12 -12 36 9 36 11 0 20 -3 20 -7z m5170 -8
c0 -8 -7 -15 -15 -15 -16 0 -20 12 -8 23 11 12 23 8 23 -8z m-3586 -11 c3 -9
6 -21 6 -27 0 -15 -52 -40 -61 -30 -12 13 2 62 20 66 28 8 29 7 35 -9z m3376
-62 c0 -10 -6 -27 -14 -38 -13 -17 -15 -17 -21 -2 -7 18 10 58 25 58 6 0 10
-8 10 -18z m-4720 -27 c9 -11 16 -12 30 -3 40 25 76 -20 42 -54 -28 -29 -84
-18 -112 21 -11 16 -20 34 -20 40 0 16 46 13 60 -4z m7130 -5 c0 -5 -5 -10
-11 -10 -5 0 -7 5 -4 10 3 6 8 10 11 10 2 0 4 -4 4 -10z m-5310 -41 c0 -31 8
-36 29 -16 11 10 12 7 6 -13 -7 -27 -33 -52 -45 -45 -10 6 -21 95 -14 106 10
17 24 -2 24 -32z m2580 28 c0 -24 -30 -55 -61 -62 -36 -8 -43 -3 -34 24 7 23
30 28 38 9 4 -9 6 -8 6 3 2 30 51 56 51 26z m-2610 -94 c0 -22 -26 -15 -38 11
-6 13 -8 27 -5 30 9 8 43 -24 43 -41z m-200 -17 c0 -3 -4 -8 -10 -11 -5 -3
-10 -1 -10 4 0 6 5 11 10 11 6 0 10 -2 10 -4z m-154 -75 c-4 -6 -15 -11 -24
-11 -9 0 -28 -9 -42 -20 -18 -13 -28 -16 -37 -8 -10 8 -13 6 -13 -6 0 -9 -8
-16 -20 -16 -34 0 -25 36 10 44 19 3 30 12 30 22 0 17 22 16 63 -1 12 -5 17
-2 17 11 0 13 3 15 11 7 6 -6 8 -16 5 -22z m2384 19 c0 -5 -4 -10 -10 -10 -5
0 -10 5 -10 10 0 6 5 10 10 10 6 0 10 -4 10 -10z m-1746 -75 c-6 -16 -34 -21
-34 -7 0 13 11 22 26 22 8 0 11 -6 8 -15z m-1141 -11 c4 -4 -3 -20 -14 -35
-34 -48 -55 -33 -23 16 17 25 26 30 37 19z m-136 -80 c5 -15 -26 -46 -38 -38
-5 3 -18 -5 -28 -17 -21 -26 -51 -20 -51 11 0 15 8 22 30 26 16 4 35 13 41 21
14 16 40 14 46 -3z m919 -81 c29 -32 34 -34 34 -16 0 11 7 26 15 33 23 19 56
-8 85 -70 22 -47 25 -50 30 -29 8 32 46 38 55 8 9 -29 -25 -75 -53 -71 -11 2
-23 -2 -27 -8 -10 -16 -42 5 -74 50 -19 27 -31 36 -38 29 -20 -20 -98 35 -103
71 -8 53 29 54 76 3z m-540 -18 c-6 -23 -5 -24 19 -15 14 6 40 12 56 15 40 7
35 -14 -7 -35 -17 -9 -64 -36 -105 -61 -193 -117 -251 -150 -256 -145 -3 3 15
33 40 68 73 99 84 111 95 104 6 -3 24 11 41 31 28 33 31 35 31 15 0 -30 5 -28
41 13 36 41 54 45 45 10z m-354 -132 c-29 -13 -58 -22 -65 -20 -15 6 71 46 98
45 11 0 -3 -10 -33 -25z"/>
<path d="M4853 5943 c-24 -9 -13 -23 17 -23 32 0 40 14 14 24 -9 3 -16 6 -17
5 -1 0 -8 -3 -14 -6z"/>
<path d="M5092 5885 c0 -16 2 -22 5 -12 2 9 2 23 0 30 -3 6 -5 -1 -5 -18z"/>
<path d="M5200 5856 c0 -3 9 -10 20 -16 11 -6 20 -8 20 -6 0 3 -9 10 -20 16
-11 6 -20 8 -20 6z"/>
<path d="M3050 5246 c0 -2 7 -6 15 -10 8 -3 15 -1 15 4 0 6 -7 10 -15 10 -8 0
-15 -2 -15 -4z"/>
<path d="M6064 4378 c-15 -29 -35 -65 -45 -79 -17 -24 -17 -30 -5 -70 13 -41
14 -42 15 -13 1 39 28 128 52 177 11 20 17 37 14 37 -2 0 -17 -24 -31 -52z"/>
<path d="M7640 4228 c-58 -118 -58 -119 -28 -83 32 38 63 100 73 143 3 17 5
32 3 32 -2 -1 -23 -42 -48 -92z"/>
<path d="M6065 4215 c-11 -64 -8 -112 8 -136 11 -15 13 -5 10 69 -5 116 -8
126 -18 67z"/>
<path d="M6288 3983 c-8 -59 6 -159 31 -217 22 -50 60 -110 67 -103 2 2 -10
35 -26 73 -16 39 -38 119 -48 180 -16 99 -19 105 -24 67z"/>
<path d="M6227 3920 c8 -30 21 -34 15 -5 -2 14 -8 25 -12 25 -5 0 -6 -9 -3
-20z"/>
<path d="M6548 3822 c-15 -35 -38 -129 -38 -155 0 -7 6 -1 13 13 8 14 14 32
14 40 0 8 8 41 17 74 20 68 17 82 -6 28z"/>
<path d="M3496 1780 c-97 -38 -85 -50 23 -25 76 18 88 24 70 36 -20 13 -38 10
-93 -11z"/>
<path d="M7612 3271 c-33 -61 -37 -71 -24 -71 8 0 66 119 60 125 -2 2 -18 -22
-36 -54z"/>
<path d="M7951 3284 c0 -11 3 -14 6 -6 3 7 2 16 -1 19 -3 4 -6 -2 -5 -13z"/>
<path d="M1052 3245 c-31 -39 -28 -55 4 -23 15 14 24 32 22 39 -3 8 -12 2 -26
-16z"/>
<path d="M4524 1893 c-3 -10 -10 -26 -15 -35 -18 -35 -8 -38 21 -8 17 17 30
37 30 45 0 21 -29 19 -36 -2z"/>
<path d="M1347 3149 c-3 -10 -1 -21 3 -24 5 -3 10 5 12 17 l3 23 23 -22 c29
-30 52 -30 52 1 0 22 -4 24 -44 24 -35 0 -45 -4 -49 -19z"/>
<path d="M1473 3143 c9 -2 25 -2 35 0 9 3 1 5 -18 5 -19 0 -27 -2 -17 -5z"/>
<path d="M1637 3123 c-4 -3 -7 -24 -7 -45 0 -27 4 -38 15 -38 8 0 15 9 15 20
0 11 5 20 10 20 6 0 10 9 10 19 0 11 6 22 13 24 6 3 -2 6 -19 6 -17 1 -34 -2
-37 -6z"/>
<path d="M1561 3057 c-1 -24 -4 -27 -23 -22 -20 5 -21 5 -5 -5 29 -19 43 -9
36 25 l-7 30 -1 -28z"/>
<path d="M1468 3033 c7 -3 16 -2 19 1 4 3 -2 6 -13 5 -11 0 -14 -3 -6 -6z"/>
<path d="M1728 2723 c6 -2 18 -2 25 0 6 3 1 5 -13 5 -14 0 -19 -2 -12 -5z"/>
<path d="M2870 1464 c0 -6 10 -19 21 -30 12 -10 38 -44 59 -74 46 -67 67 -87
80 -74 7 7 -20 42 -74 100 -47 49 -85 84 -86 78z"/>
<path d="M3035 1280 c-7 -12 54 -80 95 -103 30 -18 31 -18 28 -1 -2 10 -23 36
-48 58 -25 23 -46 44 -48 49 -5 10 -20 9 -27 -3z"/>
<path d="M3200 1152 c0 -6 5 -12 11 -12 5 0 8 -4 5 -9 -7 -11 22 -36 31 -27 4
4 -5 19 -20 34 -15 14 -27 21 -27 14z"/>
<path d="M3880 8945 c-20 -24 -8 -48 30 -57 92 -23 110 -43 54 -61 -16 -5 -35
-14 -41 -20 -32 -24 -1 -116 49 -147 51 -31 60 -27 53 24 -7 44 -5 49 37 79
16 11 16 16 -7 72 -30 74 -83 125 -130 125 -18 0 -38 -7 -45 -15z"/>
<path d="M4705 8886 c-39 -19 -86 -48 -105 -65 l-35 -30 56 -1 c68 0 165 -17
199 -35 24 -13 22 -14 -40 -21 -65 -8 -65 -8 -25 -15 22 -4 67 -14 101 -22 79
-19 124 -5 177 54 60 67 56 71 -101 123 -75 25 -142 46 -147 46 -6 0 -42 -15
-80 -34z"/>
<path d="M4672 8676 c-23 -8 -49 -20 -57 -26 -27 -23 -15 -29 26 -15 48 17
171 20 200 5 11 -6 25 -25 33 -43 l13 -32 8 38 c6 32 4 42 -13 59 -26 27 -146
35 -210 14z"/>
<path d="M4776 8587 c-57 -54 -58 -117 -2 -117 56 1 111 101 74 138 -19 19
-34 14 -72 -21z"/>
<path d="M5061 8284 c0 -11 3 -14 6 -6 3 7 2 16 -1 19 -3 4 -6 -2 -5 -13z"/>
<path d="M4602 8124 c-22 -15 -32 -41 -11 -28 6 3 60 -17 119 -46 66 -32 117
-50 131 -48 23 4 23 5 -6 17 -80 33 -195 96 -195 108 0 17 -11 16 -38 -3z"/>
<path d="M7380 6925 c0 -6 116 -65 127 -65 10 1 -109 70 -119 70 -5 0 -8 -2
-8 -5z"/>
<path d="M7710 6776 c25 -14 50 -25 55 -25 16 -1 -48 36 -75 43 -14 4 -5 -4
20 -18z"/>
<path d="M6845 6776 c-30 -22 -12 -40 68 -64 48 -15 90 -36 116 -58 46 -40 54
-29 22 34 -23 46 -46 67 -94 87 -45 19 -87 19 -112 1z"/>
<path d="M7810 6702 c6 -13 14 -21 18 -18 3 4 -2 14 -12 24 -18 16 -18 16 -6
-6z"/>
<path d="M6829 6543 c-39 -34 -59 -79 -59 -137 0 -37 4 -48 25 -62 33 -22 64
-10 82 34 15 37 12 84 -8 109 -10 11 -16 11 -37 -3 l-25 -16 19 25 c58 79 129
42 170 -88 l13 -40 0 39 c1 48 -31 118 -66 146 -35 28 -75 25 -114 -7z"/>
<path d="M7819 6553 c27 -53 135 -219 167 -258 19 -23 34 -49 34 -57 0 -9 9
-18 20 -21 20 -5 20 -5 -2 31 -12 21 -36 55 -54 77 -18 22 -62 85 -99 140 -70
105 -85 125 -66 88z"/>
<path d="M5634 5920 c-66 -10 -214 -59 -214 -71 0 -5 24 0 53 11 73 27 174 50
225 50 49 0 108 -22 129 -48 13 -15 13 -15 3 5 -22 46 -102 68 -196 53z"/>
<path d="M5590 5855 c-30 -8 -72 -21 -92 -29 l-38 -16 0 -81 c0 -81 12 -125
32 -113 13 8 128 22 128 15 0 -2 -8 -14 -17 -25 -10 -11 -1 -6 20 12 115 98
153 152 142 203 -11 51 -64 61 -175 34z"/>
<path d="M5860 5703 c0 -6 8 -17 18 -24 16 -13 16 -13 2 6 -8 11 -16 22 -17
24 -2 2 -3 0 -3 -6z"/>
<path d="M7551 5424 c0 -11 3 -14 6 -6 3 7 2 16 -1 19 -3 4 -6 -2 -5 -13z"/>
<path d="M5930 5421 c0 -6 4 -13 10 -16 6 -3 7 1 4 9 -7 18 -14 21 -14 7z"/>
<path d="M8060 5361 c0 -6 4 -12 8 -15 5 -3 9 1 9 9 0 8 -4 15 -9 15 -4 0 -8
-4 -8 -9z"/>
<path d="M6760 5318 c-19 -16 -26 -26 -15 -20 18 9 64 53 54 52 -2 -1 -20 -15
-39 -32z"/>
<path d="M8028 5293 c7 -3 16 -2 19 1 4 3 -2 6 -13 5 -11 0 -14 -3 -6 -6z"/>
<path d="M5746 5267 c3 -10 9 -15 12 -12 3 3 0 11 -7 18 -10 9 -11 8 -5 -6z"/>
<path d="M5690 5255 c0 -5 5 -17 10 -25 5 -8 10 -10 10 -5 0 6 -5 17 -10 25
-5 8 -10 11 -10 5z"/>
<path d="M8680 3571 c0 -5 -14 -14 -30 -21 -17 -7 -28 -15 -25 -18 7 -7 85 29
85 40 0 4 -7 8 -15 8 -8 0 -15 -4 -15 -9z"/>
<path d="M8712 3525 c4 -5 27 -11 50 -15 24 -4 57 -10 73 -14 l30 -7 -32 15
c-36 16 -132 33 -121 21z"/>
<path d="M8923 3458 c39 -14 34 -24 -23 -43 -27 -9 -50 -19 -50 -22 0 -13 72
8 104 30 l36 24 -39 11 c-46 14 -67 14 -28 0z"/>
<path d="M8923 3327 c36 -42 78 -108 134 -209 10 -19 -17 -5 -56 28 -23 20
-44 34 -47 31 -3 -2 10 -36 29 -73 42 -84 63 -148 77 -234 14 -91 12 -255 -4
-315 l-13 -50 -6 35 c-4 19 -12 69 -19 110 l-12 75 -12 -115 c-9 -80 -23 -146
-48 -219 -43 -124 -46 -193 -15 -275 11 -31 23 -57 27 -60 4 -2 72 -6 152 -10
l145 -7 -30 25 c-23 20 -27 28 -18 37 9 9 23 7 60 -9 66 -28 118 -41 132 -33
7 5 8 18 1 43 -12 40 -50 74 -120 105 -25 11 -59 32 -74 46 -16 15 -35 27 -42
27 -28 0 -13 22 26 38 22 9 40 20 40 25 0 26 -151 -19 -272 -81 -18 -9 -5 70
27 163 21 65 35 94 39 83 18 -55 18 -54 33 -19 44 105 38 368 -13 519 -13 41
-23 76 -21 79 2 2 16 -1 31 -7 34 -13 66 -13 66 -1 0 5 -8 12 -17 15 -10 3
-36 41 -58 83 -55 106 -114 183 -148 196 -11 4 -1 -14 26 -46z"/>
<path d="M372 2402 c3 -54 9 -106 15 -116 7 -13 9 11 5 83 -4 77 -2 101 8 101
10 0 10 3 0 15 -27 32 -33 15 -28 -83z"/>
<path d="M9440 2444 c19 -2 86 -9 148 -15 295 -28 490 -137 609 -342 24 -39
43 -64 43 -54 0 39 -56 126 -129 198 -86 85 -180 139 -321 184 -75 24 -103 28
-235 30 -82 2 -134 1 -115 -1z"/>
<path d="M174 2215 c8 -8 18 -15 22 -15 3 0 1 7 -6 15 -7 8 -17 15 -22 15 -5
0 -3 -7 6 -15z"/>
<path d="M149 2168 c-2 -24 -1 -59 2 -78 5 -24 7 -12 8 43 1 83 -5 103 -10 35z"/>
<path d="M10205 1515 l-30 -13 33 -1 c22 -1 32 4 32 14 0 8 -1 15 -2 15 -2 -1
-16 -7 -33 -15z"/>
<path d="M9013 1273 c-16 -17 -36 -49 -45 -72 -15 -38 -15 -41 0 -41 27 0 37
11 61 68 29 68 23 86 -16 45z"/>
<path d="M9142 1263 c-53 -16 -132 -76 -118 -90 4 -4 10 -3 14 3 4 5 26 16 49
23 53 18 115 52 121 69 5 15 1 14 -66 -5z"/>
<path d="M6952 1063 c-17 -21 -30 -39 -28 -40 2 -2 18 3 37 11 19 9 28 15 22
16 -9 0 -10 7 -3 25 13 33 9 32 -28 -12z"/>
<path d="M7067 1083 c-4 -3 -7 -11 -7 -17 0 -6 5 -5 12 2 6 6 9 14 7 17 -3 3
-9 2 -12 -2z"/>
<path d="M8150 1065 c-14 -15 -38 -36 -54 -47 l-28 -21 7 24 c11 36 11 41 -1
46 -14 5 -64 -70 -64 -97 0 -21 16 -28 22 -10 2 6 13 12 26 15 12 2 28 7 35
11 8 5 7 2 -2 -9 -23 -29 -7 -29 68 2 85 35 117 54 131 81 17 32 -10 25 -56
-13 -45 -39 -83 -61 -91 -53 -3 3 5 21 17 40 28 46 22 65 -10 31z"/>
<path d="M7025 1060 c-3 -5 -1 -10 4 -10 6 0 11 5 11 10 0 6 -2 10 -4 10 -3 0
-8 -4 -11 -10z"/>
<path d="M7917 1024 c-3 -3 1 -17 9 -32 8 -15 14 -32 14 -38 0 -7 6 -14 14
-17 14 -6 26 12 26 38 0 15 -54 57 -63 49z"/>
<path d="M6535 860 c-12 -38 -22 -119 -13 -114 4 3 8 1 8 -5 0 -5 -5 -11 -12
-13 -7 -3 -5 -7 5 -11 11 -4 19 -1 22 8 16 50 16 50 24 36 21 -33 24 32 4 102
-6 23 -30 22 -38 -3z"/>
<path d="M6655 830 c-4 -11 -22 -41 -41 -65 -19 -25 -34 -48 -34 -51 0 -12 46
10 62 30 l17 21 -5 -22 c-6 -21 -5 -22 43 -9 95 26 165 66 115 66 -27 0 -34
11 -20 29 7 9 -6 -1 -28 -21 -50 -47 -76 -51 -68 -9 5 23 2 32 -14 40 -17 9
-22 8 -27 -9z"/>
<path d="M6427 813 c-3 -5 -2 -15 4 -23 5 -8 9 -27 9 -42 0 -17 5 -28 14 -28
8 0 16 -6 19 -12 3 -10 8 -10 17 -2 8 8 9 18 2 30 -5 11 -15 32 -23 48 -15 31
-33 43 -42 29z"/>
<path d="M7437 812 c-17 -25 -26 -72 -15 -78 18 -11 29 12 26 52 -2 25 -6 34
-11 26z"/>
<path d="M7531 789 c-32 -33 -34 -46 -7 -36 18 7 51 55 43 63 -3 3 -19 -9 -36
-27z"/>
<path d="M5395 685 c-41 -21 -86 -73 -124 -145 -33 -62 -33 -67 -3 -51 26 14
56 24 66 22 4 -1 14 3 21 9 7 6 19 8 27 5 9 -4 55 13 104 36 56 27 83 44 71
46 -20 5 -76 -12 -130 -39 -22 -11 -41 -17 -44 -14 -3 3 8 22 24 43 33 43 63
90 63 98 0 10 -46 4 -75 -10z"/>
<path d="M6064 663 c-56 -37 -61 -43 -46 -52 15 -9 125 5 153 20 32 16 15 22
-26 9 -42 -14 -51 -10 -36 19 17 31 -2 33 -45 4z"/>
</g>
</svg>
