<?xml version="1.0" standalone="no"?>
<!DOCTYPE svg PUBLIC "-//W3C//DTD SVG 20010904//EN"
 "http://www.w3.org/TR/2001/REC-SVG-20010904/DTD/svg10.dtd">
<svg version="1.0" xmlns="http://www.w3.org/2000/svg"
 width="1024.000000pt" height="1024.000000pt" viewBox="0 0 1024.000000 1024.000000"
 preserveAspectRatio="xMidYMid meet">

<g transform="translate(0.000000,1024.000000) scale(0.100000,-0.100000)"
fill="#000000" stroke="none">
<path d="M4693 10063 c18 -3 25 -9 20 -16 -5 -9 -3 -9 8 0 8 6 35 13 59 16 25
2 9 4 -35 4 -44 0 -68 -2 -52 -4z"/>
<path d="M5163 10063 c9 -2 23 -2 30 0 6 3 -1 5 -18 5 -16 0 -22 -2 -12 -5z"/>
<path d="M5413 10048 c16 -11 79 -10 96 1 9 6 -8 9 -47 8 -33 -1 -55 -5 -49
-9z"/>
<path d="M5560 10040 c0 -6 12 -10 27 -10 29 0 24 12 -7 17 -11 2 -20 -2 -20
-7z"/>
<path d="M5630 10031 c14 -9 74 -15 95 -11 15 4 -46 18 -80 19 -22 0 -26 -2
-15 -8z"/>
<path d="M4799 10009 c-306 -15 -643 -66 -969 -145 -895 -219 -1723 -698
-2375 -1374 -133 -139 -292 -325 -396 -465 -95 -128 -279 -403 -279 -416 0 -6
-5 -7 -12 -3 -6 4 -8 3 -5 -3 3 -5 -15 -45 -40 -89 -91 -159 -222 -434 -301
-629 -67 -168 -104 -276 -182 -530 -5 -16 -12 -47 -16 -68 -3 -22 -9 -34 -13
-29 -3 6 -7 -9 -8 -31 -1 -23 -13 -91 -28 -152 -47 -199 -121 -712 -113 -788
2 -25 -2 -33 -27 -47 l-30 -17 -3 -115 -3 -115 31 -13 c30 -12 30 -13 31 -89
0 -42 2 -92 4 -111 2 -19 6 -69 9 -110 16 -200 64 -511 110 -718 14 -61 22
-120 19 -129 -4 -9 -2 -14 3 -10 5 3 20 -34 32 -81 36 -138 89 -301 149 -460
30 -81 55 -153 56 -159 0 -7 5 -13 11 -13 8 0 8 -3 0 -8 -7 -4 -8 -15 -3 -27
6 -16 8 -16 8 -3 1 9 53 -85 116 -208 63 -123 126 -241 139 -262 14 -20 26
-43 28 -51 2 -7 11 -23 21 -35 10 -11 61 -86 114 -166 198 -300 368 -506 642
-781 304 -303 531 -480 903 -702 190 -114 550 -291 768 -377 107 -43 437 -151
532 -176 248 -63 576 -121 823 -146 84 -8 262 -13 500 -12 418 1 587 15 930
78 479 88 811 195 1255 403 52 25 105 49 118 54 38 15 349 196 457 266 386
252 721 542 1008 873 50 58 95 104 100 102 5 -1 6 2 3 7 -3 5 10 28 29 51 19
23 62 80 96 126 35 49 65 81 71 78 7 -4 8 -2 4 4 -9 15 23 64 37 55 5 -3 7 -1
3 5 -3 6 13 39 37 74 64 93 176 279 236 391 29 53 57 95 61 92 5 -3 12 0 16 6
5 8 3 9 -6 4 -10 -6 -12 -4 -7 9 4 10 7 20 7 22 0 3 5 2 12 -2 6 -4 8 -3 4 4
-7 12 13 64 23 57 4 -2 13 1 21 7 12 8 11 9 -3 4 -15 -5 -17 -2 -11 17 3 12
17 42 29 67 67 133 202 515 265 750 54 199 61 225 71 242 5 10 9 41 9 70 0 29
5 80 10 113 19 110 49 342 56 432 4 48 8 95 10 103 1 8 3 72 3 141 l1 126 38
7 c30 5 41 13 60 47 46 80 19 183 -55 211 -18 6 -33 15 -33 20 0 4 7 5 15 2
11 -5 13 -2 9 10 -3 9 -10 16 -15 16 -10 0 -14 29 -29 195 -12 129 -47 366
-75 500 -32 153 -87 385 -111 470 -38 129 -144 420 -204 560 -104 243 -333
657 -469 850 -134 189 -324 425 -450 558 -30 32 -46 55 -36 51 17 -7 17 -6 4
12 -36 49 -132 143 -141 138 -5 -3 -4 -13 3 -22 7 -10 -23 17 -67 59 -135 129
-222 201 -419 348 -104 79 -197 148 -205 155 -9 7 -22 15 -30 18 -37 14 -255
161 -252 170 1 5 -2 7 -7 4 -9 -6 -141 61 -141 71 0 3 7 2 16 -1 9 -3 12 -2 9
5 -4 6 -13 8 -21 5 -22 -9 -43 4 -37 22 4 13 3 14 -5 4 -7 -11 -25 -6 -85 24
-52 26 -73 41 -64 47 7 5 4 6 -9 3 -19 -6 -72 14 -103 38 -7 5 -18 11 -25 12
-38 8 -295 122 -288 129 4 4 2 5 -5 1 -6 -3 -29 0 -50 8 -153 58 -457 140
-706 191 -379 77 -847 113 -1218 94z m626 -129 c696 -63 1254 -222 1840 -524
343 -177 660 -390 960 -645 180 -153 442 -425 599 -621 366 -459 625 -919 809
-1440 135 -381 246 -911 264 -1266 l6 -121 -96 -2 c-124 -2 -131 4 -141 120
-51 603 -222 1216 -484 1740 -259 514 -679 1050 -1103 1404 -275 230 -682 504
-949 639 -600 304 -1204 462 -1898 497 -456 22 -854 -17 -1317 -132 -667 -165
-1311 -497 -1880 -970 -117 -97 -393 -370 -520 -514 -301 -340 -592 -817 -765
-1250 -180 -451 -269 -803 -333 -1319 -20 -155 -27 -192 -42 -203 -13 -9 -50
-13 -113 -13 l-95 0 6 134 c11 229 108 736 198 1031 114 378 316 828 522 1162
90 146 102 163 274 393 210 280 453 535 735 772 309 259 579 437 933 618 606
309 1234 475 1980 524 94 6 489 -3 610 -14z m-386 -422 c-1 -35 -4 -53 -6 -40
-2 12 -11 22 -19 22 -8 0 -14 5 -14 10 0 6 7 10 15 10 8 0 15 5 15 10 0 6 -16
10 -35 10 -19 0 -35 5 -35 10 0 7 -49 10 -137 9 -195 -1 -206 4 -23 11 85 3
174 7 198 8 l42 2 -1 -62z m311 42 c214 -13 370 -34 590 -79 l45 -9 -62 -1
c-34 -1 -63 3 -65 8 -1 5 -24 11 -50 14 -43 5 -48 4 -48 -14 0 -16 -7 -19 -40
-19 -46 0 -56 24 -17 40 15 6 1 7 -43 4 -50 -4 -62 -3 -50 6 12 9 7 10 -20 5
-26 -5 -31 -4 -20 4 20 14 25 13 -205 30 -186 13 -198 13 -190 1 8 -13 -15
-13 -35 0 -9 6 -17 5 -22 -3 -6 -9 -8 -8 -8 3 0 13 -1 13 -10 0 -8 -12 -10
-11 -10 5 0 17 6 20 38 18 20 -1 120 -7 222 -13z m-594 -19 c-3 -5 8 -14 24
-20 17 -6 43 -19 57 -31 14 -11 30 -17 37 -13 6 3 8 3 4 -2 -17 -18 40 -44
103 -47 l64 -3 3 -42 c2 -24 -1 -43 -5 -43 -10 0 -65 37 -158 104 -38 29 -89
60 -112 70 -38 17 -49 36 -22 36 6 0 8 -4 5 -9z m157 2 c-7 -2 -19 -2 -25 0
-7 3 -2 5 12 5 14 0 19 -2 13 -5z m-333 -38 c147 -46 346 -165 445 -266 l30
-31 -72 36 c-40 20 -104 57 -143 82 -145 93 -301 153 -467 178 -82 12 -88 17
-38 30 43 11 164 -4 245 -29z m375 -5 c0 -7 -5 -15 -12 -17 -7 -3 -11 4 -10
16 1 23 22 23 22 1z m142 -2 c-3 -8 -6 -5 -6 6 -1 11 2 17 5 13 3 -3 4 -12 1
-19z m-162 -38 c-3 -5 -12 -10 -18 -10 -7 0 -6 4 3 10 19 12 23 12 15 0z
m1082 4 c-3 -3 -12 -4 -19 -1 -8 3 -5 6 6 6 11 1 17 -2 13 -5z m-719 -37 c108
-4 206 -9 217 -11 11 -2 49 -7 85 -11 80 -8 395 -68 504 -96 193 -48 554 -174
691 -239 59 -28 71 -30 125 -24 41 4 60 11 60 20 0 8 -4 14 -10 14 -5 0 -10
12 -10 26 0 14 -4 23 -10 19 -5 -3 -10 -3 -10 2 0 4 -18 17 -41 27 -55 27 -60
40 -7 20 251 -96 666 -354 1003 -623 99 -79 276 -236 370 -328 l80 -78 -83 -3
-83 -3 50 -52 c27 -29 65 -70 83 -92 18 -21 56 -64 83 -95 28 -30 88 -106 135
-168 85 -112 107 -133 96 -88 -3 14 -2 28 4 31 15 9 12 28 -3 22 -9 -3 -11 6
-9 32 3 31 0 38 -27 54 -25 15 -30 23 -26 44 2 15 -1 34 -7 42 -7 9 -7 12 -1
6 20 -19 118 -140 162 -200 24 -33 49 -64 56 -70 24 -21 290 -473 306 -522 7
-21 40 -96 74 -168 72 -149 154 -363 189 -492 13 -48 40 -146 60 -218 66 -235
121 -574 134 -817 l7 -128 -391 0 -391 0 -6 108 c-3 59 -18 163 -32 231 -15
68 -24 135 -21 147 4 13 10 74 16 136 7 90 18 141 54 249 65 198 78 271 80
439 1 132 -1 149 -21 187 -66 123 -176 123 -438 -2 -111 -52 -360 -212 -404
-259 -22 -23 -33 -26 -92 -26 -37 0 -79 4 -93 10 -14 5 -47 11 -73 14 -28 2
-47 9 -46 15 2 7 -19 11 -59 11 -56 0 -60 1 -42 15 24 18 22 18 -73 0 -96 -18
-98 -18 -83 0 16 19 -1 20 -88 1 -60 -12 -63 -12 -59 5 4 16 -2 15 -64 -7 -42
-15 -102 -27 -154 -31 l-86 -6 -82 79 c-172 165 -288 252 -458 342 -156 83
-221 88 -286 19 -50 -53 -56 -88 -50 -291 4 -133 13 -218 32 -321 18 -99 28
-187 31 -303 l5 -162 -35 -88 c-53 -131 -69 -217 -70 -374 l-1 -138 -132 0
c-73 0 -133 2 -133 4 0 3 40 125 89 273 127 379 158 512 181 765 13 143 7 271
-36 738 -46 501 -87 765 -155 995 -29 94 -100 277 -137 352 l-31 61 2 349 2
348 -22 3 -23 3 -2 -293 -3 -293 -49 90 c-112 206 -310 458 -454 579 -69 58
-69 59 -75 116 -5 54 3 132 10 99 3 -14 32 -17 201 -22z m849 7 c-3 -3 -12 -4
-19 -1 -8 3 -5 6 6 6 11 1 17 -2 13 -5z m-1182 -230 c44 -9 90 -22 102 -30 14
-9 23 -10 25 -3 6 17 115 -80 196 -174 136 -156 225 -295 326 -507 l54 -115 4
-134 c2 -73 1 -125 -3 -115 -75 191 -117 290 -146 344 -54 97 -122 208 -165
268 -21 28 -35 52 -31 52 5 0 37 -29 73 -65 100 -101 90 -70 -26 80 -161 210
-351 345 -554 396 -47 12 -87 24 -90 27 -9 9 154 -7 235 -24z m1866 -12 c-7
-2 -18 1 -23 6 -8 8 -4 9 13 5 13 -4 18 -8 10 -11z m-1928 -232 c43 -14 84
-47 101 -80 l14 -30 -46 1 c-26 0 -65 3 -87 8 -39 7 -40 7 -12 14 37 10 23 29
-35 47 l-43 14 30 7 c17 3 23 7 14 8 -9 0 -27 10 -40 20 l-24 19 50 -9 c28 -5
63 -13 78 -19z m-2165 -42 c-214 -263 -486 -853 -658 -1428 -109 -368 -155
-582 -220 -1035 -80 -557 -186 -1154 -189 -1060 0 17 13 147 29 290 17 143 39
343 51 445 26 242 92 676 130 865 97 482 297 1112 461 1455 28 58 89 170 136
249 75 125 92 147 136 176 88 56 151 94 159 94 4 1 -12 -23 -35 -51z m2248
-150 c45 -15 80 -35 112 -64 60 -55 37 -58 -54 -7 -37 20 -90 42 -118 49 -28
7 -45 13 -38 13 23 2 12 20 -15 24 -23 3 -21 4 9 6 21 0 67 -9 104 -21z
m-2666 -180 c-143 -276 -310 -741 -421 -1176 -116 -453 -185 -880 -259 -1607
-11 -110 -32 -273 -45 -363 -14 -89 -25 -167 -25 -172 0 -6 -193 -10 -523 -10
l-523 0 8 103 c27 354 130 867 235 1165 l36 102 62 0 61 0 64 138 c34 75 97
202 138 282 42 80 90 173 108 208 18 35 38 70 44 77 15 18 -1 27 -48 25 -20
-1 -41 -1 -47 0 -5 1 -13 2 -17 1 -15 -2 -8 27 14 54 21 26 24 27 94 23 66 -4
73 -3 84 16 6 12 16 30 23 41 17 30 124 176 179 247 26 33 45 65 41 71 -3 6
-1 7 5 3 13 -8 45 47 34 59 -4 5 -1 5 6 1 7 -4 12 -1 12 8 0 9 5 16 10 16 6 0
10 9 10 20 0 13 -7 20 -20 20 -11 0 -20 5 -20 10 0 6 9 10 20 10 11 0 20 5 20
10 0 6 9 10 20 10 11 0 20 -5 20 -10 0 -6 8 -5 20 2 16 10 20 24 20 65 0 40
-4 53 -14 53 -8 0 -18 -5 -22 -12 -4 -7 -3 -8 4 -4 7 4 12 3 12 -2 0 -6 -11
-13 -25 -16 -27 -7 -35 -36 -10 -36 8 0 15 -7 15 -15 0 -8 -7 -15 -15 -15 -8
0 -15 7 -15 15 0 8 -7 15 -15 15 -8 0 -15 6 -15 13 0 6 -9 1 -20 -13 -11 -14
-20 -20 -20 -14 0 6 11 21 24 33 18 17 25 19 29 9 2 -7 3 -4 1 6 -6 37 276
319 516 516 82 68 185 146 197 149 1 1 -29 -59 -67 -131z m804 49 c-117 -123
-138 -155 -178 -267 -21 -58 -44 -121 -51 -141 -22 -59 -5 -53 35 11 42 68 55
84 44 55 -7 -20 -7 -20 16 0 l23 20 -12 -23 c-7 -12 -9 -26 -6 -31 3 -5 -4
-25 -16 -45 -42 -71 -13 -52 40 25 53 80 70 95 51 45 -5 -15 -6 -25 -1 -22 11
7 5 -62 -9 -99 -19 -50 -2 -38 40 29 23 36 44 66 46 66 8 0 -29 -65 -101 -175
-39 -60 -96 -150 -125 -200 -29 -49 -57 -93 -64 -97 -18 -12 -18 8 -1 42 9 18
12 29 7 26 -6 -3 -2 17 9 44 10 28 19 56 19 63 -1 15 -54 -46 -76 -86 -9 -16
-18 -27 -20 -24 -4 4 -2 12 30 92 l16 40 -30 -35 c-33 -37 -39 -28 -15 23 15
30 15 30 0 12 -9 -11 -33 -52 -53 -92 -20 -40 -38 -71 -40 -69 -2 3 17 68 43
146 25 78 44 144 41 147 -3 3 -19 -17 -37 -43 -17 -27 -28 -40 -24 -29 4 11
16 42 27 69 10 27 17 53 16 58 -4 12 -109 -142 -143 -210 -39 -80 -40 -56 -1
36 49 116 150 295 217 383 65 85 107 126 66 64 -32 -48 -69 -115 -63 -115 2 0
34 42 71 93 63 85 252 287 270 287 4 0 -23 -33 -61 -73z m1883 47 c54 -18 106
-52 98 -63 -2 -5 16 -22 40 -40 118 -85 257 -315 353 -587 47 -132 99 -340 89
-351 -3 -2 -11 22 -17 54 -31 153 -163 486 -252 637 -22 38 -71 103 -108 145
-54 62 -82 84 -141 113 -91 44 -138 58 -209 59 -65 1 -42 16 30 20 38 2 40 3
12 6 -18 2 -30 9 -27 14 9 14 79 11 132 -7z m-752 -90 c-60 -7 -140 -27 -181
-44 -40 -18 -42 -18 -37 0 9 32 66 48 173 47 41 0 62 -2 45 -3z m-1500 -91
c-26 -57 -193 -333 -201 -333 -3 0 2 12 9 28 30 59 46 99 57 142 6 25 21 58
32 74 14 19 17 31 10 34 -13 4 5 52 20 52 5 0 4 -10 -2 -22 -7 -13 11 2 39 32
28 30 51 60 52 65 0 6 3 4 6 -2 2 -7 -7 -39 -22 -70z m1225 72 c0 -2 -15 -12
-32 -20 l-33 -16 24 21 c22 19 41 26 41 15z m-1 -47 c-24 -17 -66 -50 -94 -72
-45 -37 -48 -38 -28 -11 27 38 59 67 103 94 54 32 68 25 19 -11z m-14 -37 c-6
-4 -30 -25 -55 -46 l-45 -38 47 47 c26 25 50 46 54 46 5 0 4 -4 -1 -9z m360
-58 c92 -37 92 -37 55 -3 l-35 32 60 -33 c33 -18 66 -37 74 -43 12 -9 13 -7 7
9 -6 17 -4 16 21 -5 15 -14 32 -31 36 -37 6 -10 14 -9 34 4 25 17 25 17 19 -5
-9 -28 -6 -28 57 4 l52 26 -24 -26 c-14 -14 -22 -28 -20 -31 3 -2 32 6 64 19
33 13 74 27 90 30 28 6 28 5 -10 -18 -47 -30 -45 -30 60 -11 102 18 119 18 73
-2 -38 -15 -54 -39 -20 -29 9 3 49 7 87 10 64 4 67 3 33 -7 -56 -18 -55 -25 9
-33 32 -4 50 -10 40 -12 -14 -3 -9 -11 25 -37 91 -69 186 -215 229 -348 27
-85 71 -308 66 -335 -2 -12 0 -25 5 -28 5 -3 7 -13 3 -22 -3 -8 0 -19 7 -23
10 -6 10 -11 2 -19 -13 -13 2 -67 21 -83 6 -6 6 -10 -2 -14 -7 -2 -13 -9 -13
-14 0 -6 4 -8 8 -5 4 2 13 -4 20 -14 11 -18 10 -18 -26 -3 -104 43 -408 -37
-489 -131 -40 -44 -78 -116 -62 -116 6 0 79 20 162 44 273 80 430 101 473 65
21 -18 20 -247 -1 -256 -22 -8 -24 -5 -31 75 -6 67 -8 71 -24 57 -15 -13 -23
-13 -74 0 -174 45 -374 -9 -466 -126 l-35 -44 53 42 c101 80 236 125 320 107
33 -7 26 -9 -52 -15 -157 -13 -280 -95 -345 -231 -17 -36 -31 -72 -31 -81 0
-11 27 -17 123 -27 141 -14 159 -9 215 54 35 40 47 86 39 152 -6 53 4 56 61
14 49 -35 72 -94 54 -136 -18 -39 -14 -42 14 -9 l26 30 -16 -32 c-18 -35 -65
-74 -111 -92 -26 -9 -20 -10 44 -8 l74 3 -44 -38 c-24 -21 -40 -38 -35 -38 23
0 89 48 112 82 53 76 74 36 81 -157 6 -148 -7 -248 -47 -365 -21 -63 -89 -212
-100 -220 -4 -3 -11 -16 -15 -30 -4 -14 -20 -41 -34 -60 -36 -46 -65 -94 -62
-99 1 -2 -1 -7 -6 -10 -9 -6 -30 -41 -96 -163 -14 -25 -23 -49 -20 -52 4 -3 1
-6 -5 -6 -6 0 -13 -13 -17 -29 -3 -16 -13 -35 -21 -42 -8 -7 -20 -22 -26 -33
-45 -90 205 267 269 384 78 141 158 360 182 494 14 79 14 265 -1 398 -10 100
-10 109 7 128 36 39 42 26 51 -112 13 -189 11 -394 -5 -458 -76 -324 -233
-602 -607 -1075 -216 -275 -299 -343 -461 -381 -85 -20 -227 -13 -332 16 -359
101 -917 585 -1106 959 -31 63 -35 78 -26 99 11 23 13 22 48 -44 179 -340 592
-737 948 -913 152 -76 232 -95 362 -89 136 8 197 32 282 115 36 35 51 54 34
42 -18 -13 -33 -26 -33 -31 0 -4 -3 -7 -7 -6 -5 1 -42 -9 -83 -21 -41 -13
-114 -26 -161 -29 -169 -9 -271 26 -528 183 -85 52 -259 236 -364 383 -44 61
-110 191 -125 242 -5 19 -22 76 -36 125 -61 205 -74 344 -52 520 28 210 49
310 82 382 8 17 11 38 8 47 -3 9 -1 16 4 16 6 0 14 9 17 20 4 11 11 18 16 15
5 -4 12 1 15 9 10 25 51 19 100 -15 58 -40 96 -55 173 -69 73 -13 92 -7 33 11
-51 15 -139 83 -176 137 -25 37 -27 45 -17 70 6 15 21 33 32 40 18 11 19 10
13 -12 -9 -37 21 -128 53 -158 38 -35 64 -47 129 -59 51 -9 58 -8 100 16 24
14 56 44 70 65 23 35 26 47 22 104 -3 58 -2 64 13 55 27 -14 68 -68 99 -130
17 -32 37 -62 45 -67 20 -11 11 -36 -18 -50 -18 -9 -12 -11 36 -11 68 -1 70 4
32 106 -72 192 -201 286 -415 303 l-85 7 85 2 c192 3 323 -68 411 -224 17 -31
33 -54 36 -51 11 10 -53 121 -99 172 -104 113 -277 162 -474 134 -81 -12 -88
-11 -101 6 -19 26 -16 64 7 99 11 17 20 38 20 48 0 27 41 37 109 26 84 -13
311 -91 466 -159 143 -63 204 -85 212 -77 11 12 -10 88 -36 129 -36 57 -133
108 -325 173 -156 53 -257 66 -345 45 -29 -7 -54 -10 -57 -7 -2 2 2 17 11 33
8 16 45 106 81 199 111 288 193 431 311 547 92 89 223 146 313 134 l45 -6 -25
20 c-14 10 -44 24 -68 31 -23 6 -45 16 -48 21 -9 15 77 -3 141 -29z m-471 -45
c-15 -25 -84 -110 -84 -103 0 8 79 115 86 115 3 0 2 -6 -2 -12z m-71 -45 c-10
-16 -21 -32 -26 -38 -21 -26 -100 -158 -138 -230 -23 -44 -77 -168 -121 -275
-69 -171 -108 -248 -108 -214 0 81 263 609 372 747 35 43 46 49 21 10z m-451
-85 c-10 -18 -35 -61 -56 -94 -44 -75 -46 -90 -6 -39 17 21 30 35 30 32 0 -8
-43 -100 -149 -320 -74 -153 -87 -175 -95 -157 -9 20 -11 19 -33 -22 -13 -24
-21 -34 -18 -23 4 11 10 41 15 68 5 26 14 56 20 67 5 10 10 27 9 37 0 10 -25
-33 -55 -96 -30 -63 -57 -111 -60 -108 -7 7 74 214 119 303 19 38 61 103 92
144 65 88 194 240 201 240 3 0 -3 -15 -14 -32z m2461 -198 c81 -243 129 -534
182 -1110 50 -552 40 -725 -65 -1088 -53 -182 -145 -389 -179 -400 -8 -3 -5 8
8 25 54 73 166 464 201 703 34 229 29 325 -44 970 -51 445 -80 601 -151 809
-20 61 -25 92 -24 175 l0 101 18 -40 c10 -22 34 -88 54 -145z m-2414 -27 c-23
-43 -57 -100 -76 -128 -18 -27 -33 -56 -33 -63 0 -18 -64 -155 -85 -184 -12
-15 -15 -17 -12 -5 14 39 -5 12 -40 -58 -20 -41 -38 -73 -40 -71 -14 14 231
483 284 543 18 21 33 42 33 47 0 5 3 7 6 3 3 -3 -13 -41 -37 -84z m46 -43
c-49 -162 -81 -254 -110 -315 l-33 -70 4 60 c5 61 -1 59 -26 -9 -6 -16 -12
-27 -15 -25 -5 6 45 219 56 239 49 86 79 131 74 113 -9 -34 2 -28 31 17 15 22
28 39 30 37 2 -1 -3 -23 -11 -47z m5020 30 c10 -11 16 -20 13 -20 -3 0 -13 9
-23 20 -10 11 -16 20 -13 20 3 0 13 -9 23 -20z m-4980 -94 c-6 -78 -86 -318
-101 -303 -3 3 2 28 10 57 14 45 14 51 1 46 -19 -7 -19 -5 8 67 13 34 29 80
36 102 13 39 37 85 46 85 2 0 2 -24 0 -54z m-84 -379 c-10 -9 -11 -8 -5 6 3
10 9 15 12 12 3 -3 0 -11 -7 -18z m-2160 -90 c-10 -9 -11 -8 -5 6 3 10 9 15
12 12 3 -3 0 -11 -7 -18z m2267 -173 c3 -37 -19 -84 -39 -84 -15 0 -3 67 17
98 8 12 16 22 17 22 2 0 4 -16 5 -36z m267 -274 c25 -27 9 -42 -40 -38 -43 3
-54 18 -30 42 22 22 48 20 70 -4z m125 5 c16 -20 6 -45 -19 -45 -26 0 -34 15
-21 40 13 24 23 25 40 5z m1238 -113 c2 -12 0 -22 -5 -22 -4 0 -18 -3 -30 -6
-19 -5 -23 -2 -23 14 0 21 27 44 45 38 6 -1 11 -12 13 -24z m1220 -8 c134 -54
380 -232 532 -385 88 -89 108 -114 113 -145 4 -21 5 -39 3 -41 -1 -2 -25 24
-52 58 -43 53 -174 179 -229 219 -25 18 3 -16 100 -121 78 -84 105 -122 136
-191 15 -33 28 -48 40 -48 11 0 20 6 20 13 3 28 17 -94 18 -157 1 -61 -1 -67
-16 -60 -10 4 -34 8 -53 8 -31 1 -35 -2 -41 -29 -4 -16 -7 -24 -8 -17 0 6 -6
12 -13 12 -7 0 -5 -7 5 -18 9 -10 23 -36 31 -57 7 -22 32 -69 55 -105 121
-192 189 -424 162 -551 -15 -67 -8 -73 13 -13 11 32 16 82 16 150 0 56 3 116
6 133 6 30 9 31 55 31 36 0 49 4 49 14 0 11 9 13 38 9 20 -3 39 -10 40 -15 5
-13 40 -10 46 5 5 10 7 10 12 0 3 -7 21 -13 39 -13 32 0 34 -2 37 -37 3 -39 0
-63 -27 -174 -8 -36 -15 -84 -15 -107 0 -46 -7 -49 -50 -27 -43 22 -165 23
-188 2 -10 -10 -23 -17 -29 -17 -6 0 -14 -7 -17 -16 -4 -11 -13 -14 -31 -10
-19 5 -28 1 -41 -20 -13 -19 -14 -28 -5 -33 8 -5 11 -32 9 -79 l-2 -72 45 -48
c25 -26 56 -61 68 -79 12 -17 31 -35 42 -38 16 -6 19 -14 18 -51 -3 -42 -6
-47 -54 -79 -96 -63 -197 -70 -292 -21 -54 28 -103 65 -88 66 6 0 16 -5 22
-11 8 -8 13 -7 18 3 5 7 5 10 0 6 -4 -4 -16 4 -27 17 -19 24 -46 36 -33 15 3
-5 -1 -10 -10 -10 -9 0 -13 5 -10 10 4 6 -7 10 -24 10 -17 0 -31 -4 -31 -10 0
-5 5 -10 11 -10 6 0 9 -6 6 -14 -4 -10 31 -43 108 -101 121 -91 164 -140 220
-253 32 -64 39 -71 100 -102 59 -30 70 -32 132 -28 81 6 139 33 179 83 77 97
174 190 237 227 37 22 70 44 72 48 3 5 -13 22 -34 39 -22 17 -42 27 -45 22 -4
-5 2 -11 11 -14 13 -3 3 -11 -31 -27 -43 -19 -61 -22 -140 -18 -146 7 -250 65
-262 147 -6 40 -4 45 24 68 17 13 41 41 53 62 15 27 30 41 51 45 30 6 58 52
58 97 0 12 8 44 18 71 16 48 16 50 -2 63 -10 8 -15 19 -11 25 4 6 1 17 -5 25
-6 8 -9 19 -5 25 4 6 2 17 -5 25 -25 30 42 269 91 321 10 11 19 25 19 31 0 6
29 38 64 71 36 33 74 78 85 101 12 23 26 41 31 41 5 0 18 20 28 44 11 24 25
47 31 50 6 4 11 25 11 48 l0 40 -50 -4 c-28 -1 -50 0 -50 3 0 13 30 90 57 146
40 84 120 201 151 221 14 9 75 53 133 97 286 213 570 336 653 281 14 -9 31
-26 37 -38 l12 -21 -28 21 c-50 39 -123 28 -270 -43 -124 -60 -290 -172 -365
-247 -35 -35 -58 -55 -51 -45 17 21 4 22 -20 1 -9 -8 -26 -17 -36 -18 -10 -2
-18 -8 -18 -14 0 -5 -28 -38 -62 -72 -74 -74 -82 -92 -54 -122 22 -22 29 -68
11 -68 -5 0 -10 -7 -10 -17 0 -14 2 -14 21 3 20 18 20 18 13 -11 -4 -17 -11
-37 -15 -47 -13 -24 6 -18 88 29 39 22 109 56 155 74 l83 34 -53 6 c-51 7 -83
19 -49 19 10 0 14 5 11 15 -4 8 -16 15 -29 15 -38 0 -39 29 -2 45 36 15 68 45
48 45 -17 0 -13 25 7 43 9 9 44 26 77 39 47 18 55 23 37 28 -21 5 -21 6 10 39
19 20 77 55 147 88 145 69 213 93 262 93 49 0 54 -17 46 -144 -16 -240 -117
-556 -178 -556 -5 0 -6 7 -3 15 6 13 -6 20 -29 16 -4 0 -6 2 -5 6 4 13 -26 53
-39 53 -6 0 -28 -10 -48 -21 -28 -17 -175 -69 -194 -69 -3 0 0 5 7 12 15 15
16 58 0 58 -6 0 -3 9 8 21 10 12 17 24 14 28 -3 3 22 20 55 38 33 18 58 33 55
33 -3 0 -28 -6 -57 -14 -43 -11 -51 -12 -46 0 5 14 77 40 128 47 17 2 0 5 -37
6 -53 1 -86 -6 -150 -29 -105 -38 -278 -137 -343 -196 -27 -25 -36 -36 -19
-24 17 12 37 23 45 24 70 13 113 17 134 12 35 -9 24 -21 -30 -35 -25 -6 -45
-13 -45 -15 0 -2 27 -2 61 1 55 5 61 4 66 -15 3 -15 16 -24 39 -28 38 -7 69
-44 37 -44 -14 0 -10 -7 15 -26 18 -14 30 -29 27 -34 -3 -4 9 -13 25 -20 17
-7 30 -18 30 -24 0 -6 9 -17 21 -24 11 -7 18 -19 15 -27 -3 -8 7 -29 22 -47
23 -28 24 -31 7 -25 -17 6 -17 4 3 -9 26 -19 30 -39 5 -29 -12 4 -7 -6 12 -26
17 -18 23 -28 15 -24 -9 5 -7 -1 5 -16 23 -26 33 -79 16 -79 -6 0 -2 -15 9
-32 22 -36 26 -53 10 -43 -13 8 -13 -1 0 -26 8 -14 7 -19 -2 -19 -9 0 -9 -3 1
-12 10 -11 -7 -15 -86 -23 -90 -9 -98 -12 -101 -32 -3 -22 0 -23 72 -23 41 0
78 -4 81 -10 3 -5 2 -10 -2 -10 -5 0 -13 -10 -18 -22 -7 -15 -21 -24 -40 -26
l-30 -4 30 -13 c30 -13 29 -13 -25 -15 -49 -1 -53 -2 -36 -15 27 -20 11 -35
-32 -28 -33 6 -36 5 -24 -9 18 -23 1 -31 -60 -29 -42 1 -49 -2 -44 -15 5 -14
0 -15 -41 -10 l-48 5 48 -21 c64 -28 59 -39 -10 -22 -77 18 -85 17 -43 -6 22
-12 55 -19 90 -20 80 0 296 -28 354 -45 55 -17 77 -19 75 -7 -3 17 14 52 26
52 11 0 29 52 50 145 6 28 7 29 18 10 10 -17 13 -11 17 45 4 58 7 65 28 68 18
3 22 -1 22 -26 0 -44 -46 -195 -80 -264 l-29 -59 25 -9 c50 -19 58 -14 88 63
31 80 66 208 66 243 0 57 -23 54 412 54 l401 0 -7 -50 c-4 -28 -11 -144 -16
-259 -5 -114 -14 -237 -19 -272 -5 -35 -12 -89 -16 -119 -3 -30 -10 -68 -15
-85 -5 -16 -19 -84 -31 -150 -49 -282 -138 -588 -265 -915 -4 -8 -12 12 -19
45 -7 33 -22 87 -34 120 -12 32 -21 61 -21 62 0 11 27 -1 47 -19 60 -56 19 26
-108 220 l-48 73 11 52 c21 101 -14 172 -100 198 l-42 12 0 54 c0 30 -5 64
-12 76 -12 22 -28 97 -21 97 2 0 25 -19 51 -42 l47 -43 -40 50 c-21 28 -54 67
-72 87 -17 20 -41 54 -52 76 -11 21 -51 68 -90 104 l-70 67 32 3 c31 3 29 4
-38 40 -132 68 -477 157 -619 158 -21 1 -37 8 -48 24 l-17 24 35 0 c19 0 38 3
41 6 4 3 -16 6 -44 6 l-50 0 7 -39 c6 -35 4 -42 -27 -71 l-33 -33 22 -24 c12
-12 29 -23 38 -23 23 0 53 60 38 77 -8 10 -6 13 8 13 17 0 17 1 -2 16 -18 14
-16 15 26 10 86 -10 296 -102 425 -186 43 -29 86 -55 94 -58 9 -3 34 -17 56
-32 22 -15 50 -30 63 -34 21 -7 108 -113 100 -121 -2 -2 -53 34 -113 81 -99
78 -212 151 -258 167 -32 12 -9 -10 96 -91 103 -80 188 -164 220 -220 9 -16
-40 27 -110 97 -71 70 -156 146 -190 170 -35 23 -63 47 -63 54 0 7 -24 23 -52
36 -29 12 -68 29 -85 37 -45 20 -42 9 5 -15 68 -36 67 -35 28 -77 -20 -21 -36
-42 -36 -45 0 -4 11 -14 25 -23 44 -29 230 -193 281 -248 27 -28 60 -63 74
-77 13 -14 23 -32 22 -38 -2 -7 2 -22 8 -33 18 -33 3 -22 -20 15 -12 19 -26
33 -30 30 -10 -6 -76 73 -73 86 3 9 -139 140 -188 173 -85 57 -89 55 -17 -12
98 -92 234 -271 261 -344 11 -30 -1 -20 -30 25 -50 76 -176 241 -227 295 -58
62 -106 92 -106 67 0 -18 -5 -19 -32 -4 -28 15 -35 3 -12 -23 15 -18 16 -20 2
-9 -11 8 -18 9 -18 3 0 -6 -9 -14 -21 -17 -15 -5 -29 1 -50 21 -16 15 -29 23
-29 16 0 -6 5 -14 10 -17 15 -9 117 -149 153 -209 49 -82 96 -183 123 -262 34
-103 30 -113 -10 -19 -52 124 -102 223 -159 312 -66 105 -68 106 -99 94 -23
-9 -25 -7 -21 10 7 27 -11 24 -33 -6 -10 -14 -27 -25 -37 -25 -10 0 -15 -4
-12 -10 3 -5 -2 -10 -12 -10 -11 0 -24 -5 -31 -12 -8 -8 -12 -8 -12 -1 0 6 7
16 16 23 16 14 38 50 30 50 -2 0 -28 -20 -57 -45 -30 -26 -56 -41 -59 -35 -4
6 -14 2 -25 -10 -26 -28 -41 -25 -21 5 22 34 6 32 -28 -4 -34 -36 -71 -49 -56
-21 25 46 5 38 -59 -24 -82 -78 -141 -107 -233 -114 -131 -9 -225 36 -309 148
-47 64 -64 79 -96 86 -12 2 -11 -20 3 -64 7 -23 -29 4 -84 62 -29 31 -55 56
-58 56 -3 0 -2 -10 1 -22 5 -17 -6 -10 -44 27 -33 32 -50 43 -46 30 4 -13 -7
-6 -31 20 -22 24 -32 31 -24 17 22 -43 4 -33 -60 34 -71 74 -72 74 -144 8
l-39 -35 39 -37 39 -37 -28 -3 -28 -3 25 -20 c13 -11 49 -32 80 -48 30 -16 52
-31 50 -34 -3 -3 0 -8 7 -13 8 -4 10 -3 5 4 -4 7 -2 12 4 12 21 0 205 -73 282
-111 43 -22 87 -39 98 -39 12 0 44 -10 72 -22 38 -16 47 -23 33 -28 -13 -4 -6
-10 26 -20 l44 -13 -53 -23 c-55 -25 -124 -43 -443 -119 -108 -26 -210 -55
-227 -65 -17 -10 -65 -61 -107 -112 -99 -120 -213 -238 -230 -238 -8 0 -17 -4
-20 -10 -3 -5 -11 -10 -16 -10 -6 0 -1 16 11 35 22 35 21 73 -2 59 -8 -5 -9
-2 -5 9 8 21 -9 15 -95 -36 -76 -45 -112 -77 -85 -77 9 0 27 4 41 10 47 17 28
-9 -29 -41 -70 -39 -75 -48 -25 -42 22 3 40 3 40 -1 0 -4 -30 -20 -67 -37 -93
-42 -101 -50 -66 -64 27 -11 25 -13 -59 -39 -98 -30 -124 -49 -54 -40 26 4 46
4 46 1 0 -3 -24 -20 -52 -38 l-53 -34 35 -6 35 -5 -33 -20 c-34 -19 -77 -50
-55 -40 19 10 76 15 101 9 23 -5 31 -37 11 -49 -29 -18 -94 -230 -77 -251 6
-7 8 -27 4 -45 -3 -18 -10 -94 -16 -168 -18 -252 -31 -354 -49 -394 -19 -44
-51 -79 -51 -56 0 10 -3 10 -15 0 -11 -10 -19 -10 -27 -2 -15 15 -38 3 -38
-20 0 -12 -4 -17 -12 -12 -8 5 -9 2 -4 -12 20 -49 20 -49 -2 -30 -39 34 -55
97 -49 189 4 45 9 96 12 112 4 25 2 23 -17 -15 -20 -39 -23 -60 -23 -155 1
-89 4 -115 19 -137 15 -23 16 -32 6 -63 -6 -19 -18 -42 -27 -50 -19 -19 -70
-19 -107 0 -15 8 -30 15 -32 15 -11 0 -2 -39 16 -67 22 -38 8 -44 -21 -11 -43
49 -61 107 -62 195 -1 94 -14 83 -23 -21 -3 -34 -10 -73 -16 -88 -12 -32 14
-97 60 -145 35 -37 34 -39 -8 -18 -31 16 -77 78 -101 135 -9 23 -14 73 -14
147 0 109 0 111 -12 65 -15 -57 -17 -200 -3 -239 l10 -28 -24 29 c-33 40 -46
98 -46 203 1 112 15 155 111 318 42 72 131 232 197 357 137 257 159 293 209
348 36 41 37 48 2 30 -37 -21 -19 8 34 51 76 62 76 62 40 57 -18 -3 -33 -2
-33 1 0 3 33 25 73 48 70 40 212 151 204 159 -2 2 -21 -3 -43 -12 -39 -16 -39
-15 29 53 37 38 67 74 67 81 0 6 -12 12 -27 12 -26 0 -23 4 42 70 l69 70 -33
0 -33 0 47 53 48 52 -38 3 -38 3 64 66 c57 58 61 65 36 59 -26 -6 -27 -5 -18
13 6 11 36 50 66 88 l55 68 -38 5 -37 5 70 48 c68 47 69 49 33 42 -21 -3 -38
-2 -38 3 0 5 21 29 48 53 l47 44 -27 3 c-38 5 -35 17 11 46 47 30 64 51 32 41
-32 -10 -25 2 11 21 29 15 31 18 14 24 -19 6 -19 7 -1 14 24 9 215 136 215
143 0 3 -11 2 -25 -1 -44 -11 -27 1 34 24 37 14 61 29 64 40 3 10 3 21 0 24
-11 11 -99 -8 -122 -25 -26 -21 -61 -25 -61 -8 0 14 59 38 128 51 36 7 69 21
89 39 l33 28 -53 -6 c-28 -3 -92 -19 -141 -35 -107 -33 -111 -34 -68 -6 31 19
32 22 16 31 -10 6 -39 10 -64 9 l-45 -1 40 12 40 13 -29 27 c-16 15 -26 27
-22 27 3 0 -6 24 -20 52 -34 66 -64 154 -64 185 0 16 6 23 18 23 13 0 23 -12
31 -42 7 -23 24 -66 37 -96 l24 -55 108 6 c59 3 142 3 186 -1 57 -6 83 -4 95
5 14 11 11 12 -19 13 -37 0 -80 18 -50 21 8 1 24 1 35 0 19 -2 19 -1 3 12 -10
8 -15 16 -12 20 3 3 -9 8 -27 12 -75 17 -169 71 -169 97 0 4 29 8 65 8 36 0
65 2 65 4 0 2 3 11 6 19 8 21 -50 37 -136 38 -48 1 -58 3 -40 9 23 7 18 11
-19 14 -21 2 -24 22 -6 40 15 15 15 17 1 22 -14 6 -14 10 5 40 18 31 19 34 4
34 -13 0 -15 3 -7 13 5 6 9 42 8 79 -2 56 1 67 16 71 9 3 22 0 27 -7 5 -6 34
-22 64 -36 48 -22 56 -30 71 -72 25 -72 74 -129 138 -162 51 -26 68 -29 190
-33 106 -4 140 -9 166 -24 18 -10 36 -19 39 -19 11 0 -8 180 -27 255 -11 42
-32 99 -47 127 -77 142 -238 187 -380 107 -107 -60 -185 -99 -200 -99 -24 0
-27 30 -4 46 11 8 21 21 21 28 0 8 7 19 15 26 8 7 15 21 15 31 0 10 8 23 18
28 16 10 16 10 -2 11 -28 0 -3 26 40 40 18 6 33 14 33 18 -4 27 5 32 54 32
l52 1 -29 15 c-42 23 -19 37 53 32 70 -5 71 -1 4 17 l-48 13 39 17 c23 10 56
15 78 13 33 -3 36 -2 23 8 -15 11 -13 13 11 16 25 3 26 5 13 18 -8 9 -19 25
-25 35 -13 23 -195 177 -238 201 -44 24 -178 54 -196 43 -11 -6 -5 -9 20 -9
72 -1 222 -62 202 -82 -7 -7 -20 -7 -41 0 -40 14 -39 9 4 -18 40 -25 51 -41
63 -97 l9 -40 -31 7 c-42 10 -102 37 -98 44 7 17 -4 27 -63 60 -69 38 -96 46
-77 23 6 -7 12 -25 14 -42 2 -24 -2 -31 -24 -39 -31 -11 -41 -2 -77 69 -37 76
-62 534 -32 584 14 22 66 3 159 -58 48 -31 131 -83 184 -114 99 -58 144 -96
69 -58 -57 30 -63 26 -10 -7 41 -27 123 -111 115 -119 -1 -2 -33 8 -70 22 -36
14 -74 25 -84 24 -9 0 12 -10 48 -23 103 -36 144 -61 174 -107 23 -35 25 -41
10 -35 -11 4 -35 10 -54 13 -32 4 -33 3 -17 -10 9 -8 17 -20 17 -27 0 -15 -58
-6 -105 16 -17 8 -22 9 -11 2 10 -7 28 -21 40 -31 21 -18 21 -18 -9 -12 -71
13 -85 15 -85 11 0 -2 37 -31 83 -64 45 -33 93 -70 107 -83 40 -38 87 -75 69
-56 -9 11 -14 29 -11 47 4 26 9 31 44 36 35 6 39 10 35 30 -3 15 4 31 19 45
l22 21 -30 51 c-17 29 -43 67 -59 85 -16 18 -29 37 -29 43 0 5 -15 27 -34 47
-74 81 -135 160 -128 167 4 4 2 5 -5 3 -6 -1 -18 5 -25 14 -26 35 -214 169
-286 204 -91 45 -145 50 -173 15 -23 -28 -25 -15 -3 17 29 42 75 47 152 16z
m-2533 -70 c28 5 29 5 11 -9 -25 -19 -47 -19 -90 -1 -52 22 -51 36 2 19 26 -7
61 -12 77 -9z m1295 -53 c0 -33 -67 -53 -100 -30 -12 8 -9 9 10 5 16 -3 37 2
55 14 36 23 35 22 35 11z m-187 -37 c11 -14 17 -28 14 -30 -11 -11 -45 16 -49
40 -6 30 10 25 35 -10z m2327 -273 c0 -6 36 -9 85 -7 46 2 86 0 87 -5 2 -4 19
-5 38 -1 19 5 49 5 65 1 17 -4 48 -7 70 -8 22 0 104 -10 182 -23 l142 -21 -37
-41 c-21 -23 -52 -75 -69 -116 -46 -110 -100 -296 -107 -370 -4 -36 -12 -75
-18 -87 -10 -20 -12 -21 -23 -6 -10 13 -15 9 -38 -30 -15 -25 -27 -49 -27 -54
0 -4 -9 -19 -20 -33 l-19 -25 -30 34 c-28 32 -31 40 -31 105 0 39 5 78 10 86
5 8 10 11 10 5 0 -5 11 15 23 45 16 39 34 63 64 85 23 16 42 38 42 48 1 24 51
24 51 0 0 -29 18 -1 25 40 5 24 4 37 -4 37 -6 0 -11 -7 -11 -15 0 -13 -4 -14
-20 -5 -13 7 -20 21 -20 41 0 38 -15 30 -36 -19 -11 -27 -17 -33 -24 -23 -4 8
-6 20 -3 27 9 24 -14 23 -27 -2 -9 -16 -21 -24 -34 -22 -12 2 -27 -4 -34 -12
-11 -13 -12 -9 -10 23 5 47 -7 48 -27 1 -10 -26 -19 -34 -30 -30 -9 3 -18 -1
-22 -9 -4 -12 -8 -13 -20 -3 -9 7 -17 8 -21 2 -17 -23 -32 -12 -33 24 -1 38
-3 37 -13 -10 -7 -31 -26 -38 -26 -10 0 14 -2 14 -9 3 -7 -11 -11 -10 -22 7
-13 20 -13 20 -32 -4 -22 -28 -37 -31 -37 -6 0 9 -5 24 -10 32 -8 12 -12 12
-18 2 -7 -10 -13 -5 -24 19 l-16 32 -7 -42 c-6 -38 6 -95 24 -111 25 -22 51
-115 51 -179 0 -96 -9 -124 -45 -147 -30 -20 -34 -20 -53 -5 -12 9 -35 44 -52
79 l-31 63 10 107 c5 59 8 175 6 259 -4 128 -7 159 -25 192 -11 22 -20 44 -20
48 0 4 35 9 78 10 42 1 95 9 117 17 49 18 55 19 55 7z m1517 -133 c-3 -8 -6
-5 -6 6 -1 11 2 17 5 13 3 -3 4 -12 1 -19z m-2461 -279 c0 -19 -1 -19 -13 -3
-7 10 -13 21 -13 26 0 4 6 5 13 2 7 -2 13 -14 13 -25z m-41 -84 c9 -27 18 -66
21 -85 2 -19 14 -43 25 -52 17 -15 18 -18 5 -18 -14 0 -56 -53 -56 -71 0 -4
16 -3 35 1 43 10 46 -3 6 -20 -43 -17 -67 -46 -53 -63 8 -10 3 -45 -23 -138
-19 -68 -32 -131 -28 -139 4 -8 7 -39 7 -67 1 -51 0 -53 -26 -53 l-28 0 0 83
c0 45 5 102 11 126 11 48 5 67 -10 30 -16 -40 -12 -5 9 88 12 48 37 128 56
176 34 86 35 92 29 175 -4 48 -5 85 -2 82 3 -3 12 -27 22 -55z m65 25 c6 -11
8 -20 6 -20 -3 0 -10 9 -16 20 -6 11 -8 20 -6 20 3 0 10 -9 16 -20z m1640 -15
c-14 -8 -29 -14 -35 -14 -5 0 1 6 15 14 14 8 30 14 35 14 6 0 -1 -6 -15 -14z
m683 -181 c-7 -48 -16 -90 -18 -94 -3 -5 -2 -10 3 -12 15 -6 50 -225 51 -325
l1 -103 -32 0 c-22 0 -29 3 -19 9 11 7 9 29 -12 125 -25 115 -25 117 -5 99 21
-18 21 -18 4 14 -9 18 -16 39 -16 48 0 9 -7 27 -16 40 -12 19 -13 25 -3 25 10
0 10 3 1 12 -9 9 -8 16 5 30 9 10 11 18 5 18 -6 0 -9 9 -5 23 3 12 6 31 8 42
1 11 12 40 23 65 12 25 22 51 22 58 0 6 4 12 9 12 4 0 2 -39 -6 -86z m-1985
-185 c-18 -23 -23 -44 -23 -87 0 -110 73 -191 178 -200 63 -5 95 9 146 62 37
39 51 44 51 22 0 -24 -52 -78 -95 -97 -53 -25 -97 -23 -175 5 -67 24 -94 52
-126 125 -27 65 -10 152 37 185 32 22 33 21 7 -15z m166 15 c21 -8 21 -48 0
-68 -18 -19 -65 -21 -82 -4 -40 40 23 95 82 72z m120 -60 c20 -19 20 -28 1
-44 -32 -26 -78 15 -49 45 19 19 29 19 48 -1z m-225 -145 c13 -17 21 -33 17
-36 -8 -9 -56 37 -56 54 0 20 13 15 39 -18z m156 -59 c-28 -12 -75 -12 -75 0
0 6 21 10 48 9 35 0 42 -3 27 -9z m493 -126 c24 -5 36 -18 61 -64 17 -32 35
-60 39 -62 5 -2 6 -22 4 -46 l-4 -42 -31 26 c-29 24 -36 26 -101 20 -39 -3
-89 -2 -111 2 -39 8 -85 -3 -85 -20 0 -4 -4 -8 -9 -8 -17 0 1 74 29 118 46 75
106 96 208 76z m-5812 -51 c-3 -10 -15 -66 -26 -124 -11 -58 -31 -132 -44
-165 -13 -32 -42 -103 -64 -157 -30 -76 -53 -114 -101 -170 -121 -140 -222
-305 -284 -462 -48 -122 -64 -194 -82 -390 -22 -233 -5 -377 62 -508 24 -48
24 -92 0 -84 -12 3 -96 183 -153 324 -86 215 -107 280 -182 563 -65 248 -138
693 -148 905 -2 44 -6 126 -8 183 l-5 102 520 0 c491 0 520 -1 515 -17z m4538
-50 c20 -81 45 -162 57 -183 5 -8 20 -37 34 -65 22 -45 23 -50 7 -53 -65 -12
-260 -81 -327 -116 -44 -22 -83 -42 -87 -44 -5 -2 -8 32 -8 77 0 45 -5 83 -10
86 -8 5 -7 11 0 20 7 8 10 18 7 22 -5 8 5 147 18 266 l7 57 143 0 143 0 16
-67z m-4018 14 c-1 -8 -171 -182 -378 -388 -350 -348 -381 -382 -450 -489 -41
-63 -89 -137 -107 -165 -40 -62 -32 -29 20 84 94 203 273 413 585 688 92 82
201 178 243 215 79 70 91 77 87 55z m5324 -110 c0 -20 -39 -38 -94 -44 -61 -6
-101 8 -109 36 -5 20 -1 21 99 21 77 0 104 -3 104 -13z m-7026 -23 c9 -8 16
-17 16 -18 0 -125 65 -607 113 -836 137 -651 406 -1239 806 -1760 141 -184
253 -311 413 -471 452 -449 930 -758 1573 -1017 599 -241 1189 -344 1874 -329
706 15 1371 183 2022 508 340 170 747 453 1057 737 145 132 372 381 486 532
554 730 809 1381 921 2345 8 71 15 163 15 203 0 64 3 76 25 98 23 23 30 24
116 22 l92 -2 -7 -156 c-29 -636 -184 -1281 -436 -1806 -165 -345 -448 -781
-692 -1066 -96 -113 -341 -360 -458 -463 -285 -251 -670 -510 -1010 -681 -559
-280 -1148 -450 -1768 -508 -979 -93 -1926 89 -2787 533 -458 237 -801 480
-1139 811 -560 547 -964 1189 -1206 1920 -82 247 -165 640 -205 965 -17 143
-36 435 -29 447 3 5 47 8 99 8 72 0 97 -4 109 -16z m3087 -129 c43 -55 84
-106 91 -113 47 -50 80 -82 120 -118 25 -23 48 -49 51 -58 4 -9 14 -16 24 -16
10 0 29 -13 43 -30 14 -16 30 -30 37 -30 6 0 25 -12 41 -27 51 -48 130 -103
146 -103 9 0 26 -11 38 -25 12 -14 33 -25 47 -26 14 0 20 -3 12 -6 -16 -7 22
-25 118 -57 l64 -22 28 -74 c16 -41 29 -85 29 -97 0 -62 66 -200 119 -247 11
-10 18 -23 14 -29 -4 -6 -1 -7 7 -2 9 5 10 2 6 -14 -3 -11 -9 -30 -12 -42 -7
-24 3 -69 15 -69 5 0 12 12 16 28 l8 27 7 -25 c6 -23 8 -21 14 15 4 22 9 50
12 62 5 29 63 63 105 63 23 0 30 -3 20 -9 -10 -7 -6 -13 17 -26 16 -10 37 -31
47 -48 10 -17 45 -69 79 -116 56 -80 99 -147 340 -535 47 -76 86 -143 86 -148
0 -12 -185 -365 -206 -393 -15 -20 -15 -20 -35 5 -12 13 -32 45 -47 70 -28 49
-122 177 -122 166 0 -3 25 -63 56 -134 97 -223 92 -196 50 -275 -20 -38 -36
-75 -36 -84 0 -8 -3 -13 -7 -11 -15 6 -498 503 -709 728 -399 426 -479 512
-543 583 l-64 71 34 9 c19 5 117 7 219 5 l185 -3 75 -38 c41 -21 111 -63 155
-93 77 -52 140 -80 149 -66 8 13 -203 172 -271 205 l-68 32 -265 0 -264 0
-154 170 c-188 208 -278 317 -258 309 11 -4 16 0 16 15 0 12 6 21 13 21 29 0
99 217 137 425 20 110 19 108 35 95 8 -7 15 -21 15 -31 0 -10 5 -21 10 -24 6
-3 10 -16 11 -28 1 -18 3 -16 10 8 6 22 3 49 -11 101 -12 41 -20 101 -20 144
l0 73 21 -19 c12 -10 57 -64 100 -119z m2784 -105 l14 -28 -82 -40 c-45 -22
-91 -47 -102 -56 -11 -9 5 -5 35 10 70 35 172 66 182 56 4 -4 -11 -22 -34 -40
-23 -18 -38 -32 -34 -32 18 0 -21 -33 -66 -56 -51 -26 -63 -40 -25 -31 19 5
18 2 -10 -23 -18 -16 -33 -34 -33 -39 0 -5 -30 -36 -67 -69 -57 -50 -115 -122
-100 -122 2 0 22 14 43 31 21 17 40 27 41 22 5 -14 -81 -176 -92 -173 -21 6
-98 234 -130 385 -17 84 -16 86 80 130 109 49 339 119 358 108 4 -2 14 -17 22
-33z m-1789 -122 c-44 -325 -26 -598 50 -753 26 -52 27 -91 2 -83 -23 8 -76
120 -94 201 -16 69 -19 122 -19 327 1 320 5 342 59 349 4 0 6 -18 2 -41z
m2824 -167 c0 -22 4 -42 9 -46 13 -7 31 27 31 59 0 21 5 26 25 26 13 0 42 -9
64 -21 39 -20 39 -21 29 -57 -16 -57 -27 -73 -63 -88 -76 -31 -177 -5 -201 52
-8 18 -14 47 -14 63 0 26 5 32 33 40 17 5 44 10 60 10 25 1 27 -2 27 -38z
m-130 -77 c0 -30 55 -71 111 -84 87 -19 156 7 195 75 7 14 13 15 18 7 9 -15
-54 -79 -92 -93 -84 -33 -209 8 -238 77 -17 40 -17 47 -4 39 6 -3 10 -13 10
-21z m1632 -191 c28 -25 23 -86 -18 -201 -20 -56 -38 -101 -40 -99 -4 3 18 83
47 168 35 104 18 105 -32 1 -19 -38 -32 -79 -30 -95 2 -26 1 -28 -18 -17 -23
12 -26 8 -11 -20 8 -15 4 -30 -20 -68 -16 -27 -30 -52 -30 -55 0 -16 -163
-277 -194 -310 -20 -21 -36 -43 -36 -49 0 -6 -8 -4 -18 5 -24 22 -32 21 -32
-3 0 -11 -4 -20 -8 -20 -5 0 -25 -15 -45 -32 -20 -18 -58 -44 -84 -58 -27 -13
-119 -67 -206 -120 -87 -52 -166 -99 -176 -105 -9 -5 -42 -32 -72 -58 l-54
-49 55 35 c92 58 221 127 246 131 28 5 248 117 324 164 30 19 59 35 65 36 5 1
17 5 25 10 8 4 5 -1 -6 -11 -12 -11 -111 -66 -220 -123 -227 -118 -294 -160
-347 -219 -35 -39 -63 -89 -54 -98 3 -2 28 12 57 31 29 19 117 68 194 107 230
117 411 226 453 271 12 13 59 84 104 158 45 74 97 159 115 188 17 29 51 104
74 166 52 142 61 156 105 156 37 0 55 -20 55 -61 0 -29 -63 -235 -67 -222 -2
6 7 49 21 95 27 95 43 176 27 143 -5 -11 -25 -62 -44 -114 -34 -93 -34 -93
-51 -70 -18 26 -21 14 -7 -23 7 -18 4 -36 -11 -68 -11 -24 -21 -49 -22 -54 -2
-6 -10 -28 -19 -50 -9 -21 -17 -41 -17 -44 0 -3 -6 -13 -14 -21 -8 -9 -60
-108 -116 -219 -55 -112 -113 -215 -128 -229 -34 -32 -64 -43 -79 -31 -8 6
-13 0 -18 -22 -4 -16 -13 -30 -21 -30 -8 0 -14 -4 -14 -10 0 -5 -4 -10 -10
-10 -5 0 -25 -11 -45 -24 -40 -27 -150 -82 -295 -145 -101 -45 -181 -90 -324
-184 -119 -78 -137 -87 -236 -113 -252 -67 -264 -77 -85 -68 184 8 221 21 309
108 50 50 90 79 136 100 36 16 90 40 120 53 30 14 64 29 75 33 76 31 231 105
237 114 4 6 8 8 8 4 0 -4 23 6 50 22 28 17 54 30 59 30 4 0 21 7 38 15 67 33
102 80 206 270 57 105 115 208 129 230 32 52 79 153 109 234 12 35 25 59 27
53 8 -26 -59 -190 -117 -286 -21 -34 -75 -135 -122 -226 -107 -210 -137 -242
-309 -326 -69 -34 -168 -81 -220 -104 -139 -63 -190 -93 -241 -147 -41 -43
-106 -143 -92 -143 3 0 22 13 42 28 58 45 162 102 380 211 234 117 316 161
352 193 36 32 87 114 154 249 31 63 66 134 78 158 12 24 32 50 45 59 21 13 25
13 38 0 14 -13 14 -19 0 -49 -17 -39 -21 -24 -5 18 5 15 6 24 1 18 -18 -20
-43 -98 -34 -104 6 -3 -1 -25 -14 -51 l-25 -45 4 47 c3 34 1 48 -10 52 -13 6
-33 -29 -33 -59 0 -50 -108 -247 -184 -336 -17 -20 -60 -73 -95 -117 -64 -82
-135 -152 -152 -152 -5 0 -9 -4 -9 -10 0 -5 -6 -10 -14 -10 -8 0 -16 -4 -18
-8 -3 -9 -152 -71 -268 -112 -36 -13 -69 -27 -75 -32 -5 -4 -15 -8 -23 -8 -7
0 -32 -9 -55 -19 -23 -10 -61 -25 -84 -32 -24 -6 -43 -16 -43 -21 0 -4 -11 -8
-23 -8 -13 0 -38 -7 -56 -16 -17 -8 -59 -20 -94 -25 -184 -29 -270 -38 -344
-39 -185 0 -398 -26 -427 -52 -6 -4 -17 -8 -27 -8 -9 0 -28 -11 -43 -25 -15
-14 -32 -23 -37 -19 -6 3 -20 -3 -32 -13 -12 -11 -35 -27 -51 -37 -53 -34
-115 -97 -136 -141 -11 -24 -27 -46 -35 -49 -8 -3 -15 -12 -15 -21 0 -8 -4
-15 -10 -15 -5 0 -10 -8 -10 -18 0 -10 -5 -23 -11 -29 -13 -13 -60 -117 -124
-273 -49 -121 -136 -322 -170 -395 -13 -27 -44 -99 -70 -160 -86 -201 -93
-215 -116 -215 -38 0 -172 63 -258 121 -134 90 -291 263 -291 320 0 23 223
565 343 834 24 55 61 150 82 210 20 61 47 135 60 165 14 35 27 94 33 160 22
219 78 407 208 703 71 161 80 176 148 247 39 42 109 124 155 183 70 90 88 108
119 115 20 5 111 27 202 49 91 23 166 40 168 38 1 -1 -28 -21 -65 -45 -77 -49
-189 -141 -313 -257 -47 -43 -123 -101 -168 -128 -51 -30 -92 -63 -108 -87
-14 -20 -31 -36 -36 -35 -10 2 -58 -102 -79 -168 -14 -45 -11 -131 6 -172 8
-19 15 -66 15 -103 0 -119 45 -198 140 -249 32 -17 64 -41 73 -54 25 -38 118
-95 182 -112 75 -19 194 -19 267 0 96 25 205 84 277 151 88 82 137 147 201
269 74 141 114 199 174 248 50 42 160 117 171 117 3 0 57 29 120 65 63 36 118
65 122 65 5 1 24 14 43 30 19 17 40 30 47 30 7 0 13 5 13 10 0 6 6 10 13 10 6
0 39 18 72 40 33 22 63 40 68 40 4 0 40 22 80 49 82 55 233 208 303 308 88
125 155 202 201 233 53 34 69 37 95 13z m-5626 -165 c71 -79 206 -224 299
-323 94 -100 240 -257 325 -350 189 -207 644 -687 912 -964 109 -112 198 -208
198 -213 0 -34 -677 637 -1020 1012 -124 135 -255 277 -291 315 -36 39 -86 93
-110 120 -24 28 -82 91 -130 140 -151 159 -329 358 -329 369 0 7 12 36 15 36
1 0 60 -64 131 -142z m2359 82 c150 -20 150 -20 153 -68 2 -23 -1 -42 -7 -42
-5 0 -46 14 -91 30 -85 31 -105 31 -95 -1 9 -26 -8 -24 -45 8 -53 44 -63 98
-17 88 12 -2 58 -9 102 -15z m-4239 -71 c-8 -35 -17 -102 -20 -149 -4 -47 -9
-116 -12 -155 -3 -38 -7 -132 -9 -207 l-3 -138 -56 -61 c-31 -33 -65 -77 -75
-97 -18 -34 -19 -35 -30 -15 -33 62 -51 250 -35 366 l7 46 28 -59 c15 -33 30
-60 32 -60 2 0 -9 39 -25 88 -17 52 -26 97 -23 111 14 56 118 251 172 323 32
42 59 75 61 74 1 -2 -4 -32 -12 -67z m4644 26 c0 -12 -29 -62 -43 -73 -10 -9
-36 -10 -86 -6 l-71 7 0 38 0 39 100 0 c55 0 100 -2 100 -5z m1610 -34 c36
-11 76 -22 90 -26 l25 -7 -24 22 -25 21 30 -7 c16 -4 49 -13 74 -20 24 -7 46
-11 49 -9 2 3 -2 5 -10 6 -8 0 -4 4 8 9 13 5 41 4 75 -5 44 -12 50 -12 35 0
-17 12 -16 14 11 19 16 4 41 2 56 -4 27 -10 93 -13 69 -3 -27 10 -11 23 27 23
45 0 120 -34 163 -75 32 -31 34 -39 6 -30 -20 7 -20 6 -3 -21 l18 -27 -24 13
c-14 7 -38 15 -55 16 l-30 4 36 -34 36 -34 -38 5 c-30 4 -40 2 -45 -11 -4 -12
-10 -13 -24 -6 -31 17 -36 11 -10 -10 l25 -20 -40 16 c-28 11 -36 12 -27 3 25
-27 14 -42 -25 -36 -21 3 -32 3 -25 0 33 -13 5 -22 -55 -16 l-68 6 25 -22 25
-21 -30 6 c-16 3 -35 7 -42 9 -7 2 -10 -2 -6 -11 3 -8 -1 -14 -11 -14 -9 0
-16 -3 -16 -8 0 -4 -21 -6 -47 -5 -39 2 -44 1 -25 -7 21 -9 31 -21 15 -19 -5
1 -21 0 -38 -1 -30 -2 -30 -2 -5 -10 l25 -8 -26 -1 c-52 -2 -91 -13 -77 -22 9
-6 7 -9 -9 -9 -31 0 -53 -10 -53 -25 0 -16 -22 -25 -60 -25 -17 0 -34 -8 -42
-19 -7 -10 -24 -22 -38 -26 l-25 -9 25 -7 25 -7 -25 -2 c-23 -1 -23 -2 -5 -10
14 -6 4 -9 -37 -9 -32 -1 -58 -5 -58 -11 0 -5 5 -10 10 -10 6 0 10 -4 10 -10
0 -5 -14 -10 -31 -10 -24 0 -30 -3 -25 -16 4 -10 1 -14 -6 -12 -15 5 -38 -15
-38 -32 0 -8 -11 -9 -32 -5 -26 5 -30 4 -18 -5 11 -8 12 -13 3 -16 -7 -3 -9
-12 -6 -20 4 -10 -2 -14 -21 -14 -20 0 -26 -5 -26 -21 0 -15 -5 -19 -15 -15
-11 4 -15 -1 -15 -19 0 -28 -9 -32 -29 -12 -7 6 -11 8 -10 2 4 -16 -11 -55
-22 -55 -5 0 -9 -7 -9 -16 0 -8 -4 -13 -9 -9 -5 3 -11 -9 -13 -27 -2 -24 -8
-33 -20 -32 -11 1 -18 -5 -18 -17 0 -10 -4 -19 -8 -19 -5 0 -16 -18 -26 -41
-11 -24 -23 -38 -31 -35 -8 3 -15 -7 -19 -25 -3 -17 -10 -28 -16 -24 -5 3 -10
0 -10 -7 0 -25 -57 -105 -94 -133 -20 -15 -53 -30 -73 -32 -21 -2 -39 -6 -41
-8 -11 -11 -18 -75 -9 -91 8 -15 5 -15 -14 3 -50 49 -18 184 68 290 24 29 38
53 33 53 -26 0 -110 -101 -144 -173 -36 -74 -38 -76 -69 -73 -21 3 -35 -2 -43
-13 -11 -14 -14 -13 -23 9 -7 18 -10 20 -10 8 -1 -21 -5 -22 -32 -8 -17 10
-19 7 -19 -22 0 -18 7 -46 15 -62 14 -26 14 -28 -1 -15 -46 38 -57 144 -25
229 10 27 38 77 60 110 28 41 36 58 23 51 -30 -16 -97 -109 -132 -183 -18 -37
-36 -65 -41 -62 -5 3 -9 -1 -10 -8 0 -7 -7 5 -15 26 -21 57 -28 58 -20 1 4
-33 16 -62 36 -87 38 -47 38 -55 0 -28 -49 35 -74 94 -75 175 0 61 5 80 37
145 21 41 60 106 89 143 28 37 49 71 45 74 -10 10 -161 -150 -182 -192 l-19
-40 -3 63 c-3 54 2 74 27 128 38 82 110 158 184 196 33 16 106 72 168 128 219
199 448 362 577 410 151 57 302 72 412 41z m1155 -238 c-41 -90 -155 -283
-167 -283 -13 0 -10 9 15 43 38 55 116 192 158 279 13 26 25 46 27 44 2 -2
-13 -39 -33 -83z m-6756 -130 c-8 -9 -66 -50 -129 -91 -63 -41 -145 -98 -181
-126 -53 -42 -78 -54 -132 -65 -36 -7 -105 -32 -154 -56 -48 -24 -90 -41 -93
-39 -7 8 100 100 180 155 91 62 281 156 410 203 110 40 117 42 99 19z m7152
-262 c44 -127 -1 -57 -51 80 -16 46 -30 85 -30 88 2 13 64 -117 81 -168z
m-2983 99 c-7 -10 -14 -17 -17 -15 -4 4 18 35 25 35 2 0 -1 -9 -8 -20z m2422
-4 c0 -3 -4 -8 -10 -11 -5 -3 -10 -1 -10 4 0 6 5 11 10 11 6 0 10 -2 10 -4z
m-5527 -250 c237 -211 318 -286 561 -525 174 -171 330 -337 309 -330 -6 2 -62
51 -125 109 -63 58 -183 166 -267 240 -426 375 -751 687 -751 720 0 23 65 -28
273 -214z m-511 143 c150 -100 445 -326 508 -389 123 -123 686 -591 852 -708
18 -13 96 -68 173 -122 299 -212 595 -440 595 -460 0 -17 -20 -21 -42 -9 -13
6 -66 44 -118 84 -91 69 -243 172 -331 225 -85 51 -226 145 -299 200 -166 125
-119 78 159 -159 284 -244 350 -299 409 -343 30 -22 51 -42 48 -46 -7 -7 -299
187 -428 285 -125 94 -290 247 -553 513 -203 205 -389 379 -545 508 -188 156
-173 143 -402 351 -82 74 -148 136 -148 139 0 9 34 -10 122 -69z m-96 -86
c248 -187 769 -689 1005 -967 185 -219 247 -297 252 -318 6 -21 -69 41 -157
132 -33 33 -61 58 -64 56 -2 -3 1 -19 7 -37 14 -41 14 -106 0 -115 -16 -9 -66
52 -156 192 -196 303 -544 724 -748 904 -105 93 -205 190 -196 190 4 0 30 -17
57 -37z m-1078 -71 c-90 -94 -124 -149 -159 -256 l-26 -80 -27 42 c-14 23 -26
49 -26 58 0 41 150 291 168 280 5 -3 37 6 73 19 35 12 66 21 68 19 2 -2 -30
-39 -71 -82z m797 -72 c97 -54 197 -146 301 -277 103 -129 263 -350 284 -393
l22 -45 -58 65 c-177 194 -442 430 -574 510 -70 43 -110 74 -110 86 0 4 8 24
18 45 15 32 21 36 47 34 17 -1 48 -12 70 -25z m106 15 c78 -41 312 -254 427
-391 35 -42 33 -29 -4 21 -12 17 -25 45 -29 64 l-7 33 32 -18 c87 -51 367
-402 363 -457 -1 -10 3 -15 9 -11 7 5 8 2 3 -5 -4 -8 1 -25 14 -42 11 -15 21
-31 21 -35 0 -3 8 -18 19 -32 26 -38 144 -262 139 -267 -10 -10 -52 42 -124
155 -136 215 -350 499 -401 531 -18 11 -54 46 -80 76 -87 102 -249 253 -367
341 -67 51 -74 67 -15 37z m6560 -82 c-12 -20 -14 -14 -5 12 4 9 9 14 11 11 3
-2 0 -13 -6 -23z m-37 -85 c-57 -113 -132 -218 -292 -410 l-63 -76 -182 -85
c-173 -81 -317 -141 -317 -132 0 5 35 21 237 109 260 112 244 100 373 266 32
41 86 109 119 150 34 41 80 112 103 157 23 46 43 81 45 79 3 -2 -8 -28 -23
-58z m-1734 -82 c0 -2 -8 -10 -17 -17 -16 -13 -17 -12 -4 4 13 16 21 21 21 13z
m-4866 -96 c73 -53 101 -84 54 -59 -28 14 -148 109 -148 116 0 9 20 -3 94 -57z
m4776 -14 c0 -2 -8 -10 -17 -17 -16 -13 -17 -12 -4 4 13 16 21 21 21 13z
m-5229 -56 c33 -22 63 -40 65 -40 3 0 50 -27 106 -61 56 -33 201 -110 322
-171 217 -108 391 -213 431 -259 l20 -23 -32 22 c-17 12 -33 22 -36 22 -3 0
-52 29 -110 64 -186 114 -401 208 -533 232 -69 12 -227 106 -261 154 -16 22
-45 100 -37 100 3 0 32 -18 65 -40z m2519 -78 c0 -7 -34 20 -62 51 -45 48 -32
45 17 -3 25 -24 45 -46 45 -48z m2639 71 c-23 -27 -111 -63 -154 -62 -37 1
-36 2 15 10 31 5 75 22 100 38 54 35 56 36 39 14z m-2704 -330 c182 -181 433
-425 556 -545 223 -215 286 -295 127 -159 -46 39 -123 105 -173 147 -177 150
-453 414 -632 605 -218 232 -255 279 -222 279 6 0 161 -147 344 -327z m-1820
193 c82 -60 103 -74 171 -120 68 -45 191 -152 205 -178 13 -23 11 -23 -61 26
-54 36 -339 261 -395 311 -54 49 -12 28 80 -39z m4230 59 c6 -2 -10 -4 -35 -4
-25 0 -51 3 -59 8 -13 8 69 5 94 -4z m-2577 -50 c-3 -3 -9 2 -12 12 -6 14 -5
15 5 6 7 -7 10 -15 7 -18z m82 -76 c0 -6 -4 -7 -10 -4 -5 3 -10 11 -10 16 0 6
5 7 10 4 6 -3 10 -11 10 -16z m-2013 -233 c149 -75 439 -253 566 -347 25 -19
80 -59 121 -89 42 -30 76 -58 76 -62 1 -24 -46 0 -225 117 -55 36 -212 122
-350 190 -273 136 -298 151 -276 164 10 6 -3 22 -48 60 -34 28 -55 51 -47 51
9 0 91 -38 183 -84z m5649 -101 c-11 -8 -25 -15 -30 -15 -6 1 0 7 14 15 32 19
40 18 16 0z m653 -50 c-34 -76 -36 -86 -9 -55 17 19 20 20 20 6 0 -21 -218
-240 -320 -321 -41 -33 -95 -77 -119 -97 -24 -21 -49 -38 -55 -38 -6 0 -35
-23 -65 -51 -30 -28 -73 -60 -97 -71 -24 -10 -48 -27 -53 -36 -5 -9 -23 -25
-39 -34 l-30 -18 8 37 c5 21 5 44 0 52 -5 9 -10 12 -10 6 0 -5 -32 -43 -70
-83 -39 -40 -70 -80 -70 -88 0 -18 -40 -42 -234 -143 -141 -74 -157 -80 -139
-55 11 16 23 37 26 46 4 12 13 16 24 12 15 -5 16 -4 3 6 -11 9 -12 13 -2 17 6
2 12 11 12 18 0 11 9 10 45 -5 37 -16 50 -17 70 -8 14 6 25 16 25 21 0 6 3 8
6 4 4 -3 26 7 49 23 32 22 47 42 60 77 9 27 26 71 37 98 35 88 35 94 -9 52
-21 -20 -42 -35 -45 -31 -9 8 -79 -83 -103 -134 -20 -42 -37 -50 -65 -32 -12
8 -11 10 8 10 21 0 27 13 23 48 -1 6 2 12 7 12 5 0 19 24 31 53 21 52 21 52 0
27 -20 -25 -20 -25 -14 -2 7 23 6 23 -23 8 -16 -8 -50 -36 -75 -62 -26 -26
-47 -41 -47 -33 0 11 -2 11 -10 -1 -7 -11 -8 -5 -4 20 5 31 19 68 45 122 5 10
6 25 2 34 -4 11 -3 15 5 10 6 -4 18 8 27 29 10 19 34 54 56 78 21 25 35 48 31
52 -4 5 -2 5 4 2 6 -4 19 2 28 12 13 15 14 20 4 24 -8 3 -6 6 6 6 10 1 25 9
32 19 7 9 16 17 21 17 16 0 62 42 55 50 -4 5 -2 5 5 2 16 -10 44 3 36 17 -3 6
-3 8 1 4 4 -3 56 18 115 48 59 29 136 64 172 77 69 25 119 26 99 2 -14 -17 7
-32 23 -16 6 6 19 11 29 11 26 0 128 52 225 116 45 29 79 46 76 38 -3 -8 -10
-14 -17 -14 -6 0 -5 -4 4 -10 12 -8 12 -11 -3 -28 -9 -10 -17 -21 -17 -25 0
-8 107 58 163 100 23 17 45 32 49 32 4 1 -6 -28 -23 -64z m-710 36 c25 -16
-139 -59 -549 -141 -140 -28 -276 -57 -301 -64 -127 -38 -219 -114 -282 -234
-36 -68 -176 -481 -252 -742 -49 -169 -53 -177 -82 -185 -14 -3 -27 -5 -28 -3
-7 8 252 798 287 878 99 221 193 284 528 350 188 38 263 54 495 106 44 10 90
18 103 17 12 0 22 3 22 7 0 7 13 13 40 19 3 0 11 -3 19 -8z m-2169 -311 c0
-13 -77 -49 -103 -50 -34 0 -11 24 39 41 62 21 64 21 64 9z m1910 -4 c0 -3
-15 -14 -32 -26 l-33 -22 28 26 c27 25 37 31 37 22z m-70 -26 c-14 -11 -29
-20 -35 -20 -5 0 4 9 20 20 38 25 48 25 15 0z m-38 -35 c10 -4 -15 -36 -78
-100 -50 -52 -94 -95 -97 -95 -14 0 16 54 44 81 18 17 28 33 23 40 -4 8 -3 9
5 5 7 -4 26 5 47 23 19 17 40 31 47 31 7 0 6 4 -3 10 -16 11 -10 13 12 5z
m-4870 -137 c144 -77 255 -142 332 -195 95 -65 23 -30 -189 92 -49 29 -116 64
-147 80 -64 30 -160 95 -141 95 6 0 72 -32 145 -72z m4708 17 c-7 -9 -15 -13
-19 -10 -3 3 1 10 9 15 21 14 24 12 10 -5z m54 -411 c3 -8 2 -12 -4 -9 -6 3
-10 10 -10 16 0 14 7 11 14 -7z m-1885 -108 c2 -66 21 -124 61 -186 17 -26 30
-53 30 -60 0 -15 -24 10 -82 88 -22 28 -44 52 -49 52 -15 0 -29 -37 -29 -77
-1 -38 -1 -38 -15 -13 -41 71 6 250 65 250 14 0 17 -11 19 -54z m-107 -203
c22 -21 28 -36 28 -70 0 -41 -1 -43 -30 -43 -24 0 -33 6 -40 26 -16 40 -10
114 8 114 3 0 19 -12 34 -27z m-57 -145 c-7 -44 -44 -116 -45 -88 0 12 -3 11
-11 -3 -6 -10 -8 -25 -5 -33 4 -11 -4 -14 -35 -14 -37 0 -40 2 -34 23 4 12 16
38 28 57 48 83 62 100 85 100 22 0 23 -3 17 -42z m445 21 c0 -6 -4 -7 -10 -4
-5 3 -10 11 -10 16 0 6 5 7 10 4 6 -3 10 -11 10 -16z"/>
<path d="M9751 6024 c0 -11 3 -14 6 -6 3 7 2 16 -1 19 -3 4 -6 -2 -5 -13z"/>
<path d="M9761 5974 c0 -11 3 -14 6 -6 3 7 2 16 -1 19 -3 4 -6 -2 -5 -13z"/>
<path d="M9771 5924 c0 -11 3 -14 6 -6 3 7 2 16 -1 19 -3 4 -6 -2 -5 -13z"/>
<path d="M9782 5880 c0 -14 2 -19 5 -12 2 6 2 18 0 25 -3 6 -5 1 -5 -13z"/>
<path d="M9792 5820 c0 -14 2 -19 5 -12 2 6 2 18 0 25 -3 6 -5 1 -5 -13z"/>
<path d="M9802 5770 c0 -14 2 -19 5 -12 2 6 2 18 0 25 -3 6 -5 1 -5 -13z"/>
<path d="M9812 5720 c0 -14 2 -19 5 -12 2 6 2 18 0 25 -3 6 -5 1 -5 -13z"/>
<path d="M9822 5645 c0 -16 2 -22 5 -12 2 9 2 23 0 30 -3 6 -5 -1 -5 -18z"/>
<path d="M9833 5575 c0 -22 2 -30 4 -17 2 12 2 30 0 40 -3 9 -5 -1 -4 -23z"/>
<path d="M9845 5471 c3 -35 5 -93 5 -129 0 -36 3 -62 6 -59 9 9 4 150 -7 207
-7 40 -8 38 -4 -19z"/>
<path d="M7008 9003 c6 -2 18 -2 25 0 6 3 1 5 -13 5 -14 0 -19 -2 -12 -5z"/>
<path d="M8980 6971 c0 -6 4 -13 10 -16 6 -3 7 1 4 9 -7 18 -14 21 -14 7z"/>
<path d="M9021 6884 c0 -11 3 -14 6 -6 3 7 2 16 -1 19 -3 4 -6 -2 -5 -13z"/>
<path d="M1737 8074 c-8 -8 3 -34 15 -34 7 0 6 5 -1 13 -6 8 -8 17 -4 20 3 4
4 7 1 7 -2 0 -7 -3 -11 -6z"/>
<path d="M4814 6911 c-53 -66 -95 -187 -93 -276 l0 -50 20 80 c23 93 67 213
87 237 8 9 12 21 11 26 -2 5 -13 -3 -25 -17z"/>
<path d="M4786 6202 c29 -80 5 -143 -66 -172 -31 -13 -154 -9 -210 6 -21 6
-23 4 -12 -7 19 -20 15 -26 -18 -21 -49 7 -101 -8 -127 -36 l-26 -27 5 31 c4
32 4 32 -46 37 -28 3 -52 4 -54 2 -2 -1 4 -10 13 -19 9 -9 11 -16 5 -16 -17 0
-52 89 -48 121 6 41 -10 25 -18 -18 -10 -53 25 -114 90 -156 58 -38 130 -67
166 -67 13 0 37 -4 54 -9 106 -32 118 -34 169 -25 69 12 110 7 103 -12 -4 -11
-2 -12 12 -5 34 18 69 62 86 106 10 25 21 43 24 41 4 -2 8 24 10 58 2 46 -2
73 -18 106 -14 31 -18 36 -13 15 15 -62 7 -115 -23 -146 -33 -34 -41 -36 -49
-9 -6 18 -9 17 -56 -13 -144 -93 -152 -97 -199 -96 l-45 1 40 11 c22 7 72 31
110 53 39 23 86 49 105 59 80 40 92 74 60 170 -12 36 -25 67 -30 70 -4 2 -2
-12 6 -33z"/>
<path d="M3770 5848 c-56 -39 -69 -56 -70 -87 0 -19 4 -22 24 -17 16 4 28 0
37 -11 35 -41 295 -224 385 -270 153 -78 188 -87 318 -80 61 3 118 8 127 12
10 4 27 -3 45 -18 l28 -24 -54 -52 c-29 -28 -65 -55 -79 -59 -14 -4 -69 -7
-121 -6 -96 1 -203 27 -241 60 -8 8 -20 14 -26 14 -15 0 -213 195 -213 209 0
6 -6 11 -12 11 -7 0 -23 17 -35 38 -12 20 -22 30 -23 21 0 -21 59 -118 121
-195 59 -74 115 -122 190 -164 30 -16 52 -30 49 -31 -3 0 -14 -2 -24 -4 -11
-2 -29 1 -40 7 -18 10 -19 9 -8 -4 7 -8 40 -28 75 -44 59 -27 69 -29 198 -29
133 0 136 1 184 30 55 34 74 62 31 45 -14 -5 -26 -8 -26 -6 0 1 27 22 61 47
75 54 111 103 187 251 75 146 92 170 109 164 14 -6 63 35 63 51 0 4 -12 16
-26 27 -26 18 -26 18 -53 -12 -16 -16 -42 -37 -59 -46 -30 -15 -38 -15 -116 1
-82 17 -85 17 -168 -5 -66 -16 -94 -19 -119 -12 -29 9 -36 7 -49 -10 -14 -19
-20 -20 -68 -10 -29 7 -52 17 -52 24 0 16 -66 37 -88 29 -9 -4 -13 -2 -9 4 8
12 -45 23 -118 23 -27 0 -81 7 -119 15 -69 15 -196 67 -196 81 0 5 12 21 27
36 36 38 10 36 -47 -4z m299 -238 c187 -52 332 -74 493 -75 155 0 157 0 144
-20 -6 -11 -39 -33 -71 -49 -71 -35 -192 -45 -301 -27 -99 17 -293 119 -354
186 l-25 28 24 -13 c13 -6 53 -20 90 -30z"/>
<path d="M4278 5703 c7 -3 16 -2 19 1 4 3 -2 6 -13 5 -11 0 -14 -3 -6 -6z"/>
<path d="M3451 7864 c0 -11 3 -14 6 -6 3 7 2 16 -1 19 -3 4 -6 -2 -5 -13z"/>
<path d="M3395 7719 c-4 -6 -5 -12 -2 -15 2 -3 7 2 10 11 7 17 1 20 -8 4z"/>
<path d="M6395 6420 c-12 -4 -27 -16 -35 -25 -14 -16 -13 -17 8 -11 13 4 53
11 90 16 55 6 59 8 24 9 -26 0 -41 5 -37 11 7 12 -22 12 -50 0z"/>
<path d="M8096 6375 c-11 -8 -17 -17 -14 -20 2 -3 13 4 23 15 21 23 18 25 -9
5z"/>
<path d="M6408 6323 c7 -3 16 -2 19 1 4 3 -2 6 -13 5 -11 0 -14 -3 -6 -6z"/>
<path d="M6355 6310 c-3 -5 1 -10 9 -10 8 0 18 5 21 10 3 6 -1 10 -9 10 -8 0
-18 -4 -21 -10z"/>
<path d="M7918 6255 c-32 -25 -64 -58 -73 -75 -9 -16 -14 -30 -13 -30 5 0 152
150 147 150 -2 0 -30 -20 -61 -45z"/>
<path d="M8380 6280 c14 -4 39 -8 55 -9 17 -1 45 -10 63 -21 40 -25 45 -25 33
-2 -12 23 -75 42 -132 41 -37 -1 -40 -2 -19 -9z"/>
<path d="M6313 6203 c9 -2 23 -2 30 0 6 3 -1 5 -18 5 -16 0 -22 -2 -12 -5z"/>
<path d="M8432 6010 c-18 -4 -36 -11 -40 -15 -7 -7 55 0 133 15 l40 8 -50 0
c-27 0 -65 -4 -83 -8z"/>
<path d="M7822 5626 c-121 -40 -192 -150 -241 -379 -11 -52 -23 -101 -27 -111
-6 -15 -2 -14 28 4 32 19 49 20 204 18 144 -2 175 1 209 16 65 29 119 80 153
144 l32 59 51 0 c27 0 55 5 62 12 6 6 21 11 33 11 45 0 32 17 -24 33 -44 12
-76 32 -142 88 -47 39 -105 80 -129 91 -57 26 -153 32 -209 14z m38 -141 c29
-35 -22 -84 -73 -71 -32 8 -36 39 -10 68 19 22 66 24 83 3z m129 1 c9 -11 8
-18 -4 -30 -21 -21 -41 -20 -49 0 -13 34 30 58 53 30z m102 -78 c14 -55 3 -94
-42 -143 -57 -61 -126 -89 -209 -83 -36 3 -80 13 -98 22 -41 21 -72 70 -72
115 l0 33 33 -48 c87 -131 253 -122 325 17 19 36 23 55 19 102 -5 57 -5 58 14
41 10 -9 24 -35 30 -56z m-391 -208 c8 -5 11 -10 5 -10 -5 0 -17 5 -25 10 -8
5 -10 10 -5 10 6 0 17 -5 25 -10z"/>
<path d="M9483 5063 c9 -2 25 -2 35 0 9 3 1 5 -18 5 -19 0 -27 -2 -17 -5z"/>
<path d="M6308 4933 c-21 -5 -23 -19 -6 -29 19 -12 338 -11 338 1 0 20 -275
43 -332 28z"/>
<path d="M6720 4897 c-22 -9 -23 -11 -6 -14 10 -3 23 0 29 6 16 16 5 20 -23 8z"/>
<path d="M6353 4872 c-28 -6 -30 -9 -19 -24 7 -9 24 -20 39 -23 15 -4 25 -10
22 -15 -2 -4 39 3 93 16 53 13 113 24 132 24 27 0 31 3 19 10 -20 12 -243 21
-286 12z"/>
<path d="M6687 4846 c-4 -9 -1 -18 5 -22 6 -4 7 -9 0 -13 -6 -4 -4 -20 5 -43
16 -41 39 -48 81 -25 21 12 21 14 7 32 -16 19 -16 19 -10 -5 5 -22 4 -22 -11
5 -9 17 -20 32 -23 35 -3 3 -6 14 -6 25 0 24 -40 33 -48 11z"/>
<path d="M8020 4832 c0 -13 12 -16 110 -32 70 -12 139 -30 238 -62 l63 -20 34
24 c19 12 35 26 35 30 0 9 -87 34 -165 47 -101 17 -315 25 -315 13z"/>
<path d="M8517 4730 l-27 -41 42 -19 c27 -12 46 -15 54 -9 13 11 49 88 43 93
-2 2 -22 6 -44 10 -38 6 -41 4 -68 -34z"/>
<path d="M7216 4662 c-3 -5 -23 -14 -45 -22 -23 -7 -38 -17 -34 -23 4 -6 0 -8
-10 -4 -9 3 -19 2 -22 -3 -18 -29 88 12 114 44 8 9 11 16 8 16 -3 0 -8 -4 -11
-8z"/>
<path d="M7803 4653 c4 -3 -1 -12 -11 -19 -16 -13 -15 -16 11 -39 l28 -25 35
26 c19 15 34 28 34 30 0 2 -16 11 -36 19 -37 15 -73 20 -61 8z"/>
<path d="M6454 4634 c-18 -14 -18 -14 6 -3 31 14 36 19 24 19 -6 0 -19 -7 -30
-16z"/>
<path d="M6450 4603 c-95 -47 -104 -55 -86 -65 16 -9 16 -11 -1 -23 -10 -7
-15 -16 -11 -20 13 -13 81 21 129 65 43 40 47 46 32 55 -14 8 -29 5 -63 -12z"/>
<path d="M8482 4201 c18 -22 34 -38 36 -36 6 5 -52 75 -61 75 -5 0 7 -18 25
-39z"/>
<path d="M5993 3633 c-46 -26 -83 -50 -83 -53 0 -13 105 3 127 19 20 15 53 62
53 75 0 12 -16 5 -97 -41z"/>
<path d="M7415 6304 c-29 -15 -45 -31 -45 -46 0 -17 22 -6 58 27 40 37 35 44
-13 19z"/>
<path d="M7515 6289 c-11 -17 1 -21 15 -4 8 9 8 15 2 15 -6 0 -14 -5 -17 -11z"/>
<path d="M7320 6260 c0 -11 2 -20 4 -20 2 0 6 9 9 20 3 11 1 20 -4 20 -5 0 -9
-9 -9 -20z"/>
<path d="M7786 6225 c-9 -14 -12 -25 -7 -25 12 0 35 39 28 46 -2 3 -12 -7 -21
-21z"/>
<path d="M7666 6145 c-9 -14 -12 -25 -7 -25 12 0 35 39 28 46 -2 3 -12 -7 -21
-21z"/>
<path d="M7091 6055 c0 -34 5 -67 13 -77 11 -15 12 -8 8 40 -7 85 -21 110 -21
37z"/>
<path d="M7063 6000 c0 -25 2 -35 4 -22 2 12 2 32 0 45 -2 12 -4 2 -4 -23z"/>
<path d="M5968 4863 c6 -2 18 -2 25 0 6 3 1 5 -13 5 -14 0 -19 -2 -12 -5z"/>
<path d="M9846 4785 c-19 -459 -155 -1075 -336 -1530 -84 -212 -257 -532 -415
-770 -214 -322 -372 -518 -636 -785 -168 -170 -427 -377 -694 -555 -246 -164
-392 -247 -594 -341 -488 -225 -902 -350 -1406 -423 -278 -40 -364 -46 -725
-46 -309 0 -380 3 -550 23 -606 72 -1104 219 -1640 483 -398 196 -635 348
-980 628 -144 117 -452 428 -585 590 -61 74 -126 153 -147 177 -20 24 -64 82
-98 129 -34 47 -65 85 -67 85 -8 0 19 -39 141 -205 190 -259 300 -388 497
-580 175 -171 285 -266 444 -385 255 -191 450 -312 724 -450 464 -232 898
-379 1371 -464 346 -62 606 -81 1000 -73 419 9 648 37 1045 128 644 149 1240
421 1745 798 360 268 509 405 827 761 54 60 290 389 374 520 275 433 402 716
543 1215 87 307 163 770 173 1052 3 95 4 173 1 173 -3 0 -8 -70 -12 -155z"/>
<path d="M750 2810 c6 -11 13 -20 16 -20 2 0 0 9 -6 20 -6 11 -13 20 -16 20
-2 0 0 -9 6 -20z"/>
<path d="M940 2490 c12 -16 24 -30 26 -30 3 0 -4 14 -16 30 -12 17 -24 30 -26
30 -3 0 4 -13 16 -30z"/>
<path d="M8807 3288 c-9 -31 -2 -33 11 -3 6 14 8 25 3 25 -5 0 -11 -10 -14
-22z"/>
<path d="M7656 2991 c-11 -12 -23 -21 -28 -21 -5 0 -24 -11 -41 -24 -18 -14
-63 -39 -100 -56 -37 -18 -70 -36 -73 -41 -3 -5 -10 -7 -15 -4 -5 4 -9 -1 -9
-9 0 -33 90 -37 150 -6 33 17 101 80 87 80 -12 0 22 58 39 68 9 5 15 15 13 21
-3 8 -11 6 -23 -8z"/>
<path d="M7295 3995 c25 -8 115 -11 115 -4 0 5 -28 9 -62 8 -35 0 -58 -2 -53
-4z"/>
<path d="M7278 3943 c7 -3 16 -2 19 1 4 3 -2 6 -13 5 -11 0 -14 -3 -6 -6z"/>
<path d="M7790 1600 c-6 -11 -8 -20 -6 -20 3 0 10 9 16 20 6 11 8 20 6 20 -3
0 -10 -9 -16 -20z"/>
<path d="M5748 10013 c6 -2 18 -2 25 0 6 3 1 5 -13 5 -14 0 -19 -2 -12 -5z"/>
<path d="M5794 10008 c-3 -4 11 -8 30 -8 20 0 36 2 36 4 0 8 -61 12 -66 4z"/>
<path d="M5880 9990 c0 -5 11 -10 25 -10 14 0 25 5 25 10 0 6 -11 10 -25 10
-14 0 -25 -4 -25 -10z"/>
<path d="M4075 9980 c-3 -6 1 -7 9 -4 18 7 21 14 7 14 -6 0 -13 -4 -16 -10z"/>
<path d="M6200 9930 c0 -5 5 -10 10 -10 6 0 10 5 10 10 0 6 -4 10 -10 10 -5 0
-10 -4 -10 -10z"/>
<path d="M6320 9894 c0 -8 5 -12 10 -9 6 4 8 11 5 16 -9 14 -15 11 -15 -7z"/>
<path d="M6398 9883 c7 -3 16 -2 19 1 4 3 -2 6 -13 5 -11 0 -14 -3 -6 -6z"/>
<path d="M3455 9820 c-3 -6 1 -7 9 -4 18 7 21 14 7 14 -6 0 -13 -4 -16 -10z"/>
<path d="M3420 9809 c0 -5 5 -7 10 -4 6 3 10 8 10 11 0 2 -4 4 -10 4 -5 0 -10
-5 -10 -11z"/>
<path d="M3310 9774 c-33 -13 -33 -14 -5 -8 17 3 34 10 40 15 11 11 8 11 -35
-7z"/>
<path d="M3220 9740 c-8 -5 -10 -10 -5 -10 6 0 17 5 25 10 8 5 11 10 5 10 -5
0 -17 -5 -25 -10z"/>
<path d="M3060 9675 c-14 -8 -20 -14 -14 -15 5 0 19 7 30 15 24 18 16 19 -16
0z"/>
<path d="M3000 9650 c-13 -8 -13 -10 2 -10 9 0 20 5 23 10 8 13 -5 13 -25 0z"/>
<path d="M7100 9630 c0 -6 9 -10 20 -10 11 0 20 -4 20 -10 0 -5 3 -9 8 -8 14
3 72 -28 65 -36 -4 -4 1 -4 11 0 14 5 17 4 12 -5 -4 -6 -4 -11 1 -10 14 4 63
-13 59 -20 -2 -3 8 -7 22 -8 17 -1 -9 17 -73 49 -125 62 -145 70 -145 58z"/>
<path d="M7366 9491 c8 -8 43 -8 38 0 -2 4 -13 7 -24 6 -10 -1 -17 -3 -14 -6z"/>
<path d="M7498 9373 c7 -3 16 -2 19 1 4 3 -2 6 -13 5 -11 0 -14 -3 -6 -6z"/>
<path d="M7875 9160 c-8 -13 5 -13 25 0 13 8 13 10 -2 10 -9 0 -20 -4 -23 -10z"/>
<path d="M8474 8641 c20 -22 26 -25 26 -13 0 4 -10 13 -22 21 -23 14 -23 14
-4 -8z"/>
<path d="M8860 8301 c53 -65 70 -78 70 -58 0 9 -9 19 -20 22 -11 4 -18 10 -15
15 3 5 -6 17 -20 28 -13 11 -22 22 -19 24 3 3 -4 8 -16 11 -16 4 -12 -4 20
-42z"/>
<path d="M9264 7765 c1 -8 13 -23 25 -32 22 -15 23 -15 13 4 -6 11 -18 25 -26
32 -12 10 -14 9 -12 -4z"/>
<path d="M9492 7379 c6 -16 12 -28 14 -26 5 5 -13 57 -20 57 -3 0 0 -14 6 -31z"/>
<path d="M9523 7301 c0 -11 5 -18 9 -15 4 3 5 11 1 19 -7 21 -12 19 -10 -4z"/>
<path d="M9580 7189 c0 -5 5 -7 10 -4 6 3 10 8 10 11 0 2 -4 4 -10 4 -5 0 -10
-5 -10 -11z"/>
<path d="M9601 7154 c0 -11 3 -14 6 -6 3 7 2 16 -1 19 -3 4 -6 -2 -5 -13z"/>
<path d="M9640 7060 c0 -5 5 -10 11 -10 5 0 7 5 4 10 -3 6 -8 10 -11 10 -2 0
-4 -4 -4 -10z"/>
<path d="M306 6785 c-9 -26 -7 -32 5 -12 6 10 9 21 6 23 -2 3 -7 -2 -11 -11z"/>
<path d="M9771 6755 c1 -19 18 -51 18 -35 0 8 -4 22 -9 30 -5 8 -9 11 -9 5z"/>
<path d="M277 6700 c-10 -29 -16 -55 -14 -57 7 -6 39 86 35 99 -2 6 -12 -13
-21 -42z"/>
<path d="M9807 6640 c8 -30 21 -34 15 -5 -2 14 -8 25 -12 25 -5 0 -6 -9 -3
-20z"/>
<path d="M231 6563 c-1 -6 -4 -20 -7 -30 -5 -17 -5 -17 6 0 6 10 9 23 6 30 -3
9 -5 9 -5 0z"/>
<path d="M206 6488 c-3 -13 -15 -54 -26 -92 -11 -38 -15 -65 -10 -60 11 11 53
164 47 171 -3 2 -7 -6 -11 -19z"/>
<path d="M9884 6376 c0 -13 4 -22 9 -19 4 2 7 -4 7 -13 0 -10 2 -15 5 -12 7 7
-6 68 -15 68 -4 0 -7 -11 -6 -24z"/>
<path d="M9982 5980 c0 -14 2 -19 5 -12 2 6 2 18 0 25 -3 6 -5 1 -5 -13z"/>
<path d="M51 5794 c-7 -37 -10 -68 -7 -71 4 -5 10 22 21 95 11 68 -2 48 -14
-24z"/>
<path d="M31 5664 c0 -11 3 -14 6 -6 3 7 2 16 -1 19 -3 4 -6 -2 -5 -13z"/>
<path d="M10062 5340 c0 -14 2 -19 5 -12 2 6 2 18 0 25 -3 6 -5 1 -5 -13z"/>
<path d="M10047 4974 c-4 -4 -7 -37 -6 -73 1 -48 3 -59 9 -41 7 22 8 20 9 -15
0 -29 -2 -36 -9 -25 -8 12 -10 11 -10 -7 0 -13 4 -23 9 -23 5 0 11 -10 13 -22
2 -13 6 13 7 57 2 44 4 95 5 114 1 32 -12 49 -27 35z"/>
<path d="M10022 4860 c0 -14 2 -19 5 -12 2 6 2 18 0 25 -3 6 -5 1 -5 -13z"/>
<path d="M3 4660 c0 -36 2 -50 4 -32 2 17 2 47 0 65 -2 17 -4 3 -4 -33z"/>
<path d="M10041 4614 c0 -11 3 -14 6 -6 3 7 2 16 -1 19 -3 4 -6 -2 -5 -13z"/>
<path d="M9981 4394 c0 -11 3 -14 6 -6 3 7 2 16 -1 19 -3 4 -6 -2 -5 -13z"/>
<path d="M10007 4374 c-3 -3 0 -15 6 -25 8 -13 9 -22 2 -27 -5 -4 -11 -22 -12
-41 -1 -19 -8 -38 -14 -42 -8 -4 -10 -22 -6 -48 3 -23 -1 -72 -9 -109 -15 -73
-17 -115 -4 -67 11 36 60 323 60 348 0 17 -11 23 -23 11z"/>
<path d="M9911 3784 c0 -11 3 -14 6 -6 3 7 2 16 -1 19 -3 4 -6 -2 -5 -13z"/>
<path d="M180 3685 c0 -5 5 -17 10 -25 5 -8 10 -10 10 -5 0 6 -5 17 -10 25 -5
8 -10 11 -10 5z"/>
<path d="M8334 1258 l-19 -23 23 19 c12 11 22 21 22 23 0 8 -8 2 -26 -19z"/>
<path d="M8206 1165 c-11 -8 -18 -17 -15 -19 2 -2 15 4 28 15 27 22 15 26 -13
4z"/>
<path d="M8146 1121 c-12 -5 -15 -10 -9 -14 6 -4 16 0 23 8 14 17 13 17 -14 6z"/>
<path d="M8055 1100 c-3 -5 -1 -10 4 -10 6 0 11 5 11 10 0 6 -2 10 -4 10 -3 0
-8 -4 -11 -10z"/>
<path d="M8046 1045 c-11 -8 -17 -17 -14 -20 2 -3 13 4 23 15 21 23 18 25 -9
5z"/>
<path d="M7960 990 c0 -13 11 -13 30 0 12 8 11 10 -7 10 -13 0 -23 -4 -23 -10z"/>
<path d="M7900 940 c-9 -6 -10 -10 -3 -10 6 0 15 5 18 10 8 12 4 12 -15 0z"/>
<path d="M2220 907 c0 -3 12 -12 26 -22 15 -9 23 -12 20 -6 -7 11 -46 35 -46
28z"/>
<path d="M7769 853 c-13 -15 -12 -15 9 -4 23 12 28 21 13 21 -5 0 -15 -7 -22
-17z"/>
<path d="M7626 770 c-130 -83 -131 -92 -3 -16 100 59 138 85 122 85 -5 0 -59
-31 -119 -69z"/>
<path d="M7375 630 c-3 -6 1 -7 9 -4 18 7 21 14 7 14 -6 0 -13 -4 -16 -10z"/>
<path d="M7318 604 c-39 -21 -35 -28 5 -8 37 19 44 24 31 24 -5 -1 -21 -8 -36
-16z"/>
<path d="M7245 568 c-11 -7 -36 -18 -55 -25 -21 -7 -27 -12 -15 -12 11 0 40
11 65 24 25 13 41 24 35 24 -5 0 -19 -5 -30 -11z"/>
<path d="M6962 448 c-24 -11 -42 -22 -39 -24 3 -3 25 3 49 14 23 11 50 22 58
25 10 4 9 5 -5 5 -11 0 -40 -9 -63 -20z"/>
<path d="M6875 413 c-18 -14 -18 -15 -2 -9 10 3 23 6 28 6 5 0 9 5 9 10 0 14
-12 12 -35 -7z"/>
<path d="M3300 376 c0 -2 7 -7 16 -10 8 -3 12 -2 9 4 -6 10 -25 14 -25 6z"/>
<path d="M6700 350 c-18 -12 -2 -12 25 0 13 6 15 9 5 9 -8 0 -22 -4 -30 -9z"/>
<path d="M6565 309 c-44 -16 -65 -26 -46 -23 45 8 171 53 146 52 -11 0 -56
-13 -100 -29z"/>
<path d="M3538 293 c7 -3 16 -2 19 1 4 3 -2 6 -13 5 -11 0 -14 -3 -6 -6z"/>
<path d="M3620 270 c8 -5 22 -10 30 -10 13 0 13 1 0 10 -8 5 -22 10 -30 10
-13 0 -13 -1 0 -10z"/>
<path d="M6445 270 c-13 -6 -15 -9 -5 -9 8 0 22 4 30 9 18 12 2 12 -25 0z"/>
<path d="M3670 262 c0 -6 9 -12 20 -15 11 -3 20 -3 20 -1 0 2 -9 8 -20 14 -11
6 -20 7 -20 2z"/>
<path d="M3750 236 c0 -2 13 -6 29 -8 17 -2 28 -1 25 4 -5 8 -54 12 -54 4z"/>
<path d="M3845 210 c27 -12 43 -12 25 0 -8 5 -22 9 -30 9 -10 0 -8 -3 5 -9z"/>
<path d="M3920 199 c0 -5 9 -9 20 -9 11 0 20 2 20 4 0 2 -9 6 -20 9 -11 3 -20
1 -20 -4z"/>
<path d="M3995 182 c6 -6 26 -13 45 -16 23 -5 30 -4 20 2 -23 14 -77 25 -65
14z"/>
<path d="M5845 148 c-150 -27 -566 -62 -660 -56 -11 0 -168 2 -350 2 -228 2
-310 -1 -265 -7 36 -5 229 -9 430 -10 324 -1 386 1 550 21 268 33 414 53 419
58 6 6 -75 1 -124 -8z"/>
<path d="M4173 143 c9 -2 25 -2 35 0 9 3 1 5 -18 5 -19 0 -27 -2 -17 -5z"/>
<path d="M4279 127 c5 -5 19 -7 32 -5 20 3 19 5 -9 9 -20 3 -29 2 -23 -4z"/>
<path d="M4353 113 c9 -2 25 -2 35 0 9 3 1 5 -18 5 -19 0 -27 -2 -17 -5z"/>
<path d="M4428 103 c6 -2 18 -2 25 0 6 3 1 5 -13 5 -14 0 -19 -2 -12 -5z"/>
</g>
</svg>
